<svg xmlns="http://www.w3.org/2000/svg" viewBox="0 0 48 48"><path fill="#FFF" d="M7.2 0h33.6C44.778 0 48 3.223 48 7.2v33.6c0 3.977-3.223 7.2-7.2 7.2H7.2A7.199 7.199 0 010 40.8V7.2C0 3.222 3.223 0 7.2 0zm0 0"/><path d="M38.238 34.238H9.762a2.4 2.4 0 01-2.403-2.398V16.16a2.4 2.4 0 012.403-2.398h28.476a2.4 2.4 0 012.403 2.398v15.68a2.4 2.4 0 01-2.403 2.398zM15.36 29.441V23.2l3.2 4 3.203-4v6.242h3.199V18.56h-3.2l-3.202 4-3.2-4H12.16V29.44zM36.801 24h-3.2v-5.441h-3.203V24H27.2L32 29.602zm0 0"/></svg>