<svg xmlns="http://www.w3.org/2000/svg" viewBox="0 0 48 48"><path fill="#C80A0A" d="M7.2 0h33.6C44.778 0 48 3.223 48 7.2v33.6c0 3.977-3.223 7.2-7.2 7.2H7.2A7.199 7.199 0 010 40.8V7.2C0 3.222 3.223 0 7.2 0zm0 0"/><path fill="#FFF" d="M38.719 28.313c-.844-.938-2.719-1.407-5.25-1.407-1.5 0-3.094.188-4.969.469a23.66 23.66 0 01-4.875-6.469c.938-2.812 1.594-5.531 1.594-7.593 0-1.594-.563-4.126-2.813-4.126-.656 0-1.218.376-1.593.938-.938 1.688-.563 5.438 1.218 9.375a84.016 84.016 0 01-4.687 10.969c-4.969 2.062-8.25 4.312-8.532 6.093-.187.844.376 2.25 2.344 2.25 2.906 0 6.094-4.218 8.531-8.53a58.56 58.56 0 018.625-2.25c3.563 3.093 6.657 3.562 8.157 3.562 3 0 3.281-2.157 2.25-3.282zM21.28 10.405c.75-1.125 2.438-.75 2.438 1.5 0 1.5-.469 3.938-1.407 6.75-1.687-3.937-1.687-7.031-1.03-8.25zM9.375 36.656c.281-1.5 3.094-3.562 7.5-5.343-2.438 4.125-4.875 6.75-6.375 6.75-.938 0-1.219-.844-1.125-1.407zm18.469-9.187a54.1 54.1 0 00-7.782 2.062 42.475 42.475 0 003.375-7.875 30.536 30.536 0 004.407 5.813zm1.218.375c3-.469 5.532-.375 6.657-.188 2.718.563 1.781 3.844-1.219 3.094-2.156-.469-3.938-1.688-5.438-2.906zm0 0"/></svg>