<svg xmlns="http://www.w3.org/2000/svg" viewBox="0 0 500 500">
  <g>
    <rect x="41.43" y="47.98" width="69.13" height="100.2" style="fill:#e0e0e0"></rect>
    <rect x="37.97" y="47.98" width="69.13" height="100.2" style="fill:#ebebeb"></rect>
    <rect x="46.56" y="58.84" width="51.95" height="78.49" style="fill:#fff"></rect>
    <path
      d="M98.51,137.33s0-.13,0-.38,0-.63,0-1.12c0-1,0-2.43,0-4.3,0-3.76,0-9.25,0-16.17,0-13.84,0-33.44-.08-56.52l.17.17H46.56l.18-.18c0,29.61,0,56.91,0,78.49l-.15-.15,37.81.08,10.45,0h2.74l1,0-.92,0H94.88l-10.42,0-37.9.08h-.15v-.15c0-21.58,0-48.88,0-78.49v-.19H98.68v.18c0,23.12-.06,42.76-.08,56.63,0,6.91,0,12.38,0,16.13,0,1.86,0,3.29,0,4.27,0,.48,0,.84,0,1.1S98.51,137.33,98.51,137.33Z"
      style="fill:#e0e0e0"></path>
    <path
      d="M107.29,48a12,12,0,0,1-1.23,1.79c-.81,1.08-1.94,2.54-3.25,4.12s-2.51,3-3.41,4a11.56,11.56,0,0,1-1.52,1.55,12.71,12.71,0,0,1,1.32-1.72c.92-1.13,2.06-2.51,3.32-4l3.33-4A13.16,13.16,0,0,1,107.29,48Z"
      style="fill:#e0e0e0"></path>
    <path d="M98.77,137.08a64.65,64.65,0,0,0,9.06,11.33" style="fill:#fff"></path>
    <path
      d="M107.83,148.41a10.85,10.85,0,0,1-1.58-1.44,50.57,50.57,0,0,1-6.42-8,11,11,0,0,1-1.06-1.85,14.82,14.82,0,0,1,1.28,1.7c.76,1.07,1.83,2.54,3.08,4.1s2.44,2.93,3.32,3.91A14.33,14.33,0,0,1,107.83,148.41Z"
      style="fill:#e0e0e0"></path>
    <path d="M38,148.1l9-11.17" style="fill:#fff"></path>
    <path
      d="M47,136.93a67.52,67.52,0,0,1-4.38,5.7A67.64,67.64,0,0,1,38,148.1a69.46,69.46,0,0,1,4.38-5.7A69.84,69.84,0,0,1,47,136.93Z"
      style="fill:#e0e0e0"></path>
    <path
      d="M38,48a62.92,62.92,0,0,1,4.39,5.26,62.13,62.13,0,0,1,4.1,5.48,59.82,59.82,0,0,1-4.39-5.25A61.34,61.34,0,0,1,38,48Z"
      style="fill:#e0e0e0"></path>
    <rect x="64.93" y="74.77" width="17.4" height="49.39" style="fill:#e0e0e0"></rect>
    <rect x="396.01" y="53.82" width="69.13" height="100.2" style="fill:#e0e0e0"></rect>
    <rect x="392.55" y="53.82" width="69.13" height="100.2" style="fill:#ebebeb"></rect>
    <rect x="401.14" y="64.67" width="51.95" height="78.49" style="fill:#fff"></rect>
    <path
      d="M453.09,143.17s0-.14,0-.39,0-.63,0-1.11c0-1,0-2.43,0-4.31,0-3.76,0-9.24-.05-16.17,0-13.84-.05-33.44-.08-56.52l.17.17-51.95,0h0l.19-.19c0,29.61,0,56.91,0,78.5l-.15-.15,37.81.07,10.45,0,2.74,0c.62,0,.95,0,.95,0h-.92l-2.71,0-10.41,0-37.91.08H401v-.15c0-21.59,0-48.89,0-78.5v-.19h.19l51.95,0h.17v.17c0,23.13-.06,42.77-.08,56.64,0,6.91,0,12.37-.05,16.13,0,1.86,0,3.29,0,4.27,0,.47,0,.84,0,1.09S453.09,143.17,453.09,143.17Z"
      style="fill:#e0e0e0"></path>
    <path
      d="M461.87,53.82a12,12,0,0,1-1.23,1.79c-.8,1.07-1.94,2.53-3.24,4.11s-2.52,3-3.42,4a12.4,12.4,0,0,1-1.52,1.55,12.35,12.35,0,0,1,1.32-1.73l3.33-4c1.26-1.53,2.4-2.91,3.32-4A13.5,13.5,0,0,1,461.87,53.82Z"
      style="fill:#e0e0e0"></path>
    <path d="M453.35,142.91a63.53,63.53,0,0,0,9.07,11.33" style="fill:#fff"></path>
    <path
      d="M462.42,154.24a9.33,9.33,0,0,1-1.58-1.43,51.42,51.42,0,0,1-3.42-3.86,49.34,49.34,0,0,1-3-4.18,10.35,10.35,0,0,1-1.06-1.86,13.26,13.26,0,0,1,1.28,1.71c.76,1.07,1.83,2.53,3.08,4.1s2.44,2.93,3.32,3.91A17.81,17.81,0,0,1,462.42,154.24Z"
      style="fill:#e0e0e0"></path>
    <path d="M392.54,153.94l9-11.17" style="fill:#fff"></path>
    <path
      d="M401.59,142.77a66.85,66.85,0,0,1-4.38,5.7,69.84,69.84,0,0,1-4.67,5.47,68.53,68.53,0,0,1,4.38-5.71A68.46,68.46,0,0,1,401.59,142.77Z"
      style="fill:#e0e0e0"></path>
    <path
      d="M392.55,53.82a61.7,61.7,0,0,1,4.39,5.25,64.58,64.58,0,0,1,4.11,5.49,62.54,62.54,0,0,1-4.4-5.25A63.06,63.06,0,0,1,392.55,53.82Z"
      style="fill:#e0e0e0"></path>
    <rect x="419.51" y="80.61" width="17.4" height="49.39" style="fill:#e0e0e0"></rect>
    <rect x="145.75" y="49.35" width="59.2" height="61.71" style="fill:#e0e0e0"></rect>
    <rect x="141.75" y="49.35" width="59.2" height="61.71" style="fill:#ebebeb"></rect>
    <path d="M201,111.08H141.73V49.33H201Zm-59.2,0h59.17V49.37H141.76Z" style="fill:#e0e0e0"></path>
    <rect x="149.7" y="57.65" width="43.28" height="45.12" style="fill:#fff"></rect>
    <path
      d="M149.7,103.07a6.6,6.6,0,0,1-1.06,1.24c-.7.73-1.67,1.71-2.76,2.79s-2.09,2-2.82,2.7a8.08,8.08,0,0,1-1.25,1,6.6,6.6,0,0,1,1.06-1.24c.69-.73,1.66-1.72,2.76-2.8s2.09-2,2.83-2.71A6.78,6.78,0,0,1,149.7,103.07Z"
      style="fill:#e0e0e0"></path>
    <path
      d="M193,103a7.55,7.55,0,0,1,1.24,1.07c.73.69,1.72,1.67,2.79,2.75s2,2.09,2.7,2.83a8.08,8.08,0,0,1,1.05,1.25,6.6,6.6,0,0,1-1.24-1.06c-.73-.69-1.72-1.66-2.79-2.76s-2-2.09-2.72-2.83A6.74,6.74,0,0,1,193,103Z"
      style="fill:#e0e0e0"></path>
    <path
      d="M192.87,57.77a6.79,6.79,0,0,1,1.07-1.25c.69-.72,1.66-1.71,2.75-2.78s2.09-2,2.83-2.71a6.25,6.25,0,0,1,1.25-1,7.64,7.64,0,0,1-1.07,1.23C199,52,198,52.94,197,54s-2.1,2-2.84,2.71A6.77,6.77,0,0,1,192.87,57.77Z"
      style="fill:#e0e0e0"></path>
    <path
      d="M149.58,57.88a7.55,7.55,0,0,1-1.24-1.07c-.73-.69-1.71-1.66-2.79-2.75s-2-2.09-2.7-2.83a6.6,6.6,0,0,1-1-1.25A7.2,7.2,0,0,1,143,51c.73.69,1.72,1.67,2.8,2.76s2,2.09,2.71,2.83A5.83,5.83,0,0,1,149.58,57.88Z"
      style="fill:#e0e0e0"></path>
    <path
      d="M192.87,102.77s0-.08,0-.22,0-.36,0-.63c0-.57,0-1.38,0-2.44,0-2.14,0-5.25,0-9.19,0-7.91,0-19.16-.09-32.64l.17.16-43.16,0h0l.2-.19c0,16.56,0,32.05,0,45.12l-.17-.17,31.26.09,8.78,0,2.32,0h0l-2.3,0-8.74,0-31.36.08h-.16v-.16c0-13.07,0-28.56,0-45.12v-.2h.2l43.16,0H193v.17c0,13.52-.07,24.81-.09,32.74,0,3.93,0,7,0,9.16,0,1,0,1.85,0,2.4,0,.26,0,.47,0,.62S192.87,102.77,192.87,102.77Z"
      style="fill:#e0e0e0"></path>
    <rect x="164.12" y="72.98" width="14.44" height="14.44" style="fill:#ebebeb"></rect>
    <path
      d="M28.56,406.09a22.72,22.72,0,0,0-9.79-3.37,6.52,6.52,0,0,0-4.64.85.94.94,0,0,0-.47.84,1,1,0,0,0,.45.58,14,14,0,0,0,14.45,1.1"
      style="fill:#e0e0e0"></path>
    <path d="M28.31,405.81A47.27,47.27,0,0,1,22,400.24a15.91,15.91,0,0,1-4-7.33,3,3,0,0,1,.31-2.46c5,3.94,9,9,10,15.36"
      style="fill:#e0e0e0"></path>
    <path
      d="M28.51,406.05a22.75,22.75,0,0,1,.12-8.31,11.2,11.2,0,0,1,4.42-6.85c.87,2,.5,4.38-.12,6.51a31.75,31.75,0,0,1-4.38,9.24"
      style="fill:#e0e0e0"></path>
    <path
      d="M33.45,414.91a14.41,14.41,0,0,0-7.85,4,14.87,14.87,0,0,0-4.5,7.71c2.95-.18,5.44-2.25,7.25-4.58s3.07-4.88,5.06-7.06"
      style="fill:#e0e0e0"></path>
    <path d="M34.52,416.32A19.38,19.38,0,0,1,36.76,398a23.31,23.31,0,0,1-2.24,18.32" style="fill:#e0e0e0"></path>
    <path
      d="M41.06,424.1a14,14,0,0,0-13.4,7.71c-.16.33-.31.75-.09,1.05a1,1,0,0,0,.89.26c2.64-.17,5-1.76,6.91-3.57s3.61-3.89,5.74-5.46"
      style="fill:#e0e0e0"></path>
    <path
      d="M40.85,423.68a25,25,0,0,1-.25-13.94c.49-1.79,1.31-3.68,3-4.52a.58.58,0,0,1,.46-.08.57.57,0,0,1,.28.33,8.4,8.4,0,0,1,.71,4,25.44,25.44,0,0,1-.63,4c-.52,2.47-.8,5.13-2.16,7.26a15.33,15.33,0,0,0-.86,1.6c-.26.54-.26.73-.49,1.16"
      style="fill:#e0e0e0"></path>
    <path d="M58.14,426.25a18,18,0,0,1,3.14-14.77c.23-.3.53-.61.9-.58.57.06.71.81.69,1.38a26.81,26.81,0,0,1-4.73,14"
      style="fill:#e0e0e0"></path>
    <path d="M59.69,427.32a21.51,21.51,0,0,0,17.64-3.59,14.28,14.28,0,0,0-9.55-1.17,13.64,13.64,0,0,0-8.09,4.76"
      style="fill:#e0e0e0"></path>
    <path
      d="M61,424.07a20.37,20.37,0,0,1,16-9.25,9.84,9.84,0,0,1-5.23,5.79,29.11,29.11,0,0,1-7.68,2.24c-1,.2-2.43.42-3.09,1.22"
      style="fill:#e0e0e0"></path>
    <path d="M58.47,408.33a46.52,46.52,0,0,0,2-9.37,15.62,15.62,0,0,0-1.86-9.27,20.41,20.41,0,0,0-.28,19"
      style="fill:#e0e0e0"></path>
    <path d="M68.89,403.06c3.62-6.58,11-11.84,18.49-12.57-2.89,7.18-10.75,12.73-18.49,12.57" style="fill:#e0e0e0">
    </path>
    <path
      d="M66.61,404.35c5.4.82,10,4.27,15,6.37a6.85,6.85,0,0,0,3.4.65,2.66,2.66,0,0,0,1.67-4.71,7.1,7.1,0,0,0-2.47-1.5,27.43,27.43,0,0,0-17.18-1"
      style="fill:#e0e0e0"></path>
    <path
      d="M63.49,408.14c1.22.35,1.64,1,2.61,1.81a28.05,28.05,0,0,0,11.41,5.86c.43.11,1,.15,1.22-.24s0-.76-.29-1.07a15.8,15.8,0,0,0-6.89-4.68c-2.64-1-4.92-2.16-8.06-1.91"
      style="fill:#e0e0e0"></path>
    <path
      d="M60,385.26a21.6,21.6,0,0,0,16.56,5.64,1.1,1.1,0,0,0,.75-.28c.42-.45-.08-1.15-.57-1.53A19.07,19.07,0,0,0,60,385.26"
      style="fill:#e0e0e0"></path>
    <path d="M64.14,383.73a23.11,23.11,0,0,1,20.66-3.41A16.31,16.31,0,0,1,75,384.64a31.11,31.11,0,0,1-10.82-.91"
      style="fill:#e0e0e0"></path>
    <path d="M62.48,373.22c-.48-4.86-.17-8.7-.5-13.58,0-.39-.12-.86-.48-1s-.93.43-1.1.95a15.57,15.57,0,0,0,2.07,13.52"
      style="fill:#e0e0e0"></path>
    <path
      d="M62.13,373.76a28.71,28.71,0,0,0,8.05-7.83c1.59-2.17,2.93-4.78,2.57-7.45a7.75,7.75,0,0,0-5.81,2.88,16.35,16.35,0,0,0-3,6c-.64,2.14-1.09,4.33-1.85,6.44"
      style="fill:#e0e0e0"></path>
    <path d="M70,371.56a64.88,64.88,0,0,0,19.81-11.68c-2.37-1-5.08-.38-7.44.57a23.41,23.41,0,0,0-12.47,11.06"
      style="fill:#e0e0e0"></path>
    <path
      d="M64.35,376.41a40.53,40.53,0,0,0,11,.06,46.91,46.91,0,0,0,10.27-3.41,1.23,1.23,0,0,0,.7-.53.81.81,0,0,0-.25-.88,2,2,0,0,0-.88-.41,19,19,0,0,0-11.09.66,51.61,51.61,0,0,0-9.75,4.51"
      style="fill:#e0e0e0"></path>
    <path d="M43.47,385.43a19.47,19.47,0,0,1-.17-16.11c1.51,2.32,1.7,5.26,1.42,8s-1.11,5.58-1.17,8.35"
      style="fill:#e0e0e0"></path>
    <path d="M33.51,380.4a22.47,22.47,0,0,0-16.69,7.11A15.59,15.59,0,0,0,26,385.82a46,46,0,0,0,7.83-5.25"
      style="fill:#e0e0e0"></path>
    <path
      d="M26.81,378.16c-3-.25-6-.62-8.91.27a10.69,10.69,0,0,0-6.79,5.76,16,16,0,0,0,8.35-1.58,47.93,47.93,0,0,0,7.35-4.45"
      style="fill:#e0e0e0"></path>
    <path d="M36.73,378.26c-2.74-1.79-5.56-3.62-8.75-4.37s-6.89-.19-9.12,2.21c2.59,1.52,5.72,1.7,8.72,1.7s6.67,0,9.49,1"
      style="fill:#e0e0e0"></path>
    <path d="M36.74,378.41c-4.68-4.6-6.46-12.87-4.57-19.16a29.17,29.17,0,0,1,4.57,19.16" style="fill:#e0e0e0"></path>
    <path
      d="M49.63,365.37c.89-2.06,1.51-4.21,2.3-6.3a17.94,17.94,0,0,1,3.28-5.81,8.57,8.57,0,0,1,5.8-3A23.36,23.36,0,0,1,49.75,365.4"
      style="fill:#e0e0e0"></path>
    <path d="M47.3,368.09c-1.46-2-3.15-4.75-5.14-6.25a8.54,8.54,0,0,0-7-1.84,16.3,16.3,0,0,0,12.12,8.09"
      style="fill:#e0e0e0"></path>
    <path d="M47.77,365.54a34.91,34.91,0,0,1-2.32-7.49,11.67,11.67,0,0,1,1.18-7.61c2.57,4.86,3.4,10.08,1.27,15.15"
      style="fill:#e0e0e0"></path>
    <path
      d="M49.66,350.44c1.45-4.82,5.87-8.37,10.63-10a3.89,3.89,0,0,1,1.87-.28,1.6,1.6,0,0,1,1.37,1.15c.18.82-.5,1.55-1.14,2.09a36.11,36.11,0,0,1-12.73,7"
      style="fill:#e0e0e0"></path>
    <path
      d="M49.71,346.49a34.33,34.33,0,0,1,1.39-9.2,11.64,11.64,0,0,1,5.79-7c.48,3.14-.9,6.26-2.57,9s-3.69,5.26-4.69,8.27"
      style="fill:#e0e0e0"></path>
    <path
      d="M49.63,348.63c-1.2-3.51-1.33-8-3.43-11-1.47-2.14-3.83-3.6-5.09-5.87a8.89,8.89,0,0,0,.29,6.66A19.35,19.35,0,0,0,45.29,344c1.56,1.66,2.89,2.91,4.34,4.67"
      style="fill:#e0e0e0"></path>
    <path d="M49.66,452.09c-.1,0-.18-23.43-.19-52.34s.07-52.34.16-52.34.18,23.43.18,52.34S49.75,452.09,49.66,452.09Z"
      style="fill:#e0e0e0"></path>
    <path
      d="M70.14,381.89a5.51,5.51,0,0,1-.89.33l-2.42.82c-2,.7-4.85,1.71-7.9,2.95s-5.87,2.35-7.49,3.76a5.43,5.43,0,0,0-1.5,2c-.24.55-.28.88-.31.88a.7.7,0,0,1,0-.25,4.4,4.4,0,0,1,.17-.68,5.28,5.28,0,0,1,1.47-2.12,13.13,13.13,0,0,1,3.25-2c1.3-.61,2.74-1.24,4.27-1.87,3.06-1.25,5.89-2.23,8-2.87,1-.32,1.87-.56,2.46-.71A4.75,4.75,0,0,1,70.14,381.89Z"
      style="fill:#e0e0e0"></path>
    <path
      d="M76.85,365.4s-.08.1-.25.27l-.75.7L73,368.92l-9.34,8.32c-3.65,3.25-6.8,6.35-9,8.69-1.09,1.16-2,2.13-2.54,2.8l-.68.78a2,2,0,0,1-.25.26,1.34,1.34,0,0,1,.2-.3c.14-.19.35-.47.63-.82.56-.7,1.39-1.69,2.47-2.88A116.27,116.27,0,0,1,63.47,377c3.66-3.24,7-6.15,9.41-8.25,1.19-1,2.17-1.85,2.88-2.47l.8-.66A1.53,1.53,0,0,1,76.85,365.4Z"
      style="fill:#e0e0e0"></path>
    <path
      d="M59.76,380.54c-.1,0,.67-1.8,1.43-4s1.12-4.11,1.22-4.09a13.87,13.87,0,0,1-.9,4.2,29.67,29.67,0,0,1-1.14,2.81A4.38,4.38,0,0,1,59.76,380.54Z"
      style="fill:#e0e0e0"></path>
    <path
      d="M49.68,394.73a4.6,4.6,0,0,1-.57-.65l-1.44-1.85c-1.21-1.56-2.88-3.72-4.75-6.08s-3.6-4.48-4.85-6l-1.47-1.82a6,6,0,0,1-.51-.69,3.39,3.39,0,0,1,.61.61c.38.4.91,1,1.56,1.75,1.29,1.49,3.05,3.59,4.92,6s3.52,4.54,4.69,6.15c.58.8,1,1.45,1.35,1.91A4.85,4.85,0,0,1,49.68,394.73Z"
      style="fill:#e0e0e0"></path>
    <path
      d="M45.19,389a8.16,8.16,0,0,1-1.89-3.52,10,10,0,0,1-.42-3.55H43c-.07.27-.12.42-.15.41a1.19,1.19,0,0,1,0-.43H43a16,16,0,0,0,.6,3.46A25.78,25.78,0,0,0,45.19,389Z"
      style="fill:#e0e0e0"></path>
    <path
      d="M39.39,381.67a6.29,6.29,0,0,0-1.32-.76,8.63,8.63,0,0,0-3.64-.29,21.49,21.49,0,0,0-3.67.59,10.28,10.28,0,0,1-1.52.36,5.46,5.46,0,0,1,1.45-.59,16.92,16.92,0,0,1,3.71-.7,7.87,7.87,0,0,1,3.76.41A2.32,2.32,0,0,1,39.39,381.67Z"
      style="fill:#e0e0e0"></path>
    <path
      d="M38,379.9c0,.06-.76-.3-2-.73a20.3,20.3,0,0,0-10.14-.77c-1.3.23-2.08.47-2.1.42s.18-.1.53-.23a13.08,13.08,0,0,1,1.52-.43,18,18,0,0,1,5.2-.36A17.63,17.63,0,0,1,36.08,379a11.88,11.88,0,0,1,1.44.65A2.05,2.05,0,0,1,38,379.9Z"
      style="fill:#e0e0e0"></path>
    <path d="M49.63,372.43A82.91,82.91,0,0,1,47,362.15a39.73,39.73,0,0,1,1.47,5.1A42.06,42.06,0,0,1,49.63,372.43Z"
      style="fill:#e0e0e0"></path>
    <path
      d="M49.72,372.43a24.2,24.2,0,0,0-1.62-3.05,13.7,13.7,0,0,0-2.4-2.47,2.14,2.14,0,0,1,.93.47,7.72,7.72,0,0,1,1.75,1.8A6.67,6.67,0,0,1,49.72,372.43Z"
      style="fill:#e0e0e0"></path>
    <path
      d="M49.66,439.6s-.11-.56-.37-1.56A23.68,23.68,0,0,0,47.72,434a56.5,56.5,0,0,0-8.31-11.7c-1.86-2.12-3.66-4.12-5.18-6a42.6,42.6,0,0,1-3.71-5.34,25.52,25.52,0,0,1-1.87-4c-.17-.49-.3-.87-.37-1.13a1.88,1.88,0,0,1-.09-.41s.2.54.58,1.5a29.9,29.9,0,0,0,2,3.89,44.76,44.76,0,0,0,3.74,5.27c1.53,1.89,3.34,3.88,5.19,6a53.19,53.19,0,0,1,8.28,11.82A20.17,20.17,0,0,1,49.41,438c.11.51.18.9.21,1.18A3.14,3.14,0,0,1,49.66,439.6Z"
      style="fill:#e0e0e0"></path>
    <path
      d="M68.16,418.7a10,10,0,0,1-1,.54,21.93,21.93,0,0,0-2.51,1.66,28.92,28.92,0,0,0-3.31,3c-1.16,1.22-2.35,2.65-3.57,4.17-2.44,3.06-4.72,5.77-6.08,7.93-.7,1.07-1.2,2-1.53,2.6a6.33,6.33,0,0,1-.54,1,1.64,1.64,0,0,1,.09-.27c.08-.18.18-.44.33-.76a24.76,24.76,0,0,1,1.44-2.68,88.51,88.51,0,0,1,6-8c1.23-1.53,2.44-2.95,3.62-4.18a26.88,26.88,0,0,1,3.38-3,18.24,18.24,0,0,1,2.6-1.59c.32-.16.58-.26.76-.33A.93.93,0,0,1,68.16,418.7Z"
      style="fill:#e0e0e0"></path>
    <path
      d="M68.52,425.48a14.69,14.69,0,0,1-2,.3,27,27,0,0,0-4.86,1A14.59,14.59,0,0,0,57.26,429c-1,.77-1.48,1.42-1.52,1.38s.08-.19.3-.47a8,8,0,0,1,1.07-1.1,13.19,13.19,0,0,1,4.4-2.42,21.54,21.54,0,0,1,4.94-.87A10.92,10.92,0,0,1,68.52,425.48Z"
      style="fill:#e0e0e0"></path>
    <path
      d="M56.33,429.65c-.1-.06.82-1.47,1.54-3.37s.83-3.59,1-3.57a3.35,3.35,0,0,1,0,1.1,12.14,12.14,0,0,1-.59,2.59A13.09,13.09,0,0,1,57,428.78C56.63,429.35,56.37,429.68,56.33,429.65Z"
      style="fill:#e0e0e0"></path>
    <path
      d="M74.16,400.49l-.33.18-1,.43c-.42.18-.93.41-1.51.72s-1.25.6-2,1l-1.11.63c-.39.23-.78.49-1.18.75-.83.5-1.65,1.11-2.54,1.74a43.78,43.78,0,0,0-9.75,10.09c-.6.91-1.18,1.75-1.66,2.59-.24.42-.49.81-.7,1.21l-.6,1.14c-.39.72-.68,1.4-1,2s-.49,1.11-.66,1.53-.3.72-.4,1a1.65,1.65,0,0,1-.17.34,2,2,0,0,1,.1-.36c.09-.27.21-.6.35-1s.34-1,.61-1.57.53-1.29.92-2l.58-1.16c.21-.4.45-.8.69-1.22.47-.85,1.05-1.71,1.65-2.62A45.44,45.44,0,0,1,59,410.38a47.09,47.09,0,0,1,5.35-4.66c.89-.63,1.73-1.24,2.57-1.73.41-.25.8-.51,1.19-.73l1.14-.62c.71-.41,1.4-.71,2-1s1.11-.5,1.54-.67l1-.38A1.69,1.69,0,0,1,74.16,400.49Z"
      style="fill:#e0e0e0"></path>
    <path
      d="M59.51,410.3a2.33,2.33,0,0,1,.8-1.19,5.08,5.08,0,0,1,3.25-1.25,8.68,8.68,0,0,1,3.41.67,5.49,5.49,0,0,1,1.3.62,6.73,6.73,0,0,1-1.37-.4,10.4,10.4,0,0,0-3.33-.55,5.25,5.25,0,0,0-3.1,1.09A10.31,10.31,0,0,0,59.51,410.3Z"
      style="fill:#e0e0e0"></path>
    <path
      d="M57.32,412.56a12.11,12.11,0,0,0,.92-3,11.76,11.76,0,0,0-.21-3.13s.23.3.38.87a6,6,0,0,1,.17,2.29,6.07,6.07,0,0,1-.69,2.2C57.6,412.32,57.35,412.59,57.32,412.56Z"
      style="fill:#e0e0e0"></path>
    <path d="M33.47,443c.5,9,3.2,18.06,7.35,27.27H58.88c4-9.11,6.47-18.21,6.91-27.27Z" style="fill:#e0e0e0"></path>
    <path d="M62.87,457.45c0,.1-5.95.17-13.28.17s-13.27-.07-13.27-.17,5.94-.17,13.27-.17S62.87,457.36,62.87,457.45Z"
      style="fill:#fafafa"></path>
    <path d="M62.47,460.7c0,.09-5.58.17-12.45.17s-12.44-.08-12.44-.17,5.57-.17,12.44-.17S62.47,460.6,62.47,460.7Z"
      style="fill:#fafafa"></path>
    <path d="M41.11,448.84a51,51,0,0,1,0,8.32,54.16,54.16,0,0,1,0-8.32Z" style="fill:#fafafa"></path>
    <path d="M50.79,448.84a54.59,54.59,0,0,1,0,8.61,54.59,54.59,0,0,1,0-8.61Z" style="fill:#fafafa"></path>
    <path d="M59.87,448.77a56.77,56.77,0,0,1,0,8.78,56.77,56.77,0,0,1,0-8.78Z" style="fill:#fafafa"></path>
    <path d="M65.22,448.84c0,.09-7,.17-15.57.17s-15.57-.08-15.57-.17,7-.17,15.57-.17S65.22,448.75,65.22,448.84Z"
      style="fill:#fafafa"></path>
    <path d="M337.58,62l5.92-.68a19.1,19.1,0,1,0-3.82-5.65h0Z" style="fill:#fff"></path>
    <path
      d="M337.58,62l.15-.42c.09-.28.23-.69.41-1.22l1.58-4.68-.1,0h0a.05.05,0,0,0,.08,0,.06.06,0,0,0,0-.07,19,19,0,0,1-1.52-9.24,17.78,17.78,0,0,1,.48-2.89,22.15,22.15,0,0,1,1-3,18.89,18.89,0,0,1,36.08,5,19.44,19.44,0,0,1-.89,8.65,18.64,18.64,0,0,1-4.32,7,18.92,18.92,0,0,1-13,5.71h-.81a7,7,0,0,1-.79,0l-1.55-.14a24.33,24.33,0,0,1-2.88-.64,19,19,0,0,1-8-4.8,0,0,0,0,0,0,0l-4.39.54L338,62l-.39.06.37,0,1.13-.12,4.43-.47-.05,0a18.86,18.86,0,0,0,8,4.9,27,27,0,0,0,2.91.66l1.57.15a7,7,0,0,0,.8,0h.82a19.12,19.12,0,0,0,13.18-5.74,18.92,18.92,0,0,0,4.38-7,19.5,19.5,0,0,0,.91-8.76,19.12,19.12,0,0,0-3.35-8.6A10.6,10.6,0,0,0,372,36l-.74-.89-.81-.82a7.57,7.57,0,0,0-.83-.77l-.88-.73c-.29-.25-.62-.43-.92-.65s-.62-.43-.95-.62l-1-.53a18.88,18.88,0,0,0-8.36-2.15,19.15,19.15,0,0,0-14.21,5.86,19.17,19.17,0,0,0-3.8,5.74,22.52,22.52,0,0,0-1,3,19.66,19.66,0,0,0-.47,2.92,19,19,0,0,0,1.59,9.31l.1-.06h0a.06.06,0,0,0-.08,0l0,0c-.66,2.07-1.18,3.66-1.53,4.75-.16.52-.29.93-.38,1.21Z"
      style="fill:#e0e0e0"></path>
    <path d="M363.09,46.88l-5.39-6.94L352,46.69l2.94.05L354.85,56h5.23l.16-9.19Z" style="fill:#e0e0e0"></path>
    <path d="M85.79,212.22l4.45-4a19,19,0,1,0-6.38-2.41h0Z" style="fill:#fff"></path>
    <path
      d="M85.79,212.22l-.12-.43-.36-1.23-1.4-4.74-.08.07h0a.07.07,0,0,0,.08,0,.08.08,0,0,0,0-.07,18.86,18.86,0,0,1-7.84-9.32,21.47,21.47,0,0,1-.88-3A18.88,18.88,0,0,1,100,171.77a18.82,18.82,0,0,1,7.59,5,19.28,19.28,0,0,1,4.25,7.58,18.67,18.67,0,0,1,.48,8.17,18.94,18.94,0,0,1-7.35,12.16l-.66.48a4.66,4.66,0,0,1-.66.43l-1.35.78a27.77,27.77,0,0,1-2.72,1.14,18.92,18.92,0,0,1-9.3.67s0,0,0,0l-3.28,3-.85.77-.29.27.29-.24.85-.75,3.35-2.94,0,0a19,19,0,0,0,9.37-.61,26.29,26.29,0,0,0,2.75-1.14l1.37-.78a6.07,6.07,0,0,0,.68-.44l.66-.48a19.07,19.07,0,0,0,4.74-5.1,19.3,19.3,0,0,0,2.73-7.18,18.85,18.85,0,0,0-.47-8.28,19.58,19.58,0,0,0-4.31-7.69,19,19,0,0,0-7.69-5.09,8.28,8.28,0,0,0-1.1-.35l-1.11-.31-1.14-.2a8.52,8.52,0,0,0-1.13-.15l-1.13-.09a10.65,10.65,0,0,0-1.13,0c-.38,0-.76,0-1.13,0l-1.11.13A19,19,0,0,0,83,173.65a19.22,19.22,0,0,0-8.24,13A18.94,18.94,0,0,0,75,193.5a21.52,21.52,0,0,0,.9,3,18.76,18.76,0,0,0,1.3,2.66,19.06,19.06,0,0,0,6.66,6.69l0-.11h0a.07.07,0,0,0-.08,0v0l1.49,4.77c.17.52.29.92.38,1.2Z"
      style="fill:#e0e0e0"></path>
    <polygon points="84.25 190.38 86.82 187.53 92.29 191.91 100.4 182.59 103.06 185.18 92.16 197.16 84.25 190.38"
      style="fill:#e0e0e0"></polygon>
  </g>
  <g>
    <path
      d="M481.39,475.83c0,.15-102.47.26-228.83.26S23.71,476,23.71,475.83s102.44-.26,228.85-.26S481.39,475.69,481.39,475.83Z"
      style="fill:#263238"></path>
  </g>
  <g>
    <path d="M278.89,68.45l1.4-3.88a13.18,13.18,0,1,0-4.68.63h0Z" style="fill:#fff"></path>
    <path
      d="M278.89,68.45l-.22-.22-.62-.63-2.42-2.43,0,.07h0a0,0,0,0,0,0,0s0,0,0,0a13.18,13.18,0,0,1-6.19-1.91,12.67,12.67,0,0,1-1.65-1.19,14.77,14.77,0,0,1-1.52-1.54,13.26,13.26,0,0,1-2.35-4.08,13.07,13.07,0,0,1,16.59-16.72,13.42,13.42,0,0,1,5.08,3.22,13.11,13.11,0,0,1,2.5,14.64l-.24.5a4.59,4.59,0,0,1-.26.49l-.57.91a17.41,17.41,0,0,1-1.28,1.59,13,13,0,0,1-5.44,3.46s0,0,0,0c-.45,1.25-.79,2.22-1,2.88-.12.33-.2.58-.27.75l-.08.26.09-.24c.06-.17.16-.41.28-.73.24-.66.6-1.63,1.07-2.89l0,0a13.18,13.18,0,0,0,5.51-3.45,19.61,19.61,0,0,0,1.3-1.6l.58-.93a3.24,3.24,0,0,0,.26-.49c.08-.16.17-.33.25-.5a13.23,13.23,0,0,0-2.5-14.82,13.36,13.36,0,0,0-5.15-3.27,13.11,13.11,0,0,0-6.36-.57,5.36,5.36,0,0,0-.78.15l-.78.18-.76.25a6.55,6.55,0,0,0-.74.27l-.72.32c-.24.1-.46.25-.69.37s-.45.25-.67.4l-.63.44a13.08,13.08,0,0,0-3.91,4.52,13.25,13.25,0,0,0-.75,10.61,12.92,12.92,0,0,0,2.38,4.12,16.32,16.32,0,0,0,1.55,1.56,13.78,13.78,0,0,0,1.66,1.19,13.17,13.17,0,0,0,6.26,1.88v-.08h0a.05.05,0,0,0,0,0s0,0,0,0l2.47,2.41.63.61Z"
      style="fill:#263238"></path>
    <path d="M277.86,56.16l4.8-3.73L278,48.5s0,.89,0,2l-6.42-.08v3.62l6.36.11C277.88,55.32,277.86,56.16,277.86,56.16Z"
      style="fill:#FF1155"></path>
    <path d="M252.24,89.2l-1.88-5.66a19,19,0,1,0-4.74,4.9h0Z" style="fill:#fff"></path>
    <path
      d="M252.24,89.2l-.44-.06L250.53,89l-4.91-.59,0,.1h0a.06.06,0,0,0,0-.08.06.06,0,0,0-.07,0,19,19,0,0,1-8.74,3.39,18.79,18.79,0,0,1-2.93.12,21.32,21.32,0,0,1-3.11-.39,18.8,18.8,0,0,1-11.72-7.68A19.1,19.1,0,0,1,216,76.42a18.91,18.91,0,0,1,12.37-21.25,19.27,19.27,0,0,1,8.64-.9,18.66,18.66,0,0,1,7.69,2.8,19,19,0,0,1,8.25,11.57c.06.26.12.53.17.79a4.26,4.26,0,0,1,.14.78c.06.53.12,1,.18,1.55a26.19,26.19,0,0,1,0,2.95,19.07,19.07,0,0,1-3.07,8.8.07.07,0,0,0,0,0l1.43,4.18c.16.47.28.83.37,1.08s.13.38.13.38,0-.12-.11-.36l-.34-1.08c-.31-1-.77-2.39-1.37-4.24v0a18.84,18.84,0,0,0,3.15-8.84,24.45,24.45,0,0,0,.05-3c-.06-.51-.11-1-.17-1.56a5.59,5.59,0,0,0-.14-.8c-.06-.26-.11-.53-.17-.8a19.15,19.15,0,0,0-8.32-11.72A18.68,18.68,0,0,0,237,54a19.53,19.53,0,0,0-8.76.9,19.18,19.18,0,0,0-7.73,5,10.66,10.66,0,0,0-.76.88l-.72.9-.63,1a8,8,0,0,0-.59,1l-.53,1a10.53,10.53,0,0,0-.45,1c-.14.35-.3.69-.41,1s-.21.72-.32,1.07a18.75,18.75,0,0,0-.39,8.63,19.16,19.16,0,0,0,8.65,12.71,18.84,18.84,0,0,0,6.39,2.53,20.36,20.36,0,0,0,3.14.38,17.86,17.86,0,0,0,3-.14,19,19,0,0,0,8.78-3.46l-.08-.09h0a.07.07,0,0,0,0,.09h0l5,.52,1.26.13Z"
      style="fill:#263238"></path>
    <path d="M229,75.17l5.39,6.93,5.68-6.75-2.94,0,.11-9.28H232l-.16,9.2Z" style="fill:#FF1155"></path>
  </g>
  <g>
    <path
      d="M331.2,80.68a6.46,6.46,0,0,1-6.36-5.37,1,1,0,1,1,2-.34,4.47,4.47,0,0,0,5.13,3.65,4.45,4.45,0,0,0,3.65-5.13c0-.14-.66-3.4-5.37-3.69a1,1,0,0,1-.93-.9l-.39-3.8a1,1,0,0,1,2-.2l.3,3c4.44.62,6.11,3.66,6.37,5.28a6.46,6.46,0,0,1-5.29,7.43A6.56,6.56,0,0,1,331.2,80.68Z"
      style="fill:#e0e0e0"></path>
    <path d="M331.26,64.57a1.78,1.78,0,1,1-2.14-1.32A1.77,1.77,0,0,1,331.26,64.57Z" style="fill:#263238"></path>
    <path
      d="M346.4,92.25a2.9,2.9,0,0,0-.66-.85.94.94,0,0,0-1-.16c-.51.27-.49,1-.38,1.59a15,15,0,0,0,.88,3.36,27.53,27.53,0,0,0,1.43,3.6,8.25,8.25,0,0,0,2.15,2.09c.54.33,1.33-1.36,1.35-.73l1.29-1.85A48.67,48.67,0,0,1,346.4,92.25Z"
      style="fill:#ffbf9d"></path>
    <path d="M354.56,95.48s3-1.41,2.18,5.74a36.17,36.17,0,0,1-.89,4.41L347.91,104l1.37-4-1.59-5.24Z"
      style="fill:#ffbf9d"></path>
    <path
      d="M264.7,195.72c-.35.37-4.13,5.36-4.33,7.28s-.8,5,0,5.6,1.66-.28,1.66-.28-.59,2.54,2.28,2.43c0,0,.19,1.7,1.53,1.57s1.34-1.6,1.34-1.6-.76,5.26-.38,6.17,1.43.33,1.79-1.22l1.66-7.08a19.08,19.08,0,0,0,2.53-4c.57-1.55.16-2.67-.42-4.64a20.37,20.37,0,0,1-.74-3.45l1.37-3.74-8-.95Z"
      style="fill:#ffbf9d"></path>
    <path
      d="M277.26,78.16c-.63-2.35-4.31-1.51-5.56-.94-3.55,1.61-5.22,3.27-6.56,7.08-1.7,4.84-.93,10.38-2.83,15.14-1.07,2.69-2.91,5-4.33,7.47s-2.43,5.55-1.57,8.32,4.23,4.73,6.57,3.15a11.14,11.14,0,0,0,6.11,6.5,7.36,7.36,0,0,0,8.21-2c1.84-2.28,2-5.51,2.13-8.49q.31-9.6.64-19.21Z"
      style="fill:#263238"></path>
    <path
      d="M284.55,199.12l-1,.21,10.09,47.44-2.42.34a9.73,9.73,0,0,1-4.16-.06,19.53,19.53,0,0,0-11.33.89c-7.65,3-12.5,10.49-11.77,18.22,1,10.65,11.45,17.62,22.19,15.33a19.36,19.36,0,0,0,7-3,9.8,9.8,0,0,1,3.51-1.55l3.27-.5,9.93,46.7.76-.16.26,0,54.78-11.66.45,3.25a9.68,9.68,0,0,1-.05,4.15,19.48,19.48,0,0,0,.88,11.34c3,7.64,10.49,12.5,18.23,11.76,10.64-1,17.61-11.44,15.33-22.19a19.45,19.45,0,0,0-3-7,9.72,9.72,0,0,1-1.55-3.51L395.3,305l47.77-10.16-.1-.47L419.21,182.67a11.92,11.92,0,0,0-14.15-9.19Z"
      style="fill:#f5f5f5"></path>
    <path
      d="M284.55,199.12s.42-.11,1.24-.29l3.66-.8L303.6,195l52.68-11.28,36.83-7.87,10.16-2.17a16.64,16.64,0,0,1,5.33-.59,12.15,12.15,0,0,1,5.2,1.7,11.78,11.78,0,0,1,4,3.87l.37.6.32.63a10.62,10.62,0,0,1,.54,1.31,22.12,22.12,0,0,1,.69,2.75q1.19,5.51,2.39,11.18c6.44,30.24,13.6,63.83,21.23,99.63l.05.25-.25.06L395.36,305.2l.2-.29c.14.94.29,1.89.44,2.87.08.47.13,1,.24,1.44a8.7,8.7,0,0,0,.46,1.39,15,15,0,0,0,1.52,2.59,19.7,19.7,0,0,1,1.43,2.78,20.54,20.54,0,0,1,1.52,7.29,22.85,22.85,0,0,1-.1,2.48,19,19,0,0,1-3.51,9.14,17.17,17.17,0,0,1-17.23,6.86,18.29,18.29,0,0,1-8.52-4.28,19.75,19.75,0,0,1-6.31-17.13c.09-.77.28-1.56.41-2.29a9.89,9.89,0,0,0,.13-2.24c-.18-1.46-.44-3-.63-4.52l.3.21-55.8,11.85-.23,0-.05-.23-9.91-46.7.24.17-3.22.48a9,9,0,0,0-2.92,1.17,21.18,21.18,0,0,1-5.71,2.89,17.47,17.47,0,0,1-3.09.7,9,9,0,0,1-1.56.17c-.52,0-1,.09-1.56.07a19.54,19.54,0,0,1-6-1,17.69,17.69,0,0,1-5.29-2.81,16.55,16.55,0,0,1-4-4.26,16.09,16.09,0,0,1-2.31-5.21,16.53,16.53,0,0,1-.5-5.54,17.9,17.9,0,0,1,4-9.75,19.09,19.09,0,0,1,8.07-5.8,19.92,19.92,0,0,1,9.25-1.16,32.58,32.58,0,0,0,4.35.59,12.4,12.4,0,0,0,2.1-.24l2.09-.29-.11.17c-6.15-29.07-9.68-45.89-10-47.47h0c1-.2,1-.2,1-.2l-1,.22h0c.38,1.56,4,18.36,10.22,47.41l0,.14-.15,0-2.08.3a13.73,13.73,0,0,1-2.15.25,31.26,31.26,0,0,1-4.39-.59,19.65,19.65,0,0,0-9.09,1.17,18.8,18.8,0,0,0-7.93,5.72,17.58,17.58,0,0,0-3.9,9.56,16.61,16.61,0,0,0,.49,5.42,16.82,16.82,0,0,0,6.2,9.25,17.33,17.33,0,0,0,5.19,2.74,19.36,19.36,0,0,0,5.93,1c.5,0,1-.05,1.52-.07a9.83,9.83,0,0,0,1.53-.18,17.57,17.57,0,0,0,3-.68,20.58,20.58,0,0,0,5.62-2.86,9.48,9.48,0,0,1,3.06-1.22l3.24-.5.2,0,0,.2q4.67,21.92,10,46.69l-.29-.18L365.6,311l.27-.06,0,.27c.2,1.52.44,3,.63,4.56a10.36,10.36,0,0,1-.12,2.36c-.16.78-.32,1.5-.41,2.26a19.28,19.28,0,0,0,1,9.05,19,19,0,0,0,5.13,7.63,17.75,17.75,0,0,0,8.28,4.16,16.67,16.67,0,0,0,16.71-6.65,18.38,18.38,0,0,0,3.41-8.9,21.58,21.58,0,0,0,.1-2.41,20.43,20.43,0,0,0-1.48-7.1,19.17,19.17,0,0,0-1.4-2.7,16.76,16.76,0,0,1-1.55-2.67,9.27,9.27,0,0,1-.49-1.46c-.12-.52-.16-1-.25-1.49-.14-1-.29-1.93-.43-2.87l0-.25.24-.05L443,294.54l-.19.3c-7.61-35.81-14.75-69.41-21.17-99.65L419.28,184a20.9,20.9,0,0,0-.68-2.7,9.83,9.83,0,0,0-.52-1.26l-.3-.61-.36-.58a11.44,11.44,0,0,0-3.84-3.74,11.74,11.74,0,0,0-5-1.65,16.4,16.4,0,0,0-5.21.58l-10.17,2.16L356.35,184l-52.71,11.14-14.17,3-3.67.75Z"
      style="fill:#263238"></path>
    <g style="opacity:0.2">
      <path
        d="M369.74,220.89c-1.05-7.82-2.85-16.07-8.42-21.66-8.36-8.38-19.71-2.85-29.38-9.67l-34.75,6.87c-.22,5.71,6.51,10.35,11.57,13s10.81,4.25,15.06,8.07c6.85,6.15,8.11,16.37,13.16,24.06,2.89,4.4,7,7.89,10.11,12.12,6,8,8.94,19.05,17.79,23.75,1,.55,2.38,1,3.32.27a3.43,3.43,0,0,0,1-2.37A190.53,190.53,0,0,0,369.74,220.89Z">
      </path>
    </g>
    <path d="M372.22,240.53c-.17.72-4.12,20.87-4.12,20.87l-9.32-1,.59-21.16Z" style="fill:#ffbf9d"></path>
    <path
      d="M358.91,255.69s6.63,6.22,10.71,2l.71,2.31,2.55,16.19a2.12,2.12,0,0,1-1.45,2.4,2,2,0,0,1-2.12-.64c-2.74-3.23-12.79-15.15-12.53-16.59l.53-3.63a2.78,2.78,0,0,1,1.6-2.08Z"
      style="fill:#263238"></path>
    <path
      d="M371.05,278.7l-14.13-18.65-.09.85a2.4,2.4,0,0,0,.56,1.94c1.11,1.87,4.26,6.14,11.86,15.15a2.05,2.05,0,0,0,1.8.71Z"
      style="fill:#455a64"></path>
    <path
      d="M367.38,269.53a6.06,6.06,0,0,1,1.91-1.38,6.13,6.13,0,0,1,2.34-.2c0-.05-.22-.23-.68-.34a3.24,3.24,0,0,0-3.28,1.22C367.39,269.21,367.33,269.51,367.38,269.53Z"
      style="fill:#e0e0e0"></path>
    <path
      d="M368.67,272.39a14.57,14.57,0,0,1,1.85-.89c1.05-.31,1.89-.05,1.94-.19s-.79-.64-2-.3S368.57,272.32,368.67,272.39Z"
      style="fill:#e0e0e0"></path>
    <path d="M365.08,265.84a20.49,20.49,0,0,1,2.79-1.24,19.68,19.68,0,0,1,3-.39,5.59,5.59,0,0,0-5.82,1.63Z"
      style="fill:#e0e0e0"></path>
    <path d="M365.24,261c0,.12,1.19-.23,2.62-.13s2.54.55,2.6.43a4,4,0,0,0-2.57-.87A3.9,3.9,0,0,0,365.24,261Z"
      style="fill:#e0e0e0"></path>
    <path
      d="M368.69,260.92a2,2,0,0,0,0-.76,5.19,5.19,0,0,0-.76-1.93,2.35,2.35,0,0,0-1.08-1,.83.83,0,0,0-.92.26,1.34,1.34,0,0,0-.24.92,2.91,2.91,0,0,0,2.75,2.48,3.38,3.38,0,0,0,3.16-2,1.16,1.16,0,0,0,0-1,.82.82,0,0,0-.88-.36,3,3,0,0,0-1.26.79,6,6,0,0,0-1.24,1.67,2,2,0,0,0-.25.71,9.74,9.74,0,0,1,1.7-2.14,2.63,2.63,0,0,1,1.12-.67.45.45,0,0,1,.48.2.76.76,0,0,1,0,.64,3,3,0,0,1-2.75,1.72,2.53,2.53,0,0,1-2.37-2.07,1,1,0,0,1,.15-.65.43.43,0,0,1,.5-.15,2.06,2.06,0,0,1,.93.85A8.06,8.06,0,0,1,368.69,260.92Z"
      style="fill:#e0e0e0"></path>
    <path d="M364.65,240c.35.65,10.57,18.46,10.57,18.46l-7.68,5.36-13.42-16.36Z" style="fill:#ffbf9d"></path>
    <path
      d="M364.47,260.42s9.15.07,9.49-5.76l2.05,1.28,12.54,10.56a2.13,2.13,0,0,1,.48,2.76,2.06,2.06,0,0,1-2,.91c-4.19-.64-19.59-3.06-20.34-4.33l-2.19-3.21a2,2,0,0,1,0-2.21Z"
      style="fill:#263238"></path>
    <g style="opacity:0.6000000000000001">
      <path d="M388.79,269.56l-22.9-4.82.49.69c.46.8,1,.87,1.69,1.1,2.07.69,7.24,1.85,18.89,3.67a2,2,0,0,0,1.83-.64Z"
        style="fill:#455a64"></path>
    </g>
    <path
      d="M380,265a6.17,6.17,0,0,1,.54-2.29c.62-1.16,1.68-1.57,1.63-1.69s-.31,0-.73.19a3.17,3.17,0,0,0-1.29,1.29,3.24,3.24,0,0,0-.39,1.78C379.81,264.79,380,265.05,380,265Z"
      style="fill:#e0e0e0"></path>
    <path d="M382.71,266.41c.13,0,.28-.89,1-1.73s1.5-1.21,1.45-1.33-1,.09-1.8,1.06A2.33,2.33,0,0,0,382.71,266.41Z"
      style="fill:#e0e0e0"></path>
    <path
      d="M375.85,263.76a19.43,19.43,0,0,1,1.29-2.77,22.18,22.18,0,0,1,2-2.28,4.65,4.65,0,0,0-2.4,2A4.54,4.54,0,0,0,375.85,263.76Z"
      style="fill:#e0e0e0"></path>
    <path
      d="M376.27,259s-.14-.24-.52-.55a5.25,5.25,0,0,0-1.84-1,2.28,2.28,0,0,0-1.5-.07.83.83,0,0,0-.52.79,1.32,1.32,0,0,0,.43.86,2.89,2.89,0,0,0,3.69.07,3.38,3.38,0,0,0,1.07-3.59,1.21,1.21,0,0,0-.66-.73.82.82,0,0,0-.9.31,2.86,2.86,0,0,0-.43,1.42,5.93,5.93,0,0,0,.15,2.07c.12.47.25.71.28.7a9.06,9.06,0,0,1-.13-2.73,2.76,2.76,0,0,1,.41-1.23.45.45,0,0,1,.49-.17.85.85,0,0,1,.41.5,3,3,0,0,1-1,3.1,2.51,2.51,0,0,1-3.14,0,.94.94,0,0,1-.32-.59.45.45,0,0,1,.28-.44,2,2,0,0,1,1.27,0A7.67,7.67,0,0,1,376.27,259Z"
      style="fill:#e0e0e0"></path>
    <path
      d="M305.28,200.89c.34-.07,24.33,11.33,25.81,12.68s4.71,12.48,10.62,22.19,20.67,22.3,20.67,22.3l10.37-5.69s-19.34-42.16-23.05-48.89-12.22-17.43-12.22-17.43l-5.78-5.2-3-10.11-28,5.75c-.34.07-4,10.43-1,18.53A11.31,11.31,0,0,0,305.28,200.89Z"
      style="fill:#263238"></path>
    <path
      d="M368.75,182.68c-5.75-6.51-23.18-15.05-23.18-15.05h-2.92l-16.81,3.61s2.22,7.65,2.29,8,12,17,12,17l12,4.82,2.27,1.66a105.41,105.41,0,0,0,.06,15.86c.75,6.8,5.74,26.7,5.74,26.7l11.94-.53s2.59-32.43,2.53-37.68S377.28,192.34,368.75,182.68Z"
      style="fill:#263238"></path>
    <path
      d="M372.75,252.37a1.35,1.35,0,0,1-.11-.2c-.08-.15-.17-.34-.29-.59-.26-.54-.62-1.3-1.07-2.27-.94-2-2.27-4.86-3.91-8.37-3.31-7.07-7.84-16.85-13-27.56-2.62-5.35-5.1-10.46-7.64-14.93a39.12,39.12,0,0,0-4.43-5.78c-1.5-1.74-2.92-3.33-4.22-4.78L331.84,181l-1.69-1.86-.43-.49a1.66,1.66,0,0,1-.14-.17s.06,0,.17.14l.46.47,1.74,1.81c1.51,1.58,3.67,3.88,6.31,6.76,1.31,1.44,2.75,3,4.26,4.76q1.13,1.29,2.31,2.7a22.24,22.24,0,0,1,2.18,3.1c2.57,4.49,5.06,9.59,7.68,14.94,5.19,10.72,9.69,20.52,12.93,27.62,1.59,3.54,2.89,6.41,3.8,8.43l1,2.3c.11.25.19.45.26.6S372.76,252.36,372.75,252.37Z"
      style="fill:#455a64"></path>
    <path
      d="M280,104a3.26,3.26,0,0,1-.9-.35,11.56,11.56,0,0,1-2.2-1.46,16.32,16.32,0,0,1-2.73-2.81,13.09,13.09,0,0,1-2.26-4.26,18.2,18.2,0,0,1,0-8.66,16,16,0,0,1,.83-2.5,3.73,3.73,0,0,1,.45-.86c.09,0-.48,1.29-.92,3.44a19.35,19.35,0,0,0,.15,8.44,13.23,13.23,0,0,0,2.14,4.11,18.64,18.64,0,0,0,2.58,2.82A28.08,28.08,0,0,0,280,104Z"
      style="fill:#455a64"></path>
    <polygon points="344.68 112.64 348.19 103.21 356.62 102.06 353.16 119.53 344.68 112.64" style="fill:#ffbf9d">
    </polygon>
    <path
      d="M345.24,109.56l-3.47,9.15s-6.09-3-15-7.49c-9.72-4.9-13.29-1.54-13.29-1.54L327.06,128l8.4,4.13s10.12,4,12.82,2.57c5.37-2.78,7.23-22,7.23-22Z"
      style="fill:#FF1155"></path>
    <path
      d="M330.68,129.81c-1.06-5.87-3.05-15.41-7.81-19.24a13.41,13.41,0,0,0-5.5-1.89c-3.43,0-12.81,1.42-13.2,1.24l-12.56,4.8-10,7.86c-1.2,1.15-.79,2.1-.06,3.58l8.09,18.39,8.36,17c-.13,2.69.06,11,.08,16.53,0,2.58.76,2.52.76,2.52,16.2,1.25,30.27-3.23,41.78-14.52,1.5-1.4.31-2.68-.82-4.48-2.52-4-1.89-2.34-3.36-5.43-1.87-4-4.44-15.17-4.45-15.49S332,137.39,330.68,129.81Z"
      style="fill:#FF1155"></path>
    <path
      d="M282.6,121.44s-5.28,2.74-7.25,14.22c-2.27,13.28-6.07,23.44-7.76,31.49-1.33,6.28-4,26.14-4,26.14l9.18,1.91,11-36.74,2.92-11.85,2.23-9.54Z"
      style="fill:#FF1155"></path>
    <path d="M285,136.44c.08-.05,3.05,5.53,6.63,12.46s6.41,12.59,6.32,12.63-3-5.53-6.63-12.47S284.92,136.48,285,136.44Z"
      style="fill:#263238"></path>
    <path
      d="M321.58,116.78s.08.06.21.19l.52.6c.45.54,1.06,1.33,1.77,2.35a47.6,47.6,0,0,1,4.6,8.51,49.92,49.92,0,0,1,2.85,9.26c.24,1.21.39,2.21.47,2.89a4.62,4.62,0,0,1,.07,1.08,8.85,8.85,0,0,1-.21-1.06c-.12-.68-.3-1.66-.58-2.86a55.33,55.33,0,0,0-2.93-9.17,52.56,52.56,0,0,0-4.48-8.51c-.67-1-1.26-1.85-1.67-2.4A7.35,7.35,0,0,1,321.58,116.78Z"
      style="fill:#263238"></path>
    <path
      d="M335,167.76a7.22,7.22,0,0,1-.93.71c-.62.44-1.53,1-2.69,1.74a57.1,57.1,0,0,1-19.7,7.35c-1.34.23-2.42.37-3.18.44a9.12,9.12,0,0,1-1.17.08,7,7,0,0,1,1.16-.22c.74-.1,1.82-.29,3.14-.55A63.46,63.46,0,0,0,331.25,170c1.16-.67,2.1-1.24,2.73-1.65A7.79,7.79,0,0,1,335,167.76Z"
      style="fill:#263238"></path>
    <path
      d="M326.68,150.86a5.54,5.54,0,0,1-.49.9c-.34.57-.84,1.38-1.49,2.37-1.3,2-3.19,4.66-5.46,7.46s-4.5,5.21-6.17,6.89c-.84.84-1.53,1.51-2,2a4.81,4.81,0,0,1-.78.67,5.44,5.44,0,0,1,.69-.77l1.93-2c1.62-1.72,3.8-4.14,6.07-6.94s4.19-5.44,5.53-7.38l1.58-2.3A5.68,5.68,0,0,1,326.68,150.86Z"
      style="fill:#263238"></path>
    <g style="opacity:0.30000000000000004">
      <path
        d="M323.68,119.56s6.73,7.19,7.82,11.5a19.61,19.61,0,0,1,.21,8.21s-1.88-7.93-3.26-10.94S323.68,119.56,323.68,119.56Z">
      </path>
    </g>
    <path d="M345.22,123.94a7,7,0,0,1-3.4-5.27,21.5,21.5,0,0,0,1.37,2.85A23.25,23.25,0,0,0,345.22,123.94Z"
      style="fill:#263238"></path>
    <path
      d="M273.09,81.51a10.27,10.27,0,0,1,.77-3.06,3.54,3.54,0,0,1,2.32-2,1.45,1.45,0,0,1,1.38.34.8.8,0,0,1-.23,1.24l-.07.12c-.65,1.32-1.33,2.62-2,3.92a3,3,0,0,1-.65.89,1,1,0,0,1-1,.18C273,82.88,273,82.11,273.09,81.51Z"
      style="fill:#455a64"></path>
    <path
      d="M272.53,85.64a18.59,18.59,0,0,1,10.61-12.07c3-1.28,4.51-1.17,6.93-1.47A10.37,10.37,0,0,1,297,73.48a17.39,17.39,0,0,1,6.11,6,48.58,48.58,0,0,1,3.76,8.08,16.23,16.23,0,0,1,.59,8.78L301,100.44c-3.8,1.7-7.66,3.43-11.78,4.08s-8.59.12-11.95-2.35C272.56,98.74,270.83,91.17,272.53,85.64Z"
      style="fill:#263238"></path>
    <path
      d="M278.73,83.05l7.8-7.5,2.55-.71c5.48-2.22,11.72,2.28,13.56,6.7,2.05,4.91,4.36,11,5.06,14.93,1.41,7.94-4.57,11.09-4.57,11.09s1.71,3.84,2.76,6.27l-1.47,8-14-4.43L277.29,86.56A2.8,2.8,0,0,1,278.73,83.05Z"
      style="fill:#ffbf9d"></path>
    <path d="M301.86,88.66a1,1,0,0,1-.6,1.3,1,1,0,0,1-1.29-.53,1,1,0,0,1,.59-1.29A1,1,0,0,1,301.86,88.66Z"
      style="fill:#263238"></path>
    <path
      d="M302,84.68c-.08.17-1-.12-2,.24s-1.62,1.15-1.78,1.06,0-.31.22-.66a2.76,2.76,0,0,1,1.36-1,2.68,2.68,0,0,1,1.68,0C301.83,84.41,302,84.6,302,84.68Z"
      style="fill:#263238"></path>
    <path
      d="M298.7,95.32a7.43,7.43,0,0,1,1.58-.89c.26-.12.49-.26.48-.46a1.5,1.5,0,0,0-.45-.72l-1.49-1.75a37.9,37.9,0,0,1-3.59-4.67,34.52,34.52,0,0,1,4,4.37L300.64,93a1.6,1.6,0,0,1,.5,1,.72.72,0,0,1-.3.54,1.69,1.69,0,0,1-.43.21A7.15,7.15,0,0,1,298.7,95.32Z"
      style="fill:#263238"></path>
    <path d="M303.14,107.55a20.3,20.3,0,0,1-11,.8s4.49,4.29,11.78,1Z" style="fill:#ff9a6c"></path>
    <path
      d="M300.18,81.26c-.09.32-.94.42-1.84.82s-1.59.91-1.88.75c-.13-.08-.11-.36.12-.73a3,3,0,0,1,1.33-1,3,3,0,0,1,1.67-.21C300,80.93,300.21,81.11,300.18,81.26Z"
      style="fill:#263238"></path>
    <path d="M290.15,93.22a1,1,0,0,0,1.29.6,1,1,0,0,0,.65-1.24,1,1,0,0,0-1.29-.6A1,1,0,0,0,290.15,93.22Z"
      style="fill:#263238"></path>
    <path
      d="M288.07,89.9c.16.08.68-.73,1.7-1.13s2-.17,2-.34-.17-.25-.59-.37a2.85,2.85,0,0,0-1.7.12,2.73,2.73,0,0,0-1.29,1.06C288,89.6,288,89.87,288.07,89.9Z"
      style="fill:#263238"></path>
    <path
      d="M287.35,86.4c.29.15,1-.4,1.93-.78s1.82-.52,1.91-.84c0-.15-.18-.33-.62-.41a3.32,3.32,0,0,0-3.1,1.3C287.23,86,287.21,86.32,287.35,86.4Z"
      style="fill:#263238"></path>
    <path
      d="M283.6,98.42c-.19-.56-1.3-1.66-1.88-1.56-1.56.28-4.18,1.32-2.91,5.09,1.74,5.14,6.55,2.33,6.51,2.18S284.28,100.35,283.6,98.42Z"
      style="fill:#ffbf9d"></path>
    <path
      d="M283.26,102.73s-.07.1-.2.22a1,1,0,0,1-.66.24c-.61,0-1.36-.73-1.7-1.65a3.13,3.13,0,0,1-.18-1.36,1.09,1.09,0,0,1,.44-.92.48.48,0,0,1,.61.07c.12.12.12.23.15.23s.08-.12,0-.32a.57.57,0,0,0-.31-.25.73.73,0,0,0-.54,0,1.34,1.34,0,0,0-.67,1.12,3.11,3.11,0,0,0,.18,1.54,2.44,2.44,0,0,0,2,1.77,1,1,0,0,0,.78-.41C283.29,102.86,283.28,102.74,283.26,102.73Z"
      style="fill:#ff9a6c"></path>
    <path
      d="M281.52,97l1.82.8c3.35-7.52,8.72-25.11,8.44-24.08A17.31,17.31,0,0,0,283.57,76c-3.81,2.37-10.74,7.59-8.65,12.37A27.22,27.22,0,0,0,281.52,97Z"
      style="fill:#263238"></path>
    <path
      d="M273.78,98.83a1.19,1.19,0,0,1,0-.32,6.14,6.14,0,0,1,0-.93,7.81,7.81,0,0,1,1.14-3.22,14.67,14.67,0,0,1,3.39-3.75c1.46-1.24,3.18-2.43,4.71-4a26.52,26.52,0,0,0,3.82-4.8,27.61,27.61,0,0,0,2.25-4.49,31,31,0,0,0,1.05-3.23l.22-.9a1.56,1.56,0,0,1,.09-.31,1.14,1.14,0,0,1,0,.33c0,.2-.08.51-.17.91a24.34,24.34,0,0,1-1,3.27A26.83,26.83,0,0,1,287,82a25.52,25.52,0,0,1-3.85,4.87,58.58,58.58,0,0,1-4.74,4,15.34,15.34,0,0,0-3.39,3.66,8.25,8.25,0,0,0-1.19,3.13C273.75,98.38,273.81,98.83,273.78,98.83Z"
      style="fill:#455a64"></path>
    <path
      d="M275.56,99a2.78,2.78,0,0,1-.25-1.17,5.49,5.49,0,0,1,.92-3.14,12.32,12.32,0,0,1,3.51-3.35,26.69,26.69,0,0,0,4.54-3.77,24.46,24.46,0,0,0,3.47-4.76,25.48,25.48,0,0,0,1.9-4.43,26.14,26.14,0,0,0,.78-3.16c.05-.35.1-.64.14-.88a1.21,1.21,0,0,1,.06-.3,1,1,0,0,1,0,.31c0,.23-.05.53-.09.89a22.83,22.83,0,0,1-.69,3.2,23.47,23.47,0,0,1-5.36,9.32,26.11,26.11,0,0,1-4.59,3.79,12.47,12.47,0,0,0-3.5,3.25,5.58,5.58,0,0,0-1,3A6.3,6.3,0,0,0,275.56,99Z"
      style="fill:#455a64"></path>
    <path
      d="M295.81,97.75a.85.85,0,0,0-.5,0,.74.74,0,0,0-.3.35,1.86,1.86,0,0,0,2.34,2.54,2.19,2.19,0,0,0,1.3-2.37C297.77,98.14,296.7,97.9,295.81,97.75Z"
      style="fill:#ff9a6c"></path>
    <path
      d="M297.36,100.71a2.71,2.71,0,0,1-1.16-.06,1.68,1.68,0,0,1-.95-.74,1.8,1.8,0,0,1-.19-1.45c.08-.25.2-.51.39-.54a2,2,0,0,1,.71.07l1.3.21a6,6,0,0,0,1.21.14,5.08,5.08,0,0,0-1.18-.32l-1.29-.28a2.26,2.26,0,0,0-.82-.08.66.66,0,0,0-.39.3,1.82,1.82,0,0,0-.19.43A2,2,0,0,0,295,100a1.82,1.82,0,0,0,1.11.79A1.39,1.39,0,0,0,297.36,100.71Z"
      style="fill:#263238"></path>
    <path
      d="M267.77,207.14a5.45,5.45,0,0,1-.13,2.32,5.16,5.16,0,0,1-.64,2.23,5.44,5.44,0,0,1,.13-2.32A5.23,5.23,0,0,1,267.77,207.14Z"
      style="fill:#ff9a6c"></path>
    <path d="M264.56,208.93c.14,0,.14.5.07,1s-.19,1-.33,1-.27-.48-.19-1.06S264.43,208.89,264.56,208.93Z"
      style="fill:#ff9a6c"></path>
    <path d="M265.19,205.4c.12.08.08.39,0,.74s-.09.67-.23.71-.34-.31-.28-.78S265.07,205.33,265.19,205.4Z"
      style="fill:#ff9a6c"></path>
    <path d="M271.33,203.33a7.38,7.38,0,0,1-.27,2.72,7.52,7.52,0,0,1-.79,2.62,14.13,14.13,0,0,1,1.06-5.34Z"
      style="fill:#ff9a6c"></path>
    <path
      d="M406.35,172.92s-.14-.15-.39-.47L404.84,171c-1-1.27-2.42-3.12-4.26-5.51l-15.64-20.39L333.13,77.26l.27.1-2.95.71.19-.16c-.24.66-.49,1.38-.74,2.09-11.62,32.72-22.13,62.34-29.74,83.79-3.82,10.7-6.92,19.37-9.07,25.38-1.07,3-1.91,5.29-2.49,6.88-.28.78-.5,1.37-.66,1.79s-.24.6-.24.6.06-.21.19-.62.35-1,.61-1.8c.56-1.6,1.37-3.93,2.4-6.92,2.11-6,5.16-14.71,8.91-25.43l29.6-83.84c.25-.72.5-1.43.74-2.1l0-.13.14,0,2.95-.72.17,0,.1.14c20.29,26.68,38.52,50.64,51.68,68l15.51,20.48,4.18,5.57,1.08,1.46C406.24,172.75,406.35,172.92,406.35,172.92Z"
      style="fill:#263238"></path>
    <path
      d="M347.71,89.33c1-.19,1.25,1.88,1.25,1.88.48-.32,1.84.57,1.68,1.34.34-.24.43-.46.84-.48a1.32,1.32,0,0,1,1.11.44,1,1,0,0,1,0,1.15,1.52,1.52,0,0,1,2.11,1.47,1.69,1.69,0,0,1-.12.55.46.46,0,0,1-.09.2l-.08.06a3.93,3.93,0,0,0-.43.18l-.15.1a2.75,2.75,0,0,0-.59.54,2.17,2.17,0,0,1-.24.29.88.88,0,0,1-.21.12c-.45.27-.52.83-.8,1.25a4,4,0,0,1-1.43,1.36A1.26,1.26,0,0,1,349.1,99a.76.76,0,0,1-.94.33,1.09,1.09,0,0,1-.62-.84,1.91,1.91,0,0,1,.16-1.08.84.84,0,0,1-1.15.16,1.29,1.29,0,0,1-.47-1.14,2.89,2.89,0,0,1,.43-1.2c.21-.38,1.08-2,1.24-2.35h0a.7.7,0,0,1-1.11-.68l0-.18c.14-.77.14-1,.31-1.68C347.1,89.87,347.28,89.41,347.71,89.33Z"
      style="fill:#ffbf9d"></path>
    <path
      d="M356,96.3a1.24,1.24,0,0,1,.6.83,2.54,2.54,0,0,1-.65,1.41s-1.05-.63-1.05-.63l-.26-.16c-.28,0-.54.43-.77.59a1,1,0,0,1-1.27-.29,1.3,1.3,0,0,1,.05-1.37,2,2,0,0,1,1.18-.77A2.73,2.73,0,0,1,356,96.3Z"
      style="fill:#ffbf9d"></path>
    <path
      d="M352.7,93.54a16,16,0,0,0-1.94,2.65A17.33,17.33,0,0,0,349.1,99,15.51,15.51,0,0,0,351,96.38,16.5,16.5,0,0,0,352.7,93.54Z"
      style="fill:#ff9a6c"></path>
    <path
      d="M350.69,92.46a8.89,8.89,0,0,0-1.81,2.37,9.27,9.27,0,0,0-1.27,2.71A22.41,22.41,0,0,0,349.16,95,24,24,0,0,0,350.69,92.46Z"
      style="fill:#ff9a6c"></path>
    <path
      d="M348.73,91.4a6.75,6.75,0,0,0-1.43,2,9.8,9.8,0,0,0-1,2.23,9.11,9.11,0,0,0,1.34-2.06A14.61,14.61,0,0,0,348.73,91.4Z"
      style="fill:#ff9a6c"></path>
    <path
      d="M355.31,96.06s-.14-.21-.5-.29a1.84,1.84,0,0,0-1.36.33,3.59,3.59,0,0,0-1,1c-.21.35,0,.62,0,.58s0-.22.2-.45a6.79,6.79,0,0,1,1-.81,2,2,0,0,1,1.15-.37C355.09,96,355.28,96.11,355.31,96.06Z"
      style="fill:#ff9a6c"></path>
    <circle cx="331.94" cy="78.47" r="4.64" transform="translate(-8.87 92.35) rotate(-15.63)" style="fill:#263238">
    </circle>
    <path
      d="M323.38,14.28c.14,0,1.63,11.33,3.33,25.34s3,25.38,2.82,25.4-1.63-11.33-3.33-25.34S323.23,14.3,323.38,14.28Z"
      style="fill:#263238"></path>
    <path
      d="M356.08,97.5s-.24.45-.89,1a2.61,2.61,0,0,1-1.43.64A1.78,1.78,0,0,1,352,98.2h.45a6.42,6.42,0,0,1-.64,1.11,2.22,2.22,0,0,1-1.18.85,1.33,1.33,0,0,1-1.74-1.29l.33.26a1.36,1.36,0,0,1-1.46-.41,1.33,1.33,0,0,1-.23-1.31l.23.26a1.35,1.35,0,0,1-1.19-.39,1.26,1.26,0,0,1-.35-.87c0-.53.28-.73.29-.7s-.11.25-.06.69a1,1,0,0,0,.34.65,1.08,1.08,0,0,0,.89.23l.33-.08-.1.34a.91.91,0,0,0,.2.88.89.89,0,0,0,.95.24l.37-.13,0,.4a.82.82,0,0,0,1.1.72c.76-.2,1.18-1,1.52-1.66l.24-.5.2.51a1.37,1.37,0,0,0,1.34.72,2.5,2.5,0,0,0,1.28-.47A8.41,8.41,0,0,1,356.08,97.5Z"
      style="fill:#ff9a6c"></path>
  </g>
  <g>
    <path
      d="M198.31,154.87,189.87,124c-1.85-7.76-7.91-13.15-15.61-11.09l-.7.24A14.25,14.25,0,0,0,164.19,130c1.64,6.72,3.54,14.12,4.74,17.61,2.5,7.24,10.14,6,10.14,6s1.33,4.46,1.94,6.62l-.28,5.54,5.63-3.21Z"
      style="fill:#ae7461"></path>
    <path d="M179.07,153.59a18.48,18.48,0,0,0,8.53-5.93s-.46,6.21-7.93,8Z" style="fill:#6f4439"></path>
    <path d="M168.86,136.6a1.1,1.1,0,0,0,1.35.71A1,1,0,0,0,171,136a1.1,1.1,0,0,0-1.35-.71A1,1,0,0,0,168.86,136.6Z"
      style="fill:#263238"></path>
    <path
      d="M166.8,132.72c.17.09.76-.75,1.88-1.12s2.12-.08,2.2-.25-.17-.29-.62-.43a3,3,0,0,0-1.81,0A2.85,2.85,0,0,0,167,132C166.75,132.4,166.71,132.68,166.8,132.72Z"
      style="fill:#263238"></path>
    <path d="M178.43,133.28a1.1,1.1,0,0,0,1.34.72,1,1,0,0,0,.76-1.29,1.08,1.08,0,0,0-1.34-.72A1,1,0,0,0,178.43,133.28Z"
      style="fill:#263238"></path>
    <path
      d="M177.83,129.35c.17.09.76-.75,1.88-1.12s2.12-.08,2.2-.25-.17-.28-.62-.42a3,3,0,0,0-3.26,1.09C177.78,129,177.74,129.31,177.83,129.35Z"
      style="fill:#263238"></path>
    <path
      d="M176.66,139.26a7.32,7.32,0,0,0-1.92.27c-.29.07-.58.1-.69-.08a1.48,1.48,0,0,1-.09-.91c0-.78.08-1.59.12-2.45a38.6,38.6,0,0,0,0-6.3,39.73,39.73,0,0,0-.52,6.29c0,.85,0,1.67-.08,2.45a1.75,1.75,0,0,0,.22,1.16.77.77,0,0,0,.61.27,2.3,2.3,0,0,0,.51-.1A7.68,7.68,0,0,0,176.66,139.26Z"
      style="fill:#263238"></path>
    <path
      d="M176.31,126c.24.23,1.23-.43,2.54-.89s2.47-.63,2.51-1c0-.16-.3-.35-.84-.42a4.37,4.37,0,0,0-2.08.26,4.45,4.45,0,0,0-1.77,1.15C176.31,125.53,176.2,125.87,176.31,126Z"
      style="fill:#263238"></path>
    <path
      d="M165.66,129.45c.31.18,1.14-.37,2.24-.73s2.08-.46,2.21-.8c0-.16-.17-.37-.66-.48a3.7,3.7,0,0,0-1.95.16,3.66,3.66,0,0,0-1.63,1.07C165.56,129.06,165.52,129.36,165.66,129.45Z"
      style="fill:#263238"></path>
    <path d="M191.06,129.54c.11-.1,4.5-3.13,6,1.88s-3.86,5.48-3.91,5.34S191.06,129.54,191.06,129.54Z"
      style="fill:#ae7461"></path>
    <path
      d="M194.11,134.4s.1,0,.27.06a.86.86,0,0,0,.66-.18,2.26,2.26,0,0,0,.43-2.23,3.09,3.09,0,0,0-.62-1.18,1,1,0,0,0-.86-.48.46.46,0,0,0-.44.39c0,.16,0,.25,0,.27s-.13-.05-.15-.27a.55.55,0,0,1,.1-.37.68.68,0,0,1,.45-.28,1.31,1.31,0,0,1,1.14.51,3.09,3.09,0,0,1,.72,1.31,2.36,2.36,0,0,1-.64,2.55,1,1,0,0,1-.83.1C194.15,134.52,194.09,134.42,194.11,134.4Z"
      style="fill:#6f4439"></path>
    <path
      d="M180.41,138.94c-.17,0,.15,1.2-.61,2.3s-2,1.32-2,1.48.34.15.86,0a3,3,0,0,0,1.68-1.18,2.54,2.54,0,0,0,.44-1.9C180.7,139.16,180.49,138.91,180.41,138.94Z"
      style="fill:#263238"></path>
    <path
      d="M152.14,126.31a1.21,1.21,0,0,1,.35-.86,3.82,3.82,0,0,1,1.78-.87,11,11,0,0,0,4.25-2.52,5.49,5.49,0,0,1-1.63-.54,3.3,3.3,0,0,1-1.84-2.87.71.71,0,0,1,.25-.59c.29-.2.67,0,1,.22a2.81,2.81,0,0,0,2.87.32,4.69,4.69,0,0,0,1.74-1.13l0-.09c.18-.35.36-.68.54-1h0a17.34,17.34,0,0,1,4-5.38,17.86,17.86,0,0,1,8.89-3.44,7.2,7.2,0,0,1,6.8,3.81,5.52,5.52,0,0,1,5.17-2.09l0,0c2.15.11,3.87,1.83,5,3.64.07.1.13.2.19.3A8,8,0,0,0,195,115c.22.05.48.12.57.33a.67.67,0,0,1-.18.62A4.16,4.16,0,0,1,194,117a9,9,0,0,0,1.05,1.17c.33.31.73.67.65,1.12a.86.86,0,0,1-.75.63,2.55,2.55,0,0,1-1-.14l1.11,1.36a4.87,4.87,0,0,1-2.15.49c.14,2,.85,5.5.75,6.9a8.1,8.1,0,0,0-2.3.79c-.78.55,0,2-1.25,1.89-.64-.05-2.18-2-2.55-2.5A30,30,0,0,1,182.69,117a9.72,9.72,0,0,0-3.46-1.21l.11.06c-2.26-.1-4.79-.11-6.45,1.43-1.29,1.2-1.71,3-2.46,4.62A11,11,0,0,1,163.8,128c.38,2.3,1.37,5.95,1.88,8.05l-3-3.61h0a7,7,0,0,1-.6-.62l-.06-.06h0c-.3-.34-.59-.68-.93-1l0,0a1.35,1.35,0,0,1-2.4-1.16,3,3,0,0,1,.44-.81,2.13,2.13,0,0,1-1.8,1.08,1.66,1.66,0,0,1-1.6-1.24,1.42,1.42,0,0,1,.48-1.34,4.74,4.74,0,0,1-2.79.2C152.81,127.34,152.16,127,152.14,126.31Z"
      style="fill:#263238"></path>
    <path
      d="M179.13,112.89a7.55,7.55,0,0,1,.94.46,5.46,5.46,0,0,1,1.85,2.1,9.48,9.48,0,0,1,.74,1.81c.21.67.37,1.41.55,2.19a19.94,19.94,0,0,0,.66,2.42,7.85,7.85,0,0,0,.55,1.22,2.62,2.62,0,0,0,.88,1.08,1.16,1.16,0,0,0,1.14,0,1.73,1.73,0,0,0,.78-.8,4.14,4.14,0,0,0,.15-2.08l-.15.06a6.46,6.46,0,0,0,1.35,1.27,2.28,2.28,0,0,0,1.66.36,1.54,1.54,0,0,0,.72-.36,1.24,1.24,0,0,0,.36-.66,1.27,1.27,0,0,0,0-.7.91.91,0,0,0-.4-.5l-.06.09a4.74,4.74,0,0,0,1.93.71,3.31,3.31,0,0,0,.54.05h.19s-.06,0-.18,0-.31,0-.54-.07a5.15,5.15,0,0,1-1.88-.75l-.06.09a1,1,0,0,1,.38,1.08,1.22,1.22,0,0,1-.34.59,1.24,1.24,0,0,1-.65.31,2.11,2.11,0,0,1-1.54-.34,6.16,6.16,0,0,1-1.31-1.25l-.18-.2,0,.27a3.91,3.91,0,0,1-.14,2,1.57,1.57,0,0,1-.7.72,1,1,0,0,1-1,0,2.71,2.71,0,0,1-.82-1,8,8,0,0,1-.53-1.2,19.26,19.26,0,0,1-.67-2.4c-.18-.77-.35-1.52-.56-2.2a9.23,9.23,0,0,0-.78-1.82,5.26,5.26,0,0,0-1.93-2.1A3.18,3.18,0,0,0,179.13,112.89Z"
      style="fill:#455a64"></path>
    <path
      d="M158.55,126.81l.07,0,.23.08a3.72,3.72,0,0,0,.37.1,3.29,3.29,0,0,0,.51.1,6.82,6.82,0,0,0,3.32-.37,8.64,8.64,0,0,0,3.94-3,15,15,0,0,0,2.49-5.52c.27-1,.44-2.09.66-3.08a10.09,10.09,0,0,1,1-2.72,5.21,5.21,0,0,1,1.73-1.92,3.78,3.78,0,0,1,1.08-.46A4.5,4.5,0,0,1,175,110a4.58,4.58,0,0,1,1.8.47,4.22,4.22,0,0,1,1.15.83,5,5,0,0,1,.71,1l0-.07-.1-.22a4.49,4.49,0,0,0-.53-.74,4.26,4.26,0,0,0-1.15-.87,4.42,4.42,0,0,0-1.85-.5,3.81,3.81,0,0,0-2.24.57,5.34,5.34,0,0,0-1.8,2,10.47,10.47,0,0,0-1,2.77c-.23,1-.39,2-.66,3.07a15.18,15.18,0,0,1-2.45,5.46,8.62,8.62,0,0,1-3.86,2.94,6.8,6.8,0,0,1-3.26.42A9.29,9.29,0,0,1,158.55,126.81Z"
      style="fill:#455a64"></path>
    <path
      d="M156.92,123.79a1.19,1.19,0,0,0,.32.1,6.15,6.15,0,0,0,.89.17,8.44,8.44,0,0,0,3-.23,8.89,8.89,0,0,0,1.56-.58,8.44,8.44,0,0,0,1.16-.7,5.54,5.54,0,0,0,.7-.59c.15-.15.23-.24.22-.25s-.36.31-1,.73a9.21,9.21,0,0,1-1.16.66,10.15,10.15,0,0,1-1.53.56,11.51,11.51,0,0,1-1.61.27,9.79,9.79,0,0,1-1.33,0C157.39,123.87,156.93,123.75,156.92,123.79Z"
      style="fill:#455a64"></path>
    <path
      d="M149.64,183.47s-1.15,19.95-1.16,21.75a9.85,9.85,0,0,0,8.35,9.73c4.74.65,8.88-2.54,11.16-6.72s2-19.7,2-19.7l-13.64,0-2.26-6.24Z"
      style="fill:#ae7461"></path>
    <path d="M186.69,346.35l.56,15s-15,5.61-15.19,8.38l29.08-.06.07-23.37Z" style="fill:#263238"></path>
    <path
      d="M196.24,360.05a1.18,1.18,0,0,1,.83,1.35,1.15,1.15,0,0,1-1.34.83,1.26,1.26,0,0,1-.86-1.44,1.19,1.19,0,0,1,1.48-.71"
      style="fill:#e0e0e0"></path>
    <path d="M201.14,369.65l-.09-2.35-27.84.94s-1.3.56-1.15,1.47Z" style="fill:#455a64"></path>
    <path d="M186.78,361.18c0,.14.72.21,1.42.66s1.07,1.05,1.2,1-.08-.87-.94-1.41S186.75,361.05,186.78,361.18Z"
      style="fill:#fff"></path>
    <path d="M183.74,362.45c0,.14.58.38,1.06,1s.63,1.23.77,1.22.23-.81-.39-1.54S183.74,362.31,183.74,362.45Z"
      style="fill:#fff"></path>
    <path d="M182,366.1c.13,0,.33-.68,0-1.45s-1-1.09-1.09-1,.35.53.64,1.17S181.87,366.09,182,366.1Z" style="fill:#fff">
    </path>
    <path d="M187,357.75c.06.13.71-.07,1.52,0s1.42.3,1.5.18-.53-.63-1.48-.68S187,357.64,187,357.75Z" style="fill:#fff">
    </path>
    <path
      d="M221.19,344.48l1.58,18.06-2.88,14.65a1.87,1.87,0,0,0,1.59,2.2h0a1.84,1.84,0,0,0,1.6-.59c2.59-2.82,12.07-13.26,11.89-14.58-.22-1.52-.4-19.16-.4-19.16Z"
      style="fill:#263238"></path>
    <path
      d="M221.48,379.39,234.89,363l.05.77a2.79,2.79,0,0,1-.55,1.85c-1.06,1.42-4.08,5.29-11.25,13.18a1.88,1.88,0,0,1-1.66.59Z"
      style="fill:#455a64"></path>
    <g style="opacity:0.6000000000000001">
      <path
        d="M230.8,357.4a1.13,1.13,0,0,0-.21,1.49,1.08,1.08,0,0,0,1.47.22,1.17,1.17,0,0,0,.21-1.57,1.1,1.1,0,0,0-1.55-.06"
        style="fill:#fff"></path>
    </g>
    <path
      d="M225.11,371.22a5.43,5.43,0,0,0-1.67-1.31,5.7,5.7,0,0,0-2.11-.26s.2-.2.62-.29a2.9,2.9,0,0,1,1.64.18,3,3,0,0,1,1.29,1C225.11,370.93,225.16,371.2,225.11,371.22Z"
      style="fill:#fff"></path>
    <path
      d="M224,373.72c-.08.09-.7-.47-1.65-.67a15.58,15.58,0,0,0-1.78-.12,2,2,0,0,1,1.87-.27C223.5,372.9,224.07,373.67,224,373.72Z"
      style="fill:#fff"></path>
    <path d="M227.31,368a18.49,18.49,0,0,0-2.48-1.22,19.06,19.06,0,0,0-2.72-.45,5.05,5.05,0,0,1,5.2,1.67Z"
      style="fill:#fff"></path>
    <path d="M227.29,362.43c0,.11-1.06-.25-2.37-.21s-2.31.42-2.36.31a4.57,4.57,0,0,1,4.73-.1Z" style="fill:#fff"></path>
    <path
      d="M227,357.11a5.89,5.89,0,0,0-4.83.48s.15-.28.55-.54a3.91,3.91,0,0,1,1.77-.61,3.85,3.85,0,0,1,1.86.25C226.76,356.87,227,357.07,227,357.11Z"
      style="fill:#fff"></path>
    <path
      d="M224.47,355.82a1.63,1.63,0,0,1-.07-.68,4.76,4.76,0,0,1,.43-1.83,2.13,2.13,0,0,1,.84-1.07.75.75,0,0,1,.85.12,1.23,1.23,0,0,1,.34.8,2.64,2.64,0,0,1-2.14,2.57,3.06,3.06,0,0,1-3.09-1.4,1.07,1.07,0,0,1-.11-.88.74.74,0,0,1,.74-.43,2.53,2.53,0,0,1,1.24.54,5.42,5.42,0,0,1,1.32,1.33,1.55,1.55,0,0,1,.32.61,8.57,8.57,0,0,0-1.8-1.7,2.33,2.33,0,0,0-1.09-.45.39.39,0,0,0-.4.23.72.72,0,0,0,.1.57,2.73,2.73,0,0,0,2.69,1.19,2.28,2.28,0,0,0,1.85-2.16.88.88,0,0,0-.21-.57.41.41,0,0,0-.47-.07,2,2,0,0,0-.73.89A7.13,7.13,0,0,0,224.47,355.82Z"
      style="fill:#fff"></path>
    <path
      d="M173.14,224.28a64.51,64.51,0,0,0-1.4,18.94c.31,4,13.89,115.34,13.89,115.34H204l-5.15-104.63,1.5.33s10,44.62,10.82,51.85c.73,6.49,9.17,53.67,9.17,53.67l16.77.19-5.36-62.4-6.23-59.88-2.34-17.43Z"
      style="fill:#263238"></path>
    <path
      d="M199.47,246.83s0,.06-.12.13a1.12,1.12,0,0,1-.44.21,2.09,2.09,0,0,1-1.74-.41,3.41,3.41,0,0,1-1.19-2.37c-.13-1-.15-2.07-.22-3.2-.13-2.27-.22-4.32-.27-5.8a15.23,15.23,0,0,1,0-2.41,16.1,16.1,0,0,1,.25,2.39c.12,1.49.25,3.54.37,5.8.08,1.13.09,2.22.2,3.17a3.27,3.27,0,0,0,1,2.22,2,2,0,0,0,1.56.47A3.06,3.06,0,0,0,199.47,246.83Z"
      style="fill:#455a64"></path>
    <path
      d="M219.94,204.05l1.78-33.92-2.92-2.31-1.55-14-20.18-3.47s1,4.63-4.23,7.59c-6.77,3.8-13.09-2.1-13.09-2.1s-13.63,4.51-16.2,7.48a25.06,25.06,0,0,0-4,6.81l-7,20.7,15.26,2,3.66,47.7,53.95-11.47.25-5.12Z"
      style="fill:#FF1155"></path>
    <path d="M167.41,172.65c.15,0,.49,5.32.77,11.88s.4,11.89.25,11.9-.49-5.31-.77-11.88S167.27,172.66,167.41,172.65Z"
      style="fill:#263238"></path>
    <rect x="151.5" y="170.19" width="7.56" height="305.86" style="fill:#455a64"></rect>
    <rect x="200.41" y="170.19" width="7.01" height="305.86" style="fill:#455a64"></rect>
    <rect x="157.62" y="183.86" width="49.6" height="6.01" style="fill:#455a64"></rect>
    <rect x="157.53" y="203.09" width="49.6" height="6.01" style="fill:#455a64"></rect>
    <rect x="157.53" y="226.67" width="49.6" height="6.01" style="fill:#455a64"></rect>
    <rect x="157.53" y="250.25" width="49.6" height="6.01" style="fill:#455a64"></rect>
    <rect x="157.53" y="273.83" width="49.6" height="6.01" style="fill:#455a64"></rect>
    <rect x="157.53" y="297.41" width="49.6" height="6.01" style="fill:#455a64"></rect>
    <rect x="157.53" y="320.99" width="49.6" height="6.01" style="fill:#455a64"></rect>
    <rect x="157.53" y="344.57" width="49.6" height="6.01" style="fill:#455a64"></rect>
    <rect x="157.53" y="368.14" width="49.6" height="6.01" style="fill:#455a64"></rect>
    <rect x="157.53" y="391.72" width="49.6" height="6.01" style="fill:#455a64"></rect>
    <rect x="157.53" y="415.3" width="49.6" height="6.01" style="fill:#455a64"></rect>
    <rect x="157.53" y="437.97" width="49.6" height="6.01" style="fill:#455a64"></rect>
    <path
      d="M171.32,329.5l-.32,3.22a9.6,9.6,0,0,1-1,4,19.33,19.33,0,0,0-1.81,11.09c1,8,7.14,14.47,14.74,15.58,10.46,1.54,19.61-6.85,19.93-17.7a19.2,19.2,0,0,0-1.25-7.46,9.48,9.48,0,0,1-.66-3.73l.36-4.07L252.4,332l1.42-47.18-3.25-.29a9.74,9.74,0,0,0-3.74.66,19.12,19.12,0,0,1-7.45,1.26c-10.85-.33-19.24-9.48-17.71-19.94,1.12-7.6,7.55-13.69,15.58-14.73a19.21,19.21,0,0,1,11.1,1.81,9.58,9.58,0,0,0,4,1l2.41.24,1.46-47.92-123.87-3.76a9.68,9.68,0,0,0-10,9.38l-3.47,114.7,0,.69Z"
      style="fill:#e0e0e0"></path>
    <path
      d="M171.32,329.5h-.91l-2.65-.07-10.29-.27-38.62-1.09h-.14v-.14c.81-27.52,1.91-64.58,3.19-108,.1-2.73.12-5.44.29-8.24a9.89,9.89,0,0,1,4.36-7.07,9.52,9.52,0,0,1,4-1.55,28.24,28.24,0,0,1,4.31,0l8.65.26,35.85,1.08,76.82,2.32h.26v.26c-.06,2-.13,4.07-.19,6.19-.43,14.16-.86,28.1-1.27,41.73v.27l-.27,0c-.94-.09-1.87-.21-2.82-.27a9.74,9.74,0,0,1-2.81-.65c-.9-.37-1.69-.82-2.57-1.13a20.6,20.6,0,0,0-2.65-.78,19.31,19.31,0,0,0-10.81.81,18.06,18.06,0,0,0-8.39,6.57,16.37,16.37,0,0,0-2.88,10.07,15.78,15.78,0,0,0,1.08,5.13A18.26,18.26,0,0,0,224,277.2a18.47,18.47,0,0,0,1.49,2.13,18.23,18.23,0,0,0,8.37,5.83,19.5,19.5,0,0,0,10,.61,18.5,18.5,0,0,0,2.42-.68,12.08,12.08,0,0,1,2.47-.71,8.54,8.54,0,0,1,2.57-.06l2.51.23.22,0v.22q-.76,24.93-1.45,47.18v.21h-.21l-51.12-1.59.18-.16c-.07.84-.15,1.68-.23,2.51a13.75,13.75,0,0,0-.11,2.47,9.61,9.61,0,0,0,.49,2.37c.27.75.56,1.53.76,2.32a19.9,19.9,0,0,1,.64,4.76,22.28,22.28,0,0,1-.51,4.64,18.47,18.47,0,0,1-10.67,12.88,16.87,16.87,0,0,1-14.54-.79,18.29,18.29,0,0,1-8.09-9.36,19.4,19.4,0,0,1-.06-13.76c.42-1.15,1-2.11,1.31-3a9.37,9.37,0,0,0,.51-2.53c.06-.75.14-1.37.19-1.87l.18-1.53s0,.51-.13,1.51c0,.51-.1,1.14-.16,1.89a10,10,0,0,1-.49,2.57c-.31.95-.89,1.9-1.29,3a19.28,19.28,0,0,0,.13,13.64,18,18,0,0,0,8,9.22,16.58,16.58,0,0,0,14.31.74,18.16,18.16,0,0,0,10.46-12.69,21.61,21.61,0,0,0,.49-4.57,18.68,18.68,0,0,0-.63-4.67c-.2-.78-.48-1.52-.76-2.3a10.19,10.19,0,0,1-.52-2.45,15.1,15.1,0,0,1,.12-2.52c.07-.84.15-1.68.22-2.53l0-.16h.17l51.12,1.51-.22.21q.66-22.21,1.41-47.17l.21.24-2.49-.22a8.11,8.11,0,0,0-2.46.05,11.81,11.81,0,0,0-2.39.7,19.39,19.39,0,0,1-2.48.69,20,20,0,0,1-10.29-.61,18.77,18.77,0,0,1-8.61-6,19.51,19.51,0,0,1-1.53-2.19A18.7,18.7,0,0,1,222.4,275a16.19,16.19,0,0,1-1.12-5.29,16.82,16.82,0,0,1,3-10.37,18.51,18.51,0,0,1,8.63-6.77,19.63,19.63,0,0,1,13.82,0c.89.31,1.75.79,2.58,1.13,1.69.73,3.59.63,5.49.88l-.29.25c.42-13.62.84-27.57,1.27-41.73.06-2.12.13-4.24.18-6.19l.26.27-76.83-2.34-35.85-1.1-8.64-.26a27.09,27.09,0,0,0-4.23,0,9,9,0,0,0-3.82,1.47,9.44,9.44,0,0,0-4.16,6.73c-.17,2.72-.19,5.5-.29,8.2-1.35,43.45-2.5,80.51-3.36,108l-.14-.15L157.57,329l10.24.35,2.63.09Z"
      style="fill:#263238"></path>
    <g style="opacity:0.30000000000000004">
      <path
        d="M177.74,346.17c-3.15-.34-6.6-.88-9.75-1.22.07,7,3.45,13.49,9.59,16.72-2.3-4.3.47-6,.51-8.65S177.74,346.17,177.74,346.17Z">
      </path>
    </g>
    <path d="M195.66,196.81l22.54-7.25-8.52-20.64,16.44.32s11.87,23.15,7.38,29.91c-4.09,6.16-34.2,6.47-34.2,6.47Z"
      style="fill:#ae7461"></path>
    <path
      d="M195.71,196.46s-14,4.07-14.44,4.31-5.94,4.16-6,5.59,1.76,7.79,1.76,7.79,1.89.27,2-3.13l.14-3.4,2.34-2.09s-.86,3.93-.65,5.05,2.07,3.92,3.1,3.7a3,3,0,0,0,1.6-.93s.91,2.51,3.55,1a4.18,4.18,0,0,0,3.09,0,8.57,8.57,0,0,0,2.58-2.88,1.18,1.18,0,0,0-1.32-1.29,5.34,5.34,0,0,0-2.71,1.06l-.14-1.43a16.55,16.55,0,0,1,3.46-3.13c1.11-.66,5.71-.77,7.14-2.22,1.21-1.24-1.07-3.95-2.59-4.78h0a2.77,2.77,0,0,0-.73-.26Z"
      style="fill:#ae7461"></path>
    <path
      d="M187.74,207.79a.81.81,0,0,0-.15.25,4.44,4.44,0,0,0-.3.74,5.29,5.29,0,0,0-.11,2.62,5.15,5.15,0,0,0,1.2,2.34,4.28,4.28,0,0,0,.58.54,2,2,0,0,0,.24.17s-.32-.27-.74-.78a5.5,5.5,0,0,1-1.14-2.3,5.37,5.37,0,0,1,.07-2.56C187.56,208.17,187.77,207.8,187.74,207.79Z"
      style="fill:#6f4439"></path>
    <path
      d="M185.1,205.78a1.13,1.13,0,0,0-.16.27,2.56,2.56,0,0,0-.16.33,3,3,0,0,0-.18.46,7,7,0,0,0-.32,1.23,8.51,8.51,0,0,0-.09,1.55,8,8,0,0,0,.24,1.54,7.07,7.07,0,0,0,.42,1.19,4.5,4.5,0,0,0,.22.44,2.48,2.48,0,0,0,.19.31c.11.17.18.26.18.26s-.22-.39-.5-1.05a7.28,7.28,0,0,1-.38-1.19,8.43,8.43,0,0,1-.22-1.51,11,11,0,0,1,0-1.63,7,7,0,0,1,.34-1.11C184.91,206.19,185.13,205.79,185.1,205.78Z"
      style="fill:#6f4439"></path>
    <path
      d="M182.3,203.14s-.15.08-.32.29a2.37,2.37,0,0,0-.43.93,1.9,1.9,0,0,0,0,1,.9.9,0,0,0,.17.39,3.54,3.54,0,0,1,0-1.38A3.44,3.44,0,0,1,182.3,203.14Z"
      style="fill:#6f4439"></path>
    <path
      d="M227.12,193.6c-.05,0-.31-.59-1-1.41a8,8,0,0,0-3.24-2.44,6.8,6.8,0,0,0-4-.31c-1,.21-1.64.47-1.66.43s.14-.1.41-.22a9.2,9.2,0,0,1,1.21-.41,6.73,6.73,0,0,1,4.17.25,7.66,7.66,0,0,1,3.3,2.58,6.22,6.22,0,0,1,.65,1.09C227.09,193.44,227.14,193.6,227.12,193.6Z"
      style="fill:#6f4439"></path>
    <path
      d="M207.42,164c-.25-8.71,9.26-13.91,14.35-6.84l.09.13c4.8,6.83,10.6,23,10.6,23l-19.27,3-4.64-13A22.53,22.53,0,0,1,207.42,164Z"
      style="fill:#FF1155"></path>
    <path
      d="M215.62,153.83a21.38,21.38,0,0,0-2.21.92,11,11,0,0,0-6,9.2c-.09,1.48.11,2.39.05,2.39a3.25,3.25,0,0,1-.14-.63,9.44,9.44,0,0,1-.1-1.77,10.74,10.74,0,0,1,6.09-9.37A10.4,10.4,0,0,1,215,154,2.07,2.07,0,0,1,215.62,153.83Z"
      style="fill:#263238"></path>
    <path
      d="M159.52,178.64a2.73,2.73,0,0,0-1.31-.69,1.13,1.13,0,0,0,1.09-1.13,1.73,1.73,0,0,0-.88-1.43,4,4,0,0,0-1.67-.5,21.28,21.28,0,0,1-2.24-.35l-4.19-.21c-.73.27-.85,2.49.12,2.92-.53.18-.84.11-1.2.54a1.8,1.8,0,0,0-.4,1.58,1.28,1.28,0,0,0,1.23.95,2.09,2.09,0,0,0-.07,3.51,2.23,2.23,0,0,0,.7.32,1,1,0,0,0,.29,0,.29.29,0,0,0,.13,0c.19-.1.35-.22.55-.31a1,1,0,0,1,.22-.09,3.58,3.58,0,0,1,1.07-.22,3,3,0,0,0,.52,0,1.17,1.17,0,0,0,.3-.14,5.32,5.32,0,0,1,2.14-.19,4,4,0,0,0,2.28-.39,1.51,1.51,0,0,0,.62-2,1,1,0,0,0,1.12-.77A1.45,1.45,0,0,0,159.52,178.64Z"
      style="fill:#ae7461"></path>
    <path
      d="M150.25,186.18a1.69,1.69,0,0,0,.44,1.34c.43.38.23.73.81.69.12-.67.41-1.16.54-1.83,0-.14.77-.39.85-.51.22-.31,1-.26,1.32-.39a1.29,1.29,0,0,0,.7-1.62,1.74,1.74,0,0,0-1.55-1.05,2.71,2.71,0,0,0-1.8.68A3.74,3.74,0,0,0,150.25,186.18Z"
      style="fill:#ae7461"></path>
    <path
      d="M149.88,180.31a22.78,22.78,0,0,1,4.48,0,22.51,22.51,0,0,1,4.46.45,21.44,21.44,0,0,1-4.48,0A21.92,21.92,0,0,1,149.88,180.31Z"
      style="fill:#6f4439"></path>
    <path
      d="M150.3,177.23a12.7,12.7,0,0,1,4.07-.08,12.46,12.46,0,0,1,4,.78,32.51,32.51,0,0,1-4-.33A32.25,32.25,0,0,1,150.3,177.23Z"
      style="fill:#6f4439"></path>
    <path
      d="M150.72,174.22a9.36,9.36,0,0,1,3.36.06,13.15,13.15,0,0,1,3.29.63,12,12,0,0,1-3.35-.18A18.35,18.35,0,0,1,150.72,174.22Z"
      style="fill:#6f4439"></path>
    <path
      d="M150.56,185.22c-.05,0-.12-.33.09-.79a2.5,2.5,0,0,1,1.44-1.23,5,5,0,0,1,1.85-.31c.55.06.71.46.64.47s-.24-.18-.65-.15a10.55,10.55,0,0,0-1.68.41,2.76,2.76,0,0,0-1.32,1C150.68,184.94,150.63,185.22,150.56,185.22Z"
      style="fill:#6f4439"></path>
  </g>
  <g>
    <path
      d="M94.61,245.91a3.14,3.14,0,0,0-1.28-3.11,3.77,3.77,0,0,0-.28-.57,24.63,24.63,0,0,0-3.33-7.3c1.44-.45,1.81-2.47,1.09-3.79a7.72,7.72,0,0,0-3.48-2.77c1.12.19,2-1.27,1.6-2.35a4.35,4.35,0,0,0-2.45-2.25,21.16,21.16,0,0,0-4.71-1.62c-.7-1.88-3.36-3.85-5.24-4.54-7.24-2.67-12.3-3.15-20.29,3.44a5.69,5.69,0,0,0-3.76-2.36,7.17,7.17,0,0,0-5.58,1.68,5.82,5.82,0,0,0-6.08,3.08,7.42,7.42,0,0,0-9,10.82,4,4,0,0,0,.13,5.87,20.75,20.75,0,0,0-1.64,4.14,4.25,4.25,0,0,0,0,2.9,1.7,1.7,0,0,0,2.45.78,2.42,2.42,0,0,0,.12,2.62c-.92.11-1.07,1.56-.38,2.17a3.35,3.35,0,0,0,2.66.49,4.48,4.48,0,0,1,2.72.22.82.82,0,0,1-.25.61,3.81,3.81,0,0,0-.38,5.25l.34.4a8.43,8.43,0,0,0,2.85,1.65c2.19.9,3.41.58,5.77.71-.5,1.56,3.59,4.55,7.63.89,2.72.48,5.2.84,7.6,1.09a6.41,6.41,0,0,0,4.72,4.57c1.36.21,2.75-.19,4.13-.05a22,22,0,0,1,3.26.85A10.68,10.68,0,0,0,85,264.82a5.18,5.18,0,0,0,5.16-9A4,4,0,0,0,92,248.36,3.17,3.17,0,0,0,94.61,245.91Z"
      style="fill:#263238"></path>
    <path
      d="M87.1,286.37s12.2,11,12.15,10.23,23.32-11.13,23.32-11.13v15.21s-23.5,12.72-24.37,12-13.09-15.23-13.09-15.23Z"
      style="fill:#FF1155"></path>
    <g style="opacity:0.30000000000000004">
      <path
        d="M87.1,286.37s12.2,11,12.15,10.23,23.32-11.13,23.32-11.13v15.21s-23.5,12.72-24.37,12-13.09-15.23-13.09-15.23Z">
      </path>
    </g>
    <path
      d="M54.09,230.16l12.38-5.47c4.92-1.24,9.11,4.43,10.14,9.4,1.14,5.51,2.31,12.28,2.25,16.52a12.83,12.83,0,0,1-7.36,11.52l.69,5.1c-.27,4-4.43,4.48-4.43,4.48-11.43,1.36-12.81-5-12.81-5l-3-31.68C51.69,233.48,52.6,230.53,54.09,230.16Z"
      style="fill:#ae7461"></path>
    <path
      d="M69.74,247.61a7.39,7.39,0,0,1,1.82-.61c.29-.07.56-.17.58-.38a1.5,1.5,0,0,0-.32-.84c-.38-.67-.77-1.38-1.19-2.11a38.08,38.08,0,0,1-2.78-5.58,39.47,39.47,0,0,1,3.23,5.34l1.15,2.13a1.76,1.76,0,0,1,.32,1.13.71.71,0,0,1-.43.5,1.75,1.75,0,0,1-.49.14A8,8,0,0,1,69.74,247.61Z"
      style="fill:#263238"></path>
    <path d="M71.5,262.13a27.72,27.72,0,0,1-10.62-2.4s2.45,5.1,10.94,4.93Z" style="fill:#6f4439"></path>
    <path
      d="M63.56,235.19c-.07.33-1.24.35-2.57.7s-2.37.88-2.59.63.05-.45.45-.81a4.39,4.39,0,0,1,1.85-1,4.48,4.48,0,0,1,2.08-.05C63.3,234.83,63.58,235,63.56,235.19Z"
      style="fill:#263238"></path>
    <path
      d="M74.66,233.93c-.16.29-1,.13-2,.25s-1.74.43-2,.18,0-.4.31-.7a2.71,2.71,0,0,1,1.52-.65,2.67,2.67,0,0,1,1.63.31C74.59,233.54,74.73,233.79,74.66,233.93Z"
      style="fill:#263238"></path>
    <path
      d="M80.76,237.75A5.78,5.78,0,0,0,79,234.27c-.54-.48-1.2-.82-1.7-1.35-1.06-1.14-1.09-2.88-1.64-4.34a6.37,6.37,0,0,0-4.34-3.88c-1.62-.41-3.4-.16-5-.8-1.15-.48-2.07-1.4-3.25-1.8-2.28-.79-4.71.58-6.66,2-.25,1.68.93,3,2.06,4.26a5.87,5.87,0,0,0,4.54,1.93c1.32,0,2.82-.49,3.83.36s.86,2.65,1.76,3.7c1.3,1.5,3.83.64,5.63,1.47,1.38.64,2.09,2.16,2.88,3.47s2.08,2.62,3.6,2.4A17.39,17.39,0,0,0,80.76,237.75Z"
      style="fill:#263238"></path>
    <path
      d="M60,226.78a30,30,0,0,0-11,3.11,5.48,5.48,0,0,0-2.58,2.18,5.31,5.31,0,0,0-.3,3c.34,3.14,2,6.86,3.46,9.65l4.15,2c2.95-1,1-6.08.65-8.68a6.2,6.2,0,0,0,3.08-5.8A6.82,6.82,0,0,0,60,226.78Z"
      style="fill:#263238"></path>
    <path
      d="M53.57,245.52c-.29-1.78-2.53-1.92-4-.84-.8.59-1.34,1.66-1.05,3.55.79,5.06,5.7,3.22,5.69,3.08S53.92,247.61,53.57,245.52Z"
      style="fill:#ae7461"></path>
    <path
      d="M52.39,249.63s-.08.08-.22.17a.93.93,0,0,1-.66.12,2.24,2.24,0,0,1-1.31-1.8,3.12,3.12,0,0,1,0-1.3,1,1,0,0,1,.56-.78.47.47,0,0,1,.56.16c.09.13.07.24.1.24s.09-.1,0-.3a.56.56,0,0,0-.25-.29.65.65,0,0,0-.5,0,1.24,1.24,0,0,0-.8.92,3.09,3.09,0,0,0-.09,1.46,2.31,2.31,0,0,0,1.63,2,1,1,0,0,0,.78-.26C52.4,249.76,52.41,249.64,52.39,249.63Z"
      style="fill:#6f4439"></path>
    <path
      d="M65.22,243.21a1.11,1.11,0,0,1-.91,1.25,1.05,1.05,0,0,1-1.27-.83,1.12,1.12,0,0,1,.9-1.26A1.07,1.07,0,0,1,65.22,243.21Z"
      style="fill:#263238"></path>
    <path
      d="M75.39,242.07a1.1,1.1,0,0,1-.9,1.25,1.07,1.07,0,0,1-1.28-.83,1.11,1.11,0,0,1,.91-1.25A1.05,1.05,0,0,1,75.39,242.07Z"
      style="fill:#263238"></path>
    <path
      d="M74.92,237.79c-.09.17-1-.32-2.06-.09s-1.72,1-1.87.88,0-.35.27-.71a2.53,2.53,0,0,1,1.45-.9,2.56,2.56,0,0,1,1.69.26C74.79,237.46,75,237.71,74.92,237.79Z"
      style="fill:#263238"></path>
    <path
      d="M64.65,239.68c-.13.18-1.13-.45-2.44-.31s-2.18.93-2.34.78,0-.39.43-.76a3.17,3.17,0,0,1,3.81-.38C64.54,239.3,64.71,239.59,64.65,239.68Z"
      style="fill:#263238"></path>
    <path
      d="M64.86,250.61a1.62,1.62,0,0,1,1.51-1.43,1.71,1.71,0,0,1,1.41.76,2.09,2.09,0,0,1,.28,1.6l0,.12a1.84,1.84,0,0,1-2,.7A1.73,1.73,0,0,1,64.86,250.61Z"
      style="fill:#6f4439"></path>
    <path
      d="M68.94,251.57c0-.18-1.26,0-2.33-.87s-1.16-2.26-1.34-2.24-.19.34-.1.9a3.13,3.13,0,0,0,1,1.88,2.74,2.74,0,0,0,1.94.65C68.68,251.85,69,251.66,68.94,251.57Z"
      style="fill:#263238"></path>
    <path d="M92.54,451.86l-1.41,14.72s16,6,16.21,8.95L77,475.62l0-2.22,1.27-7.57,1.88-14.71Z" style="fill:#455a64">
    </path>
    <path
      d="M82,464.29a1.27,1.27,0,0,0-.88,1.45,1.22,1.22,0,0,0,1.42.88,1.34,1.34,0,0,0,.93-1.53,1.28,1.28,0,0,0-1.59-.76"
      style="fill:#e0e0e0"></path>
    <path d="M77,475.62l0-2.22,29.09.56s1.38.6,1.22,1.57Z" style="fill:#263238"></path>
    <path d="M91.63,466.42c0,.15-.76.22-1.51.7s-1.15,1.12-1.28,1.06.08-.93,1-1.5S91.66,466.28,91.63,466.42Z"
      style="fill:#263238"></path>
    <path d="M94.88,467.77c0,.15-.62.41-1.14,1.05s-.66,1.31-.81,1.31-.25-.87.41-1.65S94.88,467.63,94.88,467.77Z"
      style="fill:#263238"></path>
    <path d="M96.72,471.67c-.14,0-.34-.72,0-1.55s1.1-1.16,1.16-1-.37.57-.69,1.25S96.87,471.66,96.72,471.67Z"
      style="fill:#263238"></path>
    <path d="M92.71,462.88c-.07.14-.76-.07-1.62,0s-1.52.33-1.6.2.56-.67,1.57-.72S92.78,462.76,92.71,462.88Z"
      style="fill:#263238"></path>
    <path d="M55.27,452.27,54,466.74s15.8,5.79,16,8.7l-29.79.27v-2.18l1.21-7.45,1.75-14.46Z" style="fill:#455a64">
    </path>
    <path d="M45,464.55a1.25,1.25,0,0,0-.86,1.43,1.2,1.2,0,0,0,1.4.86,1.31,1.31,0,0,0,.9-1.52,1.24,1.24,0,0,0-1.56-.73"
      style="fill:#e0e0e0"></path>
    <path d="M40.16,475.71v-2.18l28.58.37s1.36.59,1.21,1.54Z" style="fill:#263238"></path>
    <path d="M54.46,466.58c0,.15-.75.22-1.48.7s-1.12,1.11-1.25,1.06.08-.92,1-1.49S54.49,466.45,54.46,466.58Z"
      style="fill:#263238"></path>
    <path d="M57.66,467.9c0,.14-.6.4-1.11,1s-.64,1.3-.79,1.29-.25-.85.39-1.62S57.66,467.75,57.66,467.9Z"
      style="fill:#263238"></path>
    <path d="M59.5,471.72c-.14,0-.35-.71,0-1.53s1.07-1.14,1.14-1-.37.56-.67,1.24S59.64,471.7,59.5,471.72Z"
      style="fill:#263238"></path>
    <path d="M55.5,463.1c-.06.14-.75-.07-1.59,0s-1.5.33-1.57.2.55-.66,1.54-.71S55.57,463,55.5,463.1Z"
      style="fill:#263238"></path>
    <path
      d="M93.2,323.85s7.19,20.82,7.43,36.31.5,40.12-2.72,67.29-4.71,38.09-4.71,38.09H76.83a320.8,320.8,0,0,1-1.48-32.25c.24-15.23,1.44-20.06,0-36.82s-3.78-26.82-6.21-31.9a34.93,34.93,0,0,1-7.25-19,53.66,53.66,0,0,1,3.4-20.48Z"
      style="fill:#263238"></path>
    <path
      d="M78.66,353.06c-.28.84-5.13,35-8.67,50s-7.49,19-8.18,31.29c-.79,14.09-4.66,31.16-4.66,31.16H39.73s2.45-26,4.9-46.39,6-45.45,5.44-53-1.9-16.83,0-27.38,6-13.32,6-13.32l14.78-.67Z"
      style="fill:#263238"></path>
    <path
      d="M62.26,333.54a2.58,2.58,0,0,0-.27.53,9.49,9.49,0,0,0-.59,1.6,21.13,21.13,0,0,0-.58,6.24,41.93,41.93,0,0,0,1.43,9.19,29.22,29.22,0,0,0,1.91,5.16,36.5,36.5,0,0,0,3.14,5,30.4,30.4,0,0,1,4.43,10.33,73.74,73.74,0,0,1,1.65,9.11c.32,2.62.51,4.75.66,6.22.07.71.13,1.28.17,1.7a3.93,3.93,0,0,0,.08.58,2.63,2.63,0,0,0,0-.59c0-.42-.06-1-.1-1.7-.1-1.47-.25-3.61-.54-6.24a70,70,0,0,0-1.59-9.16,43.24,43.24,0,0,0-1.65-5.25,26.12,26.12,0,0,0-1.21-2.65,26.45,26.45,0,0,0-1.59-2.56,36.27,36.27,0,0,1-3.12-4.94,29.41,29.41,0,0,1-1.9-5.1,42.29,42.29,0,0,1-1.5-9.11,22.32,22.32,0,0,1,.45-6.19,14.76,14.76,0,0,1,.52-1.61A3.86,3.86,0,0,0,62.26,333.54Z"
      style="fill:#455a64"></path>
    <path
      d="M55.33,267.29l13.53-1.09s15.08,12,18.18,27.33,6.62,30.6,6.62,30.6l-27.53,3.39a31.12,31.12,0,0,1-8.62-.12L54.64,327,57,317.25s-4.36-18.39-6.07-25.32C47.23,276.89,55.33,267.29,55.33,267.29Z"
      style="fill:#FF1155"></path>
    <g style="opacity:0.30000000000000004">
      <path
        d="M81.27,296.54,92.43,318.4A9.33,9.33,0,0,1,85.52,315a31.6,31.6,0,0,1-4.64-7.3c-3.32-6.53-6.52-13.33-7.18-20.62A79.44,79.44,0,0,1,81.27,296.54Z">
      </path>
    </g>
    <path
      d="M124.37,287.31a6.73,6.73,0,0,0-1.27.51,6.46,6.46,0,0,1,1-2.4,7.32,7.32,0,0,0,.89-2c.09-1.35-.94-2.35-1.8-.82a12.09,12.09,0,0,1-1.68,2.07c-1.9,1.85-8,8.52-8,8.52l4.74,6.18a49.79,49.79,0,0,0,9-1.35c2.52-.77,3.51-1.71,3.52-2.3s-1-.93-1-.93a2.85,2.85,0,0,0,.51-1.69c-.12-.78-1.2-1.16-1.2-1.16a4,4,0,0,0,.39-1.52c0-.8-1-1.77-1-1.77a1.35,1.35,0,0,0,.74-2.08c-.26-.41-1.05-.61-2.49-.15C125.86,286.71,124.37,287.31,124.37,287.31Z"
      style="fill:#ae7461"></path>
    <path
      d="M114.39,291.1c-.16.23-16.25,9.44-16.25,9.44s-7.54-14.34-10-19.35S82.88,269.21,79,267s-10.17-.84-10.17-.84l2.56,18.67,6.25,13.45s7.41,14.81,11.48,18.26c3.7,3.14,9.45,1.88,12.08.35S121,300.58,121,300.58Z"
      style="fill:#FF1155"></path>
    <path
      d="M71.42,285.08a2.63,2.63,0,0,0,.17.45c.13.32.31.73.53,1.24.47,1.08,1.16,2.64,2,4.54,1.78,3.82,4.34,9,7.37,14.7a57.29,57.29,0,0,0,4.66,7.79A16,16,0,0,0,89,316.64a9.61,9.61,0,0,0,3.08,1.61,10.28,10.28,0,0,0,5,.26,9,9,0,0,0,1.31-.36,2.2,2.2,0,0,0,.44-.18s-.63.2-1.78.4a10.63,10.63,0,0,1-4.87-.37,9.72,9.72,0,0,1-3-1.6,16.86,16.86,0,0,1-2.7-2.81,60.78,60.78,0,0,1-4.6-7.75c-3-5.66-5.62-10.86-7.46-14.64-.9-1.86-1.63-3.39-2.16-4.49-.24-.5-.44-.9-.6-1.22S71.44,285.07,71.42,285.08Z"
      style="fill:#263238"></path>
    <path
      d="M50.52,285.5a5.13,5.13,0,0,0,.08,1.08c.09.68.23,1.67.42,2.89.38,2.44.95,5.8,1.65,9.5s1.4,7,2,9.45c.29,1.2.53,2.17.72,2.83a5.81,5.81,0,0,0,.33,1,7.33,7.33,0,0,0-.19-1.06c-.15-.74-.35-1.7-.6-2.86-.5-2.41-1.16-5.76-1.86-9.46s-1.3-7-1.76-9.47c-.22-1.16-.4-2.13-.53-2.88A7.8,7.8,0,0,0,50.52,285.5Z"
      style="fill:#263238"></path>
    <path
      d="M37.37,238.36a14.74,14.74,0,0,0-6.69,1.44,6.84,6.84,0,0,0-3.75,5.43c-.1,2.3,1.7,4.67,4,4.74a5.43,5.43,0,0,0,2.36,10.29c-2.46,1.2-2.56,5-.8,7.08s4.63,2.87,7.33,3.3a10,10,0,0,0,17.92-.83A5.91,5.91,0,0,0,58,258a4.81,4.81,0,0,0-1.25-4.35,5.29,5.29,0,0,0-5-1.75s-2.57,0-3.41-1.72a27.56,27.56,0,0,1-1.37-6Z"
      style="fill:#263238"></path>
    <path
      d="M121,300.58a3.07,3.07,0,0,1-.52-.63l-1.37-1.87c-1.22-1.69-2.89-4-4.93-6.87l.27.06L98.55,300.6l-.28.16-.24.14-.12-.25c-3.69-7.32-7-13.93-9.45-18.79l-2.81-5.71-.74-1.57a3.87,3.87,0,0,1-.23-.56,2.18,2.18,0,0,1,.32.52c.22.39.49.9.83,1.52l3,5.63,9.59,18.73-.36-.11.28-.16,16-9.23.16-.1.11.16,4.78,7,1.28,1.93A4.27,4.27,0,0,1,121,300.58Z"
      style="fill:#263238"></path>
    <path d="M96.54,306.78a9.92,9.92,0,0,1,.41-3.12,9.25,9.25,0,0,1,.93-3,19.35,19.35,0,0,1-1.34,6.13Z"
      style="fill:#263238"></path>
  </g>
  <g>
    <path
      d="M268.09,398.08a18.7,18.7,0,0,0-7.21,1.44,9.31,9.31,0,0,1-3.61.76l-3.17-.19V354.88H203.64l-.23,4a9.3,9.3,0,0,0,.75,3.61,18.65,18.65,0,0,1,1.44,7.2c0,10.56-8.64,19-18.85,17.79-7.42-.85-13.53-6.92-14.78-14.7a18.66,18.66,0,0,1,1.44-10.83,9.5,9.5,0,0,0,.88-3.9l.22-3.14H123.23V466.69a9.14,9.14,0,0,0,9.14,9.14H254.1v-46.6l2.35.16a9.34,9.34,0,0,1,3.89.89,18.75,18.75,0,0,0,10.83,1.43c7.78-1.25,13.85-7.36,14.71-14.78C287.06,406.72,278.64,398.08,268.09,398.08Z"
      style="fill:#f5f5f5"></path>
    <path
      d="M268.09,398.08l1.19,0a8.73,8.73,0,0,1,1.46.14,12.79,12.79,0,0,1,2,.38,17.44,17.44,0,0,1,5.27,2.23,17.69,17.69,0,0,1,5.57,5.5,16.55,16.55,0,0,1,1.89,4.31,17.7,17.7,0,0,1,.52,2.49,18.19,18.19,0,0,1,.06,2.67,16.37,16.37,0,0,1-4.65,10.68,18.39,18.39,0,0,1-12.25,5.55,18.79,18.79,0,0,1-7.43-1.07c-.61-.21-1.22-.48-1.8-.74a10.07,10.07,0,0,0-1.85-.55,11.52,11.52,0,0,0-2-.18l-2-.14.17-.16c0,13.77,0,29.42,0,46.6V476h-.2l-86.86,0H133.47a13.85,13.85,0,0,1-3.19-.24,9.47,9.47,0,0,1-6.88-6.35,10.44,10.44,0,0,1-.43-3.23V354.63h.77v.25h0l-.25-.25h51.28l0,.26c-.07,1-.13,1.94-.2,2.91a10.1,10.1,0,0,1-.44,2.93c-.28,1-.76,1.8-1.06,2.7a18.51,18.51,0,0,0,.47,13.69,17.47,17.47,0,0,0,7.14,8,15.8,15.8,0,0,0,10.25,2,16.27,16.27,0,0,0,9.11-4.54,18.88,18.88,0,0,0,3.07-4,18.79,18.79,0,0,0,1.51-14.31c-.23-.78-.53-1.5-.83-2.27a9.3,9.3,0,0,1-.53-2.39,15.94,15.94,0,0,1,.06-2.4c0-.79.09-1.57.14-2.36v-.19h.19l50.46.05h.15v.15c0,20.19-.06,35.52-.08,45.21l-.07-.08c1.22.07,2.36.17,3.41.2a9.25,9.25,0,0,0,2.85-.55,20.22,20.22,0,0,1,4.26-1.29,17.91,17.91,0,0,1,2.61-.29c.57,0,.86,0,.86,0l-.86,0a20.62,20.62,0,0,0-2.6.32,21.31,21.31,0,0,0-4.23,1.33,9.45,9.45,0,0,1-2.89.57c-1.06,0-2.19-.12-3.42-.18H254v-.07c0-9.69,0-25-.07-45.21l.15.16-50.46,0,.2-.18c0,.78-.09,1.56-.14,2.35a18.54,18.54,0,0,0-.06,2.35,9.08,9.08,0,0,0,.52,2.28c.28.73.61,1.5.83,2.29a18.86,18.86,0,0,1,.3,9.87,19.88,19.88,0,0,1-1.82,4.77,19.54,19.54,0,0,1-3.14,4.12,16.84,16.84,0,0,1-9.36,4.68,16.29,16.29,0,0,1-10.54-2,17.85,17.85,0,0,1-7.33-8.25,19.09,19.09,0,0,1-1.27-11.24,18.14,18.14,0,0,1,.77-2.8c.31-.94.79-1.79,1.05-2.68a9.41,9.41,0,0,0,.41-2.81l.21-2.92.24.26H123.23v-.26h0l.26.26h-.26l.25-.26c0,19,0,38.62,0,58.71,0,18,0,35.58,0,52.68a9.92,9.92,0,0,0,.41,3.08,8.7,8.7,0,0,0,1.43,2.73,8.84,8.84,0,0,0,5.07,3.27,13.13,13.13,0,0,0,3.08.23h33.77l86.86,0-.2.2c0-17.18,0-32.83,0-46.6v-.18h.18l2,.15a12.41,12.41,0,0,1,2,.18A10.29,10.29,0,0,1,260,430c.61.27,1.18.53,1.78.74a18.57,18.57,0,0,0,7.31,1.07,18.12,18.12,0,0,0,12.08-5.44,16.1,16.1,0,0,0,4.62-10.51,17.8,17.8,0,0,0-.05-2.64,17.56,17.56,0,0,0-.5-2.46,16.51,16.51,0,0,0-1.85-4.27,18,18,0,0,0-5.49-5.48,17.38,17.38,0,0,0-5.22-2.25,14.43,14.43,0,0,0-2-.41,8.69,8.69,0,0,0-1.46-.15Z"
      style="fill:#263238"></path>
  </g>
  <g>
    <path
      d="M337.07,358.85a9.31,9.31,0,0,0,.76,3.61,18.65,18.65,0,0,1,1.43,7.2c0,10.56-8.63,19-18.84,17.79-7.42-.85-13.53-6.92-14.78-14.7a18.74,18.74,0,0,1,1.43-10.83A9.35,9.35,0,0,0,308,358l.15-2.26a.82.82,0,0,0-.81-.88H254.1v44.43a.81.81,0,0,0,.77.82l2.4.15a9.31,9.31,0,0,0,3.61-.76,18.7,18.7,0,0,1,7.21-1.44c10.55,0,19,8.64,17.79,18.85-.86,7.42-6.93,13.53-14.71,14.78a18.75,18.75,0,0,1-10.83-1.43,9.34,9.34,0,0,0-3.89-.89l-1.47-.1a.82.82,0,0,0-.88.82v45.72h-.74v.23h118a12.9,12.9,0,0,0,12.9-12.91V355.7a.82.82,0,0,0-.82-.82H338.08a.83.83,0,0,0-.82.78Z"
      style="fill:#e0e0e0"></path>
    <path
      d="M337.07,358.85s0-.52.07-1.53c0-.5,0-1.12.12-1.88a.92.92,0,0,1,1-.6h1.38l17.23-.05,12.45,0h13.83a2,2,0,0,1,.53,0,.93.93,0,0,1,.48.32,1,1,0,0,1,.21.54v3.56c0,1.38,0,2.78,0,4.2q0,4.26,0,8.79,0,9,0,19.12c0,13.4,0,28.09,0,43.87q0,11.83,0,24.46v3.17c0,.52,0,1.07-.06,1.61s-.14,1.08-.26,1.6a13.12,13.12,0,0,1-8.38,9.49,12.59,12.59,0,0,1-3.27.72c-1.13.09-2.23.06-3.34.06l-115.79,0h-.26v-.75h1l-.26.26v-45.3a2.56,2.56,0,0,1,.07-.79,1.05,1.05,0,0,1,.63-.64A1,1,0,0,1,255,429l.35,0c.46,0,.93.08,1.4.08a9.35,9.35,0,0,1,2.82.55c.92.33,1.72.76,2.61,1a18.86,18.86,0,0,0,2.66.68,18.65,18.65,0,0,0,5.48.16,18.08,18.08,0,0,0,9.78-4.34,16.44,16.44,0,0,0,5.33-9.07,16.66,16.66,0,0,0,.15-5.27,16.41,16.41,0,0,0-1.54-5,17.14,17.14,0,0,0-3-4.22,18.6,18.6,0,0,0-4.12-3.11,19.3,19.3,0,0,0-4.8-1.79,20.52,20.52,0,0,0-5.06-.41,18.48,18.48,0,0,0-4.95,1c-.78.26-1.55.65-2.4.87a8.93,8.93,0,0,1-2.57.32l-1.26-.08-.63,0a2.14,2.14,0,0,1-.7-.1,1.06,1.06,0,0,1-.57-.55,1.24,1.24,0,0,1-.09-.39v-6.54c0-13.2,0-25.87,0-37.93v-.21h.22l29.11,0h23.87a1.16,1.16,0,0,1,.85.23,1,1,0,0,1,.36.83l-.05.77c0,.51-.07,1-.11,1.52a8.82,8.82,0,0,1-.14,1.54,12.06,12.06,0,0,1-1,2.88,18,18,0,0,0-1.39,5.6,18.51,18.51,0,0,0,2.24,10.59,17.23,17.23,0,0,0,7.12,7,16.18,16.18,0,0,0,4.45,1.52,16.87,16.87,0,0,0,4.47.19,16.09,16.09,0,0,0,7.67-2.85,17.47,17.47,0,0,0,4.94-5.29,19.07,19.07,0,0,0,2.29-5.82,19.49,19.49,0,0,0,.33-2.73,14.66,14.66,0,0,0,0-2.48,18.72,18.72,0,0,0-.76-4.06c-.34-1.14-.81-2.05-1-2.84a8.73,8.73,0,0,1-.3-1.81c0-.41,0-.62,0-.62s0,.21,0,.62a9.18,9.18,0,0,0,.34,1.79c.2.78.67,1.68,1,2.83a18.65,18.65,0,0,1,.8,4.08,15.94,15.94,0,0,1,0,2.5,21.32,21.32,0,0,1-.32,2.75,19.13,19.13,0,0,1-2.28,5.89,17.62,17.62,0,0,1-5,5.37,16.35,16.35,0,0,1-7.77,2.92,17.47,17.47,0,0,1-4.55-.18,16.65,16.65,0,0,1-4.52-1.53,17.56,17.56,0,0,1-7.26-7.07,18.91,18.91,0,0,1-.91-16.48,11.15,11.15,0,0,0,.95-2.8,9.17,9.17,0,0,0,.13-1.49c0-.51.07-1,.11-1.53l.05-.77a.65.65,0,0,0-.23-.54.84.84,0,0,0-.63-.15H283.21l-29.11,0,.22-.22c0,12.06,0,24.73,0,37.93,0,1.65,0,3.3,0,5v1.56a.58.58,0,0,0,.36.51,1.91,1.91,0,0,0,.54.07l.63,0,1.25.08a8,8,0,0,0,2.43-.31c.8-.19,1.55-.58,2.38-.85a19,19,0,0,1,5.07-1,21.21,21.21,0,0,1,5.2.42,20,20,0,0,1,4.93,1.84,19,19,0,0,1,4.23,3.19,17.47,17.47,0,0,1,3.12,4.35,16.78,16.78,0,0,1,1.6,5.15,17.36,17.36,0,0,1-.16,5.43,17,17,0,0,1-5.48,9.36,18.59,18.59,0,0,1-10.07,4.47,19.27,19.27,0,0,1-5.62-.16,19,19,0,0,1-2.74-.71c-.9-.28-1.76-.73-2.61-1a9,9,0,0,0-2.67-.52c-.47,0-.94,0-1.42-.08l-.35,0a.5.5,0,0,0-.24,0,.59.59,0,0,0-.33.33,2.3,2.3,0,0,0,0,.62v45.56h-1l.26-.26v.23l-.26-.26,115.79,0c1.11,0,2.23,0,3.3-.06a12.67,12.67,0,0,0,11.24-9.84c.12-.51.18-1,.25-1.54s.07-1,.06-1.57v-3.17q0-12.61,0-24.46c0-15.78,0-30.47,0-43.87q0-10.06,0-19.12c0-3,0-5.95,0-8.79v-4.2c0-.68,0-1.36,0-2v-1c0-.35,0-.66-.15-.87a.85.85,0,0,0-.79-.25H369.32l-12.45,0-17.23,0h-1.38a.82.82,0,0,0-.92.54c-.1.72-.11,1.36-.15,1.86C337.12,358.33,337.07,358.85,337.07,358.85Z"
      style="fill:#263238"></path>
    <path
      d="M452.77,341.9C450.71,330.64,445.1,326,445.1,326l-28.19,7.94c-1.74,5.41-1.6,15.35-2.65,21.09a28.19,28.19,0,0,1-2.45,7.75l10.7-.61s0-3.48.43-3.79,1.54,3.54,1.54,3.54l27.61-3.68S454,348.46,452.77,341.9Z"
      style="fill:#263238"></path>
    <path
      d="M445.1,326a18,18,0,0,0-15-4.54c-3.14.47-4.33,1.34-6.48,2.33a10.06,10.06,0,0,0-5,4.69,16.94,16.94,0,0,0-2,8.12,24,24,0,0,0,1.78,7.82,31.66,31.66,0,0,0,5.81,8.62l4.91-.23c4-.53,8.09-1.09,11.84-2.65s7.17-4.31,8.68-8.07C451.79,336.81,449.35,329.66,445.1,326Z"
      style="fill:#263238"></path>
    <path
      d="M438.65,327l-10.29-2.21-2.48.72c-5.66,1-8.52,7.89-7.79,12.49.82,5.11,2,11.32,3.47,14.95,2.9,7.29,9.47,6.83,9.47,6.83s.2,1.57.47,3.58a7.51,7.51,0,0,0,8.7,6.42h0a7.51,7.51,0,0,0,6.18-8.5l-4.74-32.12A2.73,2.73,0,0,0,438.65,327Z"
      style="fill:#ffbf9d"></path>
    <path
      d="M432.61,349.25a1.64,1.64,0,0,0-.73-.9,1.66,1.66,0,0,0-2,.23,2.22,2.22,0,0,0-.49,2.21h0a2.05,2.05,0,0,0,1.57.59l.27,0a1.84,1.84,0,0,0,1.14-.68A1.63,1.63,0,0,0,432.61,349.25Z"
      style="fill:#ff9a6c"></path>
    <path d="M421.64,343.87a1,1,0,0,0,1.15.76.94.94,0,0,0,.8-1.1,1,1,0,0,0-1.15-.76A.94.94,0,0,0,421.64,343.87Z"
      style="fill:#263238"></path>
    <path
      d="M420.67,340.72c.11.09.88-.18,1.94-.09s1.84.48,2,.41-.07-.18-.4-.36a4.07,4.07,0,0,0-1.56-.43,3.88,3.88,0,0,0-1.55.17C420.72,340.55,420.61,340.68,420.67,340.72Z"
      style="fill:#263238"></path>
    <path
      d="M428.41,347.37a7.38,7.38,0,0,0-1.76.08c-.27,0-.54,0-.62-.14a1.36,1.36,0,0,1,0-.83c.1-.7.21-1.43.33-2.2a35.45,35.45,0,0,0,.57-5.71,34.9,34.9,0,0,0-1,5.65c-.1.77-.2,1.5-.3,2.21a1.61,1.61,0,0,0,.1,1.07.7.7,0,0,0,.53.3,2.07,2.07,0,0,0,.46,0A7.15,7.15,0,0,0,428.41,347.37Z"
      style="fill:#263238"></path>
    <path d="M431,359.76a19.76,19.76,0,0,0,9.52-5s-1.52,5.85-9.24,6.85Z" style="fill:#ff9a6c"></path>
    <path
      d="M431.65,347.4c-.18,0,.08,1.16-.71,2.18s-2,1.17-2,1.33.32.16.84.06a2.91,2.91,0,0,0,1.68-1,2.56,2.56,0,0,0,.52-1.82C431.91,347.63,431.72,347.38,431.65,347.4Z"
      style="fill:#263238"></path>
    <path
      d="M420,336.5c.23.22,1-.13,1.94-.27s1.78-.06,1.94-.33-.09-.36-.48-.54a3,3,0,0,0-3.12.48C420,336.13,419.89,336.4,420,336.5Z"
      style="fill:#263238"></path>
    <path d="M433,341.77a1,1,0,0,1-.76,1.16,1,1,0,0,1-1.17-.69,1,1,0,0,1,.76-1.16A1,1,0,0,1,433,341.77Z"
      style="fill:#263238"></path>
    <path
      d="M434.28,338.09c-.07.13-.86.24-1.78.78s-1.47,1.19-1.6,1.19,0-.18.22-.47a4.79,4.79,0,0,1,1.24-1,4.43,4.43,0,0,1,1.46-.54C434.17,338,434.32,338,434.28,338.09Z"
      style="fill:#263238"></path>
    <path
      d="M433.24,334.17c-.17.28-1,.18-2,.35s-1.77.5-2,.29,0-.37.3-.67a3.07,3.07,0,0,1,1.55-.69,3,3,0,0,1,1.68.18C433.15,333.82,433.31,334,433.24,334.17Z"
      style="fill:#263238"></path>
    <path
      d="M442.49,342.2c-.12-.57.23-2,.76-2.25,1.44-.57,4.14-1.05,5,2.71,1.19,5.15-4.22,5.29-4.27,5.15S442.92,344.14,442.49,342.2Z"
      style="fill:#ffbf9d"></path>
    <path
      d="M445,345.59s.1.05.27.08a.94.94,0,0,0,.67-.14,2.28,2.28,0,0,0,.57-2.23,3.15,3.15,0,0,0-.55-1.23,1.08,1.08,0,0,0-.84-.53.46.46,0,0,0-.47.37c0,.16,0,.26,0,.27s-.13-.06-.14-.28a.58.58,0,0,1,.12-.37.72.72,0,0,1,.47-.25,1.3,1.3,0,0,1,1.12.58,3.18,3.18,0,0,1,.65,1.37,2.39,2.39,0,0,1-.8,2.52,1,1,0,0,1-.85.06C445,345.72,445,345.61,445,345.59Z"
      style="fill:#ff9a6c"></path>
    <path
      d="M443.47,339.93l-1.09,1.59c-6.63-4.5-20.09-16.3-19.33-15.59a16.83,16.83,0,0,1,8-2.26c4.36,0,12.77.78,13.49,5.8A26.5,26.5,0,0,1,443.47,339.93Z"
      style="fill:#263238"></path>
    <polygon points="386.48 374.9 411.58 384.65 420.73 377.12 427.09 383.9 410.4 394.01 385.27 380.89 386.48 374.9"
      style="fill:#ff9a6c"></polygon>
    <path d="M431.47,363.63a29.13,29.13,0,0,1-2.49,3.26c-1.35,1.55-10.85,11.26-10.85,11.26l3.54,4.66,7.84-2.29Z"
      style="fill:#FF1155"></path>
    <path
      d="M421.67,382.83h0l-3.56-4.67h0c.1-.1,9.52-9.73,10.86-11.26a29.46,29.46,0,0,0,2.48-3.26l.05-.08v.09l-2,16.9h0Zm-3.51-4.68,3.52,4.63,7.81-2.28,1.95-16.79a30.25,30.25,0,0,1-2.44,3.2C427.68,368.41,418.55,377.75,418.16,378.15Z"
      style="fill:#FF1155"></path>
    <path
      d="M465.24,400.39v-.79l-7.13-27a16.55,16.55,0,0,0-13.17-12.47c-.65-.14-13.46,2.93-13.58,2.95l-4.31,12.63S423,387,423.66,392.66c.42,3.53,10.33,18.57,10.33,18.57l-2.63,4a97.74,97.74,0,0,0,44.81,10.17C474,414.32,465.24,400.39,465.24,400.39Z"
      style="fill:#FF1155"></path>
    <path
      d="M449.63,404.41a10.7,10.7,0,0,1-1.78,1.25c-1.13.72-2.73,1.66-4.55,2.6s-3.51,1.7-4.76,2.21a11.89,11.89,0,0,1-2,.73,15.48,15.48,0,0,1,1.94-1c1.22-.56,2.89-1.35,4.7-2.29s3.42-1.84,4.58-2.5A17.86,17.86,0,0,1,449.63,404.41Z"
      style="fill:#263238"></path>
    <path d="M443.69,383.9s-24.8,20.87-28.95,20.51-35.28-20.21-35.28-20.21l4.45-7.6,29.75,13,22.51-20.32Z"
      style="fill:#ffbf9d"></path>
    <path
      d="M386,378.28c.1-.23.87-6.76.87-6.76s.51-7.2.54-7.28-.16-1.55-1.73.37a7.65,7.65,0,0,0-1.29,4.91l-6-3s-2.31-1.42-2.74.15a1.34,1.34,0,0,0-1.94.31,2.19,2.19,0,0,0-.08,2.21s-1.28,1.42-.43,2.5c0,0-1.07.46-.2,2.31l3.3,3.49s.66,4.62,1.64,5.79S382,385.4,382,385.4l5.19-6Z"
      style="fill:#ffbf9d"></path>
    <path
      d="M386.48,374.9a24.8,24.8,0,0,0-1,4.49c-.4,2.49-.86,4.47-.77,4.51a15,15,0,0,0,1.18-4.44A26,26,0,0,0,386.48,374.9Z"
      style="fill:#ff9a6c"></path>
    <path
      d="M375.88,366.88a20.91,20.91,0,0,0,3.43,2.31,20.54,20.54,0,0,0,3.64,2,20.21,20.21,0,0,0-3.42-2.32A21.13,21.13,0,0,0,375.88,366.88Z"
      style="fill:#ff9a6c"></path>
    <path
      d="M373.54,368.82a17.25,17.25,0,0,0,3.43,2.35A17.88,17.88,0,0,0,380.7,373a24.47,24.47,0,0,0-3.52-2.19A27.1,27.1,0,0,0,373.54,368.82Z"
      style="fill:#ff9a6c"></path>
    <path d="M373.21,371.65a13,13,0,0,0,4.64,3A11.78,11.78,0,0,0,375.6,373,10.88,10.88,0,0,0,373.21,371.65Z"
      style="fill:#ff9a6c"></path>
    <path
      d="M379,377a1.57,1.57,0,0,0,1.22.06,2.63,2.63,0,0,0,1.19-.69,2.69,2.69,0,0,0,.74-1.57l-.26.18a1.6,1.6,0,0,0,.84,0,1.63,1.63,0,0,0,1-.85,1.68,1.68,0,0,0,.08-1.18l-.29.21a1.34,1.34,0,0,0,1.18.15,1.2,1.2,0,0,0,.69-.58c.23-.46.11-.76.08-.75s0,.28-.27.63a1,1,0,0,1-1.46.25l-.45-.34.16.54a1.25,1.25,0,0,1-.84,1.52,1.31,1.31,0,0,1-.62,0l-.23-.05,0,.23a2.44,2.44,0,0,1-1.59,2A6.76,6.76,0,0,1,379,377Z"
      style="fill:#ff9a6c"></path>
    <path
      d="M451.19,362.57c-4.31-3.37-12,1.44-17.31,5.42-4.82,3.61-12.21,10.79-12.21,10.79L435.22,394l14-11.36c3.45-2.69,6.55-7.47,6.29-11.84A11.17,11.17,0,0,0,451.19,362.57Z"
      style="fill:#FF1155"></path>
    <path
      d="M451.19,362.57l.17.11.48.39a11.23,11.23,0,0,1,1.62,1.72,10.73,10.73,0,0,1,1.72,3.36,10.5,10.5,0,0,1,.34,5c-.67,3.72-3.34,7.72-7.41,10.66l-12.75,10.35-.16.13-.13-.15-4.78-5.37-8.77-9.87-.13-.14.14-.14c3.72-3.56,7.26-6.79,10.61-9.5a50.66,50.66,0,0,1,9.44-6.15c2.86-1.36,5.46-1.89,7.19-1.51l.6.13a5,5,0,0,1,.51.19,2.75,2.75,0,0,1,.75.38l.42.29.14.11a6.76,6.76,0,0,0-2.44-1c-1.7-.32-4.24.23-7.06,1.61a52,52,0,0,0-9.33,6.19c-3.32,2.72-6.85,6-10.55,9.52v-.28l8.78,9.86,4.78,5.37-.29,0,12.79-10.32c4.05-2.89,6.67-6.79,7.37-10.42a10.38,10.38,0,0,0-.27-4.9,11.11,11.11,0,0,0-1.64-3.33,12.25,12.25,0,0,0-1.55-1.76l-.46-.41Z"
      style="fill:#263238"></path>
    <path d="M439.35,470.91l15.6-5.34s10.66,14.07,13.64,13.36l-9.26-30.62-24.65,7.32Z" style="fill:#455a64"></path>
    <path
      d="M450.76,456.5a1.29,1.29,0,0,1,1.16-1.29,1.25,1.25,0,0,1,1.3,1.14,1.38,1.38,0,0,1-1.24,1.37,1.31,1.31,0,0,1-1.22-1.34"
      style="fill:#e0e0e0"></path>
    <path d="M460,448.09l-2.39.71,9.09,29.39s1,1.18,1.92.74Z" style="fill:#e0e0e0"></path>
    <path d="M454.94,466.11c.15-.05,0-.81.25-1.7s.77-1.46.67-1.58-.9.37-1.19,1.44S454.81,466.19,454.94,466.11Z"
      style="fill:#263238"></path>
    <path d="M457.24,468.92c.16,0,.22-.73.69-1.43s1.11-1.05,1.06-1.19-.93,0-1.51.89S457.1,469,457.24,468.92Z"
      style="fill:#263238"></path>
    <path d="M461.64,469.59c0-.15-.82-.13-1.52.5s-.82,1.43-.68,1.45.45-.54,1-1.05S461.67,469.74,461.64,469.59Z"
      style="fill:#263238"></path>
    <path d="M450.54,469.29c.13-.12-.35-.85-.58-1.87s-.16-1.87-.34-1.92-.57.89-.28,2.07S450.42,469.42,450.54,469.29Z"
      style="fill:#263238"></path>
    <path
      d="M436,427.48c-.7-.2-33.33,30.72-34,36.22s.42,10.28,4.08,13.38,45.36-7,45.36-7l-3.94-17.47,15.07-5.07-13.47-24.65Z"
      style="fill:#263238"></path>
    <g style="opacity:0.30000000000000004">
      <path d="M428.89,433.76l-1.69,1.61s16.59,16.85,22,16.6l8.72-3L430.11,432.6Z"></path>
    </g>
    <path d="M447,452.2c0,.11-6.43,2.11-14.44,4.46s-14.52,4.17-14.56,4.06,6.44-2.1,14.44-4.46S447,452.09,447,452.2Z"
      style="fill:#455a64"></path>
    <path d="M412.64,455.5l5,15.94s-14.51,10.47-13.87,13.5l31.26-8.63-6.81-25.16Z" style="fill:#455a64"></path>
    <path
      d="M427,467.42a1.32,1.32,0,0,1,1.28,1.21,1.28,1.28,0,0,1-1.19,1.29,1.39,1.39,0,0,1-1.35-1.29c0-.65.75-1.35,1.38-1.2"
      style="fill:#e0e0e0"></path>
    <path d="M435.25,477l-.65-2.44-30,8.5s-1.23,1-.8,1.92Z" style="fill:#e0e0e0"></path>
    <path d="M417.11,471.43c.05.15.83,0,1.72.29s1.46.81,1.59.71-.35-.91-1.43-1.24S417,471.29,417.11,471.43Z"
      style="fill:#263238"></path>
    <path d="M414.21,473.69c0,.15.74.23,1.43.73s1,1.15,1.19,1.1,0-.94-.87-1.55S414.17,473.54,414.21,473.69Z"
      style="fill:#263238"></path>
    <path d="M413.43,478.13c.15,0,.15-.83-.47-1.56s-1.43-.86-1.46-.72.53.47,1,1.08S413.27,478.15,413.43,478.13Z"
      style="fill:#263238"></path>
    <path d="M416.37,467.67c.1.12.75-.29,1.62-.47s1.63-.09,1.67-.24-.75-.52-1.78-.3S416.26,467.57,416.37,467.67Z"
      style="fill:#263238"></path>
    <g style="opacity:0.30000000000000004">
      <polygon
        points="435.98 473.51 433.67 464.45 435.39 463.65 425.33 437.17 422.91 436.86 431.15 463 434.09 473.91 435.98 473.51">
      </polygon>
    </g>
    <path
      d="M411.24,402.88a14.67,14.67,0,0,0-11.79,2.52,10.82,10.82,0,0,0-4.4,10.83c1.69,11.83,16.81,52.22,16.81,52.22l20.92-6.29c.12,0,.24-.38.17-.28-.17.28-10.61-33.37-10.35-33s21.12,17.23,29.77,20.32a19.21,19.21,0,0,0,21.94-6.54c2-2.84,7.33-15.52-1.94-27.89l-17.95.94s-41-12.24-41.62-12.47A10.82,10.82,0,0,0,411.24,402.88Z"
      style="fill:#263238"></path>
    <path
      d="M475.13,442.27s-.08.14-.26.4a11.1,11.1,0,0,1-.84,1.11,19.28,19.28,0,0,1-4.12,3.45,21.15,21.15,0,0,1-8,3,18.8,18.8,0,0,1-5.42.07,18,18,0,0,1-5.85-1.75c-1-.43-1.93-1-2.94-1.51s-2-1.13-3-1.76c-2-1.25-4.06-2.59-6.16-4.06-4.2-2.91-8.6-6.2-13.16-9.83l-1.72-1.38-.85-.72-.23-.2-.11-.11c.07,0-.2-.09.15.05.27-.29.08-.15.14-.18V429l.16.53,1.34,4.35,2.85,9c2,6.14,4,12.55,6.11,19.18l.06.19-.19.06-21.19,6.38-.19.05-.06-.18c-1.35-3.62-2.76-7.48-4.16-11.39-3-8.5-5.92-16.83-8.47-25-1.27-4.06-2.46-8.07-3.41-12.07-.11-.5-.25-1-.34-1.49s-.19-1-.28-1.51a14,14,0,0,1-.29-3,10.54,10.54,0,0,1,1.68-5.72,13.78,13.78,0,0,1,9.62-5.82,15.13,15.13,0,0,1,5.5.24l1.33.33,1.27.38,2.52.75,18.53,5.54c11.32,3.39,20.49,6.13,26.83,8l7.29,2.2,1.89.59c.43.13.64.21.64.21l-.65-.17-1.9-.55L462,418,435.08,410l-18.56-5.49-2.52-.74-1.28-.38-1.28-.32a14.86,14.86,0,0,0-5.37-.22,13.4,13.4,0,0,0-9.35,5.67,10.22,10.22,0,0,0-1.62,5.52,13.58,13.58,0,0,0,.3,3l.27,1.49c.1.5.23,1,.35,1.49.94,4,2.13,8,3.41,12,2.55,8.12,5.43,16.44,8.47,24.94,1.4,3.91,2.8,7.77,4.15,11.39l-.25-.13,21.2-6.36-.14.25c-2.1-6.63-4.14-13-6.09-19.18l-2.83-9-1.34-4.36-.15-.54,0-.08c.06-.05-.15.06.13-.24.37.16.12.06.21.1l.09.08.19.17.84.71,1.71,1.39c4.55,3.63,8.94,6.93,13.13,9.85,2.08,1.47,4.14,2.81,6.13,4.06,1,.63,2,1.19,3,1.77s1.94,1.08,2.92,1.51a17.56,17.56,0,0,0,5.77,1.76,18.08,18.08,0,0,0,5.36-.05,20.87,20.87,0,0,0,8-3,19.69,19.69,0,0,0,4.15-3.38c.39-.47.7-.82.87-1.08Z"
      style="fill:#455a64"></path>
    <path
      d="M413,419.64a7.69,7.69,0,0,1,1.74.95,24.67,24.67,0,0,1,3.75,3,23.7,23.7,0,0,1,3.11,3.64,6.93,6.93,0,0,1,1,1.73,14.14,14.14,0,0,1-1.2-1.56,31.56,31.56,0,0,0-3.15-3.51,37.67,37.67,0,0,0-3.63-3A12.86,12.86,0,0,1,413,419.64Z"
      style="fill:#263238"></path>
    <path
      d="M420.18,417.31a6.19,6.19,0,0,1,.76,1.58,27.11,27.11,0,0,1,1.23,4,27.72,27.72,0,0,1,.6,4.17,5.84,5.84,0,0,1,0,1.75c-.12,0-.26-2.65-1-5.83S420.06,417.36,420.18,417.31Z"
      style="fill:#263238"></path>
    <path
      d="M430.15,365.76a40,40,0,0,1-3.06,5.59,38.42,38.42,0,0,1-3.51,5.33,40,40,0,0,1,3.06-5.59A38.11,38.11,0,0,1,430.15,365.76Z"
      style="fill:#263238"></path>
  </g>
</svg>