<svg xmlns="http://www.w3.org/2000/svg" viewBox="0 0 500 500">
  <defs>
    <clipPath id="a">
      <rect width="136.93" height="136.93" x="123.3" y="83.43" rx="7.1" style="fill:#f15;stroke:#263238;stroke-miterlimit:10"/>
    </clipPath>
    <clipPath id="b">
      <rect width="110.77" height="15.89" x="92.4" y="255.22" rx="2.09" style="fill:#f15;stroke:#263238;stroke-miterlimit:10"/>
    </clipPath>
    <clipPath id="c">
      <path d="m439.88 365.67-15.11 88.71h-99.28l18.4-86.69a31.27 31.27 0 0 1 30.34-24.77h46.44a19.34 19.34 0 0 1 13.91 5.85 13.43 13.43 0 0 1 1 1 19.4 19.4 0 0 1 4.3 15.9Z" style="fill:#263238;stroke:#263238;stroke-miterlimit:10"/>
    </clipPath>
    <clipPath id="d">
      <path d="M378.42 454.38h-79.86s-10.35-13-16.81-21.88l-.92-1.28a59.64 59.64 0 0 1-3.75-5.72 4.17 4.17 0 0 1-.32-.8c-.79-2.56-.34-7.17.55-11.93.27-1.48.59-3 .92-4.43 1.46-6.41 3.25-12 3.25-12s-2.21.13-5.77.27a376.78 376.78 0 0 1-16.69.38h-4.73c-4.85-.06-9.78-.23-14.24-.59a95.25 95.25 0 0 1-4.18-.42 37.28 37.28 0 0 1-9.93-2.22c-1.33-.59-2.52-2-3.58-4.15a39.92 39.92 0 0 1-2.75-7.88 130 130 0 0 1-2.69-14.73 307.09 307.09 0 0 1-1.76-17.59q-.17-2.24-.3-4.41c-.22-3.45-.4-6.78-.54-9.85l-.17-4.33c-.17-4.56-.25-8.28-.3-10.62v-2.7s12.57-2.69 16.9-14.39c0 0 .47 2 1.22 5.57l1.07 5.28c.33 1.7.69 3.56 1.05 5.56.6 3.15 1.22 6.66 1.83 10.43a452.58 452.58 0 0 1 2.03 13.59 434.44 434.44 0 0 1 2.05 18.87l.2 2.57a21 21 0 0 1 3.27-.25 2.45 2.45 0 0 1 1.22.25c.79.58 1.34 3.92 1.34 3.92l1.09-.22 4-.8 7.79-1.5 4-.74c2-.37 4-.74 6.07-1.09l4-.69c2.86-.47 5.58-.9 8-1.22 1.51-.21 2.88-.38 4.06-.49l.63-.06a44.33 44.33 0 0 1 7.42.21c15.79 1.48 43.85 8.2 57.65 9 6 .36 9.75 10.74 12.65 24.06.78 3.58 1.5 7.38 2.2 11.25q.57 3.21 1.11 6.45l.86 5.1h0c.25 1.5.5 3 .76 4.46l.94 5.32a218.87 218.87 0 0 0 2.17 10.69c.35 1.49.71 2.91 1.08 4.24a43.37 43.37 0 0 0 2.58 7.18 12.8 12.8 0 0 0 2.22 3.35 5.32 5.32 0 0 0 1.11.98Z" style="fill:#f15;stroke:#263238;stroke-linecap:round;stroke-linejoin:round"/>
    </clipPath>
    <clipPath id="e">
      <path d="m363.3 395.39 3.18-2.3s3.21 7.41 3.3 10.18a1.77 1.77 0 0 1-.08.7c-.35.92-1.76 5.14-3.09 9.12l-.5 1.5-1.89 5.68h0l-.05.15-.11.34s.15 1.57.34 4c.14 1.81.29 4.1.41 6.62h0c.08 1.43.13 2.93.18 4.46v7.02a70.27 70.27 0 0 1-.27 4.62c-.31 3.17-.88 5.69-1.84 6.82H259.2s-9-6.11-9.5-10.85a24.52 24.52 0 0 1 0-7.12h1l3.8.21 5.57-1.23 3.94-.84c3.33-.7 7.14-1.5 10.8-2.22 1.35-.27 2.68-.52 3.95-.76l1.37-.26.75-.14c1.83-.33 3.48-.61 4.84-.81a25.39 25.39 0 0 1 3.19-.33h16.86l4.23.05c2.35-.05 4.61-.13 6.63-.25l1.65-.1h0c1.19-.09 2.25-.19 3.16-.31a11.31 11.31 0 0 0 2.7-.58 1.15 1.15 0 0 0 .49-.31 2.45 2.45 0 0 1 .34-.37c1.63-1.5 4.15.11 4.15.11l.42-1.56 1.32-4.91h0l.06-.22.9-3.32.33-.24.25-.19h0" style="fill:#f15;stroke:#263238;stroke-linecap:round;stroke-linejoin:round"/>
    </clipPath>
    <clipPath id="f">
      <path d="M329 321.84s.4-24.55-16.28-31.91a31 31 0 0 1 13.56 4.12c7.45 4.12 11.57 14.83 9.82 31Z" style="fill:#f15;stroke:#263238;stroke-miterlimit:10"/>
    </clipPath>
    <clipPath id="g">
      <path d="M338.67 334.49c-1.15 5.4-5.16 9.11-9 8.31s-5.95-5.84-4.8-11.23 5.15-9.11 8.95-8.3 5.99 5.83 4.85 11.22Z" style="fill:#f15;stroke:#263238;stroke-miterlimit:10"/>
    </clipPath>
    <clipPath id="h">
      <path d="M149.88 440.45a.87.87 0 0 0-.67.41L141.4 453a.92.92 0 0 0 .78 1.43h59.72v-13.98Z" style="fill:#f15;stroke:#263238;stroke-miterlimit:10"/>
    </clipPath>
    <clipPath id="i">
      <path d="M206.11 454.38h-11.93a.92.92 0 0 1-.78-1.43l7.8-12.08a.93.93 0 0 1 1.66.21l4.14 12.07a.94.94 0 0 1-.89 1.23Z" style="fill:#f15;stroke:#263238;stroke-miterlimit:10"/>
    </clipPath>
    <clipPath id="j">
      <path d="m111.87 426.33-1 6-.22 1.28L107 454.2H50.17l-3.36-19.26-.22-1.25-1.28-7.36a1.72 1.72 0 0 1 1.69-2h63.19a1.71 1.71 0 0 1 1.68 2Z" style="fill:#263238"/>
    </clipPath>
  </defs>
  <path d="M67.93 167.09s-27.88 72 11.3 144.5 119.88 110.8 184.47 143.55 131.66 16.8 163.53-36.84-11.84-91.93-11.9-168.42 11.45-96.74-30-161.36-143.06-78.93-219.9-31-97.5 109.57-97.5 109.57Z" style="fill:#fff;opacity:.7000000000000001"/>
  <path d="M438.86 205.45c-18.2-20.12-48.67-22.38-72.38-35.56-40.79-22.7-56.6-74.39-93.71-102.71-23.43-17.88-55.09-24.82-83.4-20.9-40.19 5.57-78 32.5-89.36 72a99.79 99.79 0 0 0-3.44 35.41c1.82 23.55 6.88 47.4 2.1 70.53-5.26 25.49-21.85 47-31.76 71.09-12.34 30-14 63.6-8.76 95.58 3.6 21.82 10.78 43.84 25.76 60.11a78.37 78.37 0 0 0 3.51 3.55H251c10.27-13.09 18-28.58 27.07-42.33 22.73-34.58 59.1-59.24 98.83-70.81 17.8-5.18 37.09-8.26 51.39-20.06 14.71-12.13 21.47-31.49 24.4-50.34 3.57-22.85 1.66-48.43-13.83-65.56Z" style="fill:#f15"/>
  <path d="M438.86 205.45c-18.2-20.12-48.67-22.38-72.38-35.56-40.79-22.7-56.6-74.39-93.71-102.71-23.43-17.88-55.09-24.82-83.4-20.9-40.19 5.57-78 32.5-89.36 72a99.79 99.79 0 0 0-3.44 35.41c1.82 23.55 6.88 47.4 2.1 70.53-5.26 25.49-21.85 47-31.76 71.09-12.34 30-14 63.6-8.76 95.58 3.6 21.82 10.78 43.84 25.76 60.11a78.37 78.37 0 0 0 3.51 3.55H251c10.27-13.09 18-28.58 27.07-42.33 22.73-34.58 59.1-59.24 98.83-70.81 17.8-5.18 37.09-8.26 51.39-20.06 14.71-12.13 21.47-31.49 24.4-50.34 3.57-22.85 1.66-48.43-13.83-65.56Z" style="fill:#fff;opacity:.7000000000000001"/>
  <path d="M73 262.67h-9.2a2.71 2.71 0 0 1-2.71-2.7V154a2.71 2.71 0 0 1 2.71-2.71h50.82" style="fill:none;stroke:#263238;stroke-miterlimit:10"/>
  <circle cx="116.96" cy="151.31" r="1.88" style="fill:none;stroke:#263238;stroke-miterlimit:10"/>
  <path d="M76.6 262.67a1.88 1.88 0 1 1-1.87-1.87 1.88 1.88 0 0 1 1.87 1.87Zm192.17-155.33h88.57a1 1 0 0 1 1 1v20.34" style="fill:none;stroke:#263238;stroke-miterlimit:10"/>
  <circle cx="266.89" cy="107.34" r="1.88" style="fill:none;stroke:#263238;stroke-miterlimit:10"/>
  <path d="M360.2 130.44a1.88 1.88 0 1 1-1.88-1.87 1.88 1.88 0 0 1 1.88 1.87Z" style="fill:none;stroke:#263238;stroke-miterlimit:10"/>
  <rect width="136.93" height="136.93" x="289.86" y="136.97" rx="7.1" style="fill:#f15;stroke:#263238;stroke-miterlimit:10"/>
  <path d="M300.83 149.41h114.99v67.87H300.83zm53.45 84.2h3.21v9.16h-3.21zm4.88 0h3.21v9.16h-3.21zm23.06 0v9.16l6.2-4.58-6.2-4.58z" style="fill:#263238"/>
  <path d="M388.22 233.61v9.16l6.2-4.58-6.2-4.58zm-53.8 9.16v-9.16l-6.2 4.58 6.2 4.58z" style="fill:#263238"/>
  <path d="M328.42 242.77v-9.16l-6.2 4.58 6.2 4.58z" style="fill:#263238"/>
  <path d="M315.5 255.45h85.64" style="fill:none;stroke:#263238;stroke-linecap:round;stroke-linejoin:round"/>
  <path d="M385.79 255.45a2.47 2.47 0 1 1-2.47-2.47 2.47 2.47 0 0 1 2.47 2.47Z" style="fill:#fff;stroke:#263238;stroke-miterlimit:10"/>
  <path d="M309.29 254.75v1.41l1.36 1v-3.41l-1.36 1zm-.83.06h.55v1.29h-.55zm96.83-.06v1.41l1.36 1v-3.41l-1.36 1zm-.83.06h.55v1.29h-.55z" style="fill:#263238"/>
  <path d="M315.5 211.45h85.64" style="fill:none;stroke:#fff;stroke-linecap:round;stroke-linejoin:round"/>
  <path d="M339.03 211.45H315.5" style="fill:none;stroke:#fff;stroke-linecap:round;stroke-linejoin:round;stroke-width:2px"/>
  <path d="M308.86 202.56h5.25v2.37h-5.25zm0-3.36h5.25v2.37h-5.25zm0-3.36h5.25v2.37h-5.25zm0-3.37h5.25v2.37h-5.25zm0-3.36h5.25v2.37h-5.25zm0-3.36h5.25v2.37h-5.25zm0-3.36h5.25v2.37h-5.25z" style="fill:#fff"/>
  <path d="M308.86 179.02h5.25v2.37h-5.25z" style="fill:#f15"/>
  <path d="M317.38 202.56h5.25v2.37h-5.25zm0-3.36h5.25v2.37h-5.25zm0-3.36h5.25v2.37h-5.25zm0-3.37h5.25v2.37h-5.25zm0-3.36h5.25v2.37h-5.25zm0-3.36h5.25v2.37h-5.25zm0-3.36h5.25v2.37h-5.25zm0-3.37h5.25v2.37h-5.25zm0-3.36h5.25v2.37h-5.25z" style="fill:#fff"/>
  <path d="M317.38 172.3h5.25v2.37h-5.25z" style="fill:#f15"/>
  <path d="M325.89 202.56h5.25v2.37h-5.25zm0-3.36h5.25v2.37h-5.25zm0-3.36h5.25v2.37h-5.25zm0-3.37h5.25v2.37h-5.25zm0-3.36h5.25v2.37h-5.25zm0-3.36h5.25v2.37h-5.25zm0-3.36h5.25v2.37h-5.25z" style="fill:#fff"/>
  <path d="M325.89 179.02h5.25v2.37h-5.25z" style="fill:#f15"/>
  <path d="M334.41 202.56h5.25v2.37h-5.25zm0-3.36h5.25v2.37h-5.25zm0-3.36h5.25v2.37h-5.25zm0-3.37h5.25v2.37h-5.25zm0-3.36h5.25v2.37h-5.25z" style="fill:#fff"/>
  <path d="M334.41 185.75h5.25v2.37h-5.25z" style="fill:#f15"/>
  <path d="M342.92 202.56h5.25v2.37h-5.25zm0-3.36h5.25v2.37h-5.25zm0-3.36h5.25v2.37h-5.25zm0-3.37h5.25v2.37h-5.25zm0-3.36h5.25v2.37h-5.25zm0-3.36h5.25v2.37h-5.25zm0-3.36h5.25v2.37h-5.25z" style="fill:#fff"/>
  <path d="M342.92 179.02h5.25v2.37h-5.25z" style="fill:#f15"/>
  <path d="M351.44 202.56h5.25v2.37h-5.25zm0-3.36h5.25v2.37h-5.25zm0-3.36h5.25v2.37h-5.25zm0-3.37h5.25v2.37h-5.25zm0-3.36h5.25v2.37h-5.25zm0-3.36h5.25v2.37h-5.25z" style="fill:#fff"/>
  <path d="M351.44 182.39h5.25v2.37h-5.25z" style="fill:#f15"/>
  <path d="M359.95 202.56h5.25v2.37h-5.25zm0-3.36h5.25v2.37h-5.25zm0-3.36h5.25v2.37h-5.25zm0-3.37h5.25v2.37h-5.25zm0-3.36h5.25v2.37h-5.25zm0-3.36h5.25v2.37h-5.25zm0-3.36h5.25v2.37h-5.25zm0-3.37h5.25v2.37h-5.25zm0-3.36h5.25v2.37h-5.25zm0-3.36h5.25v2.37h-5.25z" style="fill:#fff"/>
  <path d="M359.95 168.94h5.25v2.37h-5.25z" style="fill:#f15"/>
  <path d="M368.47 202.56h5.25v2.37h-5.25zm0-3.36h5.25v2.37h-5.25zm0-3.36h5.25v2.37h-5.25zm0-3.37h5.25v2.37h-5.25zm0-3.36h5.25v2.37h-5.25zm0-3.36h5.25v2.37h-5.25zm0-3.36h5.25v2.37h-5.25zm0-3.37h5.25v2.37h-5.25zm0-3.36h5.25v2.37h-5.25zm0-3.36h5.25v2.37h-5.25zm0-3.36h5.25v2.37h-5.25zm0-3.37h5.25v2.37h-5.25zm0-3.36h5.25v2.37h-5.25z" style="fill:#fff"/>
  <path d="M368.47 158.85h5.25v2.37h-5.25z" style="fill:#f15"/>
  <path d="M376.98 202.56h5.25v2.37h-5.25zm0-3.36h5.25v2.37h-5.25zm0-3.36h5.25v2.37h-5.25zm0-3.37h5.25v2.37h-5.25zm0-3.36h5.25v2.37h-5.25zm0-3.36h5.25v2.37h-5.25zm0-3.36h5.25v2.37h-5.25zm0-3.37h5.25v2.37h-5.25zm0-3.36h5.25v2.37h-5.25zm0-3.36h5.25v2.37h-5.25zm0-3.36h5.25v2.37h-5.25z" style="fill:#fff"/>
  <path d="M376.98 165.57h5.25v2.37h-5.25z" style="fill:#f15"/>
  <path d="M385.5 202.56h5.25v2.37h-5.25zm0-3.36h5.25v2.37h-5.25zm0-3.36h5.25v2.37h-5.25zm0-3.37h5.25v2.37h-5.25zm0-3.36h5.25v2.37h-5.25zm0-3.36h5.25v2.37h-5.25zm0-3.36h5.25v2.37h-5.25zm0-3.37h5.25v2.37h-5.25zm0-3.36h5.25v2.37h-5.25z" style="fill:#fff"/>
  <path d="M385.5 172.3h5.25v2.37h-5.25z" style="fill:#f15"/>
  <path d="M394.01 202.56h5.25v2.37h-5.25zm0-3.36h5.25v2.37h-5.25zm0-3.36h5.25v2.37h-5.25zm0-3.37h5.25v2.37h-5.25z" style="fill:#fff"/>
  <path d="M394.01 189.11h5.25v2.37h-5.25z" style="fill:#f15"/>
  <path d="M402.53 202.56h5.25v2.37h-5.25zm0-3.36h5.25v2.37h-5.25zm0-3.36h5.25v2.37h-5.25zm0-3.37h5.25v2.37h-5.25zm0-3.36h5.25v2.37h-5.25zm0-3.36h5.25v2.37h-5.25zm0-3.36h5.25v2.37h-5.25z" style="fill:#fff"/>
  <path d="M402.53 179.02h5.25v2.37h-5.25z" style="fill:#f15"/>
  <rect width="136.93" height="136.93" x="123.3" y="83.43" rx="7.1" style="fill:#f15"/>
  <g style="clip-path:url(#a)">
    <path d="M129.61 83.43h130.61v136.93H123.3V89.74a6.31 6.31 0 0 1 6.31-6.31Z" style="fill:#fff;opacity:.5"/>
  </g>
  <rect width="136.93" height="136.93" x="123.3" y="83.43" rx="7.1" style="fill:none;stroke:#263238;stroke-miterlimit:10"/>
  <rect width="115.91" height="24.53" x="133.47" y="95.07" rx="3.71" style="fill:#fff;stroke:#263238;stroke-miterlimit:10"/>
  <circle cx="145.5" cy="107.34" r="8.04" style="fill:#f15" transform="rotate(-45 145.5 107.33)"/>
  <path d="M149.36 111.08c0 1-1.19 1.73-2.65 1.73s-2.64-.77-2.64-1.73 1.18-1.73 2.64-1.73 2.65.77 2.65 1.73Z" style="fill:#263238"/>
  <path d="m146.39 101.86-1.81 9.22h-.51l1.33-6.74.34-1.75a3.07 3.07 0 0 0 .65-.72Z" style="fill:#263238"/>
  <path d="m146.39 101.87-.45 2.22a2.44 2.44 0 0 1-.54.25 4.28 4.28 0 0 1-1.75.22 2.09 2.09 0 0 0-2 1.06 3 3 0 0 1 2.37-2.27 3.42 3.42 0 0 0 2.38-1.48Zm39.17 4.85H161a2 2 0 0 1 0-4h24.53a2 2 0 0 1 0 4Zm19.7 5.28H160a1 1 0 0 1 0-2h45.23a1 1 0 0 1 0 2Z" style="fill:#263238"/>
  <rect width="12.53" height="12.53" x="230.02" y="101.07" rx="2.06" style="fill:#fff;stroke:#263238;stroke-miterlimit:10"/>
  <path d="M236.29 104.61v5.46m2.73-2.73h-5.46" style="fill:none;stroke:#263238;stroke-miterlimit:10"/>
  <rect width="115.91" height="24.53" x="133.47" y="124.44" rx="3.71" style="fill:#fff;stroke:#263238;stroke-miterlimit:10"/>
  <circle cx="145.5" cy="136.71" r="8.04" style="fill:#f15" transform="rotate(-45 145.5 136.7)"/>
  <path d="M149.36 140.45c0 1-1.19 1.73-2.65 1.73s-2.64-.77-2.64-1.73 1.18-1.73 2.64-1.73 2.65.77 2.65 1.73Z" style="fill:#263238"/>
  <path d="m146.39 131.23-1.81 9.22h-.51l1.33-6.74.34-1.75a3.3 3.3 0 0 0 .65-.72Z" style="fill:#263238"/>
  <path d="m146.39 131.24-.45 2.22a2.44 2.44 0 0 1-.54.25 4.28 4.28 0 0 1-1.75.22 2.09 2.09 0 0 0-2 1.06 3 3 0 0 1 2.37-2.27 3.09 3.09 0 0 0 1.73-.76 3.3 3.3 0 0 0 .64-.72Zm39.17 4.85H161a2 2 0 0 1 0-4h24.53a2 2 0 0 1 0 4Zm19.7 5.23H160a1 1 0 0 1 0-2h45.23a1 1 0 0 1 0 2Z" style="fill:#263238"/>
  <rect width="12.53" height="12.53" x="230.02" y="130.44" rx="2.06" style="fill:#fff;stroke:#263238;stroke-miterlimit:10"/>
  <path d="M236.29 133.98v5.46m2.73-2.73h-5.46" style="fill:none;stroke:#263238;stroke-miterlimit:10"/>
  <rect width="115.91" height="24.53" x="133.47" y="153.81" rx="3.71" style="fill:#fff;stroke:#263238;stroke-miterlimit:10"/>
  <circle cx="145.5" cy="166.08" r="8.04" style="fill:#f15" transform="rotate(-45 145.5 166.08)"/>
  <path d="M149.36 169.82c0 1-1.19 1.73-2.65 1.73s-2.64-.77-2.64-1.73 1.18-1.73 2.64-1.73 2.65.77 2.65 1.73Z" style="fill:#263238"/>
  <path d="m146.39 160.6-1.81 9.22h-.51l1.33-6.74.34-1.75a3.3 3.3 0 0 0 .65-.72Z" style="fill:#263238"/>
  <path d="m146.39 160.61-.45 2.22a2.44 2.44 0 0 1-.54.25 4.28 4.28 0 0 1-1.75.22 2.09 2.09 0 0 0-2 1.06 3 3 0 0 1 2.37-2.27 3.16 3.16 0 0 0 1.73-.76 3.3 3.3 0 0 0 .64-.72Zm39.17 4.85H161a2 2 0 0 1 0-4h24.53a2 2 0 0 1 0 4Zm19.7 5.23H160a1 1 0 0 1 0-2h45.23a1 1 0 0 1 0 2Z" style="fill:#263238"/>
  <rect width="12.53" height="12.53" x="230.02" y="159.81" rx="2.06" style="fill:#fff;stroke:#263238;stroke-miterlimit:10"/>
  <path d="M236.29 163.35v5.46m2.73-2.73h-5.46" style="fill:none;stroke:#263238;stroke-miterlimit:10"/>
  <rect width="115.91" height="24.53" x="133.47" y="183.18" rx="3.71" style="fill:#fff;stroke:#263238;stroke-miterlimit:10"/>
  <circle cx="145.5" cy="195.45" r="8.04" style="fill:#f15" transform="rotate(-45 145.5 195.45)"/>
  <ellipse cx="146.71" cy="199.19" rx="2.64" ry="1.73" style="fill:#263238"/>
  <path d="m146.39 190-1.81 9.22h-.51l1.33-6.74.34-1.75a3.3 3.3 0 0 0 .65-.72Z" style="fill:#263238"/>
  <path d="m146.39 190-.45 2.22a2.44 2.44 0 0 1-.54.25 4.13 4.13 0 0 1-1.75.21 2.11 2.11 0 0 0-2 1.07 3 3 0 0 1 2.37-2.27 3.16 3.16 0 0 0 1.73-.76 3.3 3.3 0 0 0 .64-.72Zm39.17 4.83H161a2 2 0 0 1 0-4h24.53a2 2 0 0 1 0 4Zm19.7 5.23H160a1 1 0 0 1 0-2h45.23a1 1 0 0 1 0 2Z" style="fill:#263238"/>
  <rect width="12.53" height="12.53" x="230.02" y="189.18" rx="2.06" style="fill:#fff;stroke:#263238;stroke-miterlimit:10"/>
  <path d="M236.29 192.72v5.46m2.73-2.73h-5.46" style="fill:none;stroke:#263238;stroke-miterlimit:10"/>
  <rect width="136.93" height="136.93" x="79.32" y="243.43" rx="7.1" style="fill:#fff;stroke:#263238;stroke-miterlimit:10"/>
  <circle cx="147.78" cy="321.75" r="42.92" style="fill:#f15" transform="rotate(-24 147.81 321.77)"/>
  <rect width="110.77" height="15.89" x="92.4" y="255.22" rx="2.09" style="fill:#f15"/>
  <g style="clip-path:url(#b)">
    <rect width="110.77" height="15.89" x="92.4" y="255.22" rx="2.09" style="fill:#fff;opacity:.7000000000000001"/>
  </g>
  <rect width="110.77" height="15.89" x="92.4" y="255.22" rx="2.09" style="fill:none;stroke:#263238;stroke-miterlimit:10"/>
  <path d="M187.28 255.22h13.8a2.09 2.09 0 0 1 2.09 2.09V269a2.09 2.09 0 0 1-2.09 2.09h-13.8v-15.87Z" style="fill:#f15;stroke:#263238;stroke-miterlimit:10"/>
  <path d="m200.17 267.17-2.65-2.65a1 1 0 0 0-1-.25l-.24-.24a3.77 3.77 0 0 0-.32-5 3.9 3.9 0 0 0-5.37 0 3.79 3.79 0 0 0 5 5.69l.24.24a1 1 0 0 0 .24.95l2.66 2.66a1 1 0 0 0 .71.29 1 1 0 0 0 .7-.29 1 1 0 0 0 .03-1.4Zm-8.82-3.46a2.8 2.8 0 1 1 4 0 2.79 2.79 0 0 1-4 0Z" style="fill:#263238"/>
  <ellipse cx="155.01" cy="342.81" rx="15.69" ry="10.29" style="fill:#263238"/>
  <path d="m153.1 288.08-10.78 54.73h-3l7.88-40 2.05-10.39a19.39 19.39 0 0 0 3.84-4.3Z" style="fill:#263238"/>
  <path d="m153.09 288.1-2.66 13.23a16.82 16.82 0 0 1-3.23 1.46 25 25 0 0 1-10.4 1.28 12.65 12.65 0 0 0-11.94 6.31c.15-.6 3.24-12.28 14.11-13.47a18.91 18.91 0 0 0 10.28-4.51 19.39 19.39 0 0 0 3.84-4.3Z" style="fill:#263238"/>
  <path d="M43.96 454.38h394.02m-310.23 4.09h250.67m-170.02 8.44h69.67m107.25-8.11h11.32m-200.52 8.11h-13.47M72.56 458.8H58.31" style="fill:none;stroke:#263238;stroke-linecap:round;stroke-linejoin:round"/>
  <path d="m439.88 365.67-15.11 88.71h-99.28l18.4-86.69a31.27 31.27 0 0 1 30.34-24.77h46.44a19.34 19.34 0 0 1 13.91 5.85 13.43 13.43 0 0 1 1 1 19.4 19.4 0 0 1 4.3 15.9Z" style="fill:#263238"/>
  <g style="clip-path:url(#c)">
    <path d="M356.83 379.17a12 12 0 0 0 9.11 4.16h26.24A26.13 26.13 0 0 0 417.75 363l1.46-6.24a15.44 15.44 0 0 1 10.93-11.43 19.42 19.42 0 0 0-9.47-2.45h-46.18a31.22 31.22 0 0 0-17.34 5.25L354 369.54a12 12 0 0 0 2.83 9.63Z" style="fill:#fff;opacity:.1"/>
    <path d="m420.18 357-1.45 6.24a27.13 27.13 0 0 1-26.55 21.07h-26.24A13 13 0 0 1 353 369.4l3-20.4a31.23 31.23 0 0 0-12.13 18.74l-18.4 86.69h78.6l18.51-95.73a12.2 12.2 0 0 1 12-9.89 18.84 18.84 0 0 0-3.24-2.65A14.44 14.44 0 0 0 420.18 357Z" style="fill:#fff;opacity:.1"/>
    <path d="M391.09 454.38h-65.6l18.4-86.69a31.27 31.27 0 0 1 30.34-24.77c1.47 4.48 1.82 11.45-2.21 21.74 0 0 9.23-1.49 11.87 22.43 2.51 22.72 2.87 17.19 7.2 67.29Z" style="opacity:.1"/>
  </g>
  <path d="m439.88 365.67-15.11 88.71h-99.28l18.4-86.69a31.27 31.27 0 0 1 30.34-24.77h46.44a19.34 19.34 0 0 1 13.91 5.85 13.43 13.43 0 0 1 1 1 19.4 19.4 0 0 1 4.3 15.9Z" style="fill:none;stroke:#263238;stroke-miterlimit:10"/>
  <path d="M254.37 441.44h-11.66c-1 0-13.41-1.74-15.39-2s-7.95 14.93-7.95 14.93h46.42Z" style="fill:#fff;stroke:#263238;stroke-linecap:round;stroke-linejoin:round"/>
  <path d="M228.08 441.68s-.66 2.51 0 3.43 2.24.66 2.24 2.37-.13 2.77 2.24 4 .66 2.19 2.51 2.94m-7.29-6.42s-4.19 4.28-5.37 6.35m6.85-2.51a16.62 16.62 0 0 0-2.5 2.54" style="fill:none;stroke:#263238;stroke-linecap:round;stroke-linejoin:round"/>
  <path d="M230.71 303.15c-.71-3.51-17 6.82-16.9 14.39s14 6.37 14 6.37 4.08-14.91 2.9-20.76Z" style="fill:#263238;stroke:#263238;stroke-linecap:round;stroke-linejoin:round"/>
  <path d="M229.79 309.12c-3.33-18.07-2.47-17-4.75-23.91a15.47 15.47 0 0 0-4.38-7c-8.5-4.68-23.51-16.33-23.51-16.33s-1.81 1.33.3 3.7 9.67 8.71 9.67 8.71-5 .69-4.13 3.53c0 0-3 .68-.9 5.55a7 7 0 0 0-.49 2.44c.38 1.8 2.23 4 4.06 3.56 0 0 5.41 6.19 10.68 8.45l1.19 22.72Z" style="fill:#fff;stroke:#263238;stroke-linecap:round;stroke-linejoin:round"/>
  <path d="M209.09 276.58a2.53 2.53 0 0 1-.93 1.65m-1.25-1.12a4.21 4.21 0 0 1 1.72 2.82m-5.63-2.09c0 1.64 2.82 5.52 4.65 5.86m-5.56-.31a18.55 18.55 0 0 0 1.26 1.83c2.9 3.39 4.29 1 4.29 1m-1.98 3.17a13.46 13.46 0 0 0 2.5-.79c.93-.76 0-2.3 0-2.3" style="fill:none;stroke:#263238;stroke-linecap:round;stroke-linejoin:round"/>
  <path d="M218.91 279.55a5.49 5.49 0 0 1-3 .2c-1.39-.4-5.74-1.71-6.93-.46s-1.38 6.91-1.38 6.91 2.4 1.68 3.63-2.5c0 0 1.31 1 2 4s2.08 5.85 3.86 5.79" style="fill:#fff;stroke:#263238;stroke-linecap:round;stroke-linejoin:round"/>
  <path d="M307.86 288.69s25.71 4.24 34.68 16.64-4 35.6 3.16 48.53 29.54 23.47 18.46 52.22-57 12.13-75.3-22.42 19-94.97 19-94.97Z" style="fill:#263238"/>
  <path d="M312.71 289.93s-13.31-4.65-27.35-.69-14.43 16.87-11.26 37.12-7.08 36.35 5.76 46.3 51.93-13.79 51.93-13.79 15.97-56.39-19.08-68.94Z" style="fill:#263238"/>
  <path d="M378.42 454.38h-79.86s-10.35-13-16.81-21.88l-.92-1.28a59.64 59.64 0 0 1-3.75-5.72 4.17 4.17 0 0 1-.32-.8c-.79-2.56-.34-7.17.55-11.93.27-1.48.59-3 .92-4.43 1.46-6.41 3.25-12 3.25-12s-2.21.13-5.77.27a376.78 376.78 0 0 1-16.69.38h-4.73c-4.85-.06-9.78-.23-14.24-.59a95.25 95.25 0 0 1-4.18-.42 37.28 37.28 0 0 1-9.93-2.22c-1.33-.59-2.52-2-3.58-4.15a39.92 39.92 0 0 1-2.75-7.88 130 130 0 0 1-2.69-14.73 307.09 307.09 0 0 1-1.76-17.59q-.17-2.24-.3-4.41c-.22-3.45-.4-6.78-.54-9.85l-.17-4.33c-.17-4.56-.25-8.28-.3-10.62v-2.7s12.57-2.69 16.9-14.39c0 0 .47 2 1.22 5.57l1.07 5.28c.33 1.7.69 3.56 1.05 5.56.6 3.15 1.22 6.66 1.83 10.43a452.58 452.58 0 0 1 2.03 13.59 434.44 434.44 0 0 1 2.05 18.87l.2 2.57a21 21 0 0 1 3.27-.25 2.45 2.45 0 0 1 1.22.25c.79.58 1.34 3.92 1.34 3.92l1.09-.22 4-.8 7.79-1.5 4-.74c2-.37 4-.74 6.07-1.09l4-.69c2.86-.47 5.58-.9 8-1.22 1.51-.21 2.88-.38 4.06-.49l.63-.06a44.33 44.33 0 0 1 7.42.21c15.79 1.48 43.85 8.2 57.65 9 6 .36 9.75 10.74 12.65 24.06.78 3.58 1.5 7.38 2.2 11.25q.57 3.21 1.11 6.45l.86 5.1c.25 1.5.5 3 .76 4.46l.94 5.32a218.87 218.87 0 0 0 2.17 10.69c.35 1.49.71 2.91 1.08 4.24a43.37 43.37 0 0 0 2.58 7.18 12.8 12.8 0 0 0 2.22 3.35 5.32 5.32 0 0 0 1.11.98Z" style="fill:#f15"/>
  <g style="clip-path:url(#d)">
    <g style="opacity:.5">
      <path d="M369.78 403.27a18.08 18.08 0 0 1-4.28 3.37c-5.95 3.49-14.57 4.92-22.76 4.62l-1.26-.07c-13.8-1-26.85-9.35-40.7-24.45-10.64-11.61-9.2-20.62-7.78-24.45 15.79 1.48 43.85 8.2 57.65 9 6 .36 9.75 10.74 12.65 24.06l3.18-2.3s3.21 7.45 3.3 10.22Z" style="fill:#fff"/>
      <path d="M368.23 422.66a24.59 24.59 0 0 1-3.83 2.15 29.4 29.4 0 0 1-12.21 2.53 38.31 38.31 0 0 1-11-1.69 82.54 82.54 0 0 1-10.35-3.89c-9.5-4.29-17.45-9.92-25.21-15.42l-4.81-3.38a30.91 30.91 0 0 1-11.63-16.73 28.91 28.91 0 0 1-8.29-23.59c1.51-.21 2.88-.38 4.06-.49a25.14 25.14 0 0 0 7.42 21.61l.44.43.12.59c0 .09 2.13 9.31 10.17 14.9 1.62 1.12 3.22 2.26 4.83 3.4 7.81 5.53 15.3 10.83 24.19 14.9a78.66 78.66 0 0 0 10.21 3.85c9.1 2.73 16.68 1.4 21.84-1.39a18.65 18.65 0 0 0 3.3-2.23c.24 1.49.52 2.98.75 4.45Z" style="fill:#fff"/>
      <path d="M370 432.53a31.79 31.79 0 0 1-5 3.37 42.31 42.31 0 0 1-19.68 5.18 29.45 29.45 0 0 1-9.47-1.48c-4.82-1.64-11.08-5.43-17.59-9.91a474.26 474.26 0 0 1-16.64-12.14c-6-4.5-11.65-8.75-13.42-9.39-5.87-2.11-6.09-12.43-6-15.8-10.63-10.51-13-21.24-13.24-27.82l4-.69c.12 5.84 2.11 16.13 12.68 26.26l.66.64v.93c-.22 3.68.29 11.63 3.32 12.72 2.22.8 6.71 4.13 14.46 10a373.1 373.1 0 0 0 20.11 14.44c4.91 3.2 9.49 5.8 13 7 8.95 3 20.52.07 27.68-4.37a21.27 21.27 0 0 0 4.36-3.45c.22 1.51.5 3.03.77 4.51Zm-94.29-35.94c-1.6.07-3.46.14-5.53.2-8.32-9.25-10.64-23.05-11.28-30.42l4-.74c.62 7.45 3.1 22.82 12.81 30.96Z" style="fill:#fff"/>
      <path d="M372.42 442.91a42.57 42.57 0 0 1-7.69 4.65 46.48 46.48 0 0 1-19.83 4.22c-18.1 0-36.58-9.1-47.68-20.23l-1.42-1.42c-9.74-9.71-15.56-14.89-18.49-17.36.27-1.48.59-3 .92-4.43 2.29 1.83 8.79 7.31 21.82 20.38.47.48 1 .95 1.47 1.42 15.13 14.08 42.59 24.1 63.48 12.8a39.37 39.37 0 0 0 6.34-4.27c.35 1.49.71 2.91 1.08 4.24ZM259 397h-4.73c-6.7-11.76-6.7-19-7.21-28.28l4-.8c2.41 9.43 1.99 14.5 7.94 29.08Z" style="fill:#fff"/>
      <path d="M294.45 437.58c8.54 7.54 23.36 13.87 38.56 16.8h-15.18c-10.73-3.64-20.15-8.62-26-13.81a122 122 0 0 0-10.06-8.07l-1.67-1.14.75-.14a59.64 59.64 0 0 1-3.75-5.72 4.17 4.17 0 0 1-.32-.8 69.79 69.79 0 0 1 8.91 5.71c2.59 1.94 5.51 4.29 8.76 7.17Zm82.77 15.86c-.48.33-1 .64-1.48.94h-10.62a32.76 32.76 0 0 0 9.88-4.29 12.8 12.8 0 0 0 2.22 3.35Zm-137.17-57.08a95.25 95.25 0 0 1-4.18-.42c1.78-6.37 5.34-20.85 4.09-33.54l.2 2.57a21 21 0 0 1 3.27-.25c1.06 8.45-1.96 26.02-3.38 31.64Zm-.49-38.56c-2.94 13.4-9.77 24.62-17.2 31.77a39.92 39.92 0 0 1-2.75-7.88c11.32-8.52 18-21.41 19.43-28.86.18 1.65.36 3.31.52 4.97Zm-1.12-10.05A39.72 39.72 0 0 1 216.92 367a235.1 235.1 0 0 1-.76-6.41c10.41-4.21 17.89-10.55 21.75-17.07l.53 4.23Zm-1.82-13.17c-4.77 8.7-13.13 14.13-21.47 14.87q-.17-2.24-.3-4.41a30.07 30.07 0 0 0 21-15.05c.28 1.49.52 3.01.77 4.59Zm-2.57-15.02c-3.82 8.39-10.12 15.07-19.74 15.63l-.17-4.33A25.33 25.33 0 0 0 233 314c.33 1.7.69 3.56 1.05 5.56Zm-2.12-10.84c-5.13 8.19-11.84 11.06-18.09 11.52v-2.7s12.57-2.69 16.9-14.39c-.03 0 .44 2.03 1.19 5.57Z" style="fill:#fff"/>
    </g>
    <path d="M281.48 396.32s-2.21.13-5.77.27a376.78 376.78 0 0 1-16.69.38h-4.73l-2.71-.05a18.65 18.65 0 0 1 8.88-3.81c9.76-1 10.76-3.64 10.76-3.64a10.36 10.36 0 0 0 9.17-4.29c.71 1.88 1.09 11.14 1.09 11.14Zm96.94 58.06h-79.86s-10.35-13-16.81-21.88l-.92-1.28a59.64 59.64 0 0 1-3.75-5.72 4.17 4.17 0 0 1-.32-.8c-.63-2-.47-5.37.07-9.05 1.31 3.39 3.43 6.69 6.67 6.43 6.5-.53 15.24 7.56 22.74 6.15s20.27-2.92 21.66-10.07c0 0 .7 2.35 3.55 1.29 0 0 19 2.54 35.14-6.49v.13l.86 5.1c.25 1.5.5 3 .76 4.46l.94 5.32a218.87 218.87 0 0 0 2.17 10.69c.35 1.49.71 2.91 1.08 4.24a43.37 43.37 0 0 0 2.58 7.18 12.8 12.8 0 0 0 2.22 3.35 5.32 5.32 0 0 0 1.22.95Z" style="fill-opacity:.7000000000000001;opacity:.2"/>
  </g>
  <path d="M378.42 454.38h-79.86s-10.35-13-16.81-21.88l-.92-1.28a59.64 59.64 0 0 1-3.75-5.72 4.17 4.17 0 0 1-.32-.8c-.79-2.56-.34-7.17.55-11.93.27-1.48.59-3 .92-4.43 1.46-6.41 3.25-12 3.25-12s-2.21.13-5.77.27a376.78 376.78 0 0 1-16.69.38h-4.73c-4.85-.06-9.78-.23-14.24-.59a95.25 95.25 0 0 1-4.18-.42 37.28 37.28 0 0 1-9.93-2.22c-1.33-.59-2.52-2-3.58-4.15a39.92 39.92 0 0 1-2.75-7.88 130 130 0 0 1-2.69-14.73 307.09 307.09 0 0 1-1.76-17.59q-.17-2.24-.3-4.41c-.22-3.45-.4-6.78-.54-9.85l-.17-4.33c-.17-4.56-.25-8.28-.3-10.62v-2.7s12.57-2.69 16.9-14.39c0 0 .47 2 1.22 5.57l1.07 5.28c.33 1.7.69 3.56 1.05 5.56.6 3.15 1.22 6.66 1.83 10.43a452.58 452.58 0 0 1 2.03 13.59 434.44 434.44 0 0 1 2.05 18.87l.2 2.57a21 21 0 0 1 3.27-.25 2.45 2.45 0 0 1 1.22.25c.79.58 1.34 3.92 1.34 3.92l1.09-.22 4-.8 7.79-1.5 4-.74c2-.37 4-.74 6.07-1.09l4-.69c2.86-.47 5.58-.9 8-1.22 1.51-.21 2.88-.38 4.06-.49l.63-.06a44.33 44.33 0 0 1 7.42.21c15.79 1.48 43.85 8.2 57.65 9 6 .36 9.75 10.74 12.65 24.06.78 3.58 1.5 7.38 2.2 11.25q.57 3.21 1.11 6.45l.86 5.1h0c.25 1.5.5 3 .76 4.46l.94 5.32a218.87 218.87 0 0 0 2.17 10.69c.35 1.49.71 2.91 1.08 4.24a43.37 43.37 0 0 0 2.58 7.18 12.8 12.8 0 0 0 2.22 3.35 5.32 5.32 0 0 0 1.11.98Z" style="fill:none;stroke:#263238;stroke-linecap:round;stroke-linejoin:round"/>
  <path d="m363.3 395.39 3.18-2.3s3.21 7.41 3.3 10.18a1.77 1.77 0 0 1-.08.7c-.35.92-1.76 5.14-3.09 9.12l-.5 1.5-1.89 5.68-.05.15-.11.34s.15 1.57.34 4a228.2 228.2 0 0 1 .59 11.08v7.02a70.27 70.27 0 0 1-.27 4.62c-.31 3.17-.88 5.69-1.84 6.82H259.2s-9-6.11-9.5-10.85a24.52 24.52 0 0 1 0-7.12h1l3.8.21 5.57-1.23 3.94-.84c3.33-.7 7.14-1.5 10.8-2.22 1.35-.27 2.68-.52 3.95-.76l1.37-.26.75-.14c1.83-.33 3.48-.61 4.84-.81a25.39 25.39 0 0 1 3.19-.33h16.86l4.23.05c2.35-.05 4.61-.13 6.63-.25l1.65-.1c1.19-.09 2.25-.19 3.16-.31a11.31 11.31 0 0 0 2.7-.58 1.15 1.15 0 0 0 .49-.31 2.45 2.45 0 0 1 .34-.37c1.63-1.5 4.15.11 4.15.11l.42-1.56 1.32-4.91.06-.22.9-3.32.33-.24.25-.19" style="fill:#f15"/>
  <g style="clip-path:url(#e)">
    <g style="opacity:.5">
      <path d="M369.78 403.27a18.08 18.08 0 0 1-4.28 3.37c-5.95 3.49-14.57 4.92-22.76 4.62l-1.26-.07 21.82-15.8 3.18-2.3s3.21 7.41 3.3 10.18Zm-3.67 11.32-1.89 5.68a39.3 39.3 0 0 1-17.53 4 48.18 48.18 0 0 1-15.8-2.76l.9-3.32.33-.24.25-.19c6.48 2.24 20.63 5.32 33.74-3.17ZM365 440.74c-1.64.12-3.23.18-4.78.18-19 0-30.95-8.88-35.31-12.8 1.63-1.5 4.15.11 4.15.11l.42-1.56C335 431 347.14 438.13 365 436.72v4.02Zm-17.5 13.64h-6c-.91-.77-1.9-1.58-3-2.44a141.15 141.15 0 0 1-21.9-22.15l1.65-.1c1.19-.09 2.25-.19 3.16-.31A136.54 136.54 0 0 0 341 448.8c2.6 2.08 4.75 3.93 6.5 5.58Zm-24.94 0h-4.74a125.71 125.71 0 0 1-12.1-24.27L310 430a130.8 130.8 0 0 0 12.56 24.38Zm-19.17 0H299a121.41 121.41 0 0 1-7.3-24.28h4.09a117.58 117.58 0 0 0 7.6 24.28Zm-17.39 0h-4.5a77.68 77.68 0 0 1-6.72-22c1.35-.27 2.68-.52 3.95-.76a74.46 74.46 0 0 0 7.27 22.76Zm-14.07 0h-4.77a54.11 54.11 0 0 1-7.16-18.94l3.94-.84a51.25 51.25 0 0 0 7.99 19.78Zm-11.2 0h-1.53s-9-6.11-9.5-10.85a24.52 24.52 0 0 1 0-7.12h1c.4 4.59 2.64 11.05 10.03 17.97Z" style="fill:#fff"/>
    </g>
  </g>
  <path d="m363.3 395.39 3.18-2.3s3.21 7.41 3.3 10.18a1.77 1.77 0 0 1-.08.7c-.35.92-1.76 5.14-3.09 9.12l-.5 1.5-1.89 5.68h0l-.05.15-.11.34s.15 1.57.34 4c.14 1.81.29 4.1.41 6.62h0c.08 1.43.13 2.93.18 4.46v7.02a70.27 70.27 0 0 1-.27 4.62c-.31 3.17-.88 5.69-1.84 6.82H259.2s-9-6.11-9.5-10.85a24.52 24.52 0 0 1 0-7.12h1l3.8.21 5.57-1.23 3.94-.84c3.33-.7 7.14-1.5 10.8-2.22 1.35-.27 2.68-.52 3.95-.76l1.37-.26.75-.14c1.83-.33 3.48-.61 4.84-.81a25.39 25.39 0 0 1 3.19-.33h16.86l4.23.05c2.35-.05 4.61-.13 6.63-.25l1.65-.1h0c1.19-.09 2.25-.19 3.16-.31a11.31 11.31 0 0 0 2.7-.58 1.15 1.15 0 0 0 .49-.31 2.45 2.45 0 0 1 .34-.37c1.63-1.5 4.15.11 4.15.11l.42-1.56 1.32-4.91h0l.06-.22.9-3.32.33-.24.25-.19h0" style="fill:none;stroke:#263238;stroke-linecap:round;stroke-linejoin:round"/>
  <path d="M342.54 369c5.06-.36 12.72-3.58 19.54 5.54s3.69 26.67 3.69 26.67-13 11.2-34.34 3.28-40.25-26.82-33.69-41.5c0 .01 33.53 6.8 44.8 6.01Z" style="fill:#fff;stroke:#263238;stroke-linecap:round;stroke-linejoin:round"/>
  <path d="M304.59 377.35a26.1 26.1 0 0 0-4.59-17.07 35.28 35.28 0 0 0-6.84-7.71h0s27-31.18 26.21-12a35.07 35.07 0 0 0 13.47 29.06" style="fill:#fff;stroke:#263238;stroke-linecap:round;stroke-linejoin:round"/>
  <path d="M310.78 353.12s-2.49 5.37-10.81 7.16a35.28 35.28 0 0 0-6.84-7.71Z" style="fill:#263238"/>
  <path d="M312 352.55a39.38 39.38 0 0 1-24.26 3.9c-7.14-1.1-10.32-24.42-7.36-28.92a19.19 19.19 0 0 0 2.16-7.59c.47-7.29 1.43-20.15 8-23 16.88-7.4 44.1-4.78 45.89 15.47 1.09 12.24-6.18 27.47-18.62 36.57" style="fill:#fff;stroke:#263238;stroke-linecap:round;stroke-linejoin:round"/>
  <path d="M296.68 312.7a8 8 0 0 1 9.54 4m-18.55-4.36a2.94 2.94 0 0 0-4.17 0" style="fill:none;stroke:#263238;stroke-linecap:round;stroke-linejoin:round"/>
  <ellipse cx="300.78" cy="323.91" rx="3.17" ry="1.7" style="fill:#263238" transform="rotate(-78 300.8 323.91)"/>
  <ellipse cx="286.13" cy="321.84" rx="3.17" ry="1.7" style="fill:#263238" transform="rotate(-78 286.14 321.85)"/>
  <path d="M288.86 323.91s-1.84 3.88-5.36 4.15-.66 6 2.08 7m.55 5.83s-.78 3.51 2.08 4.26a4.6 4.6 0 0 0 1.18.14c2.59 0 5.13-1.54 6.72-2.73a16.86 16.86 0 0 0 1.63-1.38c-3.8.84-8.89.18-11.61-.29-1.18-.2-1.91-.37-1.91-.37" style="fill:none;stroke:#263238;stroke-linecap:round;stroke-linejoin:round"/>
  <path d="M304.59 297.52s-6.93 16.9 10.18 33.58c0 0 2.5 16.49 0 31.63-4 24.28 13.13 22.43 13.13 22.43s-14.11 0-8.58-19.39c3.28-11.47 10.19-25.25 10.19-25.25s17.21-22.42 7-37.59-56.26-17.32-54.62 3.9c-.02 0 10.11-10.83 22.7-9.31Z" style="fill:#263238"/>
  <path d="M334.43 323.07s2.47 12.66-3.81 28.68-4.6 25.48 0 25.6 14.26-15.24 20.8-9.15a10.27 10.27 0 0 0-7.56 2.43c-3.89 3.07-11.34 13.26-17.47 11.09s-5.24-8.27-1.79-22.65a58.6 58.6 0 0 0 .13-26.49Z" style="fill:#263238"/>
  <path d="M323.63 333.43a30.72 30.72 0 0 0 2.59 1.66m-17.49-39.87C308 308 311 322 321 331.29m17.73 8.15a26.51 26.51 0 0 0 3 1.08m-22.43-28.18c1.73 10 7.44 20.31 16.34 25.54m-39.38-42.47c-10.14.93-22.77 5.33-21.26 17.8m29-17.99a50.63 50.63 0 0 0-5.08 0M319.21 350c-.21 9-5.21 18-1.76 28m1.87-37.48a56.28 56.28 0 0 1 .06 6.23m6.75 13.25c-.36 1.66-.76 3.32-1.2 5m3.78-22.83a135.67 135.67 0 0 1-1.86 14.19m20.81 7.84a32.6 32.6 0 0 1 6.61 4m-22.48-26.03c-1.16 9.62 4.68 16.54 12.88 20.57" style="fill:none;stroke:#fff;stroke-linecap:round;stroke-linejoin:round"/>
  <path d="M297.74 341.18a16.86 16.86 0 0 1-1.63 1.38c-5.69-.5-7.9 2.59-7.9 2.59-2.86-.75-2.08-4.26-2.08-4.26 2.72.47 7.81 1.11 11.61.29Z" style="fill:#263238"/>
  <ellipse cx="327.9" cy="331.62" rx="16.21" ry="11.42" style="fill:#757575;stroke:#263238;stroke-linecap:round;stroke-linejoin:round" transform="rotate(-78 327.9 331.62)"/>
  <path d="M329 321.84s.4-24.55-16.28-31.91a31 31 0 0 1 13.56 4.12c7.45 4.12 11.57 14.83 9.82 31Z" style="fill:#f15"/>
  <g style="clip-path:url(#f)">
    <path d="M329 321.84s.4-24.55-16.28-31.91a31 31 0 0 1 13.56 4.12c7.45 4.12 11.57 14.83 9.82 31Z" style="fill-opacity:.7000000000000001;opacity:.30000000000000004"/>
  </g>
  <path d="M329 321.84s.4-24.55-16.28-31.91a31 31 0 0 1 13.56 4.12c7.45 4.12 11.57 14.83 9.82 31Z" style="fill:none;stroke:#263238;stroke-miterlimit:10"/>
  <ellipse cx="330.62" cy="332.58" rx="12.38" ry="8.72" style="fill:#f15;stroke:#263238;stroke-miterlimit:10" transform="rotate(-78 330.63 332.58)"/>
  <path d="M338.67 334.49c-1.15 5.4-5.16 9.11-9 8.31s-5.95-5.84-4.8-11.23 5.15-9.11 8.95-8.3 5.99 5.83 4.85 11.22Z" style="fill:#f15"/>
  <g style="clip-path:url(#g)">
    <path d="M338.67 334.49c-1.15 5.4-5.16 9.11-9 8.31s-5.95-5.84-4.8-11.23 5.15-9.11 8.95-8.3 5.99 5.83 4.85 11.22Z" style="fill-opacity:.7000000000000001;opacity:.30000000000000004"/>
  </g>
  <path d="M338.67 334.49c-1.15 5.4-5.16 9.11-9 8.31s-5.95-5.84-4.8-11.23 5.15-9.11 8.95-8.3 5.99 5.83 4.85 11.22Z" style="fill:none;stroke:#263238;stroke-miterlimit:10"/>
  <path d="M309.7 388.34s3.05-4.19 5.15-4.15 21.36-4.15 27.89-9.1m-41.96-7.52s-2 6.37.67 11.2 5 4.82 4.77 9.57m31.18 4.75c2-.2 0 13.19 0 13.19m-55.92-9.96s.75-11.15-3.41-15.51" style="fill:none;stroke:#263238;stroke-linecap:round;stroke-linejoin:round"/>
  <path d="M268.46 387.09s7.24 7 13.07 7.29M246 368.89a28.51 28.51 0 0 0-2.42 13.11m-3.42-17s-6.12 1.72-8.74 6.73m96.48 41.64s-.13 12 1.61 13.3m-.42 1.56s6.3 3 8 7.58M295 362.5s-5.08 8 0 21.34M369.7 404s-7.7 11-20.89 9.4" style="fill:none;stroke:#263238;stroke-linecap:round;stroke-linejoin:round"/>
  <path d="M208.32 452.38h-47.24a3.94 3.94 0 0 1-3.57-2.38l-11.31-33.71c-.44-1.32.45-2.38 2-2.38h47.23a3.92 3.92 0 0 1 3.57 2.38L210.29 450c.44 1.31-.44 2.38-1.97 2.38Z" style="fill:#fff;stroke:#263238;stroke-linecap:round;stroke-linejoin:round"/>
  <path d="M206.32 454.38h-47.24a3.94 3.94 0 0 1-3.57-2.38l-11.31-33.71c-.44-1.32.45-2.38 2-2.38h47.23a3.92 3.92 0 0 1 3.57 2.38L208.29 452c.44 1.31-.44 2.38-1.97 2.38Z" style="fill:#f15;stroke:#263238;stroke-miterlimit:10"/>
  <path d="M149.88 440.45a.87.87 0 0 0-.67.41L141.4 453a.92.92 0 0 0 .78 1.43h59.72v-13.98Z" style="fill:#f15"/>
  <g style="clip-path:url(#h)">
    <path d="M149.88 440.45a.87.87 0 0 0-.67.41L141.4 453a.92.92 0 0 0 .78 1.43h59.72v-13.98Z" style="opacity:.2"/>
  </g>
  <path d="M149.88 440.45a.87.87 0 0 0-.67.41L141.4 453a.92.92 0 0 0 .78 1.43h59.72v-13.98Z" style="fill:none;stroke:#263238;stroke-miterlimit:10"/>
  <path d="M206.11 454.38h-11.93a.92.92 0 0 1-.78-1.43l7.8-12.08a.93.93 0 0 1 1.66.21l4.14 12.07a.94.94 0 0 1-.89 1.23Z" style="fill:#f15"/>
  <g style="clip-path:url(#i)">
    <path d="M206.11 454.38h-11.93a.92.92 0 0 1-.78-1.43l7.8-12.08a.93.93 0 0 1 1.66.21l4.14 12.07a.94.94 0 0 1-.89 1.23Z" style="opacity:.5"/>
  </g>
  <path d="M206.11 454.38h-11.93a.92.92 0 0 1-.78-1.43l7.8-12.08a.93.93 0 0 1 1.66.21l4.14 12.07a.94.94 0 0 1-.89 1.23Z" style="fill:none;stroke:#263238;stroke-miterlimit:10"/>
  <path d="M81.73 430.6s2.21-19.23 9.56-35.91.73-20.24-3.2-16.07-8.25 19.81-8.25 19.81 2-16.38 1.16-25.1c-1.16-12.78-3.15-22.77-9-21.19-6.8 1.82 2.86 26.48.3 52.36 0 0-9-14.26-12.14-26.45s-11.26-6.91-8.44 4 13.72 17 17.94 28.83c0 0-14-13-18.53-7.88-2.53 2.88 3.87 5 6.64 6.29 13.45 6.44 16.9 22.55 16.9 22.55Z" style="fill:#f15;stroke:#263238;stroke-linecap:round;stroke-linejoin:round"/>
  <path d="M81.73 430.6s2.21-19.23 9.56-35.91.73-20.24-3.2-16.07-8.25 19.81-8.25 19.81 2-16.38 1.16-25.1c-1.16-12.78-3.15-22.77-9-21.19-6.8 1.82 2.86 26.48.3 52.36 0 0-9-14.26-12.14-26.45s-11.26-6.91-8.44 4 13.72 17 17.94 28.83c0 0-14-13-18.53-7.88-2.53 2.88 3.87 5 6.64 6.29 13.45 6.44 16.9 22.55 16.9 22.55Z" style="fill-opacity:.7000000000000001;stroke:#263238;stroke-miterlimit:10;opacity:.2"/>
  <path d="M73.56 426.45s1.11-20.12-6.23-36.8-.79-18 3.14-13.81 6.93 25.77 6.93 25.77 3.45-19.35 1.88-32.72-1.46-20.9 4-20.9c7 0 5.39 32.74-.3 52.36 0 0 9-14.26 12.14-26.45s11.26-6.91 8.44 4-13.72 17-17.94 28.83c0 0 14-13 18.53-7.88 2.53 2.88-3.87 5-6.64 6.29-13.45 6.44-16.9 22.55-16.9 22.55Z" style="fill:#f15;stroke:#263238;stroke-linecap:round;stroke-linejoin:round"/>
  <path d="M71.05 388.81c6.23 14.08 6.59 34.6 6.59 34.6s8.2-40.78 6.14-58" style="fill:none;stroke:#263238;stroke-linecap:round;stroke-linejoin:round"/>
  <path d="M98 380.73s-9.16 19.32-17.54 26.73M98 401.55s-15.48 9.95-19.28 16.06" style="fill:none;stroke:#263238;stroke-linecap:round;stroke-linejoin:round"/>
  <path d="m111.87 426.33-1 6-.22 1.28L107 454.2H50.17l-3.36-19.26-.22-1.25-1.28-7.36a1.72 1.72 0 0 1 1.69-2h63.19a1.71 1.71 0 0 1 1.68 2Z" style="fill:#263238"/>
  <g style="clip-path:url(#j)">
    <g style="opacity:.5">
      <path d="m110.83 432.29-.22 1.28a5.49 5.49 0 0 0-2.06 1.52c-7.1 8.1-13 6-19.69.29-5.79-4.94-8.81-2.16-13.39 2-.8.74-1.64 1.51-2.54 2.29-1.85 1.58-3.38 2.21-4.78 2.21-2.38 0-4.34-1.86-6.72-4.11A57.36 57.36 0 0 0 57.1 434c-3-2.32-7-1-10.29.92l-.22-1.25c3.55-2 7.78-3.21 11.21-.58a52.33 52.33 0 0 1 4.42 3.91c3.84 3.63 5.76 5.45 10 1.85.89-.76 1.72-1.52 2.51-2.25 4.66-4.29 8.36-7.67 14.92-2.09 7.58 6.46 12.32 6.42 18.07-.16a6.35 6.35 0 0 1 3.11-2.06Z" style="fill:#fff"/>
    </g>
  </g>
</svg>
