<svg xmlns="http://www.w3.org/2000/svg" viewBox="0 0 500 500">
  <defs>
    <clipPath id="a">
      <path
        d="M436 375.89s-140.9-2.91-200.67 0c-42.79 2.09-171.37 0-171.37 0s2.64-94 0-141.65c-1.69-30.39 0-121.75 0-121.75s136.87.27 180.87-1.44c72.82-2.82 191.17 1.44 191.17 1.44s2.84 65.37 0 104.27c-2.88 39.68 0 159.13 0 159.13Z"
        style="fill:#fff;stroke:#263238;stroke-linecap:round;stroke-linejoin:round" />
    </clipPath>
    <clipPath id="b">
      <path
        d="m363.32 96.91-15.21-3.85-2.67 1.43-10.31-3.67s-1.65-10.31 6.71-20.12l10.41 4.14 1.92 2.69 13.88 6.89s1.48 9.16-4.73 12.49Z"
        style="fill:#f15;stroke:#263238;stroke-linecap:round;stroke-linejoin:round" />
    </clipPath>
    <clipPath id="c">
      <path
        d="M375.19 469.84s-10.72-89.61-16.25-104.77-12.82-65.27-12.82-65.27 16.84-1.35 21.94-1.4 11.69-4.93 11.69-4.93c-.56 1-1.83.38-2.77-5.74-.63-4.09-6.86-5.34-6.86-5.34s-14.95 1.12-27.56-.57a15.63 15.63 0 0 1-9.39 0c-4.59-1.67-5.52-3.46-3-5.89 0 0-3.57-4.67 8.63-11.3 0 0-8.11-7.29-4.15-12s13.35-9.41 13.35-9.41.39-3.55 2.11-4.48 11.08-4.75 16.22-8.31 7.38-3.29 16.88-3.56 21.1-2.63 25.45-.66c3.38 1.54 4.95 7.58 4.95 7.58 3.16 1 3.48 6.16 3.68 7.43.93 5.67 7.46 29.17 10.36 33.26s4.61 11.21 4.09 14.9-1.85 8-3.17 15.56-5.8 33.63-8 41.14-3.43 20.57-2.25 26.9l33.34 79.33"
        style="fill:#fff;stroke:#263238;stroke-linecap:round;stroke-linejoin:round" />
    </clipPath>
    <clipPath id="d">
      <path d="m333.6 249.87 123.69-18.36 1.58 22.07-124.22 12.33-5.8-2.62-9.5.24a5.11 5.11 0 0 1-.93-6.46l9.78-2.1Z"
        style="fill:#f15;stroke:#263238;stroke-linecap:round;stroke-linejoin:round" />
    </clipPath>
    <clipPath id="e">
      <path d="M457.29 231.51c8.57-.68 10.41 21.2 1.58 22.07-8.45.84-10.28-21.37-1.58-22.07Z"
        style="fill:#f15;stroke:#263238;stroke-linecap:round;stroke-linejoin:round" />
    </clipPath>
    <clipPath id="f">
      <path
        d="M379.75 300.72s-9 .53-10 0-6.6-11.08-6.86-14.37-.79-13.85-1.05-20.44-.26-16.88-12.66-14.69c-5.54 1-6.47 6.22-8.31 18s-.13 14.9-1.45 29.94.26 21 3.43 28.57 4.34 26.81 12.78 33.93 11.75 20.84 11.75 20.84"
        style="fill:#fff;stroke:#263238;stroke-linecap:round;stroke-linejoin:round" />
    </clipPath>
  </defs>
  <path
    d="M67.93 167.09s-27.88 72 11.3 144.5 119.88 110.8 184.47 143.55 131.66 16.8 163.53-36.84-11.84-91.93-11.9-168.42 11.45-96.74-30-161.36-143.06-78.93-219.9-31-97.5 109.57-97.5 109.57Z"
    style="fill:#fff;opacity:.7" />
  <path
    d="M108.89 63.12a102.42 102.42 0 0 1 14-8.15c35.32-16.89 78.66-11.33 112.6 8.18s59.34 51.39 77.82 85.9c8.44 15.77 16 32.71 29.56 44.36 17.49 15 41.12 18.43 62 26.61 75.79 29.76 76.66 138.89 10.23 179.64-26.19 16.06-58.53 20.91-88.62 23.15-41.69 3.11-84.13 1.52-124.39-9.74s-78.36-32.66-105.29-64.63c-35.27-41.87-48.87-98.79-47.09-153.51.9-27.69 5.55-55.61 17.27-80.71 9.41-20.22 23.69-38.49 41.91-51.1Z"
    style="fill:#f15" />
  <path
    d="M108.89 63.12a102.42 102.42 0 0 1 14-8.15c35.32-16.89 78.66-11.33 112.6 8.18s59.34 51.39 77.82 85.9c8.44 15.77 16 32.71 29.56 44.36 17.49 15 41.12 18.43 62 26.61 75.79 29.76 76.66 138.89 10.23 179.64-26.19 16.06-58.53 20.91-88.62 23.15-41.69 3.11-84.13 1.52-124.39-9.74s-78.36-32.66-105.29-64.63c-35.27-41.87-48.87-98.79-47.09-153.51.9-27.69 5.55-55.61 17.27-80.71 9.41-20.22 23.69-38.49 41.91-51.1Z"
    style="fill:#fff;opacity:.7" />
  <path
    d="m438.86 122.49-380.55 3.06s-3.35 82.9.62 116.88-.62 148.1-.62 148.1a1085.31 1085.31 0 0 0 129.8 3.54L163 410.6a14.48 14.48 0 0 0 5.53 13.61l13.35-4.11 4.39 4.11 11.21-3.83s4.59-13.89-4.71-26.49c69-2.84 134.92-9.36 134.92-9.36s1.06 4.32 14.85 18.05 32.62 61 32.62 61L420.39 394l25.87-3.43s-5.19-65 0-104.18-7.4-163.9-7.4-163.9Z"
    style="fill-opacity:.7;opacity:.2" />
  <path
    d="M436 375.89s-140.9-2.91-200.67 0c-42.79 2.09-171.37 0-171.37 0s2.64-94 0-141.65c-1.69-30.39 0-121.75 0-121.75s136.87.27 180.87-1.44c72.82-2.82 191.17 1.44 191.17 1.44s2.84 65.37 0 104.27c-2.88 39.68 0 159.13 0 159.13Z"
    style="fill:#fff" />
  <g style="clip-path:url(#a)">
    <path
      d="M436 112.49v59.67c-25.25-.63-95.18-1.91-186.85.29-97.29 2.33-165.7.75-185.19.18v-60.14s136.87.27 180.87-1.44c72.84-2.82 191.17 1.44 191.17 1.44Z"
      style="fill:#f15;fill-opacity:.7;opacity:.5" />
    <path
      d="m294.94 372-3.41-202.68H250c-1.85 31.89-.63 160.23-.16 202.68h45.1ZM68.68 172.76l45.62-.31s3.48 156.79-4.46 199.52H71.31s.53-57.12 0-104.25-2.63-94.96-2.63-94.96Z"
      style="fill:#f15;fill-opacity:.7;opacity:.2" />
    <path
      d="M68.68 141.2s113-1.59 147.16 0 128.1-1.18 141.85-2 76 2 76 2c2.34-18.71-2.11-27.27-2.11-27.27s-166.68 2.17-247.38 3.25-115.51 0-115.51 0 1.58 14.82-.01 24.02Z"
      style="fill:#f15" />
  </g>
  <path
    d="M436 375.89s-140.9-2.91-200.67 0c-42.79 2.09-171.37 0-171.37 0s2.64-94 0-141.65c-1.69-30.39 0-121.75 0-121.75s136.87.27 180.87-1.44c72.82-2.82 191.17 1.44 191.17 1.44s2.84 65.37 0 104.27c-2.88 39.68 0 159.13 0 159.13Z"
    style="fill:none;stroke:#263238;stroke-linecap:round;stroke-linejoin:round" />
  <path
    d="M239.42 132.67a.89.89 0 0 1-.27-.06 1.87 1.87 0 0 1-.32-.15.84.84 0 0 1-.27-.22.23.23 0 0 1 0-.26c0-.06.08-.18.15-.35l.21-.62.24-.76.26-.82c.09-.27.15-.52.22-.77l.18-.62-3.91-4c-.1-.11-.13-.2-.11-.26a.29.29 0 0 1 .14-.15.86.86 0 0 1 .23-.06h.17a2.56 2.56 0 0 1 .39 0 1.34 1.34 0 0 1 .42.15 2.77 2.77 0 0 1 .5.34 8.51 8.51 0 0 1 .65.62c.26.26.55.58.89 1s.74.84 1.19 1.39c.3-.87.56-1.58.78-2.14a12.29 12.29 0 0 1 .59-1.33 2.75 2.75 0 0 1 .48-.71.88.88 0 0 1 .46-.25 1.27 1.27 0 0 1 .28 0c.09 0 .15.09.19.22a20.39 20.39 0 0 0-.87 2.19l-.86 2.53c-.3.88-.6 1.75-.92 2.62a23.86 23.86 0 0 1-1.09 2.47Zm4.26-2.19a4.45 4.45 0 0 1 .18-1.85 5.06 5.06 0 0 1 .87-1.6 4.38 4.38 0 0 1 1.4-1.09 3.76 3.76 0 0 1 1.8-.38 2.72 2.72 0 0 1 .43 0l.59.15a4.6 4.6 0 0 1 .61.25 2.28 2.28 0 0 1 .53.37 1.52 1.52 0 0 1 .34.47 1 1 0 0 1 .06.59 2.77 2.77 0 0 1-1.11.47 8.83 8.83 0 0 1-1.27.18l-1.27.1a3.77 3.77 0 0 0-1.09.21 1.43 1.43 0 0 0-.71.56 1.6 1.6 0 0 0-.16 1.1 1.74 1.74 0 0 0 .58.95 1.89 1.89 0 0 0 .94.36 3.36 3.36 0 0 0 1.13-.05 9.51 9.51 0 0 0 1.19-.33q.57-.19 1.08-.42l.83-.36a.38.38 0 0 1 .37.37 2.88 2.88 0 0 1-.9.91 5.36 5.36 0 0 1-1.34.64 6.72 6.72 0 0 1-1.57.31 5.12 5.12 0 0 1-1.53-.12 3.26 3.26 0 0 1-1.25-.62 2.23 2.23 0 0 1-.73-1.17Zm4.14-4a3.66 3.66 0 0 0-.52 0 3 3 0 0 0-.58.17 1.84 1.84 0 0 0-.49.3.66.66 0 0 0-.2.48l2.9-.48a1 1 0 0 0-.48-.4 1.9 1.9 0 0 0-.63-.11Zm9.81 3.52a5.18 5.18 0 0 1-.79 1 4.57 4.57 0 0 1-1 .73 4.63 4.63 0 0 1-1.16.44 4.43 4.43 0 0 1-1.32.08 2.53 2.53 0 0 1-.53-.06 1.79 1.79 0 0 1-.52-.19 1.07 1.07 0 0 1-.39-.34.81.81 0 0 1-.16-.52 2.86 2.86 0 0 1 .06-1.33 5 5 0 0 1 .56-1.3 6.17 6.17 0 0 1 1-1.17 7.23 7.23 0 0 1 1.2-.9 5.29 5.29 0 0 1 1.32-.53 3 3 0 0 1 1.3 0 .94.94 0 0 1 .75.32 2.06 2.06 0 0 1 .41.84 6.77 6.77 0 0 1 .17 1.22q0 .68.06 1.41c0 .48 0 1 .06 1.43a8 8 0 0 0 .18 1.3H258c0-.27-.07-.5-.09-.71s0-.39-.06-.56a4 4 0 0 0-.06-.51l-.16-.65Zm-.89-3.13a2.26 2.26 0 0 0-1 .12 4 4 0 0 0-.93.45 4.88 4.88 0 0 0-.85.68 5.62 5.62 0 0 0-.68.81 3.45 3.45 0 0 0-.45.84 1.67 1.67 0 0 0-.13.77 1 1 0 0 0 .26.59 1.22 1.22 0 0 0 .73.33 3 3 0 0 0 1.35-.36 4.69 4.69 0 0 0 1.16-.85 5.15 5.15 0 0 0 .85-1.1 3.71 3.71 0 0 0 .44-1.1 1.16 1.16 0 0 0-.09-.84.72.72 0 0 0-.66-.36Zm2.76-1.17a.28.28 0 0 1 .16-.29.81.81 0 0 1 .35-.07.56.56 0 0 1 .48.25 1.86 1.86 0 0 1 .29.58 5.57 5.57 0 0 1 .14.66 4.45 4.45 0 0 0 .06.46 7.49 7.49 0 0 1 1-.74 6.68 6.68 0 0 1 1.2-.58 7.83 7.83 0 0 1 1.48-.35 9.73 9.73 0 0 1 1.82-.05.45.45 0 0 1 .48.13 1 1 0 0 1 .18.49 1.05 1.05 0 0 1-.09.55.46.46 0 0 1-.33.32 2.07 2.07 0 0 0-1-.39 4.09 4.09 0 0 0-1.21 0 5.12 5.12 0 0 0-1.24.35 4.47 4.47 0 0 0-1.08.64 2.77 2.77 0 0 0-.75.89 1.94 1.94 0 0 0-.23 1.09 5.65 5.65 0 0 0 .05.71c0 .23.06.46.1.69l.1.69a5.37 5.37 0 0 1 0 .7 2.1 2.1 0 0 0-.51.08 1 1 0 0 1-.32.05.28.28 0 0 1-.22-.12 1.58 1.58 0 0 1-.21-.45c0-.05 0-.22-.06-.49s-.07-.61-.11-1l-.15-1.28-.16-1.37-.14-1.24c-.05-.38-.05-.68-.08-.91ZM84.54 159.67q-.09-.13-.24-.42l-.31-.62-.34-.72-.36-.68a4.84 4.84 0 0 0-.35-.55.77.77 0 0 0-.31-.28l-.23.45-.28.65-.3.75-.28.77-.25.7-.19.52h-.53l-2.13-4.94a.14.14 0 0 1 0-.15.27.27 0 0 1 .12-.09h.3a.3.3 0 0 1 .2.06.39.39 0 0 1 .1.14l.06.19a1.46 1.46 0 0 0 .07.19l.25.55.3.67.32.7.3.63.25.48a1.29 1.29 0 0 0 .15.24c.23-.6.44-1.1.61-1.51l.44-1c.12-.25.21-.48.29-.62a2.68 2.68 0 0 1 .17-.32.58.58 0 0 1 .1-.13.45.45 0 0 1 .26.14 1.71 1.71 0 0 1 .3.37l.34.52.35.61.33.63.3.59.25.47.18.28a20.15 20.15 0 0 0 .58-2.56l.16-.91.14-.85.11-.74a1 1 0 0 1 .33 0 .36.36 0 0 1 .17.11.48.48 0 0 1 .06.18 1.55 1.55 0 0 1 0 .22v.23c0 .17-.06.4-.1.7l-.16 1-.22 1.25a39.3 39.3 0 0 1-.59 2.58.56.56 0 0 1-.29.12.22.22 0 0 1-.19-.06.7.7 0 0 1-.14-.21Zm2.17-.55a2.7 2.7 0 0 1 .62-2 2.3 2.3 0 0 1 .81-.64 2.18 2.18 0 0 1 1-.22 1.38 1.38 0 0 1 .26 0l.34.09.35.14a1.16 1.16 0 0 1 .31.22.73.73 0 0 1 .2.27.59.59 0 0 1 0 .35 1.79 1.79 0 0 1-.65.27 6 6 0 0 1-.74.11l-.75.05a2.26 2.26 0 0 0-.63.13.91.91 0 0 0-.42.32 1 1 0 0 0-.09.64 1 1 0 0 0 .34.56 1.06 1.06 0 0 0 .55.21 1.86 1.86 0 0 0 .66 0 5 5 0 0 0 .69-.19 6.36 6.36 0 0 0 .63-.25l.49-.21a.18.18 0 0 1 .15.07.2.2 0 0 1 .06.15 1.63 1.63 0 0 1-.52.53 3 3 0 0 1-.79.37 3.42 3.42 0 0 1-.91.18 2.9 2.9 0 0 1-.89-.07 1.85 1.85 0 0 1-.73-.36 1.33 1.33 0 0 1-.34-.72Zm2.42-2.36h-.3a1.21 1.21 0 0 0-.34.09 1.19 1.19 0 0 0-.29.18.36.36 0 0 0-.12.28l1.7-.28a.59.59 0 0 0-.29-.23.86.86 0 0 0-.36-.04Zm2.32 2.36a2.46 2.46 0 0 1 .1-1.08 2.64 2.64 0 0 1 .51-.93 2.4 2.4 0 0 1 .81-.64 2.18 2.18 0 0 1 1-.22 1.38 1.38 0 0 1 .26 0l.34.09.35.14a1.16 1.16 0 0 1 .31.22.73.73 0 0 1 .2.27.59.59 0 0 1 0 .35 1.79 1.79 0 0 1-.65.27 6 6 0 0 1-.74.11l-.75.05a2.26 2.26 0 0 0-.63.13.91.91 0 0 0-.42.32 1 1 0 0 0-.09.64 1 1 0 0 0 .34.56 1.06 1.06 0 0 0 .55.21 1.86 1.86 0 0 0 .66 0 5 5 0 0 0 .69-.19 6.36 6.36 0 0 0 .63-.25l.49-.21a.18.18 0 0 1 .15.07.2.2 0 0 1 .06.15 1.63 1.63 0 0 1-.52.53 3.12 3.12 0 0 1-.78.37 3.57 3.57 0 0 1-.92.18 2.9 2.9 0 0 1-.89-.07 1.85 1.85 0 0 1-.73-.36 1.26 1.26 0 0 1-.33-.71Zm2.41-2.36h-.3a1.31 1.31 0 0 0-.34.09 1.19 1.19 0 0 0-.29.18.36.36 0 0 0-.12.28l1.7-.28a.55.55 0 0 0-.29-.23.86.86 0 0 0-.36-.04Zm2.55.24v-1.39l-.06-.69v-.7a.26.26 0 0 1 .08-.21.33.33 0 0 1 .21-.06h.14a5.86 5.86 0 0 1 .13.75l.06.84c0 .3 0 .6.06.93s0 .65.09 1a2.48 2.48 0 0 0 .36-.22l.52-.36.59-.43.58-.41.49-.3a.83.83 0 0 1 .31-.12.21.21 0 0 1 .12 0 .44.44 0 0 1 .1.12 4.37 4.37 0 0 1-.64.65c-.24.19-.49.38-.74.55l-.77.53a6.34 6.34 0 0 0-.69.54l1.08.32 1 .31 1 .24a7.55 7.55 0 0 0 .94.12 1 1 0 0 1 0 .18.2.2 0 0 1 0 .13.22.22 0 0 1-.1.09.56.56 0 0 1-.2 0H101a9.08 9.08 0 0 0-.77-.18l-1-.21-1-.22-1-.23v1.02a1.13 1.13 0 0 1-.1.34.43.43 0 0 1-.22.2.55.55 0 0 1-.38 0Zm8.83-1.31c0-.13 0-.21.07-.24a.35.35 0 0 1 .2 0 .5.5 0 0 1 .18 0c.06 0 .09.06.12.13l-.15 4.39a.21.21 0 0 1-.07.15.38.38 0 0 1-.17.08.35.35 0 0 1-.18 0 .25.25 0 0 1-.14-.08v-3.9c0-.23.14-.42.14-.53Zm21.61 5.98a3.43 3.43 0 0 1-.23-.42l-.31-.62-.35-.72-.36-.68a4.84 4.84 0 0 0-.35-.55.83.83 0 0 0-.3-.28 4.28 4.28 0 0 0-.24.45l-.28.65-.29.75-.29.77-.25.7-.18.52h-.54l-2.13-4.94a.14.14 0 0 1 0-.15.27.27 0 0 1 .12-.09h.3a.28.28 0 0 1 .2.06.3.3 0 0 1 .1.14 1.07 1.07 0 0 1 .07.19 1.39 1.39 0 0 0 .06.19l.25.55.3.67.32.7.31.63a5.3 5.3 0 0 0 .24.48 1.29 1.29 0 0 0 .15.24l.61-1.51.44-1 .29-.62a2.68 2.68 0 0 1 .17-.32l.1-.13a.42.42 0 0 1 .26.14 2.07 2.07 0 0 1 .31.37 4.71 4.71 0 0 1 .33.52l.35.61.34.63.3.59.25.47a3.25 3.25 0 0 0 .17.28 10.37 10.37 0 0 0 .41-1.64l.18-.92.15-.91c0-.3.1-.58.14-.85l.12-.74a.89.89 0 0 1 .32 0 .32.32 0 0 1 .17.11.28.28 0 0 1 .06.18 1.55 1.55 0 0 1 0 .22v.23c0 .17 0 .4-.1.7s-.09.65-.16 1-.13.82-.22 1.25l-.27 1.33c-.1.45-.21.86-.32 1.25a.53.53 0 0 1-.28.12.24.24 0 0 1-.2-.06 1 1 0 0 1-.09-.21Zm2.15-.55a2.62 2.62 0 0 1 .1-1.08 2.8 2.8 0 0 1 .51-.93 2.43 2.43 0 0 1 .82-.64 2.14 2.14 0 0 1 1-.22 1.33 1.33 0 0 1 .26 0l.34.09.36.14a1.11 1.11 0 0 1 .3.22.9.9 0 0 1 .21.27.68.68 0 0 1 0 .35 1.72 1.72 0 0 1-.65.27 6 6 0 0 1-.74.11l-.74.05a2.34 2.34 0 0 0-.64.13.88.88 0 0 0-.41.32.91.91 0 0 0-.09.64 1 1 0 0 0 .33.56 1.06 1.06 0 0 0 .55.21 1.86 1.86 0 0 0 .66 0 5 5 0 0 0 .69-.19c.23-.08.44-.16.64-.25l.48-.21a.18.18 0 0 1 .15.07.2.2 0 0 1 .06.15 1.54 1.54 0 0 1-.52.53 3.12 3.12 0 0 1-.78.37 3.5 3.5 0 0 1-.91.18 2.94 2.94 0 0 1-.9-.07 1.92 1.92 0 0 1-.73-.36 1.26 1.26 0 0 1-.35-.71Zm2.41-2.36h-.3a1.31 1.31 0 0 0-.34.09 1 1 0 0 0-.28.18.36.36 0 0 0-.12.28l1.69-.28a.57.57 0 0 0-.28-.23.94.94 0 0 0-.34-.04Zm2.35 2.36a2.62 2.62 0 0 1 .1-1.08 3 3 0 0 1 .51-.93 2.43 2.43 0 0 1 .82-.64 2.14 2.14 0 0 1 1-.22 1.33 1.33 0 0 1 .26 0l.34.09.36.14a1.11 1.11 0 0 1 .3.22.9.9 0 0 1 .21.27.68.68 0 0 1 0 .35 1.72 1.72 0 0 1-.65.27 6 6 0 0 1-.74.11l-.74.05a2.26 2.26 0 0 0-.63.13.77.77 0 0 0-.51 1 1 1 0 0 0 .33.56 1.06 1.06 0 0 0 .55.21 1.86 1.86 0 0 0 .66 0 5 5 0 0 0 .69-.19c.23-.08.44-.16.64-.25l.48-.21a.18.18 0 0 1 .15.07.2.2 0 0 1 .06.15 1.54 1.54 0 0 1-.52.53 3.12 3.12 0 0 1-.78.37 3.5 3.5 0 0 1-.91.18 2.94 2.94 0 0 1-.9-.07 1.92 1.92 0 0 1-.73-.36 1.26 1.26 0 0 1-.35-.75Zm2.41-2.36h-.3a1.31 1.31 0 0 0-.34.09 1.12 1.12 0 0 0-.28.18.36.36 0 0 0-.12.28l1.69-.28a.57.57 0 0 0-.28-.23.94.94 0 0 0-.37-.04Zm2.55.24v-.69l-.06-.7v-1.39a.26.26 0 0 1 .08-.21.33.33 0 0 1 .21-.06h.05a5.87 5.87 0 0 1 .12.75c0 .27 0 .55.07.84s0 .6.05.93 0 .65.1 1a2.51 2.51 0 0 0 .35-.22l.52-.36.59-.43.58-.41.5-.3a.72.72 0 0 1 .31-.12.21.21 0 0 1 .12 0 .31.31 0 0 1 .09.12 4.37 4.37 0 0 1-.64.65c-.24.19-.49.38-.74.55l-.76.53a5.62 5.62 0 0 0-.7.54l1.09.32 1 .31 1 .24a7.8 7.8 0 0 0 .94.12v.18a.5.5 0 0 1 0 .13.24.24 0 0 1-.11.09.53.53 0 0 1-.2 0h-.07c-.2-.06-.46-.12-.76-.18l-1-.21-1-.22-1-.23a1.49 1.49 0 0 0 0 .26v.76a.9.9 0 0 1-.09.34.47.47 0 0 1-.22.2.58.58 0 0 1-.39 0Zm8.79 2.81a7.67 7.67 0 0 0 .64-.64 9.33 9.33 0 0 0 .69-.82q.33-.43.6-.87a3.22 3.22 0 0 0 .37-.82 1 1 0 0 0 0-.64.57.57 0 0 0-.48-.34 1.2 1.2 0 0 0-.44.07 1.83 1.83 0 0 0-.34.18 2.17 2.17 0 0 0-.29.24 2 2 0 0 1-.27.24 1.92 1.92 0 0 1-.31.18.89.89 0 0 1-.38.07 1 1 0 0 1 .23-.54 2.34 2.34 0 0 1 .55-.48 2.83 2.83 0 0 1 .71-.31 1.65 1.65 0 0 1 .72-.08 1 1 0 0 1 .58.24.91.91 0 0 1 .28.63 3 3 0 0 1-.16.94 6.07 6.07 0 0 1-.41.9 8 8 0 0 1-.56.83c-.21.27-.41.52-.61.74a2.19 2.19 0 0 0 .8-.07 12 12 0 0 0 .79-.25l.77-.27a2.35 2.35 0 0 1 .77-.13.37.37 0 0 1 .2.05.18.18 0 0 1 .09.17.29.29 0 0 1-.09.22.66.66 0 0 1-.23.15l-.29.08h-.68l-.27.07-.46.14-.57.15-.61.14-.57.1a2.67 2.67 0 0 1-.47 0 .49.49 0 0 1-.28-.09.2.2 0 0 1-.02-.18Zm23.88-2.14q-.09-.13-.24-.42l-.3-.62-.35-.72-.36-.68a4.84 4.84 0 0 0-.35-.55.83.83 0 0 0-.3-.28 4.28 4.28 0 0 0-.24.45l-.28.65-.29.75-.29.77-.25.7-.19.52h-.53l-2.13-4.94a.14.14 0 0 1 0-.15.27.27 0 0 1 .12-.09h.3a.3.3 0 0 1 .2.06.39.39 0 0 1 .1.14 1.06 1.06 0 0 1 .06.19l.07.19.25.55.3.67.32.7.31.63a5.3 5.3 0 0 0 .24.48 1.29 1.29 0 0 0 .15.24l.61-1.51.44-1 .29-.62a2.68 2.68 0 0 1 .17-.32l.1-.13a.42.42 0 0 1 .26.14 2.07 2.07 0 0 1 .31.37c.1.15.22.32.33.52l.35.61.34.63.3.59.25.47a3.25 3.25 0 0 0 .17.28 10.37 10.37 0 0 0 .41-1.64l.17-.92.16-.91.14-.85.11-.74a1 1 0 0 1 .33 0 .32.32 0 0 1 .17.11.48.48 0 0 1 .06.18 1.55 1.55 0 0 1 0 .22v.23c0 .17-.05.4-.1.7s-.09.65-.16 1l-.22 1.25a39.3 39.3 0 0 1-.59 2.58.56.56 0 0 1-.29.12.23.23 0 0 1-.19-.06.7.7 0 0 1-.14-.21Zm2.18-.55a2.64 2.64 0 0 1 .61-2 2.34 2.34 0 0 1 .82-.64 2.12 2.12 0 0 1 1-.22 1.33 1.33 0 0 1 .26 0l.34.09.36.14a1.29 1.29 0 0 1 .3.22.73.73 0 0 1 .2.27.59.59 0 0 1 0 .35 1.72 1.72 0 0 1-.65.27 6 6 0 0 1-.74.11l-.74.05a2.26 2.26 0 0 0-.64.13.84.84 0 0 0-.41.32 1 1 0 0 0-.1.64 1.07 1.07 0 0 0 .34.56 1.06 1.06 0 0 0 .55.21 1.86 1.86 0 0 0 .66 0 5 5 0 0 0 .69-.19c.23-.08.44-.16.64-.25l.48-.21a.18.18 0 0 1 .15.07.2.2 0 0 1 .06.15 1.54 1.54 0 0 1-.52.53 3.12 3.12 0 0 1-.78.37 3.49 3.49 0 0 1-.92.18 2.9 2.9 0 0 1-.89-.07 1.85 1.85 0 0 1-.73-.36 1.26 1.26 0 0 1-.34-.72Zm2.41-2.36h-.3a1.31 1.31 0 0 0-.34.09 1.19 1.19 0 0 0-.29.18.36.36 0 0 0-.12.28l1.7-.28a.57.57 0 0 0-.28-.23.94.94 0 0 0-.35-.04Zm2.32 2.36a2.62 2.62 0 0 1 .1-1.08 2.8 2.8 0 0 1 .51-.93 2.34 2.34 0 0 1 .82-.64 2.12 2.12 0 0 1 1-.22 1.33 1.33 0 0 1 .26 0l.34.09.36.14a1.29 1.29 0 0 1 .3.22.73.73 0 0 1 .2.27.59.59 0 0 1 0 .35 1.72 1.72 0 0 1-.65.27 6 6 0 0 1-.74.11l-.74.05a2.26 2.26 0 0 0-.64.13.88.88 0 0 0-.41.32 1 1 0 0 0-.1.64 1.07 1.07 0 0 0 .34.56 1.06 1.06 0 0 0 .55.21 1.86 1.86 0 0 0 .66 0 5 5 0 0 0 .69-.19c.23-.08.44-.16.64-.25l.48-.21a.18.18 0 0 1 .15.07.2.2 0 0 1 .06.15 1.54 1.54 0 0 1-.52.53 3.12 3.12 0 0 1-.78.37 3.49 3.49 0 0 1-.92.18 2.9 2.9 0 0 1-.89-.07 1.85 1.85 0 0 1-.73-.36 1.26 1.26 0 0 1-.34-.71Zm2.41-2.36h-.3a1.31 1.31 0 0 0-.34.09 1.19 1.19 0 0 0-.29.18.36.36 0 0 0-.12.28l1.7-.28a.57.57 0 0 0-.28-.23.94.94 0 0 0-.37-.04Zm2.55.24v-.69l-.06-.7c0-.23 0-.46-.05-.69s0-.46 0-.7a.26.26 0 0 1 .08-.21.33.33 0 0 1 .21-.06h.14a4.52 4.52 0 0 1 .13.75c0 .27.05.55.07.84s0 .6.05.93.05.65.1 1a2.51 2.51 0 0 0 .35-.22l.52-.36.59-.43.58-.41.49-.3a.8.8 0 0 1 .32-.12.21.21 0 0 1 .12 0 .31.31 0 0 1 .09.12 4.37 4.37 0 0 1-.64.65c-.24.19-.49.38-.74.55l-.77.53a6.34 6.34 0 0 0-.69.54l1.08.32 1 .31.95.24a7.55 7.55 0 0 0 .94.12v.18a.29.29 0 0 1 0 .13.18.18 0 0 1-.1.09.56.56 0 0 1-.2 0h-.07a9.74 9.74 0 0 0-.76-.18l-1-.21-1-.22-1-.23v1.02a.75.75 0 0 1-.1.34.45.45 0 0 1-.21.2.58.58 0 0 1-.39 0Zm9.74 3a4.35 4.35 0 0 0 .88-.33 3.55 3.55 0 0 0 .69-.44 2.25 2.25 0 0 0 .45-.49 1 1 0 0 0 .21-.45.41.41 0 0 0-.09-.34.48.48 0 0 0-.39-.16 2.27 2.27 0 0 0-.75.1 6.36 6.36 0 0 0-1.12.43l-.3-.38.41-.2.52-.26.55-.3a5.68 5.68 0 0 0 .51-.32 2.77 2.77 0 0 0 .4-.3.63.63 0 0 0 .19-.28.17.17 0 0 0-.07-.21.87.87 0 0 0-.41-.14 3 3 0 0 0-.73.08l-.71.17-.7.17a3.42 3.42 0 0 1-.71.07v-.12a.78.78 0 0 1 0-.14.69.69 0 0 1 0-.13.36.36 0 0 1 .17-.03l.76-.19c.27-.07.53-.13.8-.18a7.74 7.74 0 0 1 .77-.13 4.12 4.12 0 0 1 .69 0 1.17 1.17 0 0 1 .52.13.6.6 0 0 1 .3.31.9.9 0 0 1-.13.44 2 2 0 0 1-.32.4 4.27 4.27 0 0 1-.38.36l-.35.3a2.13 2.13 0 0 1 .86.14.76.76 0 0 1 .39.35.71.71 0 0 1 0 .48 2.09 2.09 0 0 1-.29.55 4.1 4.1 0 0 1-.5.53 4.44 4.44 0 0 1-.62.45 4.06 4.06 0 0 1-.65.29 1.41 1.41 0 0 1-.6.05.43.43 0 0 1-.19 0 .19.19 0 0 1-.06-.28Zm21.9 2.67q-.09-.13-.24-.42l-.31-.62-.34-.72a8.64 8.64 0 0 0-.37-.68 4.9 4.9 0 0 0-.34-.55.93.93 0 0 0-.31-.28 3.06 3.06 0 0 0-.23.45c-.09.19-.19.41-.28.65l-.3.75-.28.77-.25.7-.19.52h-.53l-2.14-4.94a.16.16 0 0 1 0-.15.27.27 0 0 1 .12-.09h.3a.27.27 0 0 1 .19.06.31.31 0 0 1 .11.14l.06.19a1.46 1.46 0 0 0 .07.19l.25.55.3.67.32.7.3.63a5 5 0 0 0 .25.48l.14.24.62-1.51c.17-.41.31-.75.43-1l.29-.62.18-.32a.65.65 0 0 1 .09-.13h.05a.45.45 0 0 1 .26.14 2.07 2.07 0 0 1 .3.37l.34.52.35.61.33.63.3.59.25.47a1.72 1.72 0 0 0 .18.28l.21-.77.2-.87c.07-.3.12-.61.17-.92l.16-.91.13-.85.12-.74a1 1 0 0 1 .33 0 .36.36 0 0 1 .17.11.48.48 0 0 1 .06.18v.45c0 .17-.05.4-.09.7l-.16 1-.22 1.25-.27 1.33c-.1.45-.21.86-.33 1.25a.5.5 0 0 1-.28.12.22.22 0 0 1-.19-.06.7.7 0 0 1-.18-.21c0-.12-.06-.22-.1-.33Zm2.17-.55a2.63 2.63 0 0 1 .11-1.08 2.78 2.78 0 0 1 .5-.93 2.43 2.43 0 0 1 .82-.64 2.18 2.18 0 0 1 1.05-.22 1.24 1.24 0 0 1 .25 0l.35.09.35.14a1.16 1.16 0 0 1 .31.22.86.86 0 0 1 .2.27.52.52 0 0 1 0 .35 1.67 1.67 0 0 1-.64.27 6.16 6.16 0 0 1-.75.11l-.74.05a2.26 2.26 0 0 0-.63.13.77.77 0 0 0-.51 1 1 1 0 0 0 .34.56 1.06 1.06 0 0 0 .55.21 1.87 1.87 0 0 0 .66 0 5.91 5.91 0 0 0 .69-.19c.22-.08.44-.16.63-.25l.49-.21a.18.18 0 0 1 .15.07.2.2 0 0 1 .06.15 1.74 1.74 0 0 1-.52.53 3.19 3.19 0 0 1-.79.37 3.42 3.42 0 0 1-.91.18 2.88 2.88 0 0 1-.89-.07 1.85 1.85 0 0 1-.73-.36 1.33 1.33 0 0 1-.4-.75Zm2.42-2.36h-.3a1.39 1.39 0 0 0-.35.09 1.12 1.12 0 0 0-.28.18.36.36 0 0 0-.12.28l1.7-.28a.59.59 0 0 0-.29-.23.89.89 0 0 0-.36-.04Zm2.31 2.36a2.63 2.63 0 0 1 .11-1.08 2.78 2.78 0 0 1 .5-.93 2.43 2.43 0 0 1 .82-.64 2.18 2.18 0 0 1 1.05-.22 1.24 1.24 0 0 1 .25 0l.35.09.35.14a1.16 1.16 0 0 1 .31.22.73.73 0 0 1 .2.27.52.52 0 0 1 0 .35 1.67 1.67 0 0 1-.64.27 5.88 5.88 0 0 1-.75.11l-.74.05a2.26 2.26 0 0 0-.63.13.77.77 0 0 0-.51 1 1 1 0 0 0 .34.56 1.06 1.06 0 0 0 .55.21 1.87 1.87 0 0 0 .66 0 5.91 5.91 0 0 0 .69-.19c.22-.08.44-.16.63-.25l.49-.21a.18.18 0 0 1 .15.07.2.2 0 0 1 .06.15 1.63 1.63 0 0 1-.52.53 3.19 3.19 0 0 1-.79.37 3.42 3.42 0 0 1-.91.18 2.88 2.88 0 0 1-.89-.07 1.85 1.85 0 0 1-.73-.36 1.33 1.33 0 0 1-.4-.75Zm2.42-2.36h-.3a1.39 1.39 0 0 0-.35.09 1.12 1.12 0 0 0-.28.18.36.36 0 0 0-.12.28l1.7-.28a.59.59 0 0 0-.29-.23.89.89 0 0 0-.36-.04Zm2.55.24v-.69c0-.23 0-.47-.05-.7l-.06-.69v-.7a.25.25 0 0 1 .07-.21.34.34 0 0 1 .22-.06h.05a5.86 5.86 0 0 1 .13.75q0 .41.06.84c0 .3 0 .6.06.93s.05.65.09 1a3.18 3.18 0 0 0 .36-.22l.51-.36.59-.43.59-.41.49-.3a.77.77 0 0 1 .31-.12.21.21 0 0 1 .12 0 .31.31 0 0 1 .09.12 3.93 3.93 0 0 1-.64.65 8.35 8.35 0 0 1-.74.55l-.76.53a6.34 6.34 0 0 0-.69.54l1.08.32 1 .31.95.24a7.32 7.32 0 0 0 .94.12 1 1 0 0 1 0 .18.28.28 0 0 1 0 .13.2.2 0 0 1-.11.09.49.49 0 0 1-.2 0h-.07c-.2-.06-.45-.12-.76-.18l-1-.21-1-.22-1-.23v.62a2.64 2.64 0 0 1 0 .4.9.9 0 0 1-.09.34.43.43 0 0 1-.22.2.55.55 0 0 1-.38 0Zm11.67 1.57h-2.48l-.08-.06a.16.16 0 0 1 0-.12c.23-.29.46-.58.67-.88s.43-.58.64-.84l.57-.7a3.28 3.28 0 0 1 .51-.46.61.61 0 0 1 .41-.14.46.46 0 0 1 .31.29 2.61 2.61 0 0 1 .17.81 12.09 12.09 0 0 1 0 1.42h1.88v.25c0 .05 0 .09-.05.13s0 .06-.07.06l-1.58.13a2 2 0 0 0-.1.4v.51a4.53 4.53 0 0 0 0 .52v.47h-.59a.12.12 0 0 1-.11-.1Zm0-2.45a3 3 0 0 1-.45.5l-.53.48a5.34 5.34 0 0 0-.46.5 1.13 1.13 0 0 0-.26.51 5.84 5.84 0 0 0 .83 0l.87-.1Zm20.56 3.55a2.37 2.37 0 0 1-.24-.42l-.31-.62-.34-.72-.37-.68a3.76 3.76 0 0 0-.35-.55.83.83 0 0 0-.3-.28 4.28 4.28 0 0 0-.24.45l-.28.65-.29.75-.28.75-.25.7-.19.52h-.53l-2.14-4.94a.16.16 0 0 1 0-.15.27.27 0 0 1 .12-.09h.3a.27.27 0 0 1 .19.06.24.24 0 0 1 .1.14 1.07 1.07 0 0 1 .07.19 1.46 1.46 0 0 0 .07.19l.24.55.3.67.33.7.3.63a5 5 0 0 0 .25.48 1.49 1.49 0 0 0 .14.23l.61-1.5.44-1 .29-.62a2.41 2.41 0 0 1 .18-.32.65.65 0 0 1 .09-.13h.05a.4.4 0 0 1 .25.14 2.37 2.37 0 0 1 .31.36 10 10 0 0 1 .68 1.14l.34.63.3.59.25.46a1.12 1.12 0 0 0 .18.28 15.53 15.53 0 0 0 .4-1.63l.18-.92.16-.91.13-.85.12-.74a1 1 0 0 1 .33 0 .27.27 0 0 1 .16.11.36.36 0 0 1 .07.18v.45c0 .17-.05.4-.09.7l-.16 1-.22 1.25a39.85 39.85 0 0 1-.6 2.58.53.53 0 0 1-.28.12.21.21 0 0 1-.19-.06.7.7 0 0 1-.14-.21.65.65 0 0 0-.14-.31Zm2.21-.55a2.63 2.63 0 0 1 .11-1.08 2.69 2.69 0 0 1 .5-.93 2.43 2.43 0 0 1 .82-.64 2.31 2.31 0 0 1 1.05-.23h.25l.34.09a3.84 3.84 0 0 1 .36.14 1.16 1.16 0 0 1 .31.22.86.86 0 0 1 .2.27.59.59 0 0 1 0 .35 1.67 1.67 0 0 1-.64.27 6.46 6.46 0 0 1-.75.11l-.74.05a2.26 2.26 0 0 0-.63.13.77.77 0 0 0-.51 1 1 1 0 0 0 .34.56 1 1 0 0 0 .54.21 1.92 1.92 0 0 0 .67 0 5.91 5.91 0 0 0 .69-.19l.63-.25.49-.21a.19.19 0 0 1 .15.07.2.2 0 0 1 .06.15 1.74 1.74 0 0 1-.52.53 3.19 3.19 0 0 1-.79.37 3.42 3.42 0 0 1-.91.18 2.85 2.85 0 0 1-.89-.07 1.79 1.79 0 0 1-.73-.36 1.27 1.27 0 0 1-.4-.74Zm2.42-2.36h-.31a2.19 2.19 0 0 0-.34.1 1.12 1.12 0 0 0-.28.18.35.35 0 0 0-.12.28l1.69-.28a.53.53 0 0 0-.28-.23.92.92 0 0 0-.36-.05Zm2.31 2.36a2.63 2.63 0 0 1 .11-1.08 2.69 2.69 0 0 1 .5-.93 2.43 2.43 0 0 1 .82-.64 2.31 2.31 0 0 1 1.05-.23h.25l.34.09a3.84 3.84 0 0 1 .36.14 1.16 1.16 0 0 1 .31.22.86.86 0 0 1 .2.27.59.59 0 0 1 0 .35 1.67 1.67 0 0 1-.64.27 6.16 6.16 0 0 1-.75.11l-.74.05a2.26 2.26 0 0 0-.63.13.77.77 0 0 0-.51 1 1 1 0 0 0 .34.56 1 1 0 0 0 .54.21 1.92 1.92 0 0 0 .67 0 5.91 5.91 0 0 0 .69-.19l.63-.25.52-.2a.19.19 0 0 1 .15.07.2.2 0 0 1 .06.15 1.74 1.74 0 0 1-.52.53 3.19 3.19 0 0 1-.79.37 3.42 3.42 0 0 1-.91.18 2.88 2.88 0 0 1-.89-.07 1.85 1.85 0 0 1-.73-.36 1.27 1.27 0 0 1-.43-.75Zm2.42-2.36h-.31a2.19 2.19 0 0 0-.34.1 1.12 1.12 0 0 0-.28.18.35.35 0 0 0-.12.28l1.69-.28a.53.53 0 0 0-.28-.23.92.92 0 0 0-.36-.05Zm2.55.24v-.69c0-.24 0-.47-.05-.7l-.06-.69v-.7a.25.25 0 0 1 .07-.21.34.34 0 0 1 .13-.01h.14a4.52 4.52 0 0 1 .12.75c0 .27.05.55.07.84s0 .6.05.92.05.66.1 1a3.18 3.18 0 0 0 .36-.22l.51-.36.59-.43.59-.41.49-.3a.77.77 0 0 1 .31-.12.21.21 0 0 1 .12 0 .31.31 0 0 1 .09.12 3.93 3.93 0 0 1-.64.65c-.24.19-.48.38-.74.55l-.76.53a6.34 6.34 0 0 0-.69.54l1.08.32 1 .31.95.24a7.32 7.32 0 0 0 .94.12v.18a.28.28 0 0 1 0 .13s-.06.06-.11.09a.49.49 0 0 1-.2 0h-.07l-.76-.19-1-.2-1-.22-1-.23v.62a2.64 2.64 0 0 1 0 .4.9.9 0 0 1-.09.34.43.43 0 0 1-.22.2.55.55 0 0 1-.38 0Zm9.52 3a.45.45 0 0 1 .13-.32.41.41 0 0 1 .31-.16v.16h.47a5 5 0 0 0 .53 0 3 3 0 0 0 .52-.11 1.75 1.75 0 0 0 .46-.21 1.07 1.07 0 0 0 .32-.35 1 1 0 0 0 .12-.51.7.7 0 0 0-.15-.47.92.92 0 0 0-.38-.26 1.85 1.85 0 0 0-.49-.11 4.27 4.27 0 0 0-.49 0 1.76 1.76 0 0 0-.46.06l-.43.16-.43.15a1.67 1.67 0 0 1-.44.06h-.27a.2.2 0 0 1-.11-.06.17.17 0 0 1-.05-.13.11.11 0 0 1 0-.05v-.29c0-.13 0-.29.05-.45l.06-.53c0-.19 0-.37.06-.53s0-.32.05-.46 0-.23 0-.3a.15.15 0 0 1 .19-.29h.17a.3.3 0 0 1 .22.06.28.28 0 0 1 .05.16.57.57 0 0 1 0 .22 2 2 0 0 0 0 .23 5.44 5.44 0 0 0 1.2-.13c.39-.08.79-.17 1.18-.28L284 158a5.2 5.2 0 0 1 1.18-.13h.17c.05 0 .08.06.11.14a.33.33 0 0 1-.12.17 1 1 0 0 1-.29.14l-.54.14-.88.19-1.31.27-1.82.41v1.09l.62-.08c.24 0 .47-.07.72-.09a5.77 5.77 0 0 1 .72 0 1.92 1.92 0 0 1 .64.13 1.14 1.14 0 0 1 .47.34 1.19 1.19 0 0 1 .23.64 1.47 1.47 0 0 1-.14.64 1.6 1.6 0 0 1-.36.49 2.07 2.07 0 0 1-.54.37 4.32 4.32 0 0 1-.63.24 5.32 5.32 0 0 1-.67.14h-.65a.9.9 0 0 1-.34-.05c-.11-.03-.14-.11-.14-.19Zm23.22-1.33a2.37 2.37 0 0 1-.24-.42l-.31-.62-.34-.72-.37-.68a3.76 3.76 0 0 0-.35-.55.83.83 0 0 0-.3-.28 4.28 4.28 0 0 0-.24.45l-.28.65-.29.75-.28.77-.25.7-.19.52h-.53l-2.14-4.94a.16.16 0 0 1 0-.15.27.27 0 0 1 .12-.09h.3a.27.27 0 0 1 .19.06.24.24 0 0 1 .1.14 1.07 1.07 0 0 1 .07.19 1.46 1.46 0 0 0 .07.19l.24.55.31.67.32.7.3.63a5 5 0 0 0 .25.48 1.49 1.49 0 0 0 .14.23l.62-1.5c.18-.41.31-.75.43-1l.29-.62a2.41 2.41 0 0 1 .18-.32.65.65 0 0 1 .09-.13h.05a.4.4 0 0 1 .25.14 1.92 1.92 0 0 1 .31.36l.34.53.35.61.33.63.3.59.25.46a1.12 1.12 0 0 0 .18.28 15.53 15.53 0 0 0 .4-1.63c.06-.3.13-.61.18-.92l.16-.91.13-.85.12-.74a1 1 0 0 1 .33 0 .3.3 0 0 1 .17.11.48.48 0 0 1 .06.18v.45c0 .17 0 .4-.09.7s-.1.65-.16 1l-.22 1.25a39.85 39.85 0 0 1-.6 2.58.53.53 0 0 1-.28.12.21.21 0 0 1-.19-.06.7.7 0 0 1-.14-.21l-.14-.33Zm2.17-.55a2.63 2.63 0 0 1 .11-1.08 2.69 2.69 0 0 1 .5-.93 2.43 2.43 0 0 1 .82-.64 2.31 2.31 0 0 1 1.05-.23h.25l.34.09a3.84 3.84 0 0 1 .36.14 1.16 1.16 0 0 1 .31.22.86.86 0 0 1 .2.27.59.59 0 0 1 0 .35 1.67 1.67 0 0 1-.64.27 6.16 6.16 0 0 1-.75.11l-.74.05a2.26 2.26 0 0 0-.63.13.77.77 0 0 0-.51 1 1 1 0 0 0 .34.56 1 1 0 0 0 .54.21 1.92 1.92 0 0 0 .67 0 5.91 5.91 0 0 0 .69-.19l.63-.25.49-.21a.19.19 0 0 1 .15.07.2.2 0 0 1 .06.15 1.74 1.74 0 0 1-.52.53 3.19 3.19 0 0 1-.79.37 3.42 3.42 0 0 1-.91.18 2.85 2.85 0 0 1-.89-.07 1.85 1.85 0 0 1-.73-.36 1.27 1.27 0 0 1-.4-.74Zm2.42-2.36h-.31a2.19 2.19 0 0 0-.34.1 1.12 1.12 0 0 0-.28.18.35.35 0 0 0-.12.28l1.69-.28a.53.53 0 0 0-.28-.23.92.92 0 0 0-.36-.05Zm2.31 2.36a2.63 2.63 0 0 1 .11-1.08 2.69 2.69 0 0 1 .5-.93 2.43 2.43 0 0 1 .82-.64 2.31 2.31 0 0 1 1-.23h.25l.35.09.35.14a1.16 1.16 0 0 1 .31.22.86.86 0 0 1 .2.27.52.52 0 0 1 0 .35 1.67 1.67 0 0 1-.64.27 6.16 6.16 0 0 1-.75.11l-.74.05a2.26 2.26 0 0 0-.63.13.77.77 0 0 0-.51 1 1 1 0 0 0 .34.56 1.06 1.06 0 0 0 .54.21 1.92 1.92 0 0 0 .67 0 5.91 5.91 0 0 0 .69-.19l.63-.25.49-.21a.18.18 0 0 1 .15.07.2.2 0 0 1 .06.15 1.74 1.74 0 0 1-.52.53 3.19 3.19 0 0 1-.79.37 3.42 3.42 0 0 1-.91.18 2.88 2.88 0 0 1-.89-.07 1.85 1.85 0 0 1-.73-.36 1.33 1.33 0 0 1-.35-.74Zm2.42-2.36h-.3a2 2 0 0 0-.35.1 1.12 1.12 0 0 0-.28.18.35.35 0 0 0-.12.28l1.7-.28a.59.59 0 0 0-.29-.23.92.92 0 0 0-.33-.05Zm2.55.24v-.69c0-.24 0-.47-.05-.7l-.06-.69v-.7a.25.25 0 0 1 .07-.21.34.34 0 0 1 .22-.06h.14a5.86 5.86 0 0 1 .13.75l.06.84c0 .3 0 .6.06.92a9 9 0 0 0 .09 1 3.18 3.18 0 0 0 .36-.22l.51-.36.59-.43.59-.41.49-.3a.77.77 0 0 1 .31-.12.21.21 0 0 1 .12 0 .31.31 0 0 1 .09.12 3.93 3.93 0 0 1-.64.65c-.24.19-.48.38-.74.55l-.76.53a6.34 6.34 0 0 0-.69.54l1.08.32 1 .31.95.24a7.32 7.32 0 0 0 .94.12 1 1 0 0 1 0 .18.28.28 0 0 1 0 .13s-.06.06-.11.09a.49.49 0 0 1-.2 0H320l-.76-.19-1-.2-1-.22-1-.23v.62a2.64 2.64 0 0 1 0 .4.9.9 0 0 1-.09.34.43.43 0 0 1-.22.2.55.55 0 0 1-.38 0Zm8.64.73a2.26 2.26 0 0 1 .11-.7 3.26 3.26 0 0 1 .31-.72 3.85 3.85 0 0 1 .47-.67 3.47 3.47 0 0 1 .59-.56 2.75 2.75 0 0 1 .66-.38 1.8 1.8 0 0 1 .71-.14.4.4 0 0 1 .2 0c.06 0 .08.11.07.25a2.53 2.53 0 0 0-.95.38 2.94 2.94 0 0 0-.77.68 3 3 0 0 0-.51.91 2.91 2.91 0 0 0-.18 1 1.62 1.62 0 0 0 .06.37 2.64 2.64 0 0 0 .17.47 1.66 1.66 0 0 0 .25.41.39.39 0 0 0 .3.17 3.65 3.65 0 0 0 .35-.2l.39-.38.48-.42a4 4 0 0 1 .54-.38 2.8 2.8 0 0 1 .61-.28 2.08 2.08 0 0 1 .66-.11.44.44 0 0 1 .26.07.61.61 0 0 1 .2.19.89.89 0 0 1 .12.26.86.86 0 0 1 0 .28 2.16 2.16 0 0 1-.34.94 2.21 2.21 0 0 1-.63.66 2.47 2.47 0 0 1-.84.38 2.85 2.85 0 0 1-.92.09 2.78 2.78 0 0 1-.9-.19 2.47 2.47 0 0 1-.77-.49 2.16 2.16 0 0 1-.53-.78 2.53 2.53 0 0 1-.17-1.11Zm4.26.22a1 1 0 0 0-.38.1 2.39 2.39 0 0 0-.43.25l-.43.33-.4.37-.34.34-.23.25a2.64 2.64 0 0 0 .74 0 2.6 2.6 0 0 0 .8-.23 2.13 2.13 0 0 0 .65-.44 1 1 0 0 0 .31-.66.26.26 0 0 0-.29-.26Zm19.58.72a2.37 2.37 0 0 1-.24-.42l-.31-.62-.34-.72-.37-.68a3.76 3.76 0 0 0-.35-.55.83.83 0 0 0-.3-.28 4.28 4.28 0 0 0-.24.45l-.28.65-.29.75-.28.75-.25.7-.19.52h-.53l-2.14-4.94a.16.16 0 0 1 0-.15.27.27 0 0 1 .11-.13h.3a.27.27 0 0 1 .19.06.3.3 0 0 1 .1.14 1.07 1.07 0 0 1 .07.19 1.46 1.46 0 0 0 .07.19l.24.55.3.67.33.7.3.63a3.44 3.44 0 0 0 .25.48 1.49 1.49 0 0 0 .14.23l.61-1.5.44-1 .29-.62a2.41 2.41 0 0 1 .18-.32.65.65 0 0 1 .09-.13h.05a.43.43 0 0 1 .25.14 2.37 2.37 0 0 1 .31.36 10 10 0 0 1 .68 1.14l.34.63.3.59.25.46a1.12 1.12 0 0 0 .18.28 15.53 15.53 0 0 0 .4-1.63l.18-.92.16-.91.13-.85.12-.74a1 1 0 0 1 .33 0 .27.27 0 0 1 .16.11.36.36 0 0 1 .07.18v.45c0 .17 0 .4-.09.7s-.1.65-.16 1l-.22 1.25a39.85 39.85 0 0 1-.6 2.58.53.53 0 0 1-.28.12.21.21 0 0 1-.19-.06.55.55 0 0 1-.14-.21.34.34 0 0 1-.13-.27Zm2.13-.55a2.63 2.63 0 0 1 .11-1.08 2.69 2.69 0 0 1 .5-.93 2.43 2.43 0 0 1 .82-.64 2.31 2.31 0 0 1 1.05-.23h.25l.34.09.36.14a1.16 1.16 0 0 1 .31.22.86.86 0 0 1 .2.27.59.59 0 0 1 0 .35 1.67 1.67 0 0 1-.64.27 6.46 6.46 0 0 1-.75.11l-.74.05a2.26 2.26 0 0 0-.63.13.77.77 0 0 0-.51 1 1 1 0 0 0 .34.56 1 1 0 0 0 .54.21 1.92 1.92 0 0 0 .67 0 5.91 5.91 0 0 0 .69-.19l.63-.25.48-.21a.24.24 0 0 1 .22.22 1.74 1.74 0 0 1-.52.53 3.37 3.37 0 0 1-.79.37 3.42 3.42 0 0 1-.91.18 2.85 2.85 0 0 1-.89-.07 1.89 1.89 0 0 1-.74-.36 1.31 1.31 0 0 1-.39-.74Zm2.41-2.36h-.3a2.19 2.19 0 0 0-.34.1 1.12 1.12 0 0 0-.28.18.35.35 0 0 0-.12.28l1.69-.28a.53.53 0 0 0-.28-.23.94.94 0 0 0-.37-.05Zm2.32 2.36A2.63 2.63 0 0 1 355 159a2.69 2.69 0 0 1 .5-.93 2.43 2.43 0 0 1 .82-.64 2.31 2.31 0 0 1 1-.23h.25l.34.09.36.14a1.16 1.16 0 0 1 .31.22.86.86 0 0 1 .2.27.59.59 0 0 1 0 .35 1.67 1.67 0 0 1-.64.27 6.16 6.16 0 0 1-.75.11l-.74.05a2.26 2.26 0 0 0-.63.13.77.77 0 0 0-.51 1 1 1 0 0 0 .34.56 1 1 0 0 0 .54.21 1.92 1.92 0 0 0 .67 0 5.91 5.91 0 0 0 .69-.19l.63-.25.49-.21a.21.21 0 0 1 .15.07.2.2 0 0 1 .06.15 1.74 1.74 0 0 1-.52.53 3.19 3.19 0 0 1-.79.37 3.42 3.42 0 0 1-.91.18 2.85 2.85 0 0 1-.89-.07 1.85 1.85 0 0 1-.73-.36 1.27 1.27 0 0 1-.38-.7Zm2.41-2.36h-.3a2.19 2.19 0 0 0-.34.1 1.12 1.12 0 0 0-.28.18.35.35 0 0 0-.12.28l1.69-.28a.53.53 0 0 0-.28-.23.94.94 0 0 0-.37-.05Zm2.55.24v-.69c0-.23 0-.47-.05-.7l-.06-.69v-.7a.25.25 0 0 1 .07-.21.33.33 0 0 1 .22-.01h.15a4.52 4.52 0 0 1 .12.75c0 .27 0 .55.07.84s0 .6 0 .92.05.66.1 1a2.51 2.51 0 0 0 .35-.22l.52-.36.59-.43.59-.41.49-.3a.77.77 0 0 1 .31-.12.21.21 0 0 1 .12 0 .31.31 0 0 1 .09.12 3.93 3.93 0 0 1-.64.65c-.24.19-.48.38-.74.55l-.76.53a6.34 6.34 0 0 0-.69.54l1.08.32 1 .31c.32.09.63.17.95.24a7.32 7.32 0 0 0 .94.12v.18a.28.28 0 0 1 0 .13s-.06.06-.11.09a.49.49 0 0 1-.2 0h-.07l-.76-.19-1-.2-1-.22-1-.23v.62a2.64 2.64 0 0 1 0 .4.9.9 0 0 1-.09.34.43.43 0 0 1-.22.2.55.55 0 0 1-.38 0Zm12.36-.85h-3.66a.31.31 0 0 1-.12-.09.25.25 0 0 1 0-.24.31.31 0 0 1 .12-.09 9.4 9.4 0 0 0 1.19 0l1.18-.16 1.16-.16a7.67 7.67 0 0 1 1.17-.08.25.25 0 0 1 .21.08.24.24 0 0 1 .06.21 10.71 10.71 0 0 0-.76.94 7.13 7.13 0 0 0-.65 1.09 5.09 5.09 0 0 0-.41 1.17 3.09 3.09 0 0 0 0 1.21l-.71.14v-.1a.76.76 0 0 1 0-.15.76.76 0 0 1 0-.15v-.1a2.57 2.57 0 0 1 .06-.68 4 4 0 0 1 .2-.67c.08-.21.18-.42.28-.63l.3-.59.26-.54a4 4 0 0 0 .12-.41Zm19.89 2.52q-.09-.13-.24-.42c-.09-.18-.2-.39-.3-.62l-.35-.72-.36-.68a4.84 4.84 0 0 0-.35-.55.83.83 0 0 0-.3-.28 4.28 4.28 0 0 0-.24.45l-.28.65-.29.75-.29.77-.25.7-.19.52h-.53l-2.1-4.97a.14.14 0 0 1 0-.15.27.27 0 0 1 .12-.09h.3a.3.3 0 0 1 .2.06.39.39 0 0 1 .1.14 1.06 1.06 0 0 1 .06.19 1.46 1.46 0 0 0 .07.19l.25.55.3.67.32.7.31.63a5.3 5.3 0 0 0 .24.48.86.86 0 0 0 .15.23l.61-1.5.44-1 .29-.62a2.68 2.68 0 0 1 .17-.32l.1-.13a.42.42 0 0 1 .26.14 2.37 2.37 0 0 1 .31.36c.1.16.22.33.33.53l.35.61.34.63.3.59.24.46a2.34 2.34 0 0 0 .18.28 6.35 6.35 0 0 0 .21-.76 18.67 18.67 0 0 0 .37-1.79l.16-.91.14-.85.11-.74a1 1 0 0 1 .33 0 .27.27 0 0 1 .17.11.48.48 0 0 1 .06.18 1.55 1.55 0 0 1 0 .22v.23c0 .17-.06.4-.1.7s-.09.65-.16 1l-.22 1.25a39.3 39.3 0 0 1-.59 2.58.56.56 0 0 1-.29.12.22.22 0 0 1-.19-.06.7.7 0 0 1-.14-.21Zm2.18-.55a2.62 2.62 0 0 1 .1-1.08 2.55 2.55 0 0 1 .51-.93 2.4 2.4 0 0 1 .81-.64 2.31 2.31 0 0 1 1.05-.23h.26l.34.09.35.14a1.16 1.16 0 0 1 .31.22.73.73 0 0 1 .2.27.59.59 0 0 1 0 .35 1.72 1.72 0 0 1-.65.27 6 6 0 0 1-.74.11l-.75.05a2.26 2.26 0 0 0-.63.13.84.84 0 0 0-.41.32 1 1 0 0 0-.1.64 1.07 1.07 0 0 0 .34.56 1.06 1.06 0 0 0 .55.21 1.86 1.86 0 0 0 .66 0 5 5 0 0 0 .69-.19 6.36 6.36 0 0 0 .63-.25l.49-.21a.18.18 0 0 1 .15.07.2.2 0 0 1 .06.15 1.63 1.63 0 0 1-.52.53 3.12 3.12 0 0 1-.78.37 3.49 3.49 0 0 1-.92.18 2.9 2.9 0 0 1-.89-.07 1.85 1.85 0 0 1-.73-.36 1.26 1.26 0 0 1-.38-.7Zm2.41-2.36h-.3a1.91 1.91 0 0 0-.34.1 1.19 1.19 0 0 0-.29.18.35.35 0 0 0-.12.28l1.7-.28a.57.57 0 0 0-.28-.23.94.94 0 0 0-.37-.05Zm2.34 2.36a2.62 2.62 0 0 1 .1-1.08 2.55 2.55 0 0 1 .51-.93 2.34 2.34 0 0 1 .82-.64 2.24 2.24 0 0 1 1-.23h.26l.34.09.36.14a1.29 1.29 0 0 1 .3.22.73.73 0 0 1 .2.27.59.59 0 0 1 0 .35 1.72 1.72 0 0 1-.65.27 6 6 0 0 1-.74.11l-.74.05a2.26 2.26 0 0 0-.64.13.84.84 0 0 0-.41.32 1 1 0 0 0-.1.64 1.07 1.07 0 0 0 .34.56 1.06 1.06 0 0 0 .55.21 1.86 1.86 0 0 0 .66 0 5 5 0 0 0 .69-.19 6.36 6.36 0 0 0 .63-.25l.52-.16a.18.18 0 0 1 .15.07.2.2 0 0 1 .06.15 1.54 1.54 0 0 1-.52.53 3.12 3.12 0 0 1-.78.37 3.49 3.49 0 0 1-.92.18 2.9 2.9 0 0 1-.89-.07 1.85 1.85 0 0 1-.73-.36 1.26 1.26 0 0 1-.37-.75Zm2.41-2.36h-.3a1.91 1.91 0 0 0-.34.1 1.19 1.19 0 0 0-.29.18.35.35 0 0 0-.12.28l1.7-.28a.57.57 0 0 0-.28-.23.94.94 0 0 0-.39-.05Zm2.53.24v-.69l-.06-.7c0-.23 0-.46-.05-.69s0-.47 0-.7a.26.26 0 0 1 .08-.21.33.33 0 0 1 .21-.06h.14a5.86 5.86 0 0 1 .13.75c0 .27.05.55.06.84s0 .6.06.92.05.66.09 1a2 2 0 0 0 .36-.22l.52-.36.59-.43.58-.41.49-.3a.8.8 0 0 1 .32-.12.21.21 0 0 1 .12 0 .46.46 0 0 1 .09.12 4.37 4.37 0 0 1-.64.65c-.24.19-.49.38-.74.55l-.77.53a6.34 6.34 0 0 0-.69.54l1.08.32 1 .31.95.24a7.55 7.55 0 0 0 .94.12v.18a.29.29 0 0 1-.05.13.22.22 0 0 1-.1.09.56.56 0 0 1-.2 0h-.07l-.76-.19-1-.2-1-.22-1-.23v1.02a.9.9 0 0 1-.1.34.45.45 0 0 1-.21.2.58.58 0 0 1-.39 0Zm8.65 2a.77.77 0 0 1 .13-.43 2.88 2.88 0 0 1 .3-.39l.3-.36a.58.58 0 0 0 .13-.31.41.41 0 0 0-.05-.19l-.11-.16-.1-.16a.39.39 0 0 1-.05-.2 1.12 1.12 0 0 1 .14-.55 1.62 1.62 0 0 1 .36-.43 2.38 2.38 0 0 1 .52-.31 3.19 3.19 0 0 1 .59-.21 3.09 3.09 0 0 1 .59-.12 3.25 3.25 0 0 1 .51 0h.51a2.09 2.09 0 0 1 .51.09.86.86 0 0 1 .39.24.64.64 0 0 1 .16.47 1 1 0 0 1-.14.51 2.46 2.46 0 0 1-.3.4l.4.19a.84.84 0 0 1 .27.22 1.05 1.05 0 0 1 .15.3 1.8 1.8 0 0 1 0 .43 1.59 1.59 0 0 1-.14.7 1.85 1.85 0 0 1-.37.58 3 3 0 0 1-.55.44 4 4 0 0 1-.66.31 4.35 4.35 0 0 1-.71.18 4.23 4.23 0 0 1-.7.06 3.47 3.47 0 0 1-.44 0 4.2 4.2 0 0 1-.47-.08 3 3 0 0 1-.45-.15 1.28 1.28 0 0 1-.39-.24 1.22 1.22 0 0 1-.27-.33.93.93 0 0 1-.06-.5Zm.69-.1a.72.72 0 0 0 .17.51 1 1 0 0 0 .41.29 1.94 1.94 0 0 0 .54.13h.55a3.13 3.13 0 0 0 .86-.12 2.31 2.31 0 0 0 .76-.35 1.85 1.85 0 0 0 .52-.59 1.66 1.66 0 0 0 .2-.82.81.81 0 0 0-.43-.51 1.77 1.77 0 0 0-.76-.18 3.25 3.25 0 0 0-.91.1 3.65 3.65 0 0 0-.89.34 2.48 2.48 0 0 0-.7.51 1.08 1.08 0 0 0-.32.66Zm.56-2.27a.48.48 0 0 0 .17.39.64.64 0 0 0 .42.13 1.43 1.43 0 0 0 .39 0l.51-.12c.19-.05.37-.11.56-.18s.35-.15.51-.23a2.2 2.2 0 0 0 .39-.25.58.58 0 0 0 .21-.25.6.6 0 0 0-.07-.27.25.25 0 0 0-.22-.11 1.44 1.44 0 0 0-.44-.13 3.48 3.48 0 0 0-.57 0 4.53 4.53 0 0 0-.62.07 2.39 2.39 0 0 0-.57.19 1.37 1.37 0 0 0-.44.34.93.93 0 0 0-.23.39Z" />
  <path d="M74.34 143.57s43.12-1.58 92.57 0 124.65.57 164.79-.7 88.69-1.67 88.69-1.67M74.34 172.45s313.11-3.16 346-3.16"
    style="fill:none;stroke:#263238;stroke-linecap:round;stroke-linejoin:round" />
  <path
    d="M114.3 141.2s4.35 175.25 0 209.67m43.12-209.67s-1.58 192.92 0 206.43m45.1-206.43s1.58 38 2 71.6-2 133.24 0 144.36M250 142.79s-2.41 115.51-1.41 155.07 1.41 60.92 1.41 60.92m41.53-217.58s4 137.32 3.56 166.77 0 45.89 0 45.89m41.54-214.7s-.25 81 2.3 103.51-1.15 116.11-1.15 116.11M381 139.16s1.7 41.42 2 64.57-.79 141.25 2 150.13"
    style="fill:none;stroke:#263238;stroke-linecap:round;stroke-linejoin:round" />
  <path
    d="M74.34 197s65.08-1.19 106.32 0c0 0-.1 11.07 0 15.43 0 0-96-.79-106.32 0 0-.02.79-12.68 0-15.43Zm218.66-.55v16s81.21-.79 89.9-2.38l-.16-15.43s-60.92-.64-89.74 1.81Z"
    style="fill:#fff;stroke:#263238;stroke-linecap:round;stroke-linejoin:round;stroke-width:2px" />
  <path
    d="M156.71 216.76h92.46l-.58 14.74-59.92 1.38c-21 .49-31.25 1.18-31.25 1.18Zm228.18-4.35.38 11.07s28.77-2 33-1.58v-11.08s-25.46-.39-33.38 1.59Z"
    style="fill:#f15;stroke:#263238;stroke-linecap:round;stroke-linejoin:round;stroke-width:2px" />
  <path d="M249.17 252s79-1.84 89.76-5.48v22s-77.19.31-90.58 2.75c0 .02-.78-14.91.82-19.27Z"
    style="fill:#fff;stroke:#263238;stroke-linecap:round;stroke-linejoin:round;stroke-width:2px" />
  <path
    d="M254.61 251.85s-7.55 11.65-6 13.14 9.21-12.63 11.55-13S252 271.41 253 272.1s14.26-20.92 17.41-20.88-7 18.81-5 18.73 11.32-18.4 14.72-18.73-7.88 18.45-5.27 18.37 13.08-20.08 15.24-19-10.75 17.4-7.33 18.74 12.16-17.49 16.35-18.43-9.69 17.15-5.64 17.62 10.12-18.87 13.28-17.32-5.8 12.28-4.48 13 5.54-12.93 9.76-13-5 12.28-4 13.77 5.29-3.65 5.29-3.65M78.29 196.91s-3.36 8-2.56 8.38 4-7.92 7.12-7.52-5.66 14.49-3.62 14.46 9-16.17 11.13-15.32-5.14 13.42-3.76 14.31 8.31-15.22 10.49-14.34-6.13 13.75-4 13.75 9.3-14 11.47-14-6.72 12.21-4.55 13.84 7.52-15.41 10.69-13.84-4.75 13-2.38 14.23 8.5-15.21 10.48-14.33-5.9 15.57-4.54 15.57 10.08-16.9 12.06-15.6-7.32 15.61-5.54 15.62 11.08-17.34 13.45-16.49-6.13 13.45-4 14.25 7.32-8.91 8.31-8.91-3.47 8.91-2.23 8.91 6-14.87 8.36-13.37-2.77 9.8-1.58 10.2 8.7-10.68 10.87-9.1-8.5 14.6-5.14 14.62S158 197.77 160.78 198s-5.54 12.85-3.36 13.05 6.53-14.24 8.9-13.45-3.32 10.85-1.78 11.4 4.94-10.08 7.71-9.89-5.14 10.29-1.78 10.69 4.53-11.24 7.91-10.8-4.25 10.66-2.38 12 4.66-5.14 4.66-5.14"
    style="fill:none;stroke:#f15;stroke-linecap:round;stroke-linejoin:round;stroke-width:2px" />
  <path
    d="m75.56 221.3 4.61-2a12.93 12.93 0 0 1-.92 4.42 3.43 3.43 0 0 0 2.62-2.8l-.51 1.62h4.31a1.13 1.13 0 0 1 .49-1.27c-.46.41-.18 1.25.37 1.53a2.59 2.59 0 0 0 1.82 0 17.77 17.77 0 0 0 4.35-1.72 2.16 2.16 0 0 0 1.3 2.47 6.35 6.35 0 0 0 2.94.38l12.93-.42m-35.43 6.8s1.78-2.29 3.37-2 .59 2.84 1.18 3.23 1.59-5.27 2.57-3.23a9.91 9.91 0 0 0 2.58 3.25s2.17-2.29 2.76-1.84 1.79 0 1.79 0h18.39m25.41-10.37s-14.87 48.52 109.59 43.26m0-3.48 3.16 3.88-3.16 1.98"
    style="fill:none;stroke:#263238;stroke-linecap:round;stroke-linejoin:round;stroke-width:2px" />
  <path d="M167.7 264.19c-10.28-4.75-28.93-1.53-42.77 7.17s-16.69 37.18 34 28.87 18.63-31.69.88-31.69"
    style="fill:#fff;stroke:#f15;stroke-linecap:round;stroke-linejoin:round;stroke-width:2px" />
  <path
    d="M127.5 279.62s3.1-2.81 4.44-3-2.53 2.59 0 3 2-1 4.46-1.5 3.22 2.24 3.22 2.24 3.95-1.36 6.33-2 .79 3.15 4 2 1.76-2.94 6.81-2 14.85.34 19.25 0M131.94 288c.95-2.42-.24-2.88 2.53-1.66s4.35 2.89 5.54 1.66a3.58 3.58 0 0 1 4-.94c1.18.5-1.59 1.29 1.18.5a11.17 11.17 0 0 0 4.36-2.32s-.7 1.69 2.22 3.19 5-1.59 5-1.59a126.25 126.25 0 0 1 13.37.2"
    style="fill:none;stroke:#f15;stroke-linecap:round;stroke-linejoin:round;stroke-width:2px" />
  <path
    d="m159.33 407.86 10.58-11.58v-3l8.11-7.36s9.86 3.42 14.56 15.42l-8.58 7.19-3.27.42-12.63 9s-8.77-3.03-8.77-10.09Z" />
  <path d="M178.31 388.13s3.61 10.75 12.93 12.93m-19.65-4.62s3.28 8.65 10.25 11.42"
    style="fill:none;stroke:#fff;stroke-linecap:round;stroke-linejoin:round;opacity:.30000000000000004" />
  <path
    d="m295.12 94.32 4.21-4.82h9.78a21.22 21.22 0 0 0 7.37-3.19s-3.72-3.79-8.21-3.93h-8.44l-22.54-4.08-125.56 11.2a16.83 16.83 0 0 0 2.27 15.3Zm56.48 10.48 3.36-2.89 10.94-.12a31 31 0 0 0 .24-10.73l-29.88-10.38c-7.68 4.79-4.56 24.12-4.56 24.12Z"
    style="fill-opacity:.7;opacity:.2" />
  <path d="M307.73 71.24S313 70.58 316 73c0 0-.39 3.1-8.3 3.89Z"
    style="fill:#f15;stroke:#263238;stroke-linecap:round;stroke-linejoin:round" />
  <path
    d="m298 69.86-6.87-4.67-139.54 11.23c-6.13 9.92 1.52 19.74 1.52 19.74L293.56 84.5l4.93-4.82 9.74-1.68a8.57 8.57 0 0 0 .88-3.92 6.19 6.19 0 0 0-1.31-4.14Z"
    style="fill:#263238" />
  <path d="m197.68 74 62.24-5.11a2 2 0 0 1-1.69 2.79l-58.35 5a2 2 0 0 1-2.2-2Z" style="fill:#f15" />
  <path d="M291 67.35s4.49 5 1.32 15m6.21-11.19a11.57 11.57 0 0 1 .59 6.35m-146.47.79s4.75 4.15 1.58 16"
    style="fill:none;stroke:#fff;stroke-linecap:round;stroke-linejoin:round;opacity:.30000000000000004" />
  <path
    d="M155.32 77.51s1.5.19 2.1 7.71L291 72.83a13.48 13.48 0 0 0-2.74-6.57Zm144.51-6.81a7 7 0 0 1 1.06 3.63l7.38-.71a8.71 8.71 0 0 0-.92-2.92Z"
    style="fill:#fff;opacity:.30000000000000004" />
  <path
    d="m363.32 96.91-15.21-3.85-2.67 1.43-10.31-3.67s-1.65-10.31 6.71-20.12l10.41 4.14 1.92 2.69 13.88 6.89s1.48 9.16-4.73 12.49Z"
    style="fill:#f15" />
  <g style="clip-path:url(#b)">
    <path
      d="m363.32 96.91-15.21-3.85-2.67 1.43-10.31-3.67s-1.65-10.31 6.71-20.12c1.54.61 4.75 8-2 17.75l6.16 2.37a11.4 11.4 0 0 0 4.29-3.53 8.42 8.42 0 0 0 1.36-3 12.11 12.11 0 0 1-.52 5.2l12.4 4s3 .37 4.52-9c0-.07 1.48 9.09-4.73 12.42Z"
      style="fill-opacity:.7;opacity:.30000000000000004" />
  </g>
  <path
    d="m363.32 96.91-15.21-3.85-2.67 1.43-10.31-3.67s-1.65-10.31 6.71-20.12l10.41 4.14 1.92 2.69 13.88 6.89s1.48 9.16-4.73 12.49Z"
    style="fill:none;stroke:#263238;stroke-linecap:round;stroke-linejoin:round" />
  <path d="M337 89.5s7.77-8.25 5.3-17.5m5.16 19.5s6.08-7 5.23-14.42"
    style="fill:none;stroke:#263238;stroke-linecap:round;stroke-linejoin:round" />
  <path
    d="m414.69 308.93-3.27 66.52c-17.47-.27-42.44-.61-68.92-.76-6.26-5.48-12.46-34.37-14.84-43.34s2.51-36.35 2.51-36.35-3.83-3.7-4.62-6.24 2.1-6.33 2.1-6.33l-1.57-8.7-3.17-2.4-2.9-3.57c-6.58-2.73-7.91-6.4-7.91-6.4l27.83-6.36Z"
    style="fill-opacity:.7;opacity:.30000000000000004" />
  <path
    d="M375.19 469.84s-10.72-89.61-16.25-104.77-12.82-65.27-12.82-65.27 16.84-1.35 21.94-1.4 11.69-4.93 11.69-4.93c-.56 1-1.83.38-2.77-5.74-.63-4.09-6.86-5.34-6.86-5.34s-14.95 1.12-27.56-.57a15.63 15.63 0 0 1-9.39 0c-4.59-1.67-5.52-3.46-3-5.89 0 0-3.57-4.67 8.63-11.3 0 0-8.11-7.29-4.15-12s13.35-9.41 13.35-9.41.39-3.55 2.11-4.48 11.08-4.75 16.22-8.31 7.38-3.29 16.88-3.56 21.1-2.63 25.45-.66c3.38 1.54 4.95 7.58 4.95 7.58 3.16 1 3.48 6.16 3.68 7.43.93 5.67 7.46 29.17 10.36 33.26s4.61 11.21 4.09 14.9-1.85 8-3.17 15.56-5.8 33.63-8 41.14-3.43 20.57-2.25 26.9l33.34 79.33"
    style="fill:#fff" />
  <g style="clip-path:url(#c)">
    <path
      d="M410.72 258.36s-6.31 3.81-6.31 6.23c0 0-12 9.13-13.38 19.88 0 0-6.65 6.74-8.11 9.8s-7.8 6.65-7.8 6.65a47.23 47.23 0 0 0-5.39-.2 67 67 0 0 1-9-2c3-.19 5.76-.34 7.35-.35 4.23 0 9.48-3.4 11.15-4.55-.64 0-1.53-1.54-2.23-6.12-.63-4.09-6.86-5.34-6.86-5.34s-14.95 1.12-27.56-.57a16.37 16.37 0 0 1-6.39.66 6 6 0 0 0-1.52-4.37s5.79-3.85 4.28-6.82c-.72-1.42-3.31-2.3-5.84-2.83a31.2 31.2 0 0 1 5.71-3.83s-8.11-7.29-4.15-12 13.33-9.38 13.33-9.38.39-3.55 2.11-4.48c0 0-1.05 5.49 6.59 5s18.52-5 18.52-5 20.6.57 24.78-2.6c0 0 5 4.27 8.66 5s2.06 17.22 2.06 17.22Zm20.99 31.02c-.53 3.69-1.85 8-3.17 15.56s-5.8 33.63-8 41.14-3.43 20.57-2.25 26.9l2.8 6.68c-6.07-10.76-5.59-24.88-5.1-28.59.59-4.55 3.95-21.37 7-30.07s3.27-26.9 3.27-27.53-1.58 4-3.19 9.13-7.49 19.59-7.49 19.59c-.2-3 2.27-20.55 2.72-22.55s4.07-15.49 4.69-19.25-2.36-8-3.11-11.05-3.71-16.38-4.5-25.59a40.34 40.34 0 0 0-3.67-14.46 19.21 19.21 0 0 1 1.9 4.5c3.16 1 3.48 6.16 3.68 7.43.93 5.67 7.46 29.17 10.36 33.26s4.58 11.21 4.06 14.9Zm-58.49 164.54c-3.25-25.56-9.75-74.21-13.85-87.55 2.83 3.44 6.05 9 8.31 19.71 4.55 21.56 5.94 31.05 6.13 40.94.13 6.32.04 17.98-.59 26.9Z"
      style="fill:#f15;opacity:.4" />
  </g>
  <path
    d="M375.19 469.84s-10.72-89.61-16.25-104.77-12.82-65.27-12.82-65.27 16.84-1.35 21.94-1.4 11.69-4.93 11.69-4.93c-.56 1-1.83.38-2.77-5.74-.63-4.09-6.86-5.34-6.86-5.34s-14.95 1.12-27.56-.57a15.63 15.63 0 0 1-9.39 0c-4.59-1.67-5.52-3.46-3-5.89 0 0-3.57-4.67 8.63-11.3 0 0-8.11-7.29-4.15-12s13.35-9.41 13.35-9.41.39-3.55 2.11-4.48 11.08-4.75 16.22-8.31 7.38-3.29 16.88-3.56 21.1-2.63 25.45-.66c3.38 1.54 4.95 7.58 4.95 7.58 3.16 1 3.48 6.16 3.68 7.43.93 5.67 7.46 29.17 10.36 33.26s4.61 11.21 4.09 14.9-1.85 8-3.17 15.56-5.8 33.63-8 41.14-3.43 20.57-2.25 26.9l33.34 79.33"
    style="fill:none;stroke:#263238;stroke-linecap:round;stroke-linejoin:round" />
  <path d="M330.17 275.93s2.63 3.56 11.73 2.11 20-10.55 20-10.55l6.53-2.77s8.31.92 11.34-.53"
    style="fill:none;stroke:#263238;stroke-linecap:round;stroke-linejoin:round" />
  <path d="M375.12 265s5.42 5.8 9.77 7.11m-5.14 21.36c3.69-2.38 8.57-9 13.05-9.5"
    style="fill:none;stroke:#263238;stroke-linecap:round;stroke-linejoin:round" />
  <path
    d="M379 285.42c2-6.61 8-13.32 8-13.32a31.24 31.24 0 0 1 3.69-6.19 10.48 10.48 0 0 1 6.33-4.35s-5.24-14.84-3.69-17.81m-23.21 38.64s4.07-1.28 5-4m-5.92-1.54s-.25 4.22-6.59 5.54m5.8-17.67s3.15-2.09 4.21-4.21M348 243.22s-1.13 3.17 3.59 4.49 17.38-.13 22.65-4.49c0 0 1.3-3.69.91-6.06"
    style="fill:none;stroke:#263238;stroke-linecap:round;stroke-linejoin:round" />
  <path
    d="M373.52 243.75s15.46-.53 16.65-.53 5.93-2.5 6.85-5.14m-.02 23.48s3.48 1.19 5.89.67m-13.61 23.19s-.56-5.85 3.52-14.13m20.78-37.5c2.1 8.16 5.33 35 7.51 40.08s2.44 6.81.86 11.55-4.13 16.22-4.13 16.22m.43 71.36c-1.71-5.4-2.76-12.52-2.11-15.82"
    style="fill:none;stroke:#263238;stroke-linecap:round;stroke-linejoin:round" />
  <path d="M318 258.13s-4.38.82-5.86 3.19c0 0 1.29 2 6.58 1.47s-.72-4.66-.72-4.66Z" style="fill:#263238" />
  <path d="m333.6 249.87 123.69-18.36 1.58 22.07-124.22 12.33-5.8-2.62-9.5.24a5.11 5.11 0 0 1-.93-6.46l9.78-2.1Z"
    style="fill:#f15" />
  <g style="clip-path:url(#d)">
    <path
      d="m354.87 251 51-7.23a3.85 3.85 0 0 1 4.37 3.42l.1 1a3.84 3.84 0 0 1-3.36 4.21l-51.09 6.21a3.83 3.83 0 0 1-4.29-3.45 3.85 3.85 0 0 1 3.27-4.16Z"
      style="fill:#263238" />
    <path
      d="m458.87 253.58-124.22 12.33-5.8-2.62-9.5.24a5 5 0 0 1-1.2-1.63l10-.34 4.4.4 17.29-1.45 5.06-9.49s4.44-.56 8 3.95 5.54 3.93 5.54 3.93l85.06-8.9 1-1s-3.43-7.78 0-14.13c.86-1.59 1.85-2.23 2.85-2.22Z"
      style="fill-opacity:.7;opacity:.30000000000000004" />
  </g>
  <path d="m333.6 249.87 123.69-18.36 1.58 22.07-124.22 12.33-5.8-2.62-9.5.24a5.11 5.11 0 0 1-.93-6.46l9.78-2.1Z"
    style="fill:none;stroke:#263238;stroke-linecap:round;stroke-linejoin:round" />
  <path d="M457.29 231.51c8.57-.68 10.41 21.2 1.58 22.07-8.45.84-10.28-21.37-1.58-22.07Z" style="fill:#f15" />
  <g style="clip-path:url(#e)">
    <path
      d="M458.87 253.58c-2.31.23-4.13-1.27-5.37-3.58l1-1s-3.43-7.78 0-14.13c.86-1.59 1.85-2.23 2.85-2.22 3 0 6.06 5.8 5.93 8.93l1.3.32c.47 5.49-1.27 11.24-5.71 11.68Z"
      style="fill-opacity:.7;opacity:.30000000000000004" />
  </g>
  <path
    d="M457.29 231.51c8.57-.68 10.41 21.2 1.58 22.07-8.45.84-10.28-21.37-1.58-22.07ZM333.6 249.87s-2.45 3.07-1.78 8.92a13.3 13.3 0 0 0 2.83 7.12M328.2 255a10.82 10.82 0 0 0 .65 8.32"
    style="fill:none;stroke:#263238;stroke-linecap:round;stroke-linejoin:round" />
  <path d="M453.45 254.12c-8.45.88-10.09-20.41-1.45-21.82"
    style="fill:none;stroke:#263238;stroke-linecap:round;stroke-linejoin:round" />
  <path d="M457.46 232.89c6.79-.59 8.24 18.32 1.25 19.08-6.71.72-8.13-18.48-1.25-19.08Z"
    style="fill:none;stroke:#263238;stroke-linecap:round;stroke-linejoin:round" />
  <path d="M457.48 234.24s3.54 1.31 4.17 7.74-3 8.42-3 8.42"
    style="fill:none;stroke:#263238;stroke-linecap:round;stroke-linejoin:round" />
  <path
    d="M379.75 300.72s-9 .53-10 0-6.6-11.08-6.86-14.37-.79-13.85-1.05-20.44-.26-16.88-12.66-14.69c-5.54 1-6.47 6.22-8.31 18s-.13 14.9-1.45 29.94.26 21 3.43 28.57 4.34 26.81 12.78 33.93 11.75 20.84 11.75 20.84"
    style="fill:#fff" />
  <g style="clip-path:url(#f)">
    <path
      d="M357.69 262.89c-2.27.55-11 .95-11.57 3.91s4.61 4.28 6.76 6.89c-.08 0-9 0-11 4.35s1.65 13.69 1.65 18.83-4.48 15.43-1.05 20.77c3 4.66 5.78 15.39 4.33 25.58-1.51-6.1-2.55-12-4-15.51-3.17-7.56-4.75-13.54-3.43-28.57S339 281 340.85 269.2c1.32-8.45 2.17-13.54 4.61-16.1 2.85-.62 6.07-.86 8 .52 4.13 2.9 6.54 8.71 4.23 9.27Z"
      style="fill:#f15;opacity:.4" />
  </g>
  <path
    d="M379.75 300.72s-9 .53-10 0-6.6-11.08-6.86-14.37-.79-13.85-1.05-20.44-.26-16.88-12.66-14.69c-5.54 1-6.47 6.22-8.31 18s-.13 14.9-1.45 29.94.26 21 3.43 28.57 4.34 26.81 12.78 33.93 11.75 20.84 11.75 20.84"
    style="fill:none;stroke:#263238;stroke-linecap:round;stroke-linejoin:round" />
  <path d="M362.87 286.35s-.85-.27-1.35-5.41a9.41 9.41 0 0 0-4.85-7.25m-11.6 0s-3.68.79-5.14 5.93"
    style="fill:none;stroke:#263238;stroke-linecap:round;stroke-linejoin:round" />
</svg>