<svg xmlns="http://www.w3.org/2000/svg" viewBox="0 0 500 500">
  <defs>
    <clipPath id="a">
      <path d="M356.48 395.13s-13-4.79-15.54 4.79c0 0 2.32 10.55.93 16.32s-8.39 16.79-8.82 18.88c-.85 4.1-.21 4.38-.21 4.38s5.09 2.94 11.93-.21 18.68-16.71 20.53-19.5-5.8-13.79-5.8-13.79Z" style="fill:#fff;stroke:#263238;stroke-linecap:round;stroke-linejoin:round"/>
    </clipPath>
    <clipPath id="b">
      <path d="M236.88 224.6h22a1.88 1.88 0 0 1 1.88 1.88v15.7h0H235h0v-15.7a1.88 1.88 0 0 1 1.88-1.88Z" style="fill:#f15;stroke:#263238;stroke-linecap:round;stroke-linejoin:round" transform="matrix(1 .09 -.09 1 20.91 -20.38)"/>
    </clipPath>
    <clipPath id="c">
      <path d="M274.74 227.86h22a1.88 1.88 0 0 1 1.88 1.88v15.7h0-25.76 0v-15.7a1.88 1.88 0 0 1 1.88-1.88Z" style="fill:#f15;stroke:#263238;stroke-linecap:round;stroke-linejoin:round" transform="rotate(5 286 236.83)"/>
    </clipPath>
    <clipPath id="d">
      <path d="M339.19 246.39 333 318.32l-115.89-10 6.19-71.92a4.54 4.54 0 0 1 4.92-4.14l106.82 9.18a4.54 4.54 0 0 1 4.15 4.95Z" style="fill:#f15;stroke:#263238;stroke-linecap:round;stroke-linejoin:round"/>
    </clipPath>
    <clipPath id="e">
      <path d="M390.8 408.81s-5.54-3.95-17-3.16c0 0-.84 13.75-2.4 17.75s-9.78 10.93-11.31 12.12-1.53 5.34-1.53 5.34h34.82a110.91 110.91 0 0 0-2.77-17.66Z" style="fill:#fff;stroke:#263238;stroke-linecap:round;stroke-linejoin:round"/>
    </clipPath>
    <clipPath id="f">
      <path d="M399.68 268.23s-22.21 4.35-44-2.71a63 63 0 0 1-14.13-6.52s.06-1.4.1-3.69c.18-8.94.13-31.43-4.58-37-3-3.51-5.35-25.21.44-36.18l17.71-14.24c24.52 4.79 29.7 11.28 33.75 25.28.75 2.56 1.45 5.37 2.23 8.47.85 3.38 1.65 7.51 2.41 12 3.68 22.36 6.07 54.59 6.07 54.59Z" style="fill:#999;stroke:#263238;stroke-linecap:round;stroke-linejoin:round"/>
    </clipPath>
    <clipPath id="g">
      <path d="m181.11 247.91 4 8.48s16.54 34.18 26.67 73.32c.24.93 5.48 19.47 1.28 65.64l2.4 8.1-2.62 13.38s3.94 5.69 3.8 7.55c0 0-9.72 1.81-13 3.55-2.52 1.36-10.09 8.83-10.09 8.83-2.15-.44-2.34-9.12-2.34-9.12s-4.49-77.07-5.78-80.39-9.17-17.64-21.47-50.41c0 0-.28 45.77-3.56 57.35-2.93 10.3.54 39.13.54 39.13l-2 32.09s6.92 7.19 1.31 9.12c0 0-3.75-7.21-14.43-8.85-5.43-.84-12.19 8.8-12.19 8.8-2.38-.76 1-12.87 1-12.87-7.57-57.12-2-46.78-3.5-74.7-1-17.92-6.05-94.58-.09-100.81Z" style="fill:#bfbfbf;stroke:#263238;stroke-linecap:round;stroke-linejoin:round"/>
    </clipPath>
    <clipPath id="h">
      <path d="M196 104h22a1.88 1.88 0 0 1 1.88 1.88v15.7h0-25.72 0v-15.7A1.88 1.88 0 0 1 196 104Z" style="fill:#f15;stroke:#263238;stroke-linecap:round;stroke-linejoin:round" transform="rotate(-5 207.11 112.85)"/>
    </clipPath>
    <clipPath id="i">
      <path d="M233.88 100.49h22a1.88 1.88 0 0 1 1.88 1.88v15.7h0H232h0v-15.7a1.88 1.88 0 0 1 1.88-1.88Z" style="fill:#f15;stroke:#263238;stroke-linecap:round;stroke-linejoin:round" transform="rotate(-5 244.94 109.37)"/>
    </clipPath>
    <clipPath id="j">
      <path d="m299.21 109.42 6.64 71.88L190 192l-6.6-71.9a4.55 4.55 0 0 1 4.11-4.95l106.76-9.85a4.54 4.54 0 0 1 4.94 4.12Z" style="fill:#f15;stroke:#263238;stroke-linecap:round;stroke-linejoin:round"/>
    </clipPath>
    <clipPath id="k">
      <path d="M216.33 357.31h22a1.88 1.88 0 0 1 1.88 1.88v15.7h0-25.76 0v-15.7a1.88 1.88 0 0 1 1.88-1.88Z" style="fill:#f15;stroke:#263238;stroke-linecap:round;stroke-linejoin:round"/>
    </clipPath>
    <clipPath id="l">
      <path d="M254.33 357.31h22a1.88 1.88 0 0 1 1.88 1.88v15.7h0-25.76 0v-15.7a1.88 1.88 0 0 1 1.88-1.88Z" style="fill:#f15;stroke:#263238;stroke-linecap:round;stroke-linejoin:round"/>
    </clipPath>
    <clipPath id="m">
      <path d="M319.42 371.23v72.19H203.11v-72.19a4.55 4.55 0 0 1 4.55-4.55h107.21a4.55 4.55 0 0 1 4.55 4.55Z" style="fill:#f15;stroke:#263238;stroke-linecap:round;stroke-linejoin:round"/>
    </clipPath>
  </defs>
  <path d="M67.93 167.09s-27.88 72 11.3 144.5 119.88 110.8 184.47 143.55 131.66 16.8 163.53-36.84-11.84-91.93-11.9-168.42 11.45-96.74-30-161.36-143.06-78.93-219.9-31-97.5 109.57-97.5 109.57Z" style="fill:#fff;opacity:.7"/>
  <path d="M110 112.47c13.46-16.08 31.65-28.47 53.33-28.26 37 .46 57 33.21 78.22 58.47 11 13.1 23.49 25.74 39.83 31.9 24.51 9.23 51.81 3.84 75.69-4.73 10.7-3.84 23.37-9.24 35.42-6.48 36.63 8.38 32.82 53.08 26.77 81.39-8.17 38.24-21.45 78.9-48.36 108.24-64.43 70.29-180.38 27.2-238.5-28.89a174.68 174.68 0 0 1-12.21-13A179.75 179.75 0 0 1 95 272.74c-18.72-38.95-21.3-86.29-5-126.54a128 128 0 0 1 20-33.73Z" style="fill:#f15"/>
  <path d="M110 112.47c13.46-16.08 31.65-28.47 53.33-28.26 37 .46 57 33.21 78.22 58.47 11 13.1 23.49 25.74 39.83 31.9 24.51 9.23 51.81 3.84 75.69-4.73 10.7-3.84 23.37-9.24 35.42-6.48 36.63 8.38 32.82 53.08 26.77 81.39-8.17 38.24-21.45 78.9-48.36 108.24-64.43 70.29-180.38 27.2-238.5-28.89a174.68 174.68 0 0 1-12.21-13A179.75 179.75 0 0 1 95 272.74c-18.72-38.95-21.3-86.29-5-126.54a128 128 0 0 1 20-33.73Z" style="fill:#fff;opacity:.7"/>
  <path d="M54.05 443.43h391.9M291.97 240.8V93.66h9.11m-9.11 164.65v-3.9m32.54-160.75h94.01v178.37H291.97m21.02-178.37h8.26" style="fill:none;stroke:#263238;stroke-linecap:round;stroke-linejoin:round"/>
  <path d="M296.73 98.41h117.03v168.87H296.73z" style="fill:none;stroke:#263238;stroke-linecap:round;stroke-linejoin:round"/>
  <path d="M408.32 107.45v70.13H302.17V173m0-10.72v-58.89h106.15m-106.15 66.1v-4.45m88.22 17.8h23.37m-31.68 0h3.31m-88.66 0h81.41" style="fill:none;stroke:#263238;stroke-linecap:round;stroke-linejoin:round"/>
  <path d="M349.36 177.58v-2.42h9.79v1.37h-3.9v1.05M296.93 246s1.63 1.23 2.77 8.67c0 0 2-11.88 4.34-12.06s1.9 7.72 1.9 7.72.4-3.89 2.26-3.71 0 8 0 8 2.24-6.14 4.36-6-1.4 11.12-1.4 11.12 5.44-3.94 7.64-2-1.22 6.78-1.22 6.78 7.8-1.69 9 2.89m.01-4.41s3.4-2.23 6.08-1.19c0 0-1.7-2.59 0-4.17s3.88 4.17 3.88 4.17.25-9.65 3.65-9.16 0 9.16 0 9.16 6.07-5.38 7.53-3.51-1 4.7-1 4.7a6.58 6.58 0 0 1 6.32 1.55s4.07-4.15 8.59-4.75c0 0-3-8.73-1.55-10.49s4.11 7.62 4.11 7.62 1.16-6.1 5-6.58c0 0-3.17-1.72-2.23-4.33s5.31.62 5.31.62-1.8-4.59 1.05-5.85 4 3.84 4 3.84.8-5.34 4.14-5 2.26 6.44 2.26 6.44 3.15-4.88 4.84-4.39c3.37 1 2.35 8.72 2.35 8.72s4.7-3.27 5.92-1.76-4.9 5.81-4.9 5.81 4.67.51 7.58 3.24" style="fill:none;stroke:#263238;stroke-linecap:round;stroke-linejoin:round"/>
  <path d="M413.76 247.8s-.54-4.9-5.44-5.16 1.35 10.75 1.35 10.75-4.05-3.35-5.5-2.32 4.15 6.71 4.15 6.71-2.69-2.49-5.52-1.72 1.61 8.66 1.61 8.66a20.18 20.18 0 0 0-12.41 1.46M246.69 399.65v43.52m0-57.76v9.32m-183.2 48.7v-81.1h183.2v17.8" style="fill:none;stroke:#263238;stroke-linecap:round;stroke-linejoin:round"/>
  <path d="M90.18 371.2h-15.9v64.79m161.62 7.18V371.2H99.41m128.87-17.27h-5.05m-7.25 0H58.94v8.34h192.3v-8.34H231.5M69.77 300.49s15 1.19 15.68 12.29c0 0-15.25 7.02-15.68-12.29Zm29.77 2.76s8.41-11.37 22-5.54c0 0-8.3 13.74-22 5.54Zm20.85-35.9s2.42 21.87-17.49 15.85c0 0 6.32-16.08 17.49-15.85Zm-24.45-12.18s15.75 8.5 4.17 21.38c0 0-11.04-9.2-4.17-21.38Zm-19.37 19.55s17.12-1.72 17.12 14.12c0 0-17.12.68-17.12-14.12Z" style="fill:none;stroke:#263238;stroke-linecap:round;stroke-linejoin:round"/>
  <path d="M89.4 321.73c-.25-5.32-.25-12.16 3-19.39 7.49-16.68 10-30.73 6.11-40.63" style="fill:none;stroke:#263238;stroke-linecap:round;stroke-linejoin:round"/>
  <path d="M82.19 279s10.26 4.08 13.75 14.65M115 276.1s-5.93 8.08-16 7.21M115 300s-16.43 4.73-23 3.18m-17.33 2.31s7.35 8.06 14.73 7.93" style="fill:none;stroke:#263238;stroke-linecap:round;stroke-linejoin:round"/>
  <path d="M108.93 321.73H73.24a.87.87 0 0 0-.87.87v2.71a.86.86 0 0 0 .87.86h1l3.18 27.76h27.28l3.18-27.76h1.05a.85.85 0 0 0 .86-.86v-2.71a.86.86 0 0 0-.86-.87Z" style="fill:none;stroke:#263238;stroke-miterlimit:10"/>
  <path d="M76.57 326.17h20.76m3.91 0h3.12" style="fill:none;stroke:#263238;stroke-linecap:round;stroke-linejoin:round"/>
  <path d="m328.71 211.09-4 21.74-32.62 19.82 4.51 8.28s37.71-11.5 38.63-14.19 9.61-31.18 9.61-31.18Z" style="fill:#263238"/>
  <path d="m343 174.33-2.18 26.36-1.15 13.83c-6.29 3.06-12.44-1.54-12.82-1.84h0c1.71-5.02 3.7-33.35 16.15-38.35Z" style="fill:#999;stroke:#263238;stroke-linecap:round;stroke-linejoin:round"/>
  <path d="m340.78 200.69-1.15 13.83c-6.29 3.06-12.44-1.54-12.82-1.84.27.12 3.58 1.52 5.73 0a16.78 16.78 0 0 1-2-2.64c-.13-.52 2-.66 2-.66s-1.4-11.21 2.33-16c1.46-1.82 3.74 1.98 5.91 7.31Z" style="fill:#263238"/>
  <path d="m365.59 418.44 1 2.94a59.51 59.51 0 0 1-5.08 7.14s-1-.32-2.64 1.13a6.07 6.07 0 0 0-1.76 3.76s-7.64 9.16-17.33 9.29-6.77-4.75-6.77-4.75Z" style="fill:#f15;stroke:#263238;stroke-linecap:round;stroke-linejoin:round"/>
  <path d="M356.48 395.13s-13-4.79-15.54 4.79c0 0 2.32 10.55.93 16.32s-8.39 16.79-8.82 18.88c-.85 4.1-.21 4.38-.21 4.38s5.09 2.94 11.93-.21 18.68-16.71 20.53-19.5-5.8-13.79-5.8-13.79Z" style="fill:#fff"/>
  <g style="clip-path:url(#a)">
    <path d="M356.48 395.13s-13-4.79-15.54 4.79c0 0 2.32 10.55.93 16.32s-8.39 16.79-8.82 18.88c-.85 4.1-.21 4.38-.21 4.38s5.09 2.94 11.93-.21 18.68-16.71 20.53-19.5-5.8-13.79-5.8-13.79Z" style="fill:#f15;opacity:.4"/>
  </g>
  <path d="M356.48 395.13s-13-4.79-15.54 4.79c0 0 2.32 10.55.93 16.32s-8.39 16.79-8.82 18.88c-.85 4.1-.21 4.38-.21 4.38s5.09 2.94 11.93-.21 18.68-16.71 20.53-19.5-5.8-13.79-5.8-13.79Z" style="fill:none;stroke:#263238;stroke-linecap:round;stroke-linejoin:round"/>
  <path d="M349.83 408.68a28.23 28.23 0 0 1-3.25 18.8" style="fill:none;stroke:#263238;stroke-linecap:round;stroke-linejoin:round"/>
  <path d="M346.58 430a8.77 8.77 0 0 1-5.56 5.14 15.47 15.47 0 0 1-8 0l3.12-6.32a19.94 19.94 0 0 0 10.44 1.18Z" style="fill:#f15;stroke:#263238;stroke-linecap:round;stroke-linejoin:round"/>
  <path d="M348.42 426.17s-6.8.41-10.35-1m11.61-2.75s-6.36 1-9.91-1m10.99-3.17s-5.57.81-9.21-.91m9.83-3.81s-6.2 1.94-9.13 0" style="fill:none;stroke:#263238;stroke-linecap:round;stroke-linejoin:round"/>
  <path d="m352.31 401.87 1.08 6.81s-8.2 5.4-13.62-1.35v-7.11s2.04 4.78 12.54 1.65Z" style="fill:#f15;stroke:#263238;stroke-linecap:round;stroke-linejoin:round"/>
  <path d="M345.19 249c-8.31 26.33-34.1 68.56-31.49 79.37 1.43 5.9 9.94 39.33 16.6 54 2.53 5.61 8 9.36 8 9.36l3.95 8.47c9.63 4.19 13.08-4.33 13.08-4.33l-1.94-9.6c5.16-9.38 3-9.38-3.71-58-.79-5.73 12.5-23.44 12.5-23.44l6.82 44.56 1.11 36.5 3.54 11.28s.88 10.59.8 11.23h15.83l1.72-11.64s7.35-6.93 7.35-14.93-1.58-48.75 0-60.62-3.7-67.21-3.7-67.21Z" style="fill:#263238"/>
  <path d="M236.88 224.6h22a1.88 1.88 0 0 1 1.88 1.88v15.7H235v-15.7a1.88 1.88 0 0 1 1.88-1.88Z" style="fill:#f15" transform="matrix(1 .09 -.09 1 20.91 -20.38)"/>
  <g style="clip-path:url(#b)">
    <path d="M236.88 224.6h22a1.88 1.88 0 0 1 1.88 1.88v15.7H235v-15.7a1.88 1.88 0 0 1 1.88-1.88Z" style="fill-opacity:.7;opacity:.3" transform="matrix(1 .09 -.09 1 20.91 -20.38)"/>
    <path d="M253.04 226.97h6.33v12.66h-6.33z" style="fill:#fff;fill-opacity:.7;opacity:.3" transform="rotate(5 256.42 233.54)"/>
  </g>
  <path d="M236.88 224.6h22a1.88 1.88 0 0 1 1.88 1.88v15.7h0H235h0v-15.7a1.88 1.88 0 0 1 1.88-1.88Z" style="fill:none;stroke:#263238;stroke-linecap:round;stroke-linejoin:round" transform="matrix(1 .09 -.09 1 20.91 -20.38)"/>
  <path d="M274.74 227.86h22a1.88 1.88 0 0 1 1.88 1.88v15.7h-25.76v-15.7a1.88 1.88 0 0 1 1.88-1.88Z" style="fill:#f15" transform="rotate(5 286 236.83)"/>
  <g style="clip-path:url(#c)">
    <path d="M274.74 227.86h22a1.88 1.88 0 0 1 1.88 1.88v15.7h-25.76v-15.7a1.88 1.88 0 0 1 1.88-1.88Z" style="fill-opacity:.7;opacity:.3" transform="rotate(5 286 236.83)"/>
    <path d="M292.98 230.3h3.82v12.66h-3.82z" style="fill:#fff;fill-opacity:.7;opacity:.3" transform="rotate(5 295.11 236.79)"/>
  </g>
  <path d="M274.74 227.86h22a1.88 1.88 0 0 1 1.88 1.88v15.7h0-25.76 0v-15.7a1.88 1.88 0 0 1 1.88-1.88Z" style="fill:none;stroke:#263238;stroke-linecap:round;stroke-linejoin:round" transform="rotate(5 286 236.83)"/>
  <path d="M266.77 227.17h22a1.88 1.88 0 0 1 1.88 1.88v15.7h0-25.76 0v-15.7a1.88 1.88 0 0 1 1.88-1.88Z" style="fill:#f15;stroke:#263238;stroke-linecap:round;stroke-linejoin:round" transform="rotate(5 278.03 236.24)"/>
  <path d="M304.63 230.43h22a1.88 1.88 0 0 1 1.88 1.88V248h0-25.76 0v-15.7a1.88 1.88 0 0 1 1.88-1.87Z" style="fill:#f15;stroke:#263238;stroke-linecap:round;stroke-linejoin:round" transform="rotate(5 315.9 239.4)"/>
  <path d="M282.93 229.54h6.33v12.66h-6.33z" style="fill:#fff;fill-opacity:.7;opacity:.3" transform="rotate(5 286.32 236.12)"/>
  <path d="M320.37 232.76h6.33v12.66h-6.33z" style="fill:#fff;fill-opacity:.7;opacity:.3" transform="rotate(5 323.84 239.3)"/>
  <path d="M339.19 246.39 333 318.32l-115.89-10 6.19-71.92a4.54 4.54 0 0 1 4.92-4.14l106.82 9.18a4.54 4.54 0 0 1 4.15 4.95Z" style="fill:#f15"/>
  <g style="clip-path:url(#d)">
    <path d="M339.19 246.39 333 318.32l-115.89-10 6.19-71.92a4.54 4.54 0 0 1 4.92-4.14l106.82 9.18a4.54 4.54 0 0 1 4.15 4.95Z" style="fill-opacity:.7;opacity:.3"/>
  </g>
  <path d="M339.19 246.39 333 318.32l-115.89-10 6.19-71.92a4.54 4.54 0 0 1 4.92-4.14l106.82 9.18a4.54 4.54 0 0 1 4.15 4.95Z" style="fill:none;stroke:#263238;stroke-linecap:round;stroke-linejoin:round"/>
  <path d="M339.19 246.39 333 318.32l-86-7.4 6.2-71.92a4.54 4.54 0 0 1 4.92-4.14l76.93 6.61a4.54 4.54 0 0 1 4.14 4.92Z" style="fill:#f15;stroke:#263238;stroke-linecap:round;stroke-linejoin:round"/>
  <path d="m333.15 248.45-73.51-6.32a1.88 1.88 0 0 1-1.71-2 1.88 1.88 0 0 1 2-1.71l73.51 6.32a1.88 1.88 0 0 1 1.71 2 1.88 1.88 0 0 1-2 1.71Z" style="fill:#fff;fill-opacity:.7;opacity:.3"/>
  <path d="M390.8 408.81s-5.54-3.95-17-3.16c0 0-.84 13.75-2.4 17.75s-9.78 10.93-11.31 12.12-1.53 5.34-1.53 5.34h34.82a110.91 110.91 0 0 0-2.77-17.66Z" style="fill:#fff"/>
  <g style="clip-path:url(#e)">
    <path d="M390.8 408.81s-5.54-3.95-17-3.16c0 0-.84 13.75-2.4 17.75s-9.78 10.93-11.31 12.12-1.53 5.34-1.53 5.34h34.82a110.91 110.91 0 0 0-2.77-17.66Z" style="fill:#f15;opacity:.4"/>
  </g>
  <path d="M390.8 408.81s-5.54-3.95-17-3.16c0 0-.84 13.75-2.4 17.75s-9.78 10.93-11.31 12.12-1.53 5.34-1.53 5.34h34.82a110.91 110.91 0 0 0-2.77-17.66Z" style="fill:none;stroke:#263238;stroke-linecap:round;stroke-linejoin:round"/>
  <path d="M383.61 410.59s-.82 12.66-2.79 16a23.13 23.13 0 0 1-3.86 5" style="fill:none;stroke:#263238;stroke-linecap:round;stroke-linejoin:round"/>
  <path d="M376 433.34s-1.75 2.18-3.69 2.47-12.19-.29-12.19-.29l4.18-3.62s8.5-1.43 11.7 1.44Z" style="fill:#f15;stroke:#263238;stroke-linecap:round;stroke-linejoin:round"/>
  <path d="M379.62 430.37s-7.42-4.26-12.71-1m14.5-1.89s-5.18-4.05-11.29-1.83m13.49-2.58s-5.58-4.34-11.46-1.58m12.22-3.93s-6.77-3.64-11.69-.88" style="fill:none;stroke:#263238;stroke-linecap:round;stroke-linejoin:round"/>
  <path d="M393.37 440.86v2.57h-4s-3.43-2-6.69 0H363.9a13.62 13.62 0 0 1-5.74-1.29l.39-1.28ZM388.38 408l-.89 5.61s-10.45-3.39-16.22-1.19v-6.9s10.73-3.76 17.11 2.48Z" style="fill:#f15;stroke:#263238;stroke-linecap:round;stroke-linejoin:round"/>
  <path d="M399.68 268.23s-22.21 4.35-44-2.71a63 63 0 0 1-14.13-6.52s.06-1.4.1-3.69c.18-8.94.13-31.43-4.58-37-3-3.51-5.35-25.21.44-36.18l17.71-14.24c24.52 4.79 29.7 11.28 33.75 25.28.75 2.56 1.45 5.37 2.23 8.47.85 3.38 1.65 7.51 2.41 12 3.68 22.36 6.07 54.59 6.07 54.59Z" style="fill:#999"/>
  <g style="clip-path:url(#f)">
    <path d="m393.61 213.64-10 44.67s-14.45 4-27.92 7.21a63 63 0 0 1-14.14-6.52s.06-1.4.1-3.69c12.1-6.19 29.76-15.29 29.62-15.72-.23-.67 0-24 0-24s16-3.71 17.7-22.45c.75 2.56 1.45 5.37 2.23 8.47.85 3.39 1.65 7.49 2.41 12.03Z" style="opacity:.2"/>
  </g>
  <path d="M399.68 268.23s-22.21 4.35-44-2.71a63 63 0 0 1-14.13-6.52s.06-1.4.1-3.69c.18-8.94.13-31.43-4.58-37-3-3.51-5.35-25.21.44-36.18l17.71-14.24c24.52 4.79 29.7 11.28 33.75 25.28.75 2.56 1.45 5.37 2.23 8.47.85 3.38 1.65 7.51 2.41 12 3.68 22.36 6.07 54.59 6.07 54.59Z" style="fill:none;stroke:#263238;stroke-linecap:round;stroke-linejoin:round"/>
  <path d="M356 149.2s-7.82 11.2 2.58 19.94c0 0-12.62 14.16-16.77 12.21-1.75-.82 0-5.93 0-5.93l-7.32-13.54Z" style="fill:#fff;stroke:#263238;stroke-linecap:round;stroke-linejoin:round"/>
  <path d="M353.45 155c2.44-10.67 1.27-26.56-13.68-25.15-10.48 1-17.95 6.8-15 20.86 1.23 5.93 2.24 14.33 7.68 21.91 1.51 2.1 17.31-5.33 16.35-11.34" style="fill:#fff;stroke:#263238;stroke-linecap:round;stroke-linejoin:round"/>
  <path d="M332.06 148.33a7.24 7.24 0 0 1 6.48.63m-14 .68a1.88 1.88 0 0 1 2.25-1" style="fill:none;stroke:#263238;stroke-linecap:round;stroke-linejoin:round"/>
  <path d="M328.28 151.86s-3.08 5.61-3.09 6.41 3.79 1.07 3.79 1.07" style="fill:#fff;stroke:#263238;stroke-linecap:round;stroke-linejoin:round"/>
  <path d="M334.9 153c0 .61-.27 1.11-.65 1.13s-.7-.48-.72-1.09.27-1.11.65-1.12.7.49.72 1.08Z" style="fill:#263238"/>
  <path d="M330.55 163.42s5.91-1.11 7-3.19" style="fill:none;stroke:#263238;stroke-linecap:round;stroke-linejoin:round"/>
  <path d="m324.5 141 4.6-1.34s6.45-3 7.82-2.58 4.15 4.69 4.06 7.13c0 0 4.34 3.82 4.89 9.36l1.32-.6s-.07-5 2.77-4.87 4.12 3.53 3.93 4.6-3.3 5.51-3.3 5.51 7.12-1.06 7.35-15-15.05-16.21-22.48-15.64a97 97 0 0 1-11.32.42l.42 4-3 .79 2.26 2.77-2.48 1.13Z" style="fill:#263238"/>
  <path d="M350.26 293s18.1 4.79 23 18.27m-14.71-11.02s-9.78 16.29-24.75 24.75m11 66.86s5.56-1.25 7.08-3.41m23.88 5.48s5.44-2.82 10.86 0m6.75-75.84s-9.13 23.65-13.75 25.84m-26.23-62.88c.25 2.57 11 14.48 19.87 19.2M362.56 271a16.57 16.57 0 0 1 .77 10.05 15.49 15.49 0 0 0 0 8.86" style="fill:none;stroke:#fff;stroke-linecap:round;stroke-linejoin:round"/>
  <path d="M343 221.82s16.83 21.78 34.92 28.93m-17.5-64.14s-.06 14.81 10.62 21.49" style="fill:none;stroke:#263238;stroke-linecap:round;stroke-linejoin:round"/>
  <path d="M366.43 208.22c-2.26 2.22.2 30.08.2 30.08s-13.13 5.14-17.24 8.45-23.58 10.91-23.58 10.91-3 10.22.74 10.57 42.47-12.85 51.33-17.48c0 0 5.77-34 5.73-42.65" style="fill:#fff;stroke:#263238;stroke-linecap:round;stroke-linejoin:round"/>
  <path d="M327.35 257.05c-1.8-.34-5-1.52-6.68-1.13s-4.75 2.24-7.91 3-1.85 2 0 2.37a12.45 12.45 0 0 0 4.09 0l-2.57 2.51a40.53 40.53 0 0 1-4.55 2.11c-.93 0-4.22.89-4 2.29s2.11 1.24 4.22 1.32c0 0-3.36.67-3 2.58.22 1.31 4 .13 5.93.13 0 0-1.58 1.72-.4 2.25s3.8-.79 3.8-.79-.1 1.42 1.08 1.56 4.15-1 6.17-2.22a54.74 54.74 0 0 0 5.7-4.22 9.39 9.39 0 0 1 2.59-1.68" style="fill:#fff;stroke:#263238;stroke-linecap:round;stroke-linejoin:round"/>
  <path d="M310 269.56a22.88 22.88 0 0 0 2.77-.32c.79-.2 1.58-.46 1.58-.46m-1.46 3.49a9.52 9.52 0 0 0 3.43-1.18m-.03 2.64a5.83 5.83 0 0 0 2.5-.93m-4.19-8.24s-.72 1.65 0 2.57 1.59 1 1.72 2 1.85 1 2.47 1.65 1.09 1.9 3.07 2" style="fill:none;stroke:#263238;stroke-linecap:round;stroke-linejoin:round"/>
  <path d="M365.59 179.33c-6.81 15.41 0 36.79 0 36.79s16.48 5.6 18 3.19 4.3-14.23 4.77-19.69" style="fill:#999;stroke:#263238;stroke-linecap:round;stroke-linejoin:round"/>
  <path d="M383.61 201.33s-7 9.63-12.57 9.76" style="fill:none;stroke:#263238;stroke-linecap:round;stroke-linejoin:round"/>
  <path d="M133.41 443.43s-1.71-6.53.29-8.95c3.58-4.34-.44-8 3.16-9.49l1.51 1.75c.29-1.77-.55-7.18 6.13-7.88 8.08-.85 8.23 5 8.67 7l-.14-2.71c3.45 0 1.66 3.44 6.88 9.06a14.9 14.9 0 0 1 3.78 11.26Zm61.59 0c-3.25-1.45-.27-13.71-.27-13.71s-4.37-2.93 0-6a12.16 12.16 0 0 0 12.41 2s.85-8.2 6-7.15c0 0 1.32 5.2 4.33 8.17 8.15 8 18.68 9 20.44 12.84.53 1.16-.11 3.81-.11 3.81Z" style="fill:#263238"/>
  <path d="m181.11 247.91 4 8.48s16.54 34.18 26.67 73.32c.24.93 5.48 19.47 1.28 65.64l2.4 8.1-2.62 13.38s3.94 5.69 3.8 7.55c0 0-9.72 1.81-13 3.55-2.52 1.36-10.09 8.83-10.09 8.83-2.15-.44-2.34-9.12-2.34-9.12s-4.49-77.07-5.78-80.39-9.17-17.64-21.47-50.41c0 0-.28 45.77-3.56 57.35-2.93 10.3.54 39.13.54 39.13l-2 32.09s6.92 7.19 1.31 9.12c0 0-3.75-7.21-14.43-8.85-5.43-.84-12.19 8.8-12.19 8.8-2.38-.76 1-12.87 1-12.87-7.57-57.12-2-46.78-3.5-74.7-1-17.92-6.05-94.58-.09-100.81Z" style="fill:#bfbfbf"/>
  <g style="clip-path:url(#g)">
    <path d="M128.26 274.31c26.74 2.1 49.89-6.65 59.94-11.22-1.91-4.28-3.08-6.7-3.08-6.7l-4-8.47-50-1.82c-2.12 2.25-2.87 13.68-2.86 28.21Zm35.97 23.12c12.17 32.35 20 46.51 21.26 49.81.73 1.92 2.52 28.09 3.92 50.05 1.6-20 3.25-41.07 3.39-45.2.3-8.24-5.65-19.53-6.54-22.45s1.12-6.08 1.12-6.08l-10.7-13.5c.36-4.58-5.31-24.57-5.31-24.57-3.37 3.19-6.37 9.98-7.14 11.94Z" style="opacity:.2"/>
  </g>
  <path d="m181.11 247.91 4 8.48s16.54 34.18 26.67 73.32c.24.93 5.48 19.47 1.28 65.64l2.4 8.1-2.62 13.38s3.94 5.69 3.8 7.55c0 0-9.72 1.81-13 3.55-2.52 1.36-10.09 8.83-10.09 8.83-2.15-.44-2.34-9.12-2.34-9.12s-4.49-77.07-5.78-80.39-9.17-17.64-21.47-50.41c0 0-.28 45.77-3.56 57.35-2.93 10.3.54 39.13.54 39.13l-2 32.09s6.92 7.19 1.31 9.12c0 0-3.75-7.21-14.43-8.85-5.43-.84-12.19 8.8-12.19 8.8-2.38-.76 1-12.87 1-12.87-7.57-57.12-2-46.78-3.5-74.7-1-17.92-6.05-94.58-.09-100.81Z" style="fill:none;stroke:#263238;stroke-linecap:round;stroke-linejoin:round"/>
  <path d="M164 296.84s6.11-11.79 11.32-15.08m2.3-3.82s-18.56 5.65-25 6.74" style="fill:none;stroke:#263238;stroke-linecap:round;stroke-linejoin:round"/>
  <path d="M168.12 259c.8 15.45 6.25 18.08 1 21.45 0 0 .15 7.23-2.47 11.81m-31.05-39.17s2.19 23.75-5.12 28.22" style="fill:none;stroke:#263238;stroke-linecap:round;stroke-linejoin:round"/>
  <path d="M130.48 260.75s-.55 15.81 0 28.55c0 0 1.83 53.85 3.66 60.61s-2.82 17-2.42 46.22M148 419a7.59 7.59 0 0 0-5.11.68m16.11 5.73a28.05 28.05 0 0 0-7.86-5.39M156 300.57c-4.1 4.6-10.6 13.27-17.26 14m23.53-21.48a172.61 172.61 0 0 1-3.88 4.7m-1.96 49.12s-9.32 12.69-14.43 13.42m25.39-65.78s16.6 46.23 22.37 50.79c0 0 .65 34 .84 45.87s2.92 27.65 2.92 27.65m17.72-.34s-6.39 2.21-9.5 3.62a8.59 8.59 0 0 0-4.2 4.51" style="fill:none;stroke:#263238;stroke-linecap:round;stroke-linejoin:round"/>
  <path d="M195.07 328.67c-8.91-5.59-20.66-12.58-25.4-22.43m33.17 27.04c-1.69-.93-3.35-1.9-5-2.9m-23.08-65.13c-4.79-.07-10-.7-14.13-3.41m21.74 2.96c-1.37.19-2.75.31-4.13.38" style="fill:none;stroke:#263238;stroke-linecap:round;stroke-linejoin:round"/>
  <path d="M191.26 158.64c-3.66-5.54-22.31-6.95-34.28-6.95s-26.5-2-33.06 11.5c-5 10.31 6.52 64.83 6.52 64.83l-2.82 23.54c21.68 6.8 58.82 5.3 58.82 5.3l-5-21.28s13.48-71.41 9.82-76.94Z" style="fill:#263238"/>
  <path d="M149.87 138s1.61 12.83-3.27 15.6c0 0 2.44 9.41 11 10s12.34-8.6 12.34-8.6Z" style="fill:#fff;stroke:#263238;stroke-linecap:round;stroke-linejoin:round"/>
  <path d="M196 104h22a1.88 1.88 0 0 1 1.88 1.88v15.7h-25.72v-15.7A1.88 1.88 0 0 1 196 104Z" style="fill:#f15" transform="rotate(-5 207.11 112.85)"/>
  <g style="clip-path:url(#h)">
    <path d="M196 104h22a1.88 1.88 0 0 1 1.88 1.88v15.7h-25.72v-15.7A1.88 1.88 0 0 1 196 104Z" style="fill-opacity:.7;opacity:.3" transform="rotate(-5 207.11 112.85)"/>
    <path d="M212.05 104.87h6.33v12.66h-6.33z" style="fill:#fff;fill-opacity:.7;opacity:.3" transform="rotate(-5 215.35 111.27)"/>
  </g>
  <path d="M196 104h22a1.88 1.88 0 0 1 1.88 1.88v15.7h0-25.72 0v-15.7A1.88 1.88 0 0 1 196 104Z" style="fill:none;stroke:#263238;stroke-linecap:round;stroke-linejoin:round" transform="rotate(-5 207.11 112.85)"/>
  <path d="M233.88 100.49h22a1.88 1.88 0 0 1 1.88 1.88v15.7H232v-15.7a1.88 1.88 0 0 1 1.88-1.88Z" style="fill:#f15" transform="rotate(-5 244.94 109.37)"/>
  <g style="clip-path:url(#i)">
    <path d="M233.88 100.49h22a1.88 1.88 0 0 1 1.88 1.88v15.7H232v-15.7a1.88 1.88 0 0 1 1.88-1.88Z" style="fill-opacity:.7;opacity:.3" transform="rotate(-5 244.94 109.37)"/>
    <path d="M251.98 101.31h3.82v12.66h-3.82z" style="fill:#fff;fill-opacity:.7;opacity:.3" transform="rotate(-5 254.05 107.72)"/>
  </g>
  <path d="M233.88 100.49h22a1.88 1.88 0 0 1 1.88 1.88v15.7h0H232h0v-15.7a1.88 1.88 0 0 1 1.88-1.88Z" style="fill:none;stroke:#263238;stroke-linecap:round;stroke-linejoin:round" transform="rotate(-5 244.94 109.37)"/>
  <path d="M225.92 101.22h22a1.88 1.88 0 0 1 1.88 1.88v15.7h0H224h0v-15.7a1.88 1.88 0 0 1 1.92-1.88Z" style="fill:#f15;stroke:#263238;stroke-linecap:round;stroke-linejoin:round" transform="rotate(-5 236.96 110.09)"/>
  <path d="M263.76 97.73h22a1.88 1.88 0 0 1 1.88 1.88v15.7h0-25.76 0v-15.7a1.88 1.88 0 0 1 1.88-1.88Z" style="fill:#f15;stroke:#263238;stroke-linecap:round;stroke-linejoin:round" transform="rotate(-5 274.8 106.6)"/>
  <path d="M241.93 102.12h6.33v12.66h-6.33z" style="fill:#fff;fill-opacity:.7;opacity:.3" transform="rotate(-5 245.2 108.5)"/>
  <path d="M279.35 98.66h6.33v12.66h-6.33z" style="fill:#fff;fill-opacity:.7;opacity:.3" transform="rotate(-5 282.6 105)"/>
  <path d="m299.21 109.42 6.64 71.88L190 192l-6.6-71.9a4.55 4.55 0 0 1 4.11-4.95l106.76-9.85a4.54 4.54 0 0 1 4.94 4.12Z" style="fill:#f15"/>
  <g style="clip-path:url(#j)">
    <path d="m299.21 109.42 6.64 71.88L190 192l-6.6-71.9a4.55 4.55 0 0 1 4.11-4.95l106.76-9.85a4.54 4.54 0 0 1 4.94 4.12Z" style="fill-opacity:.7;opacity:.3"/>
  </g>
  <path d="m299.21 109.42 6.64 71.88L190 192l-6.6-71.9a4.55 4.55 0 0 1 4.11-4.95l106.76-9.85a4.54 4.54 0 0 1 4.94 4.12Z" style="fill:none;stroke:#263238;stroke-linecap:round;stroke-linejoin:round"/>
  <path d="m299.21 109.42 6.64 71.88-86 7.93-6.63-71.88a4.55 4.55 0 0 1 4.11-4.95l76.89-7.1a4.54 4.54 0 0 1 4.99 4.12Z" style="fill:#f15;stroke:#263238;stroke-linecap:round;stroke-linejoin:round"/>
  <path d="m293.64 112.51-73.47 6.78a1.88 1.88 0 0 1-2-1.7 1.87 1.87 0 0 1 1.69-2l73.47-6.78a1.88 1.88 0 0 1 2 1.7 1.89 1.89 0 0 1-1.69 2Z" style="fill:#fff;fill-opacity:.7;opacity:.3"/>
  <path d="M164.54 112.56s-16.95-3.4-18.85 7.51 4.31 15.55 4.31 15.55Z" style="fill:#263238"/>
  <path d="M150 141.61a29.42 29.42 0 0 1-.87-16.89c1.66-7 10-16.63 22.65-7.88 6.51 4.51 6.91 14.3 4.88 23.26-.48 2.14-.12 4.23-.83 6.2-2.5 6.9-7.07 12.21-9.57 12.33-4.17.21-12.51-4.84-12.17-9.24" style="fill:#fff;stroke:#263238;stroke-linecap:round;stroke-linejoin:round"/>
  <path d="M166.89 138.44s-3.37-2.44-6.61-.44m12.97 0s2.55-2.34 4.21-2" style="fill:none;stroke:#263238;stroke-linecap:round;stroke-linejoin:round"/>
  <path d="M162.13 142.18c0 .62.31 1.13.7 1.13s.71-.51.71-1.13-.32-1.12-.71-1.12-.7.5-.7 1.12Z" style="fill:#263238"/>
  <ellipse cx="173.25" cy="141.56" rx=".71" ry="1.12" style="fill:#263238"/>
  <path d="M171.82 140.36c-1.24 1.62.5 7.79 0 8.23s-3.68-.81-3.68-.81-.74-.94.81-1.44m.05 5.35s-4.27 0-5.41-1.56" style="fill:none;stroke:#263238;stroke-linecap:round;stroke-linejoin:round"/>
  <path d="m158.78 128.58-.33 5.16s-3.66 1.89-4.58 3.81a7.67 7.67 0 0 0-.58 4s-2.22-3.88-3.42-3.56c-.43.11-.43 1.74-.43 1.74s-5-11.16-.48-17.06 9.82 5.91 9.82 5.91Z" style="fill:#757575;stroke:#263238;stroke-linecap:round;stroke-linejoin:round"/>
  <path d="M151.73 140.44s-1-3.75-4.37-4.74-1.06 8 1.81 9.17 3.59 2 3.76.93" style="fill:#fff;stroke:#263238;stroke-linecap:round;stroke-linejoin:round"/>
  <path d="M147.14 127.93c-.28-.38-1.52-10 4.83-14.32s17.08-3.86 23.91 2.12 4.89 16.35 0 19.89v-4.33s-2.25 4.34-9 4.7l2.06-3.18s-3.32 2-9.17 1.83c0 0 2.75-2.19 2.35-4.14.01 0-9.28 5.23-14.98-2.57Z" style="fill:#263238"/>
  <path d="M148.33 162.61c-4.68.56-11.34 6.67-7 17.52 2.77 6.88 25.53 2.79 25.53 2.79 8.44-3.48 20.77-16 29.82-21.81 0 0-1.91-12-4.11-10.3-10.23 7.83-18.64 8.37-32.91 15.23.03-.04-8.39-3.78-11.33-3.43Z" style="fill:#fff;stroke:#263238;stroke-linecap:round;stroke-linejoin:round"/>
  <path d="M158.78 175.93c-.14 4.48 1.7 5.27 4.8 6.33m28.31-30.57c.21-.65 4-7.31 5.07-9s5.85-3.22 7.7-4.24 2-2.57 3-1.46 0 3.64-5.54 6.33a53.53 53.53 0 0 0 5.91 0c1.48-.22 2.8-1.56 3.46-.63s.79 2.6-2.51 3.62a17.16 17.16 0 0 1-4.88 1 34.26 34.26 0 0 1 4.75 1.38c.53.39 1.32 1.3 2.11 1.44s1.65 1 .2 2a3.6 3.6 0 0 1-3.37.06s3.83 1.85 2.64 3-5 .92-5 .92-5.65 6.89-10.43 5.45" style="fill:#fff;stroke:#263238;stroke-linecap:round;stroke-linejoin:round"/>
  <path d="M198.66 142.68A1.8 1.8 0 0 1 200 144c.33 1.18 1.3 1.25 1.89 2.57s.42 3.36 1 4.06 0 3.65 0 3.65" style="fill:none;stroke:#263238;stroke-linecap:round;stroke-linejoin:round"/>
  <path d="M149.31 161.76c-2.45-3.12-7.95-1.71-7.95-1.71" style="fill:none;stroke:#fff;stroke-linecap:round;stroke-linejoin:round"/>
  <path d="M138.36 154.3s5.66.83 7.33 5.54m2.64 24.28s-5.52 4.27-13.92-1.86" style="fill:none;stroke:#fff;stroke-linecap:round;stroke-linejoin:round"/>
  <path d="M141.36 185.41s-2.8 3.87-9.62 3.82m44.7 44.87s-14.44 11.51-29.11 10m-9.92-35.29s22.41 16.44 39 17.49" style="fill:none;stroke:#fff;stroke-linecap:round;stroke-linejoin:round"/>
  <path d="M138 330.51a17.09 17.09 0 0 1 12.65-1.58c7.31 1.84 26.3 29 28.94 31.65s7.58 4 12.13 8.79c7.2 7.51 17.67 14.15 18.73 14.15s1.91-.66 3.23-.92 11.54-1.19 11.54-1.19 3.43.76 0 2.23-3.17 2.78-3.17 2.78-.69 1.11.69 2.17 2.19.48 4.16 3.27-2.78 1.21-2.78 1.21 1.05 3-1.06 2.7-.26 2.93-3.69 2.49-10.77-5.07-12.61-9.92c0 0-29.94-14.31-34.42-18S149 346.86 147.71 346.6" style="fill:#263238"/>
  <path d="M216.33 357.31h22a1.88 1.88 0 0 1 1.88 1.88v15.7h-25.76v-15.7a1.88 1.88 0 0 1 1.88-1.88Z" style="fill:#f15"/>
  <g style="clip-path:url(#k)">
    <path d="M216.33 357.31h22a1.88 1.88 0 0 1 1.88 1.88v15.7h-25.76v-15.7a1.88 1.88 0 0 1 1.88-1.88Z" style="fill-opacity:.7;opacity:.3"/>
    <path d="M232.45 358.97h6.33v12.66h-6.33z" style="fill:#fff;fill-opacity:.7;opacity:.3"/>
  </g>
  <path d="M216.33 357.31h22a1.88 1.88 0 0 1 1.88 1.88v15.7h0-25.76 0v-15.7a1.88 1.88 0 0 1 1.88-1.88Z" style="fill:none;stroke:#263238;stroke-linecap:round;stroke-linejoin:round"/>
  <path d="M254.33 357.31h22a1.88 1.88 0 0 1 1.88 1.88v15.7h-25.76v-15.7a1.88 1.88 0 0 1 1.88-1.88Z" style="fill:#f15"/>
  <g style="clip-path:url(#l)">
    <path d="M254.33 357.31h22a1.88 1.88 0 0 1 1.88 1.88v15.7h-25.76v-15.7a1.88 1.88 0 0 1 1.88-1.88Z" style="fill-opacity:.7;opacity:.3"/>
    <path d="M272.54 358.97h3.82v12.66h-3.82z" style="fill:#fff;fill-opacity:.7;opacity:.3"/>
  </g>
  <path d="M254.33 357.31h22a1.88 1.88 0 0 1 1.88 1.88v15.7h0-25.76 0v-15.7a1.88 1.88 0 0 1 1.88-1.88Z" style="fill:none;stroke:#263238;stroke-linecap:round;stroke-linejoin:round"/>
  <path d="M246.33 357.31h22a1.88 1.88 0 0 1 1.88 1.88v15.7h0-25.76 0v-15.7a1.88 1.88 0 0 1 1.88-1.88Zm38 0h22a1.88 1.88 0 0 1 1.88 1.88v15.7h0-25.76 0v-15.7a1.88 1.88 0 0 1 1.88-1.88Z" style="fill:#f15;stroke:#263238;stroke-linecap:round;stroke-linejoin:round"/>
  <path d="M262.45 358.97h6.33v12.66h-6.33zm37.58 0h6.33v12.66h-6.33z" style="fill:#fff;fill-opacity:.7;opacity:.3"/>
  <path d="M319.42 371.23v72.19H203.11v-72.19a4.55 4.55 0 0 1 4.55-4.55h107.21a4.55 4.55 0 0 1 4.55 4.55Z" style="fill:#f15"/>
  <g style="clip-path:url(#m)">
    <path d="M319.42 371.23v72.19H203.11v-72.19a4.55 4.55 0 0 1 4.55-4.55h107.21a4.55 4.55 0 0 1 4.55 4.55Z" style="fill-opacity:.7;opacity:.3"/>
  </g>
  <path d="M319.42 371.23v72.19H203.11v-72.19a4.55 4.55 0 0 1 4.55-4.55h107.21a4.55 4.55 0 0 1 4.55 4.55Z" style="fill:none;stroke:#263238;stroke-linecap:round;stroke-linejoin:round"/>
  <path d="M319.42 371.23v72.19h-86.31v-72.19a4.55 4.55 0 0 1 4.55-4.55h77.21a4.55 4.55 0 0 1 4.55 4.55Z" style="fill:#f15;stroke:#263238;stroke-linecap:round;stroke-linejoin:round"/>
  <path d="M313.58 373.8H239.8a1.88 1.88 0 0 1-1.88-1.88 1.88 1.88 0 0 1 1.88-1.92h73.78a1.88 1.88 0 0 1 1.88 1.88 1.88 1.88 0 0 1-1.88 1.92Z" style="fill:#fff;fill-opacity:.7;opacity:.3"/>
  <path d="M177 443.42c-6 0-14.43-3.86-24.14-7.94-10.07-4.24-21.54-8.72-33.18-9.39-4.34-.25-1.71 17.33-1.71 17.33h-9.5S99.09 430.9 98 419.69c0 0 7.66-4.73 9.5-5a16.76 16.76 0 0 1 1.91-.09c2.06 0 4.81.09 4.81.09h0c-.44-.26-7.45-4.48-11.32-8.77-3.19-3.54-4.65-9.13-4.76-12.47a61.16 61.16 0 0 1 .73-6.6l49.92.83s.54.38 1.5 1.09c5.79 4.22 26.95 19.94 37.53 31.79 3.42 3.83 5.73 7.25 6.07 9.75 1.59 11.53-7.84 13.11-16.89 13.11Z" style="fill:#757575;stroke:#263238;stroke-linecap:round;stroke-linejoin:round"/>
  <path d="m187.83 420.54-24.28 5.55a35.81 35.81 0 0 0-10.71 9.39c-10.07-4.24-21.54-8.72-33.18-9.39-4.34-.25-1.71 17.33-1.71 17.33h-9.5S99.09 430.9 98 419.69c0 0 8.84 12.6 11 19 0 0 3.43-11.84 9-16.59a45.66 45.66 0 0 0-8.51-7.47c2.06 0 4.81.09 4.81.09-.44-.26-7.45-4.48-11.32-8.77-3.19-3.54-4.48-9.14-4.76-12.47-.14-1.64.06-6.6.06-6.6s37.23 5.31 52.09 1.92c5.72 4.2 26.88 19.89 37.46 31.74Z" style="fill:#263238"/>
  <path d="M148.8 419.69s19.78 9.91 25.06 13.79 6.85 2.83 6.85 2.83m-77.8-17.67s4.75 7.25 5 9.42" style="fill:none;stroke:#263238;stroke-linecap:round;stroke-linejoin:round"/>
  <path d="M182.47 279.48s10.53-4.58 9.53 14.9 2.57 20.48 2.57 20.48-26.5 10.88-33.23 1.58-.34-34.75 21.13-36.96Z" style="fill:#263238"/>
  <path d="M181 314.86s-10.9 5.14-11.89 9.89-14.64-2.4-14.64-2.4l9.89-14.22Z" style="fill:#fff;stroke:#263238;stroke-linecap:round;stroke-linejoin:round"/>
  <path d="M109.53 367c-25 31.84-4.71 47.2 23.63 44.66l-5.68 9 14.26 2.47s10.93-7.14 25.83-14.77c25.36-13 35.61-12.22 33-25.23s-33.69-21.45-64.85-7.74c-.03-.01-16.95-20.11-26.19-8.39Z" style="fill:#757575;stroke:#263238;stroke-linecap:round;stroke-linejoin:round"/>
  <path d="M118.25 436.31s6.51-18 9.23-19 13 2.9 14.26 5.8c0 0 3.47-5.32 4.89-3.06s-.63 6 0 8.86 7.66 6.86 10.47 7.39 4.41 2.11 4.41 3.69v3.43h-43.26a9.05 9.05 0 0 1 0-7.11Z" style="fill:#fff;stroke:#263238;stroke-linecap:round;stroke-linejoin:round"/>
  <path d="M146.63 426.09s-5.73 2.83-7.82 2 1.07 4.75 1.86 5.28 6-1.85 6-1.85m-23.01-8.4s7.78.15 10.15 3m-15.56 10.19s12.4 2.9 13.45 2.9a30.17 30.17 0 0 0 5-1.45s3.4 1.71 5.66 2.77 17 0 17 0m-26.2-28.85C145 410.4 168 395.81 176 390.74s10-3.74 10-3.74" style="fill:none;stroke:#263238;stroke-linecap:round;stroke-linejoin:round"/>
  <path d="m98.21 386.83 1.89-14.35 4.56-3.44c7.39-17.93 40.87-51.42 50-51.31 13.71.16 16.13 14.55 17.82 30.3s-19.67 13.38-19.67 13.38v3.95l-12.15 6.29 7.36-.23S126.85 392 98.21 386.83Z" style="fill:#f15;stroke:#263238;stroke-linecap:round;stroke-linejoin:round"/>
  <path d="M157.55 290c2.87-9 16-11.4 20.72-9.93a16.79 16.79 0 0 1 8.91 8.13c1.2 2.59-1.31 7.17.48 9.84 2.56 3.83 2.34 11.91 1.42 17-.5 2.7-11.73 4.3-20.91-2-9.86-6.82-13.4-14.38-10.62-23.04Z" style="fill:#fff;stroke:#263238;stroke-linecap:round;stroke-linejoin:round"/>
  <path d="M170.82 277.38s11.56-1.88 11.64 1.09c.51 19.73-11.32 23.87-11.32 23.87s-4.83-3.85-5.91-1.21 1.7 9.94 5.12 10.09a7.82 7.82 0 0 0-.14 8.24s-19.58 3.27-21.2-5.8a71.4 71.4 0 0 0 1.62-9.58c1.27-12.71-1.7-21.26 20.19-26.7Z" style="fill:#263238"/>
  <path d="M186.26 297.49c2.41 2.17 4.14 2.17 4.11 2.95-.09 2.43-3 3.64-3 3.64" style="fill:#fff;stroke:#263238;stroke-linecap:round;stroke-linejoin:round"/>
  <path d="M187.31 308.13a8.87 8.87 0 0 1-5.27.13" style="fill:none;stroke:#263238;stroke-linecap:round;stroke-linejoin:round"/>
  <path d="M180.9 285.38s7.69-2.23 6.28 10.25c0 0 3.2-4.35 3.19-9.24 0-8.47-11.33-6.77-11.33-6.77l1.48 6" style="fill:#263238"/>
  <path d="M187.89 291.49a2.59 2.59 0 0 0-2-.37m-3.18.23s-4.13.24-5.92 3" style="fill:none;stroke:#263238;stroke-linecap:round;stroke-linejoin:round"/>
  <path d="M181.72 297.92c.06.66-.22 1.23-.63 1.27s-.79-.47-.86-1.13.22-1.23.63-1.27.8.47.86 1.13Z" style="fill:#263238"/>
  <path d="M133.81 414.68s9.2 1 11.2 5" style="fill:none;stroke:#263238;stroke-linecap:round;stroke-linejoin:round"/>
  <path d="M157.1 324.48a17.09 17.09 0 0 1 12.65-1.58c7.32 1.85 26.3 29 28.94 31.65s7.58 4 12.13 8.79c7.2 7.51 17.67 14.15 18.73 14.15s1.91-.66 3.23-.92 11.54-1.19 11.54-1.19 3.43.77 0 2.23-3.17 2.79-3.17 2.79-.68 1.1.69 2.16 2.19.48 4.16 3.27-2.78 1.21-2.78 1.21 1.05 3-1.06 2.7-.26 2.93-3.69 2.49-10.77-5.07-12.61-9.92c0 0-29.94-14.31-34.42-18s-23.32-23.48-24.65-23.74" style="fill:#fff;stroke:#263238;stroke-linecap:round;stroke-linejoin:round"/>
  <path d="M152.8 321.58s14.76-3.95 19.91-1.05 14.91 16.35 14.91 16.35-11.9 10.65-15.58 9.68S157.1 344 157.1 344" style="fill:#f15;stroke:#263238;stroke-linecap:round;stroke-linejoin:round"/>
  <path d="M165.6 345.3s-5.35 2.94-7.32 2.94m-1.18-17.69c.45.79.3 9.44 9.69 12.13m-59.88 26.64s20 3.43 26.9-2.64m6.84 4.97s-5-.88-6.84 1.69-11.86 5-11.86 5m-21.5 12.4s-2.89 12.46 9.44 18m-2.98-17.14s.07 6.14 2 9.5l6.13 2 6.86-3.82s-1.46-7.85-1.59-9.44" style="fill:none;stroke:#263238;stroke-linecap:round;stroke-linejoin:round"/>
</svg>
