<svg xmlns="http://www.w3.org/2000/svg" viewBox="0 0 500 500">
  <path d="M457.31 257.28C474 150.86 385.17 43.59 268.6 30.27c-1.45-.17-2.9-.32-4.36-.47-81.45-8.09-155.9 54.13-177.18 101.58s-77 92.6-56.35 180.56S107.45 446.75 239 460.62s155.77-23.74 190.69-105.92a420.16 420.16 0 0 0 27.62-97.42Z" style="fill:#f15"/>
  <path d="M457.31 257.28C474 150.86 385.17 43.59 268.6 30.27c-1.45-.17-2.9-.32-4.36-.47-81.45-8.09-155.9 54.13-177.18 101.58s-77 92.6-56.35 180.56S107.45 446.75 239 460.62s155.77-23.74 190.69-105.92a420.16 420.16 0 0 0 27.62-97.42Z" style="fill:#fff;opacity:.7000000000000001"/>
  <path d="M38.69 460.4h35.87v1H38.69zm41.87 0h397.6v1H80.56zm275.49-329.06-11.25-11.25 11.25-11.25 11.25 11.25Zm-9.84-11.25 9.84 9.83 9.83-9.83-9.83-9.84ZM119.76 90.35 108.51 79.1l11.25-11.25L131 79.1Zm-9.83-11.25 9.83 9.83 9.84-9.83-9.84-9.84Zm340.3 224.43L439 292.28 450.23 281l11.25 11.25Zm-9.84-11.25 9.84 9.83 9.83-9.83-9.83-9.84Zm-195.61 58.45-11.25-11.25 11.25-11.25L256 339.48Zm-9.84-11.25 9.84 9.83 9.83-9.83-9.83-9.84ZM50.22 232.75 39 221.5l11.25-11.25 11.22 11.25Zm-9.83-11.25 9.83 9.84 9.84-9.84-9.84-9.83Zm63.2-22.01-5.78-5.78 5.78-5.78 5.78 5.78Zm-4.37-5.78 4.37 4.37 4.36-4.37-4.36-4.36Zm271.4-57.21-5.78-5.78 5.78-5.78 5.78 5.78Zm-4.36-5.78 4.36 4.36 4.37-4.36-4.37-4.37Zm-93-53.84-5.78-5.78 5.78-5.78L279 71.1Zm-4.37-5.78 4.37 4.37 4.36-4.37-4.36-4.36Zm2.54 260.36-5.78-5.78 5.78-5.78 5.78 5.78Zm-4.37-5.78 4.37 4.36 4.37-4.36-4.37-4.37Zm91.5 72.7-5.78-5.78 5.78-5.78 5.78 5.78Zm-4.36-5.78 4.36 4.36 4.37-4.36-4.37-4.37Zm-179.6 41.65-5.78-5.78 5.78-5.78 5.78 5.78Zm-4.37-5.78 4.37 4.37 4.37-4.37-4.37-4.36Zm33.27-3.28a14 14 0 0 0 4.14.46s-.63-1.92-.69-2c-.64-1.35-2.68-3.57-4.34-3.35a2 2 0 0 0-1.59 2.48 4.14 4.14 0 0 0 2.48 2.41Z" style="fill:#263238"/>
  <path d="M204.51 433.7a13.89 13.89 0 0 0 4.08-.64 33.12 33.12 0 0 0 1.59 4.39c.36.84.74 1.67 1.15 2.49l-.49-.7c-1-1.13-3.53-2.74-5.07-2.08a2 2 0 0 0-.88 2.81 4.12 4.12 0 0 0 3 1.71 13.13 13.13 0 0 0 4-.61l.47.95c.76 1.51 1.52 3 2.23 4.51.25.53.47 1.06.7 1.59l-.43-.61c-1-1.13-3.53-2.74-5.07-2.08a2 2 0 0 0-.87 2.81 4.14 4.14 0 0 0 3 1.71 12.94 12.94 0 0 0 3.85-.58c.22.55.44 1.1.62 1.64.12.37.26.72.36 1.1l.31 1.11c.17.72.35 1.45.5 2.15l.3 1.43c-.24-.53-.74-1.56-.79-1.64-.79-1.26-3.07-3.24-4.69-2.82a2 2 0 0 0-1.3 2.64 4.17 4.17 0 0 0 2.74 2.15 13.67 13.67 0 0 0 4.1 0c.16.77.3 1.53.43 2.25l.26 1.53h1l-.33-1.71c-.15-.79-.33-1.63-.53-2.5a18.88 18.88 0 0 0 2.29-1.07 14.62 14.62 0 0 0 3.33 2.15l-.88 2.11-.46 1h1.11l.26-.63c.3-.75.62-1.55.93-2.37a13.91 13.91 0 0 0 4.09.31 4.1 4.1 0 0 0 2.89-1.93 2 2 0 0 0-1.09-2.74c-1.59-.53-4 1.27-4.89 2.47 0 .07-.54.9-.83 1.43l.38-1c.25-.69.48-1.39.73-2.13l.34-1.11c.12-.37.19-.77.29-1.16.22-.91.39-1.83.55-2.77a12.91 12.91 0 0 0 3.88.89 4.14 4.14 0 0 0 3.15-1.48 2 2 0 0 0-.66-2.87c-1.49-.76-4.15.65-5.21 1.7-.07.07-.74.91-1.11 1.38l.26-1.7c.2-1.66.36-3.35.52-5 0-.51.11-1 .16-1.54a13.76 13.76 0 0 0 4 .94 4.12 4.12 0 0 0 3.16-1.47 2 2 0 0 0-.67-2.87c-1.48-.77-4.15.64-5.21 1.7-.08.08-1 1.29-1.28 1.61.12-1.13.25-2.26.42-3.36a34.64 34.64 0 0 1 1-4.42 13.87 13.87 0 0 0 4 .95 4.16 4.16 0 0 0 3.16-1.47 2 2 0 0 0-.67-2.87c-1.49-.77-4.15.64-5.21 1.7-.08.08-1.13 1.38-1.3 1.63 0-.08 0-.17.07-.25a25.08 25.08 0 0 1 1.75-4.18c.38-.75.79-1.44 1.19-2.1a13.13 13.13 0 0 0 3.82 1.34 4.13 4.13 0 0 0 3.3-1.12 2 2 0 0 0-.34-2.92c-1.4-.93-4.2.18-5.37 1.11l-1.08 1.07.57-.88c.7-1.06 1.41-2 2-2.79l1-1.24a13.16 13.16 0 0 0 4-.57 4.18 4.18 0 0 0 2.41-2.51 2 2 0 0 0-1.5-2.47c-1.66-.18-3.64 2.1-4.25 3.46-.05.12-.66 2.06-.63 2.06a48.5 48.5 0 0 0-3.1 3.92 33.73 33.73 0 0 0-2.18 3.48 25 25 0 0 0-1.86 4.19s0 0 0 .06v-2c-.19-1.48-1.43-4.23-3.08-4.54a2 2 0 0 0-2.28 1.87 4.19 4.19 0 0 0 1.59 3.1 14.18 14.18 0 0 0 3.75 1.71 36.25 36.25 0 0 0-1.1 4.54c-.16.9-.29 1.8-.41 2.71v-.85c-.19-1.48-1.43-4.23-3.07-4.54a2 2 0 0 0-2.29 1.87 4.16 4.16 0 0 0 1.59 3.09 13.09 13.09 0 0 0 3.64 1.68c0 .35-.09.7-.13 1-.2 1.68-.4 3.35-.64 5-.08.58-.18 1.15-.29 1.71v-.74c-.19-1.48-1.43-4.23-3.07-4.53a2 2 0 0 0-2.29 1.86 4.19 4.19 0 0 0 1.59 3.1 12.85 12.85 0 0 0 3.53 1.64c-.12.58-.24 1.15-.38 1.71-.11.37-.19.74-.32 1.11s-.23.74-.35 1.1c-.25.69-.51 1.41-.77 2.07l-.54 1.36c.09-.58.25-1.71.25-1.8a7.73 7.73 0 0 0-1-3.74 2.17 2.17 0 0 0 0-.44 2 2 0 0 0-2.42-1.68c-1.61.43-2.64 3.27-2.72 4.76l.1 1.66-.24-1.06c-.17-.71-.36-1.42-.56-2.19l-.34-1.1-.39-1.13c-.32-.88-.68-1.75-1.07-2.62a13.11 13.11 0 0 0 3.73-1.39 4.14 4.14 0 0 0 1.81-3 2 2 0 0 0-2.14-2c-1.66.18-3.1 2.83-3.4 4.29 0 .09-.12 1.17-.16 1.76-.24-.52-.48-1-.73-1.56-.75-1.5-1.55-3-2.34-4.48l-.71-1.37A13.82 13.82 0 0 0 216 439a4.12 4.12 0 0 0 1.82-3 2 2 0 0 0-2.14-2c-1.66.18-3.11 2.83-3.41 4.29 0 .11-.16 1.66-.18 2.05-.52-1-1-2-1.5-3A34.23 34.23 0 0 1 209 433a13.94 13.94 0 0 0 3.89-1.43 4.14 4.14 0 0 0 1.81-3 2 2 0 0 0-2.13-2c-1.67.18-3.11 2.83-3.41 4.29 0 .12-.18 1.78-.18 2.08l-.09-.25a25.17 25.17 0 0 1-.84-4.45c-.1-.83-.14-1.63-.16-2.41a13.2 13.2 0 0 0 3.92-1 4.12 4.12 0 0 0 2.13-2.76 2 2 0 0 0-1.9-2.25c-1.67 0-3.4 2.47-3.86 3.89 0 .08-.19.9-.3 1.49v-1.05a43.58 43.58 0 0 1 .33-5.05 13.26 13.26 0 0 0 3-2.67 4.13 4.13 0 0 0 .62-3.43 2 2 0 0 0-2.72-1.12c-1.49.77-1.88 3.76-1.63 5.23 0 .13.58 2.08.6 2.07l-.19 1.53c-.1 1-.2 2.19-.23 3.46a33.84 33.84 0 0 0 .09 4.1 25.87 25.87 0 0 0 .76 4.52.14.14 0 0 1 0 .06c-.26-.42-1-1.55-1.11-1.63-1-1.13-3.53-2.74-5.06-2.08a2 2 0 0 0-.88 2.81 4.15 4.15 0 0 0 3.05 1.75Z" style="fill:#263238"/>
  <path d="M233.2 425.84s.53-1.95.55-2.08c.2-1.48-.27-4.46-1.77-5.19a2 2 0 0 0-2.7 1.19 4.14 4.14 0 0 0 .72 3.41 14 14 0 0 0 3.2 2.67Zm60.89-140.34H189.61a32.84 32.84 0 1 1 0-65.68h104.48a32.84 32.84 0 1 1 0 65.68Zm-104.48-64.68a31.84 31.84 0 1 0 0 63.68h104.48a31.84 31.84 0 1 0 0-63.68Z" style="fill:#263238"/>
  <path d="M189.18 283.42a30.76 30.76 0 1 1 30.76-30.76 30.8 30.8 0 0 1-30.76 30.76Zm0-60.52a29.76 29.76 0 1 0 29.76 29.76 29.79 29.79 0 0 0-29.76-29.76Zm78.01 29.68 14.15-14.15a4 4 0 0 0-5.66-5.65l-14.15 14.15-14.15-14.15a4 4 0 0 0-5.66 5.65l14.15 14.15-14.15 14.15a4 4 0 0 0 5.66 5.66l14.15-14.15 14.15 14.15a4 4 0 0 0 5.66-5.66Z" style="fill:#263238"/>
  <rect width="169.16" height="64.68" x="157.27" y="129.28" rx="32.34" style="fill:#263238"/>
  <circle cx="294.53" cy="161.61" r="36.32" style="fill:#f15"/>
  <path d="M294.53 198.43a36.82 36.82 0 1 1 36.81-36.82 36.86 36.86 0 0 1-36.81 36.82Zm0-72.63a35.82 35.82 0 1 0 35.81 35.81 35.86 35.86 0 0 0-35.81-35.81Z" style="fill:#263238"/>
  <path d="M210.67 182.17a4 4 0 0 1-2.83-1.17l-20.51-20.51a4 4 0 0 1 5.65-5.65l17.25 17.24 24.12-32.31a4 4 0 0 1 6.41 4.79l-26.89 36a4 4 0 0 1-2.92 1.59Z" style="fill:#f15"/>
  <path d="M456.75 163.71h-11.57v-1h11.57a4.3 4.3 0 0 0 4.29-4.3V60.07a4.29 4.29 0 0 0-4.29-4.29h-40v-1h40a5.29 5.29 0 0 1 5.25 5.29v98.34a5.3 5.3 0 0 1-5.25 5.3Zm-15.97 0h-42.22a5.3 5.3 0 0 1-5.29-5.3V60.07a5.29 5.29 0 0 1 5.29-5.29h12.57v1h-12.57a4.3 4.3 0 0 0-4.29 4.29v98.34a4.3 4.3 0 0 0 4.29 4.3h42.22Z" style="fill:#263238"/>
  <path d="M399.45 68.18h37.24v1h-37.24zm21.62 14.13h15.61v1h-15.61zm-21.62 0h17.48v1h-17.48z" style="fill:#263238"/>
  <rect width="16.75" height="6.4" x="441.26" y="80.11" rx="2.8" style="fill:#263238"/>
  <path d="M458.44 83.31a3.6 3.6 0 1 0-3.59 3.59 3.6 3.6 0 0 0 3.59-3.59Z" style="fill:#f15"/>
  <path d="M454.85 87.4a4.1 4.1 0 1 1 4.09-4.09 4.1 4.1 0 0 1-4.09 4.09Zm0-7.19a3.1 3.1 0 1 0 3.09 3.1 3.1 3.1 0 0 0-3.09-3.1Z" style="fill:#263238"/>
  <rect width="16.75" height="6.4" x="441.26" y="93.43" rx="2.8" style="fill:#263238"/>
  <path d="M458.44 96.63a3.6 3.6 0 1 0-3.59 3.59 3.6 3.6 0 0 0 3.59-3.59Z" style="fill:#f15"/>
  <path d="M454.85 100.72a4.1 4.1 0 1 1 4.09-4.09 4.1 4.1 0 0 1-4.09 4.09Zm0-7.19a3.1 3.1 0 1 0 3.09 3.1 3.1 3.1 0 0 0-3.09-3.1Z" style="fill:#263238"/>
  <rect width="16.75" height="6.4" x="441.26" y="122.06" rx="2.8" style="fill:#263238"/>
  <path d="M458.44 125.26a3.6 3.6 0 1 0-3.59 3.6 3.59 3.59 0 0 0 3.59-3.6Z" style="fill:#f15"/>
  <path d="M454.85 129.36a4.1 4.1 0 1 1 4.09-4.1 4.11 4.11 0 0 1-4.09 4.1Zm0-7.19a3.1 3.1 0 1 0 3.09 3.09 3.1 3.1 0 0 0-3.09-3.09Z" style="fill:#263238"/>
  <rect width="16.75" height="6.4" x="441.26" y="150.33" rx="2.8" style="fill:#263238"/>
  <path d="M458.44 153.53a3.6 3.6 0 1 0-3.59 3.59 3.6 3.6 0 0 0 3.59-3.59Z" style="fill:#f15"/>
  <path d="M454.85 157.62a4.1 4.1 0 1 1 4.09-4.09 4.1 4.1 0 0 1-4.09 4.09Zm0-7.19a3.1 3.1 0 1 0 3.09 3.1 3.1 3.1 0 0 0-3.09-3.1Zm.39-77.73H444.4l1.86-.94a3.09 3.09 0 0 0 0-5.51l-1.86-1h10.84a3.7 3.7 0 0 1 3.7 3.7 3.7 3.7 0 0 1-3.7 3.7Zm-7.31-1h7.31a2.7 2.7 0 0 0 0-5.4h-7.31a4.08 4.08 0 0 1 0 5.4Z" style="fill:#263238"/>
  <path d="M444.85 73.1a4.1 4.1 0 0 1 0-8.19 4 4 0 0 1 1.87.45 4.09 4.09 0 0 1 0 7.29 4 4 0 0 1-1.87.45Zm0-7.19a3.1 3.1 0 0 0 0 6.19 3 3 0 0 0 1.4-.34 3.09 3.09 0 0 0 0-5.51 3 3 0 0 0-1.4-.34Zm10.39 48.64H444.4l1.86-.94a3.09 3.09 0 0 0 0-5.51l-1.86-.95h10.84a3.7 3.7 0 0 1 3.7 3.7 3.7 3.7 0 0 1-3.7 3.7Zm-7.31-1h7.31a2.7 2.7 0 0 0 0-5.4h-7.31a4.08 4.08 0 0 1 0 5.4Z" style="fill:#263238"/>
  <path d="M444.85 115a4.1 4.1 0 0 1 0-8.2 4 4 0 0 1 1.87.46 4.09 4.09 0 0 1 0 7.29 4 4 0 0 1-1.87.45Zm0-7.2a3.1 3.1 0 0 0 0 6.2 3 3 0 0 0 1.4-.34 3.09 3.09 0 0 0 0-5.51 3 3 0 0 0-1.4-.4Zm10.39 34.83H444.4l1.86-.94a3.09 3.09 0 0 0 0-5.51l-1.86-1h10.84a3.7 3.7 0 0 1 3.7 3.7 3.7 3.7 0 0 1-3.7 3.7Zm-7.31-1h7.31a2.7 2.7 0 0 0 0-5.4h-7.31a4.08 4.08 0 0 1 0 5.4Z" style="fill:#263238"/>
  <path d="M444.85 143a4.1 4.1 0 0 1 0-8.19 4 4 0 0 1 1.87.45 4.09 4.09 0 0 1 0 7.29 4 4 0 0 1-1.87.45Zm0-7.19a3.1 3.1 0 0 0 0 6.19 3 3 0 0 0 1.4-.34 3.09 3.09 0 0 0 0-5.51 3 3 0 0 0-1.4-.31Zm-45.4-39.37h37.24v1h-37.24zm0 14.13h37.24v1h-37.24zm16.18 14.13h21.05v1h-21.05zm-16.18 0h12.04v1h-12.04zm0 14.12h37.24v1h-37.24zm0 14.13h37.24v1h-37.24zM136.53 440.43H43a5.29 5.29 0 0 1-5.29-5.29V280.52a5.3 5.3 0 0 1 5.29-5.29h42.79v1H43a4.3 4.3 0 0 0-4.29 4.29v154.62a4.29 4.29 0 0 0 4.29 4.29h93.52a4.3 4.3 0 0 0 4.29-4.29v-40.68h1v40.68a5.29 5.29 0 0 1-5.28 5.29Zm5.29-52.7h-1V280.52a4.3 4.3 0 0 0-4.29-4.29H90.31v-1h46.22a5.3 5.3 0 0 1 5.29 5.29Z" style="fill:#263238"/>
  <path d="M58.89 295.63h44.61v1H58.89zm-12.04 0h7.55v1h-7.55zm0 21.49h56.65v1H46.85zm84.22-3.61h-15.73a4.87 4.87 0 0 0-4.87 4.87 4.87 4.87 0 0 0 4.87 4.87h15.73a4.87 4.87 0 0 0 4.87-4.87 4.87 4.87 0 0 0-4.87-4.87Z" style="fill:#263238"/>
  <path d="M136.61 318.38a5.47 5.47 0 1 0-5.47 5.47 5.47 5.47 0 0 0 5.47-5.47Z" style="fill:#f15"/>
  <path d="M131.14 324.35a6 6 0 1 1 6-6 6 6 0 0 1-6 6Zm0-10.94a5 5 0 1 0 5 5 5 5 0 0 0-5-5Zm-.07 20.36h-15.73a4.88 4.88 0 0 0-4.87 4.88 4.87 4.87 0 0 0 4.87 4.87h15.73a4.87 4.87 0 0 0 4.87-4.87 4.88 4.88 0 0 0-4.87-4.88Z" style="fill:#263238"/>
  <circle cx="131.14" cy="338.65" r="5.47" style="fill:#f15"/>
  <path d="M131.14 344.61a6 6 0 1 1 6-6 6 6 0 0 1-6 6Zm0-10.93a5 5 0 1 0 5 5 5 5 0 0 0-5-5Zm-.07 43.66h-15.73a4.87 4.87 0 0 0-4.87 4.87 4.87 4.87 0 0 0 4.87 4.87h15.73a4.87 4.87 0 0 0 4.87-4.87 4.87 4.87 0 0 0-4.87-4.87Z" style="fill:#263238"/>
  <path d="M136.61 382.21a5.47 5.47 0 1 0-5.47 5.47 5.47 5.47 0 0 0 5.47-5.47Z" style="fill:#f15"/>
  <path d="M131.14 388.18a6 6 0 1 1 6-6 6 6 0 0 1-6 6Zm0-10.94a5 5 0 1 0 5 5 5 5 0 0 0-5-5Zm-.07 43.1h-15.73a4.87 4.87 0 0 0-4.87 4.87 4.87 4.87 0 0 0 4.87 4.87h15.73a4.87 4.87 0 0 0 4.87-4.87 4.87 4.87 0 0 0-4.87-4.87Z" style="fill:#263238"/>
  <circle cx="131.14" cy="425.21" r="5.47" style="fill:#f15"/>
  <path d="M131.14 431.18a6 6 0 1 1 6-6 6 6 0 0 1-6 6Zm0-10.94a5 5 0 1 0 5 5 5 5 0 0 0-5-5Zm.59-118.24h-15.4l1.86-.94a5 5 0 0 0 0-8.85l-1.86-.95h15.4a5.37 5.37 0 1 1 0 10.74ZM120 301h11.73a4.37 4.37 0 0 0 4.37-4.37 4.37 4.37 0 0 0-4.37-4.37H120a6 6 0 0 1 0 8.74Z" style="fill:#263238"/>
  <path d="M115.93 302.58a6 6 0 0 1 0-11.94 5.88 5.88 0 0 1 2.72.66 6 6 0 0 1 0 10.63 5.8 5.8 0 0 1-2.72.65Zm0-10.94a5 5 0 0 0 0 9.94 4.76 4.76 0 0 0 2.25-.54 5 5 0 0 0 0-8.85 4.84 4.84 0 0 0-2.25-.55Zm15.8 74.01h-15.4l1.86-.94a5 5 0 0 0 0-8.85l-1.86-.95h15.4a5.37 5.37 0 0 1 0 10.74Zm-11.73-1h11.73a4.37 4.37 0 0 0 4.37-4.37 4.37 4.37 0 0 0-4.37-4.37H120a6 6 0 0 1 0 8.74Z" style="fill:#263238"/>
  <path d="M115.93 366.25a6 6 0 0 1 0-11.94 5.88 5.88 0 0 1 2.72.66 6 6 0 0 1-2.72 11.28Zm0-10.94a5 5 0 0 0 0 9.94 4.88 4.88 0 0 0 2.25-.54 5 5 0 0 0 0-8.85 4.84 4.84 0 0 0-2.25-.55Zm15.8 53.07h-15.4l1.86-.95a5 5 0 0 0 0-8.85l-1.86-.95h15.4a5.38 5.38 0 0 1 0 10.75Zm-11.73-1h11.73a4.38 4.38 0 0 0 0-8.75H120a6 6 0 0 1 0 8.75Z" style="fill:#263238"/>
  <path d="M115.93 409a6 6 0 1 1 0-11.94 5.87 5.87 0 0 1 2.72.65 6 6 0 0 1 0 10.63 5.81 5.81 0 0 1-2.72.66Zm0-10.94a5 5 0 1 0 0 9.94 4.77 4.77 0 0 0 2.25-.55 5 5 0 0 0 0-8.85 4.83 4.83 0 0 0-2.25-.6Zm-27.87-59.44h15.44v1H88.06zm-41.21 0h35.6v1h-35.6zm0 21.49h56.65v1H46.85zm0 21.49h56.65v1H46.85zm33.3 21.5h23.35v1H80.15zm-33.3 0h28.78v1H46.85zm0 21.49h56.65v1H46.85z" style="fill:#263238"/>
  <path d="M312.46 197.18s-.4.16-3-1.59-6.32-1.79-7.48-.61 2.74 1.89 4.23 3.58 5.6 5.41 7.68 5.69 6.37.4 6.37.4 17.79 23.08 18.22 23.32 7.85-10.44 7.85-10.44l-20.88-15.7s-1.77-7.87-1.87-9.38 0-5.79-1.34-7.77-2.64-2.44-2.57-1.34.81 1.73.88 2.83a10.25 10.25 0 0 1 0 1.79s-2.29-3.43-3.36-5a16 16 0 0 0-3.94-3.32 10.89 10.89 0 0 0-2.89-2c-1.13-.34-.47 1.27-.47 1.27s-1.66-.17-1.42 1.47 1.92 8.14 2.49 10.44 1.5 6.36 1.5 6.36Z" style="fill:#fff"/>
  <path d="M338.46 228.49a.45.45 0 0 1-.23-.08c-.34-.2-6.47-8-18.22-23.26-.94 0-4.35-.16-6.18-.4-2.42-.32-6.77-4.47-8-5.86a8.74 8.74 0 0 0-2.46-1.61c-1.11-.56-2-1-2.1-1.72a1 1 0 0 1 .34-.93c1.32-1.34 5.33-1.35 8.12.54a19.65 19.65 0 0 0 2 1.24l-1.31-5.49L310 189c-.72-2.89-1.81-7.25-2-8.57a1.74 1.74 0 0 1 .38-1.52 1.7 1.7 0 0 1 .88-.47 1.25 1.25 0 0 1 .2-1.1 1 1 0 0 1 1.06-.2 10.32 10.32 0 0 1 3 2.09 15.78 15.78 0 0 1 4.05 3.44l2.48 3.69v-.16a3.66 3.66 0 0 0-.39-1.24 4.38 4.38 0 0 1-.49-1.59.93.93 0 0 1 .58-1.06c1.08-.38 2.5 1.5 2.9 2.09 1.23 1.76 1.33 5.08 1.39 7.07v.94c.09 1.33 1.55 8 1.81 9.13l20.74 15.59a.51.51 0 0 1 .11.69c-6.49 9.4-7.7 10.67-8.24 10.67Zm-33.73-33.82a3.57 3.57 0 0 0-2.39.66.29.29 0 0 0-.07.09 5.43 5.43 0 0 0 1.57 1 9.4 9.4 0 0 1 2.75 1.84c1.54 1.75 5.54 5.28 7.37 5.52 2 .27 6.27.4 6.31.4a.51.51 0 0 1 .38.2 2574.3 2574.3 0 0 0 17.89 23c1-1.09 4.22-5.52 7.1-9.66l-20.5-15.41a.47.47 0 0 1-.18-.29c-.08-.32-1.77-7.93-1.88-9.46v-1c-.06-1.88-.16-5-1.22-6.53a4.88 4.88 0 0 0-1.66-1.68 3.35 3.35 0 0 0 .4 1.24 4.5 4.5 0 0 1 .48 1.6 11.83 11.83 0 0 1 0 1.89.51.51 0 0 1-.92.21s-2.29-3.43-3.36-5a15.23 15.23 0 0 0-3.78-3.17l-.09-.07a9.63 9.63 0 0 0-2.69-1.89 2.25 2.25 0 0 0 .15.61.48.48 0 0 1-.06.49.51.51 0 0 1-.45.2 1.07 1.07 0 0 0-.75.21.81.81 0 0 0-.12.69c.19 1.26 1.27 5.6 2 8.47l.48 1.93c.57 2.3 1.53 6.37 1.53 6.37a.51.51 0 0 1-.3.58c-.2.08-.65.27-3.47-1.64a8.16 8.16 0 0 0-4.52-1.4Z" style="fill:#263238"/>
  <path d="M315.11 191.85a.48.48 0 0 1-.45-.28 44.82 44.82 0 0 1-2.7-7.07 16.44 16.44 0 0 0-2.48-5.3.49.49 0 0 1 .08-.7.49.49 0 0 1 .7.08 16.86 16.86 0 0 1 2.66 5.66 48 48 0 0 0 2.63 6.9.48.48 0 0 1-.23.66.41.41 0 0 1-.21.05Zm3.52-.92a.49.49 0 0 1-.46-.3 28.18 28.18 0 0 1-1.2-3.3 70 70 0 0 0-4.17-7.44.5.5 0 0 1 .16-.68.49.49 0 0 1 .69.16c.4.64 3.91 6.32 4.28 7.7a26.75 26.75 0 0 0 1.16 3.16.5.5 0 0 1-.26.66.51.51 0 0 1-.2.04Zm2.61-.03a.51.51 0 0 1-.48-.36l-.71-2.44a.5.5 0 1 1 1-.28l.71 2.44a.5.5 0 0 1-.34.62Z" style="fill:#263238"/>
  <path d="M333.65 208.29s-5.52-7.84-7.6-7-6.35 6.48-5.85 8.59 4.14 3.29 4.14 3.29Z" style="fill:#f15"/>
  <path d="M324.34 213.69h-.16c-.16 0-3.92-1.3-4.47-3.66s4-8.27 6.15-9.17 6.85 5.25 8.2 7.17a.47.47 0 0 1 .07.4.49.49 0 0 1-.25.33l-9.31 4.9a.59.59 0 0 1-.23.03Zm2.09-12a.41.41 0 0 0-.19 0c-2 .8-6 6.21-5.56 8 .33 1.41 2.56 2.49 3.62 2.87l8.61-4.53c-2.36-3.17-5.3-6.3-6.48-6.3Z" style="fill:#263238"/>
  <path d="M398.52 239.68s-6.79-.27-10.27 1-9.84-2.37-12-3.13c-7.44-2.62-21-11.62-26.87-19-7.22-9.07-16.17-16.73-22-12.78s-5.9 7.89-5.45 9.28 2.69 10.12 22.41 31.34c9.83 10.61 17.78 14.61 25.16 18.4s15.5 7.54 15.5 7.54Z" style="fill:#f15"/>
  <path d="M385 272.83a.5.5 0 0 1-.21-.05c-.08 0-8.19-3.79-15.51-7.54l-.32-.17c-7.14-3.67-15.24-7.82-24.93-18.26-12.34-13.27-20.32-24.41-22.47-31.36l-.06-.16c-.16-.51-1.38-5.07 5.65-9.85s17.18 6 22.64 12.87c5.77 7.25 19.3 16.22 26.65 18.8.49.17 1.16.48 1.95.84 2.68 1.21 7.15 3.24 9.69 2.3 3.54-1.33 10.19-1.08 10.47-1.07a.49.49 0 0 1 .41.23.53.53 0 0 1 0 .46l-13.54 32.65a.44.44 0 0 1-.28.27.39.39 0 0 1-.14.04Zm-54-67.55a5.65 5.65 0 0 0-3.26 1c-5.22 3.55-5.76 7.15-5.25 8.71l.05.17c2.11 6.81 10 17.81 22.25 31 9.58 10.31 17.24 14.24 24.65 18.05l.33.17a499.32 499.32 0 0 0 15 7.31l13-31.5c-1.82 0-6.67 0-9.36 1-2.92 1.09-7.45-1-10.45-2.32-.77-.35-1.43-.65-1.87-.81-7.48-2.62-21.23-11.74-27.1-19.11-3.56-4.5-11.65-13.67-17.99-13.67Z" style="fill:#263238"/>
  <path d="M387.94 191.49s-8.57 5.44-9.4 8.24-1.32 5.44-2.64 6.92-5.44 2-5.76 3.3 2.14 5.11 2.14 5.11 1.81 6.76 2.14 8.9 2.47 5.44 4.12 5.44a42.79 42.79 0 0 0 5.94-1s1.15 8.9 1 11.87-.5 3.46 1.15 3.46 8.08-4.62 8.74-5.11 2.3-12.86 3.62-17.47.66-18.79-2.14-23.41-6.6-7.57-8.91-6.25Z" style="fill:#fff"/>
  <path d="M386.62 244.24a1.89 1.89 0 0 1-1.46-.42c-.41-.45-.37-1.1-.27-2.4 0-.34.05-.73.08-1.17a103.3 103.3 0 0 0-.92-11.23 36.19 36.19 0 0 1-5.51.88c-2 0-4.27-3.6-4.61-5.86-.31-2-1.91-8-2.12-8.78-.51-.79-2.51-4-2.16-5.43.24-1 1.52-1.44 3-2a8.07 8.07 0 0 0 2.88-1.5c1-1.1 1.48-2.94 2.07-5.07l.46-1.66c.86-2.9 8.72-8 9.61-8.53 2.48-1.41 6.42 1.23 9.58 6.44 2.87 4.74 3.56 19 2.19 23.8-.63 2.21-1.35 6.28-2 9.87-1.13 6.38-1.4 7.55-1.82 7.87-.03.03-7.03 5.19-9 5.19Zm-2.14-16.33a.47.47 0 0 1 .28.09.5.5 0 0 1 .21.35c0 .36 1.16 9 1 12 0 .45 0 .84-.08 1.19a4.41 4.41 0 0 0 0 1.64s.15.1.72.1c1.24 0 6.54-3.58 8.44-5 .22-.4.87-4 1.43-7.24.64-3.61 1.37-7.71 2-10 1.29-4.51.62-18.54-2.09-23s-6.29-7.18-8.21-6.1c-2.35 1.5-8.55 5.81-9.18 8l-.46 1.64c-.62 2.25-1.15 4.2-2.28 5.47a8.56 8.56 0 0 1-3.27 1.78c-1 .39-2.28.87-2.39 1.31-.19.76 1.1 3.22 2.08 4.72a.59.59 0 0 1 .06.14c.08.28 1.83 6.81 2.16 8.95s2.39 5 3.62 5a42.15 42.15 0 0 0 5.82-1Z" style="fill:#263238"/>
  <path d="M376 216.43a5.7 5.7 0 0 1-1.4-.15.49.49 0 0 1-.36-.6.5.5 0 0 1 .6-.37 5.87 5.87 0 0 0 5.18-1.45.5.5 0 0 1 .71 0 .49.49 0 0 1 0 .7 6.72 6.72 0 0 1-4.73 1.87Zm5.32-10.98c-.26.92-.78 1.58-1.18 1.47s-.51-.95-.25-1.87.78-1.58 1.17-1.47.51.95.26 1.87Zm3.16-4.23a.49.49 0 0 1-.45-.28c-.44-.89-1-1.38-1.53-1.48a2.2 2.2 0 0 0-1.63.62.5.5 0 1 1-.7-.71 3.14 3.14 0 0 1 2.48-.9 3.26 3.26 0 0 1 2.27 2 .49.49 0 0 1-.22.67.46.46 0 0 1-.22.08Zm-8.65 125.84 2.07 10.86s-1.71 13.15 2.86 34.58c2.85 13.37 7.15 18.93 7.57 20.22s2.93 23.07 3.36 29.93 3 18.22 3 20.58-1.28 6.86-2.57 8.57-7.07 7.29-8.79 8.15-4.07 2.36-1.71 3.21a20.13 20.13 0 0 0 10.29.43c3.64-.86 7.5-3.21 10.28-5.14s6-1.93 6.65-4.5-3.22-8.58-3.22-14.15 1.79-29.94 1.58-40.22-3-13.08-3-13.08l1.21-10.14 9.86 14.79c2.14 3.21 5.79 15.43 12 23.57s12.86 27.65 13.08 28.29-2.15 14.37-3.22 17.15-.64 6.65 6.22 6.65 9.64-3.43 8.78-8.36S450 449.87 450 446s-3.64-22.72-4.5-27.65-2.57-20.36-4.93-26.58-6.64-11.57-9.22-14.79-4.5-15.22-5.14-20.36-1.93-20.79-3.64-29.15-2.36-9-2.36-9l-1.07-2.36s-14.58 4.5-23.15 4.72-20.58 1.07-20.58 1.07Z" style="fill:#263238"/>
  <path d="M443.35 467.31c-3.18 0-5.34-.81-6.42-2.39a5.37 5.37 0 0 1-.27-4.94c1.12-2.89 3.29-16 3.2-16.86-.05-.14-6.72-19.89-13-28.09-4.09-5.37-7.07-12.45-9.24-17.62a45.41 45.41 0 0 0-2.78-6l-9.1-13.66-1 8.59c.63.8 2.79 4.18 3 13.22.13 6.35-.5 18-1 27.37-.31 5.76-.58 10.73-.58 12.86 0 2.87 1.05 5.85 2 8.47s1.56 4.44 1.22 5.8c-.46 1.87-2.11 2.55-3.84 3.27a15.13 15.13 0 0 0-3 1.52c-4 2.77-7.52 4.53-10.46 5.22a20.66 20.66 0 0 1-10.57-.45c-.85-.3-1.29-.75-1.32-1.32s.24-1.44 3-2.81c1.62-.81 7.36-6.33 8.61-8a18.49 18.49 0 0 0 2.47-8.27 66.54 66.54 0 0 0-1-6.69c-.77-4.39-1.74-9.86-2-13.86-.42-6.78-2.92-28.58-3.33-29.8a9.39 9.39 0 0 0-.64-1.23c-1.39-2.48-4.65-8.28-7-19-4.35-20.4-3-33.51-2.87-34.66l-2.06-10.79-.42-5.14a.5.5 0 0 1 .11-.37.51.51 0 0 1 .35-.17c.12 0 12.11-.86 20.6-1.07s22.86-4.65 23-4.7a.49.49 0 0 1 .6.27l1.06 2.33c.29.46 1 2.27 2.41 9.14 1.25 6.13 2.26 15.94 3 23.1.26 2.52.48 4.71.66 6.09.76 6.08 2.67 17.15 5 20.11 2.59 3.23 6.91 8.63 9.3 14.92 1.8 4.74 3.23 14.79 4.17 21.44.31 2.16.57 4 .78 5.23l.83 4.54c1.37 7.51 3.68 20.08 3.68 23.2a34.21 34.21 0 0 0 1.15 7.55c.34 1.5.68 3.05 1 4.79a7.32 7.32 0 0 1-1.32 6.12c-1.58 1.76-4.33 2.74-7.98 2.74Zm-37.94-91.45a.52.52 0 0 1 .42.22l9.85 14.79a44.27 44.27 0 0 1 2.87 6.15c2.16 5.12 5.1 12.14 9.12 17.4 6.36 8.33 13.08 28.24 13.15 28.44.32.95-2.27 15-3.22 17.48a4.41 4.41 0 0 0 .15 4c.88 1.27 2.81 1.95 5.6 1.95 3.34 0 5.83-.86 7.19-2.48a6.24 6.24 0 0 0 1.1-5.3c-.3-1.71-.64-3.25-1-4.74a35.12 35.12 0 0 1-1.17-7.77c0-3-2.3-15.54-3.67-23-.35-1.94-.65-3.54-.82-4.55a219.4 219.4 0 0 1-.79-5.26c-.94-6.6-2.36-16.59-4.12-21.22-2.33-6.15-6.59-11.47-9.14-14.66-3.08-3.85-5-18.9-5.25-20.61-.17-1.39-.39-3.58-.65-6.11-.69-6.74-1.74-16.92-3-23-1.58-7.71-2.24-8.76-2.27-8.8l-.06-.1-.89-1.95c-2.46.73-15.13 4.41-22.86 4.61-7.47.18-17.68.87-20.05 1l.39 4.61 2.06 10.84a.42.42 0 0 1 0 .16c0 .13-1.65 13.32 2.85 34.4 2.27 10.62 5.47 16.33 6.84 18.77a10.47 10.47 0 0 1 .72 1.4c.48 1.45 3 23.65 3.38 30.06.25 3.94 1.21 9.38 2 13.75a63.15 63.15 0 0 1 1 6.86c0 2.34-1.25 7-2.67 8.87s-7.17 7.4-9 8.29c-1.95 1-2.45 1.65-2.43 1.86s.14.25.66.44a19.49 19.49 0 0 0 10 .41c2.81-.66 6.22-2.36 10.12-5.06a16.49 16.49 0 0 1 3.18-1.62c1.63-.68 2.92-1.21 3.26-2.59.27-1.07-.41-3-1.19-5.22-1-2.71-2-5.77-2-8.81 0-2.16.27-7.14.58-12.92.5-9.34 1.13-21 1-27.29-.21-9.88-2.83-12.71-2.86-12.74a.48.48 0 0 1-.14-.41l1.21-10.14a.51.51 0 0 1 .38-.43Z" style="fill:#263238"/>
  <path d="M402.19 458.45c2.79-1.93 6-1.93 6.65-4.5s-3.22-8.58-3.22-14.15c0-1 .07-2.43.19-4.14a19.12 19.12 0 0 1-12.27 0 75.29 75.29 0 0 1 1.15 7.55c0 2.36-1.28 6.86-2.57 8.57s-7.07 7.29-8.79 8.15-4.07 2.36-1.71 3.21a20.13 20.13 0 0 0 10.29.43c3.64-.84 7.5-3.19 10.28-5.12Z" style="fill:#fff"/>
  <path d="M387.6 464.56a19 19 0 0 1-6.15-.93c-.85-.3-1.29-.75-1.32-1.32s.24-1.44 3-2.81c1.62-.81 7.36-6.33 8.61-8a18.49 18.49 0 0 0 2.47-8.27 66.6 66.6 0 0 0-1-6.7l-.13-.77a.47.47 0 0 1 .16-.46.51.51 0 0 1 .49-.1 18.57 18.57 0 0 0 11.94 0 .53.53 0 0 1 .47.07.54.54 0 0 1 .2.44 64.02 64.02 0 0 0-.19 4.1c0 2.87 1.05 5.85 2 8.47s1.56 4.44 1.22 5.8c-.46 1.87-2.11 2.55-3.84 3.27a15.13 15.13 0 0 0-3 1.52c-4 2.77-7.52 4.53-10.46 5.22a19.76 19.76 0 0 1-4.47.47Zm6.57-28.16a62.61 62.61 0 0 1 1 6.83c0 2.34-1.25 7-2.67 8.87s-7.17 7.4-9 8.29c-1.95 1-2.45 1.65-2.43 1.86s.14.25.66.44a19.49 19.49 0 0 0 10 .41c2.81-.66 6.22-2.36 10.12-5.06a16.49 16.49 0 0 1 3.18-1.62c1.63-.68 2.92-1.21 3.26-2.59.27-1.07-.41-3-1.19-5.22-1-2.71-2-5.77-2-8.81 0-.81.05-1.91.14-3.43a19.73 19.73 0 0 1-11.07.03Zm8 22.05Z" style="fill:#263238"/>
  <path d="M437.44 435.12c1.7 4.36 2.82 7.64 2.91 7.89.21.65-2.15 14.37-3.22 17.15s-.64 6.65 6.22 6.65 9.64-3.43 8.78-8.36S450 449.87 450 446c0-2-1-8.12-2.06-14.2-2.77 2.32-6.67 3.2-10.5 3.32Z" style="fill:#fff"/>
  <path d="M443.35 467.31c-3.18 0-5.34-.81-6.42-2.39a5.37 5.37 0 0 1-.27-4.94c1.12-2.89 3.29-16 3.2-16.86s-1.13-3.32-2.89-7.81a.54.54 0 0 1 0-.46.51.51 0 0 1 .4-.23c4.44-.17 7.86-1.24 10.19-3.18a.48.48 0 0 1 .49-.09.52.52 0 0 1 .32.38c1.39 7.92 2.07 12.59 2.07 14.29a34.21 34.21 0 0 0 1.15 7.55c.34 1.5.68 3.05 1 4.79a7.32 7.32 0 0 1-1.32 6.12c-1.52 1.85-4.27 2.83-7.92 2.83Zm-5.19-31.72c1.63 4.2 2.65 7.24 2.66 7.27.32.95-2.27 15-3.22 17.48a4.41 4.41 0 0 0 .15 4c.88 1.27 2.81 1.95 5.6 1.95 3.34 0 5.83-.86 7.19-2.48a6.24 6.24 0 0 0 1.1-5.3c-.3-1.71-.64-3.25-1-4.74a35.12 35.12 0 0 1-1.17-7.77c0-1.59-.63-5.94-1.91-13.3a17.93 17.93 0 0 1-9.4 2.89Z" style="fill:#263238"/>
  <path d="M405.41 376.86a.5.5 0 0 1-.43-.25 100.14 100.14 0 0 1-6.9-15.31c-2.61-7.45-3.43-10-3.61-10.6l-8.05-7.41a.5.5 0 0 1 .68-.74l8.15 7.5a.68.68 0 0 1 .14.23s.68 2.24 3.63 10.69a99.3 99.3 0 0 0 6.82 15.14.49.49 0 0 1-.18.68.45.45 0 0 1-.25.07Zm12.43-41.8h-.06c-3.89-.49-6.64-1.81-8.19-3.92a6.61 6.61 0 0 1-1.24-4.81.49.49 0 0 1 .58-.4.5.5 0 0 1 .4.58 5.73 5.73 0 0 0 1.08 4.05c1.38 1.88 3.9 3.06 7.49 3.51a.5.5 0 0 1-.06 1Zm-25.93 128.53c3.64-.86 7.5-3.21 10.28-5.14s6-1.93 6.65-4.5c.37-1.48-.75-4.09-1.76-7.1a33.33 33.33 0 0 1-6.81 3s-2.36-3.21-4.08-3.21a7.2 7.2 0 0 0-2.1.38 15.56 15.56 0 0 1-2 4.76c-1.28 1.72-7.07 7.29-8.79 8.15s-4.07 2.36-1.71 3.21a20.13 20.13 0 0 0 10.32.45Z" style="fill:#fff"/>
  <path d="M387.6 464.56a19 19 0 0 1-6.15-.93c-.85-.3-1.29-.75-1.32-1.32s.24-1.44 3-2.81c1.62-.81 7.36-6.33 8.61-8a14.69 14.69 0 0 0 1.88-4.59.52.52 0 0 1 .34-.35 7.59 7.59 0 0 1 2.25-.4c1.65 0 3.59 2.27 4.26 3.13a33 33 0 0 0 6.37-2.86.5.5 0 0 1 .43-.05.51.51 0 0 1 .3.31l.55 1.57c.87 2.49 1.56 4.45 1.22 5.81-.46 1.87-2.11 2.55-3.84 3.27a15.13 15.13 0 0 0-3 1.52c-4 2.77-7.52 4.53-10.46 5.22a19.76 19.76 0 0 1-4.44.48Zm4.31-1Zm2.59-16.15a15.18 15.18 0 0 1-2 4.66c-1.36 1.82-7.17 7.4-9 8.29-1.95 1-2.45 1.65-2.43 1.86s.14.25.66.44a19.49 19.49 0 0 0 10 .41c2.81-.66 6.22-2.36 10.12-5.06a16.49 16.49 0 0 1 3.18-1.62c1.63-.68 2.92-1.21 3.26-2.59.27-1.07-.41-3-1.2-5.24l-.35-1a34.19 34.19 0 0 1-6.39 2.75.51.51 0 0 1-.55-.18c-.85-1.16-2.6-3-3.67-3a6.11 6.11 0 0 0-1.63.31Z" style="fill:#263238"/>
  <path d="M452.13 458.45c-.69-4-1.64-7.11-2-10.19l-1 2.47s-1.5-4.71-5.35-4.71c-2.41 0-3.73 2.16-4.39 3.79a86.64 86.64 0 0 1-2.26 10.35c-1.07 2.79-.64 6.65 6.22 6.65s9.65-3.43 8.78-8.36Z" style="fill:#fff"/>
  <path d="M443.35 467.31c-3.18 0-5.34-.81-6.42-2.39a5.37 5.37 0 0 1-.27-4.94 85.36 85.36 0 0 0 2.24-10.25v-.1c.75-1.88 2.21-4.11 4.85-4.11 2.94 0 4.6 2.41 5.34 3.9l.55-1.35a.53.53 0 0 1 .53-.31.49.49 0 0 1 .43.44 53.81 53.81 0 0 0 1 5.39c.33 1.49.68 3 1 4.77a7.32 7.32 0 0 1-1.32 6.12c-1.53 1.85-4.28 2.83-7.93 2.83ZM439.88 450a88.07 88.07 0 0 1-2.28 10.39 4.41 4.41 0 0 0 .15 4c.88 1.27 2.81 1.95 5.6 1.95 3.34 0 5.83-.86 7.19-2.48a6.24 6.24 0 0 0 1.1-5.3c-.3-1.7-.64-3.24-1-4.72-.28-1.26-.55-2.47-.76-3.66l-.31.77a.49.49 0 0 1-.48.31.51.51 0 0 1-.46-.35s-1.44-4.36-4.88-4.36c-2.04-.03-3.23 1.82-3.87 3.45Z" style="fill:#263238"/>
  <path d="M373.87 326s0 5.34 1.78 6.23 11.34 1.11 24.91-.45a126.6 126.6 0 0 0 22-4.25l-2.36-9Z" style="fill:#f15"/>
  <path d="M383.11 333.38c-4 0-6.74-.27-7.68-.74-2-1-2.06-6.1-2.06-6.68a.5.5 0 0 1 .42-.49l46.33-7.47a.49.49 0 0 1 .56.37l2.36 9a.51.51 0 0 1-.33.61 129.74 129.74 0 0 1-22.1 4.27 159.45 159.45 0 0 1-17.5 1.13Zm-8.73-7c.06 2 .48 4.84 1.5 5.35 1.58.8 11 1.07 24.62-.49a132.13 132.13 0 0 0 21.45-4.1l-2.12-8.1Z" style="fill:#263238"/>
  <path d="M397.34 233s-17.15 8.86-25.15 20.29-4.57 33.15-4 45.15.57 20.58-.57 24.29 4.28 4.58 8.85 6 11.44-3.43 15.15-2.58 11.72 1.15 14.86.29 8-4.29 8.86-4.29h5.14a118.93 118.93 0 0 0-4.28-38c-5.72-19.43-7.72-40.86-11.43-46.86s-7.43-4.29-7.43-4.29Z" style="fill:#f15"/>
  <path d="M378.37 329.54a6.58 6.58 0 0 1-2-.29l-2-.6c-3.08-.88-6-1.71-7-3.54a3.11 3.11 0 0 1-.17-2.48c1-3.31 1.18-10.75.55-24.12-.1-2-.27-4.25-.46-6.66-.94-12.29-2.23-29.12 4.55-38.81 8-11.4 25.15-20.35 25.33-20.44.17-.08 4.16-1.83 8.06 4.47 2 3.3 3.52 10.85 5.4 20.42 1.61 8.24 3.44 17.57 6.09 26.57a120.36 120.36 0 0 1 4.3 38.19.49.49 0 0 1-.5.46h-5.14a17.21 17.21 0 0 0-2.53 1.31 30.89 30.89 0 0 1-6.2 3c-3.22.88-11.37.58-15.1-.28-1.56-.36-3.85.42-6.28 1.25a22.67 22.67 0 0 1-6.9 1.55Zm19.18-96.05c-.57.3-17.21 9.07-24.95 20.13-6.58 9.39-5.3 26-4.37 38.16.19 2.41.36 4.69.46 6.68.64 13.5.46 21-.6 24.46a2.12 2.12 0 0 0 .1 1.71c.79 1.46 3.63 2.28 6.37 3.06.69.2 1.39.4 2.06.61 2.38.7 5.38-.3 8.29-1.3 2.56-.87 5-1.7 6.82-1.27 3.63.83 11.52 1.13 14.62.29a31.11 31.11 0 0 0 6-2.87c1.75-1 2.55-1.44 3-1.44H420a119.61 119.61 0 0 0-4.29-37.37c-2.66-9-4.5-18.4-6.11-26.66-1.79-9.09-3.33-16.94-5.27-20.08-3.33-5.43-6.54-4.21-6.78-4.11Z" style="fill:#263238"/>
  <path d="M421.47 333.29a93.79 93.79 0 0 1-1.23 10.8c-.77 3.24-1.55 3.7.3 3.7s2.47-5.24 2.47-5.24l2.16 2s3.7 7.87 5.09 8.49 2 0 1.24-2-2.16-6.17-2.16-6.17l1.08.62s3.85 6.48 4.78 7.1 1.7 1.23 1.85-.31-3.7-7.1-3.7-7.1l5.24 6s1.08 1.23 1.55 0-3.09-6.33-3.09-6.33l-.62-1.08a32.51 32.51 0 0 0 2.93 2c.47.15 1.7.77 2.32.46s-.62-1.85-1.7-3.08-3.85-3.86-4.93-5.71l-2.63-4.48Z" style="fill:#fff"/>
  <path d="M431.14 353.77a2.81 2.81 0 0 1-1.08-.27c-1.45-.65-4.58-7.12-5.3-8.65l-1.39-1.29c-.3 1.7-1.08 4.73-2.82 4.73-.61 0-1.18 0-1.48-.43s-.15-1 .14-1.95c.15-.49.35-1.12.54-1.94a92.83 92.83 0 0 0 1.25-10.71.51.51 0 0 1 .49-.47l11-.31a.55.55 0 0 1 .44.25s1.55 2.62 2.63 4.48a29.14 29.14 0 0 0 3.65 4.31l1.23 1.32c1.56 1.78 2.09 2.67 2 3.3a.77.77 0 0 1-.43.56 3.25 3.25 0 0 1-2.39-.32l-.3-.12a6.42 6.42 0 0 1-1-.59c1.13 1.73 2.82 4.6 2.41 5.69a1.18 1.18 0 0 1-.89.86 1.8 1.8 0 0 1-1.49-.7l-1.43-1.64a5.57 5.57 0 0 1 .76 2.44 1.57 1.57 0 0 1-.68 1.33c-.57.26-1.16-.13-1.8-.56l-.15-.1c-.84-.56-3.43-4.76-4.54-6.6.47 1.39 1.14 3.3 1.58 4.46s.5 2.14 0 2.61a1.12 1.12 0 0 1-.95.31ZM423 342.05a.47.47 0 0 1 .34.13l2.16 2a.44.44 0 0 1 .12.15c1.78 3.78 4.07 7.9 4.84 8.24.55.25.77.19.8.16s.16-.48-.24-1.53c-.77-2-2.15-6.15-2.17-6.19a.5.5 0 0 1 .73-.59l1.08.62a.58.58 0 0 1 .18.17c1.86 3.14 4.11 6.59 4.63 6.94l.15.1a3.52 3.52 0 0 0 .83.47 3.83 3.83 0 0 0 .09-.51c.1-.94-2.05-4.52-3.61-6.76a.5.5 0 0 1 .79-.62l5.24 6c.2.22.48.39.57.37s.07-.06.13-.22c.2-.53-1.19-3.22-3-5.86L436 344a.49.49 0 0 1 .1-.62.5.5 0 0 1 .63 0 30.91 30.91 0 0 0 2.79 1.93l.36.14a4.22 4.22 0 0 0 1.44.39 9.29 9.29 0 0 0-1.71-2.35l-1.2-1.28a28.67 28.67 0 0 1-3.8-4.5l-2.47-4.22-10.2.29a85.74 85.74 0 0 1-1.22 10.43c-.2.83-.39 1.49-.55 2a4.91 4.91 0 0 0-.27 1.08 3.32 3.32 0 0 1 .65 0c.95 0 1.74-2.86 2-4.8a.48.48 0 0 1 .32-.41Zm-3.11 5.26Z" style="fill:#263238"/>
  <path d="M417.46 324.65s.77 8.49 1.7 9.26 14.34-.15 15-.15 0-11 0-11-9.87-.77-11.42-.46a31.15 31.15 0 0 0-5.28 2.35Z" style="fill:#f15"/>
  <path d="M422.55 334.72c-2.51 0-3.4-.17-3.71-.43-1-.81-1.64-7-1.88-9.59a.52.52 0 0 1 .26-.49 31.28 31.28 0 0 1 5.39-2.36c1.56-.32 10.53.37 11.55.45a.5.5 0 0 1 .46.47c.59 10.58.08 11.13-.09 11.31a.67.67 0 0 1-.41.18l-1.28.06c-4.96.28-8.19.4-10.29.4Zm-4.55-9.78c.36 3.82 1 8.1 1.49 8.59.42.21 3.09.37 13.31-.21l1-.05a83 83 0 0 0-.16-10c-3-.23-9.69-.67-10.84-.44a27.15 27.15 0 0 0-4.8 2.11Zm16.13 8.32Z" style="fill:#263238"/>
  <path d="M395.34 251.33s11.14 41.72 12.86 52.58 2 19.72 5.71 21.44 14.58-1.43 14.58-1.43 4.57 2.28 8 .57 3.71-6 2-13.15-17.15-46.29-21.43-53.15-11.72-21.43-13.72-22.58-9.72-2.28-11.43 3.15" style="fill:#f15"/>
  <path d="M417.12 326.35a8.48 8.48 0 0 1-3.42-.55c-3.19-1.47-4-7.29-5.07-15.34-.28-2.07-.57-4.21-.93-6.47-1.7-10.71-12.7-52.11-12.85-52.53a.5.5 0 0 1 .36-.61.49.49 0 0 1 .61.35c.11.42 11.17 41.87 12.87 52.63.36 2.27.65 4.42.93 6.5 1 7.44 1.81 13.32 4.5 14.56 3.5 1.62 14.12-1.42 14.23-1.45a.45.45 0 0 1 .36 0s4.4 2.15 7.55.57c3-1.49 3.5-5.25 1.74-12.58s-17.21-46.35-21.37-53c-1.55-2.48-3.54-6-5.46-9.44-3.25-5.77-6.92-12.3-8.08-13a10.78 10.78 0 0 0-7.65-.34 4.92 4.92 0 0 0-3.06 3.2.49.49 0 0 1-.62.32.49.49 0 0 1-.33-.62 5.86 5.86 0 0 1 3.64-3.83 11.62 11.62 0 0 1 8.52.4c1.3.74 4.06 5.54 8.45 13.34 1.92 3.41 3.9 6.94 5.44 9.4 4.19 6.7 19.69 45.8 21.49 53.31 1.89 7.87 1.22 12-2.26 13.71-3.26 1.62-7.36-.07-8.27-.49a50.21 50.21 0 0 1-11.32 1.96Z" style="fill:#263238"/>
  <path d="m384.83 194.68 8.4 20.69s-2 10-6.42 15.25-8.43 10-7.63 16.46 3.61 4 3.61 4 15.42-21.07 25.06-10.47l9.21 17.56s10.7 1.44 11.5-10.2-2.65-20.89-7-33.17c-2.56-7.28-2.34-16.32-8-23.54-4.22-5.42-16-9.72-24.25-6.95a7.8 7.8 0 0 0-4.48 10.37Z" style="fill:#263238"/>
  <path d="M418.19 258.75a8.59 8.59 0 0 1-1.2-.07.52.52 0 0 1-.38-.26l-9.17-17.5a7.87 7.87 0 0 0-6.38-2.76c-8.41.45-17.77 13.11-17.86 13.23l-.08.09a2.31 2.31 0 0 1-2.17.43c-1.18-.45-1.92-2-2.27-4.77-.83-6.7 3.33-11.63 7.75-16.84 4-4.72 6-13.64 6.28-14.89l-8.34-20.54a8.53 8.53 0 0 1 .14-6.74 8 8 0 0 1 4.72-4.28c8.46-2.85 20.48 1.56 24.8 7.12 3.81 4.89 5 10.52 6.09 16a61 61 0 0 0 1.95 7.73l.5 1.42c4.06 11.54 7.27 20.65 6.49 31.95-.26 3.73-1.53 6.55-3.79 8.4a11.36 11.36 0 0 1-7.08 2.28Zm-.82-1a10.77 10.77 0 0 0 7.27-2.07c2-1.66 3.19-4.25 3.42-7.69.77-11.09-2.41-20.12-6.43-31.55l-.5-1.42a62.24 62.24 0 0 1-2-7.86c-1.1-5.33-2.23-10.84-5.9-15.55-4.09-5.27-15.83-9.43-23.69-6.78a7 7 0 0 0-4.13 3.75 7.57 7.57 0 0 0-.13 5.94l8.41 20.69a.54.54 0 0 1 0 .28c-.08.42-2.08 10.23-6.53 15.48-4.27 5.05-8.3 9.81-7.51 16.08.38 3 1.18 3.79 1.63 4a1.25 1.25 0 0 0 1.12-.23c.78-1.06 9.9-13.13 18.58-13.58a8.73 8.73 0 0 1 7.21 3.13.36.36 0 0 1 .07.1Z" style="fill:#263238"/>
  <path d="M413.64 191.28a7 7 0 0 1 7.07-2c4.46 1.19 8.63 13.39 9.22 20.82s.3 12.49 2.08 12.79a5.68 5.68 0 0 0 3.57-.89s1.49 3.86-3.57 6.24-14-.59-14.57-9.81-3.8-27.15-3.8-27.15Z" style="fill:#263238"/>
  <path d="M428.28 229.52a11.34 11.34 0 0 1-11.34-11.07c-.59-9.09-3.76-26.91-3.79-27.09a.48.48 0 0 1 .1-.4 7.43 7.43 0 0 1 7.59-2.17c4.68 1.25 9 13.57 9.59 21.26.15 1.83.24 3.51.32 5 .21 3.84.39 7.16 1.34 7.32a5.29 5.29 0 0 0 3.22-.82.52.52 0 0 1 .42-.06.53.53 0 0 1 .32.3s1.59 4.33-3.82 6.88a9.29 9.29 0 0 1-3.95.85Zm-14.11-38.09c.39 2.18 3.22 18.4 3.77 27a10.42 10.42 0 0 0 5 8.67 9.73 9.73 0 0 0 8.82.72c3.5-1.64 3.62-4 3.46-5a5.7 5.7 0 0 1-3.33.63c-1.74-.29-1.9-3.11-2.18-8.25-.08-1.49-.17-3.17-.32-5-.58-7.24-4.64-19.25-8.85-20.37a6.53 6.53 0 0 0-6.37 1.6Z" style="fill:#263238"/>
</svg>
