<svg xmlns="http://www.w3.org/2000/svg" viewBox="0 0 500 500">
  <g>
    <rect x="383.56" y="47.16" width="72.66" height="75.74" style="fill:#e0e0e0"></rect>
    <rect x="378.63" y="47.16" width="72.66" height="75.74" style="fill:#fafafa"></rect>
    <path d="M451.32,122.92H378.61V47.14h72.71Zm-72.66,0h72.61V47.18H378.66Z" style="fill:#e0e0e0"></path>
    <rect x="388.4" y="57.34" width="53.12" height="55.38" style="fill:#fff"></rect>
    <path
      d="M388.4,113.09a8.93,8.93,0,0,1-1.31,1.52c-.85.9-2,2.11-3.38,3.42s-2.56,2.49-3.47,3.33a8.15,8.15,0,0,1-1.53,1.27,8.19,8.19,0,0,1,1.3-1.51c.85-.9,2.05-2.11,3.39-3.43s2.57-2.5,3.47-3.33A8.55,8.55,0,0,1,388.4,113.09Z"
      style="fill:#e0e0e0"></path>
    <path
      d="M441.53,113a8.5,8.5,0,0,1,1.52,1.31c.9.85,2.11,2,3.42,3.38s2.49,2.56,3.33,3.47a9.11,9.11,0,0,1,1.28,1.53,7.67,7.67,0,0,1-1.52-1.3c-.9-.85-2.11-2-3.43-3.38s-2.5-2.58-3.33-3.48A8.55,8.55,0,0,1,441.53,113Z"
      style="fill:#e0e0e0"></path>
    <path
      d="M441.38,57.49A8.73,8.73,0,0,1,442.69,56c.85-.89,2-2.1,3.38-3.42s2.56-2.49,3.47-3.32a7.85,7.85,0,0,1,1.54-1.28,9.41,9.41,0,0,1-1.31,1.52c-.85.89-2,2.11-3.38,3.43s-2.57,2.49-3.48,3.32A8.39,8.39,0,0,1,441.38,57.49Z"
      style="fill:#e0e0e0"></path>
    <path
      d="M388.26,57.62a8.73,8.73,0,0,1-1.53-1.31c-.89-.85-2.1-2-3.42-3.37s-2.49-2.57-3.32-3.48a7.66,7.66,0,0,1-1.28-1.53,8.4,8.4,0,0,1,1.52,1.3c.89.85,2.11,2.05,3.43,3.39s2.49,2.57,3.32,3.47A8.39,8.39,0,0,1,388.26,57.62Z"
      style="fill:#e0e0e0"></path>
    <path
      d="M441.38,112.72s0-.1,0-.27,0-.45,0-.77c0-.7,0-1.7,0-3,0-2.63,0-6.44-.05-11.29,0-9.7-.06-23.52-.1-40.06l.2.2-53,0h0l.24-.23c0,20.33,0,39.34,0,55.38l-.2-.2,38.36.1,10.78,0,2.85,0,.73,0a1,1,0,0,1,.26,0h-.95l-2.81,0-10.73.06-38.49.1h-.2v-.2c0-16,0-35,0-55.38V57.1h.24l53,0h.21v.21c0,16.6-.08,30.46-.11,40.19,0,4.83,0,8.63-.05,11.24,0,1.28,0,2.27,0,3,0,.32,0,.57,0,.75A.93.93,0,0,1,441.38,112.72Z"
      style="fill:#e0e0e0"></path>
    <rect x="406.1" y="76.16" width="17.73" height="17.73" style="fill:#ebebeb"></rect>
    <rect x="383.56" y="142.65" width="72.66" height="75.74" style="fill:#e0e0e0"></rect>
    <rect x="378.63" y="142.65" width="72.66" height="75.74" style="fill:#fafafa"></rect>
    <path d="M451.32,218.41H378.61V142.62h72.71Zm-72.66,0h72.61V142.67H378.66Z" style="fill:#e0e0e0"></path>
    <rect x="388.4" y="152.83" width="53.12" height="55.38" style="fill:#fff"></rect>
    <path
      d="M388.4,208.57a8.73,8.73,0,0,1-1.31,1.53c-.85.89-2,2.11-3.38,3.42s-2.56,2.49-3.47,3.32a8,8,0,0,1-1.53,1.28,8.4,8.4,0,0,1,1.3-1.52c.85-.89,2.05-2.11,3.39-3.43s2.57-2.49,3.47-3.32A8.39,8.39,0,0,1,388.4,208.57Z"
      style="fill:#e0e0e0"></path>
    <path
      d="M441.53,208.44a8.5,8.5,0,0,1,1.52,1.31c.9.85,2.11,2,3.42,3.38s2.49,2.56,3.33,3.47a9.11,9.11,0,0,1,1.28,1.53,7.67,7.67,0,0,1-1.52-1.3c-.9-.85-2.11-2.05-3.43-3.39s-2.5-2.57-3.33-3.47A8.55,8.55,0,0,1,441.53,208.44Z"
      style="fill:#e0e0e0"></path>
    <path
      d="M441.38,153a8.73,8.73,0,0,1,1.31-1.53c.85-.89,2-2.11,3.38-3.42s2.56-2.49,3.47-3.32a7.85,7.85,0,0,1,1.54-1.28,9.15,9.15,0,0,1-1.31,1.51c-.85.9-2,2.11-3.38,3.44s-2.57,2.49-3.48,3.32A8.39,8.39,0,0,1,441.38,153Z"
      style="fill:#e0e0e0"></path>
    <path
      d="M388.26,153.11a8.73,8.73,0,0,1-1.53-1.31c-.89-.85-2.1-2-3.42-3.38s-2.49-2.56-3.32-3.47a8,8,0,0,1-1.28-1.53,8.4,8.4,0,0,1,1.52,1.3c.89.85,2.11,2.05,3.43,3.39s2.49,2.57,3.32,3.47A8.39,8.39,0,0,1,388.26,153.11Z"
      style="fill:#e0e0e0"></path>
    <path
      d="M441.38,208.21s0-.1,0-.27,0-.45,0-.78c0-.69,0-1.69,0-3,0-2.62,0-6.44-.05-11.28,0-9.7-.06-23.52-.1-40.06l.2.2-53,0h0l.24-.23c0,20.32,0,39.34,0,55.38l-.2-.21,38.36.11,10.78,0,2.85,0h.73a1.33,1.33,0,0,1,.26,0h-.95l-2.81,0-10.73.05-38.49.11h-.2v-.2c0-16,0-35.06,0-55.38v-.24h.24l53,0h.21v.21c0,16.6-.08,30.46-.11,40.19,0,4.83,0,8.63-.05,11.24,0,1.28,0,2.26,0,3,0,.32,0,.57,0,.75A.93.93,0,0,1,441.38,208.21Z"
      style="fill:#e0e0e0"></path>
    <rect x="406.1" y="171.65" width="17.73" height="17.73" style="fill:#ebebeb"></rect>
    <rect x="35.49" y="47.14" width="77.99" height="113.04" style="fill:#e0e0e0"></rect>
    <rect x="31.58" y="47.14" width="77.99" height="113.04" style="fill:#f5f5f5"></rect>
    <rect x="41.27" y="59.38" width="58.61" height="88.56" style="fill:#fff"></rect>
    <path
      d="M99.88,147.94s0-.15,0-.43,0-.71,0-1.26c0-1.11,0-2.74,0-4.86,0-4.24,0-10.43,0-18.24,0-15.62-.06-37.73-.1-63.77l.19.19-58.6,0h0l.21-.21c0,33.41,0,64.21,0,88.56l-.17-.17,42.66.09,11.79,0,3.09,0,1.07,0-1,0-3.06,0L84,148l-42.77.09H41.1v-.17c0-24.35,0-55.15,0-88.56v-.21h.22l58.6,0h.2v.19c0,26.09-.07,48.25-.1,63.9,0,7.79,0,14,0,18.2,0,2.09,0,3.71,0,4.81,0,.54,0,1,0,1.24S99.88,147.94,99.88,147.94Z"
      style="fill:#e0e0e0"></path>
    <path
      d="M109.79,47.14a13.52,13.52,0,0,1-1.39,2c-.9,1.21-2.19,2.86-3.66,4.64s-2.84,3.36-3.85,4.48A13.07,13.07,0,0,1,99.17,60a14.62,14.62,0,0,1,1.49-2c1-1.26,2.33-2.83,3.76-4.55L108.17,49A14.72,14.72,0,0,1,109.79,47.14Z"
      style="fill:#e0e0e0"></path>
    <path d="M100.18,147.65a72.43,72.43,0,0,0,10.23,12.79" style="fill:#fff"></path>
    <path
      d="M110.41,160.44a11.78,11.78,0,0,1-1.79-1.62c-1-1.06-2.43-2.58-3.85-4.35a57.78,57.78,0,0,1-3.4-4.72,12.33,12.33,0,0,1-1.19-2.1,15.24,15.24,0,0,1,1.44,1.93c.86,1.21,2.07,2.86,3.48,4.62s2.75,3.31,3.74,4.41A16.74,16.74,0,0,1,110.41,160.44Z"
      style="fill:#e0e0e0"></path>
    <path d="M31.57,160.09l10.22-12.6" style="fill:#fff"></path>
    <path
      d="M41.79,147.49a80.64,80.64,0,0,1-4.95,6.43,77,77,0,0,1-5.27,6.17,79,79,0,0,1,4.94-6.43A78.26,78.26,0,0,1,41.79,147.49Z"
      style="fill:#e0e0e0"></path>
    <path
      d="M31.58,47.14a70.42,70.42,0,0,1,5,5.92,69.4,69.4,0,0,1,4.63,6.2,73.77,73.77,0,0,1-5-5.93A72,72,0,0,1,31.58,47.14Z"
      style="fill:#e0e0e0"></path>
    <rect x="62" y="77.36" width="19.63" height="55.72" style="fill:#e0e0e0"></rect>
    <rect x="33.1" y="436.48" width="81.01" height="8.67" transform="translate(147.21 881.63) rotate(180)"
      style="fill:#ebebeb"></rect>
    <path d="M81.45,378.48c0,2-32.27,87.44-32.27,87.44H36.9l32.19-87.44Z" style="fill:#ebebeb"></path>
    <rect x="112.9" y="374.56" width="12.24" height="91.37" transform="translate(238.04 840.48) rotate(180)"
      style="fill:#ebebeb"></rect>
    <rect x="45.26" y="404.75" width="73.76" height="8.67" transform="translate(164.28 818.16) rotate(180)"
      style="fill:#ebebeb"></rect>
    <rect x="58.63" y="373.01" width="67.73" height="8.67" transform="translate(185 754.7) rotate(180)"
      style="fill:#ebebeb"></rect>
    <path d="M57.15,381.69c0,.14,15.28.25,34.12.25s34.13-.11,34.13-.25-15.28-.26-34.13-.26S57.15,381.55,57.15,381.69Z"
      style="fill:#e0e0e0"></path>
    <path
      d="M112.9,381.33c.15,0,.26,18.93.26,42.28s-.11,42.28-.26,42.28-.26-18.93-.26-42.28S112.76,381.33,112.9,381.33Z"
      style="fill:#e0e0e0"></path>
    <path
      d="M79.94,382.35a.73.73,0,0,1,0,.22c0,.18-.12.39-.2.65-.21.6-.48,1.42-.83,2.46-.73,2.13-1.81,5.21-3.17,9-2.71,7.59-6.57,18-10.89,29.54l-11,29.5-3.32,8.94c-.39,1-.69,1.83-.92,2.43l-.25.62a.93.93,0,0,1-.1.21.73.73,0,0,1,0-.22l.2-.65.83-2.46c.72-2.13,1.81-5.21,3.17-9C56.14,446,60,435.56,64.32,424s8.19-21.9,11-29.48l3.32-8.95c.39-1,.69-1.83.92-2.43l.25-.62A.93.93,0,0,1,79.94,382.35Z"
      style="fill:#e0e0e0"></path>
    <path
      d="M67.74,381.87a1.35,1.35,0,0,1-.06.23l-.2.65c-.21.6-.48,1.43-.83,2.47-.73,2.15-1.82,5.24-3.19,9-2.73,7.64-6.61,18.14-11,29.72s-8.24,22-11.1,29.66c-1.39,3.76-2.53,6.82-3.34,9-.39,1-.69,1.84-.92,2.44l-.25.63a.72.72,0,0,1-.11.21,1.16,1.16,0,0,1,.06-.22c0-.18.12-.39.2-.65.2-.61.48-1.44.83-2.48.73-2.14,1.82-5.24,3.19-9.05,2.73-7.63,6.61-18.13,11-29.72s8.24-22,11.09-29.65l3.35-9c.38-1,.69-1.84.92-2.44l.25-.63A.72.72,0,0,1,67.74,381.87Z"
      style="fill:#e0e0e0"></path>
    <path
      d="M112.37,289.7a10.12,10.12,0,1,1-8.39-10,10.21,10.21,0,0,1,8.39,10c0,3.5,5.5,3.51,5.45,0a15.81,15.81,0,0,0-10.24-14.63,15.58,15.58,0,0,0-18.72,22.58,15.77,15.77,0,0,0,16.4,7.32c7.28-1.31,12.46-8,12.56-15.27C117.87,286.19,112.42,286.19,112.37,289.7Z"
      style="fill:#f5f5f5"></path>
    <path
      d="M85.55,302q-3.1,3.35-6.49,6.42a2.75,2.75,0,0,0,0,3.85,2.79,2.79,0,0,0,3.86,0c2.25-2,4.42-4.19,6.48-6.42a2.83,2.83,0,0,0,.8-1.93A2.72,2.72,0,0,0,85.55,302Z"
      style="fill:#f5f5f5"></path>
    <path d="M99.28,309.78v9.33a2.73,2.73,0,0,0,5.45,0v-9.33a2.73,2.73,0,0,0-5.45,0Z" style="fill:#f5f5f5"></path>
    <path
      d="M114.32,305.82l6.79,7.08a2.76,2.76,0,0,0,3.86,0,2.79,2.79,0,0,0,0-3.86l-6.8-7.08a2.75,2.75,0,0,0-3.85,0,2.78,2.78,0,0,0,0,3.86Z"
      style="fill:#f5f5f5"></path>
    <path
      d="M118.47,276.74c2.07-2.23,4.23-4.38,6.48-6.42a2.75,2.75,0,0,0,0-3.86,2.78,2.78,0,0,0-3.85,0q-3.37,3.07-6.49,6.42a2.89,2.89,0,0,0-.79,1.93,2.77,2.77,0,0,0,.79,1.93,2.73,2.73,0,0,0,3.86,0Z"
      style="fill:#f5f5f5"></path>
    <path d="M104.74,269v-9.33a2.73,2.73,0,0,0-5.45,0V269a2.73,2.73,0,0,0,5.45,0Z" style="fill:#f5f5f5"></path>
    <path
      d="M89.7,272.92l-6.8-7.08a2.75,2.75,0,0,0-3.85,0,2.78,2.78,0,0,0,0,3.86l6.8,7.08a2.75,2.75,0,0,0,3.85,0,2.78,2.78,0,0,0,0-3.86Z"
      style="fill:#f5f5f5"></path>
    <path d="M122.6,292.45h10a2.73,2.73,0,0,0,0-5.45h-10a2.73,2.73,0,0,0,0,5.45Z" style="fill:#f5f5f5"></path>
    <path d="M71.1,292.56H82.38a2.73,2.73,0,0,0,0-5.45H71.1a2.73,2.73,0,1,0,0,5.45Z" style="fill:#f5f5f5"></path>
    <path
      d="M80.61,195.31c-11.33,2.81-18.67,15-16,26.31s13.62,18.89,25,18.08c6.06-.43,11.62-3.38,14.48-8.89,1.28-2.47-2.45-4.66-3.73-2.19-4.19,8.07-15.12,8.33-22.31,4.24-8.18-4.64-12.27-15.16-7.95-23.79a18,18,0,0,1,11.61-9.59c2.7-.67,1.55-4.84-1.15-4.17Z"
      style="fill:#f5f5f5"></path>
    <path
      d="M79.15,196.54a23.51,23.51,0,0,0-2.23,20.2,23.18,23.18,0,0,0,25.5,14.8,2.18,2.18,0,0,0,1.51-2.66,2.22,2.22,0,0,0-2.66-1.51A19.09,19.09,0,0,1,86.34,223,18.5,18.5,0,0,1,80,208a18.77,18.77,0,0,1,2.93-9.27c1.5-2.35-2.24-4.52-3.73-2.18Z"
      style="fill:#f5f5f5"></path>
    <rect x="368.58" y="271.2" width="97.67" height="184.62" style="fill:#e0e0e0"></rect>
    <rect x="339.6" y="271.2" width="97.67" height="184.62" style="fill:#f5f5f5"></rect>
    <path d="M430.07,309.2H346.24V279.94h83.83Zm-82.8-1H429V281H347.27Z" style="fill:#e0e0e0"></path>
    <path
      d="M372.82,280.45h31.81a0,0,0,0,1,0,0v.88a4.95,4.95,0,0,1-4.95,4.95H377.76a4.95,4.95,0,0,1-4.95-4.95v-.88A0,0,0,0,1,372.82,280.45Z"
      style="fill:#ebebeb"></path>
    <path d="M430.07,346.38H346.24V317.11h83.83Zm-82.8-1H429V318.14H347.27Z" style="fill:#e0e0e0"></path>
    <path
      d="M372.82,317.63h31.81a0,0,0,0,1,0,0v.88a4.95,4.95,0,0,1-4.95,4.95H377.76a4.95,4.95,0,0,1-4.95-4.95v-.88A0,0,0,0,1,372.82,317.63Z"
      style="fill:#ebebeb"></path>
    <path d="M430.07,383.55H346.24V354.29h83.83Zm-82.8-1H429v-27.2H347.27Z" style="fill:#e0e0e0"></path>
    <path
      d="M372.82,354.8h31.81a0,0,0,0,1,0,0v.88a4.95,4.95,0,0,1-4.95,4.95H377.76a4.95,4.95,0,0,1-4.95-4.95v-.88A0,0,0,0,1,372.82,354.8Z"
      style="fill:#ebebeb"></path>
    <path d="M430.07,420.73H346.24V391.46h83.83Zm-82.8-1H429V392.49H347.27Z" style="fill:#e0e0e0"></path>
    <path
      d="M372.82,392h31.81a0,0,0,0,1,0,0v.88a4.95,4.95,0,0,1-4.95,4.95H377.77a4.95,4.95,0,0,1-4.95-4.95V392A0,0,0,0,1,372.82,392Z"
      style="fill:#ebebeb"></path>
    <rect x="335.26" y="264.29" width="106.08" height="9.2" style="fill:#ebebeb"></rect>
    <rect x="441.35" y="264.29" width="31.9" height="9.2" style="fill:#e0e0e0"></rect>
    <rect x="339.6" y="455.82" width="5.13" height="9.43" style="fill:#e0e0e0"></rect>
    <rect x="371.31" y="455.82" width="5.13" height="9.43" style="fill:#e0e0e0"></rect>
    <rect x="429.23" y="455.82" width="5.13" height="9.43" style="fill:#e0e0e0"></rect>
    <rect x="458.2" y="455.82" width="5.13" height="9.43" style="fill:#e0e0e0"></rect>
  </g>
  <g>
    <path
      d="M455.36,465.92c0,.15-91.95.26-205.35.26s-205.37-.11-205.37-.26,91.93-.26,205.37-.26S455.36,465.78,455.36,465.92Z"
      style="fill:#263238"></path>
  </g>
  <g>
    <path d="M319.76,435.56s-4.41-30.28-4-47.9,0-37.44,0-37.44h2s-1.38,35,.12,56.06,5.43,29.28,5.43,29.28h-3.52"
      style="fill:#263238"></path>
    <path
      d="M332.88,316.15a5.4,5.4,0,0,0-1.85-2.71c-1.29-.81-3-.47-4.42,0-6.13,2.17-11.56,13.61-14,19.62l8.14,27.43C335.4,346.89,338,329,332.88,316.15Z"
      style="fill:#455a64"></path>
    <path
      d="M330.55,314.55a1.48,1.48,0,0,1-.12.36c-.1.26-.23.59-.4,1-.35.86-.85,2.12-1.45,3.68-1.2,3.11-2.73,7.47-4.09,12.37s-2.3,9.43-2.88,12.72c-.29,1.64-.51,3-.65,3.9-.07.43-.12.78-.17,1.06a1.54,1.54,0,0,1-.08.37,1.49,1.49,0,0,1,0-.37c0-.29.07-.64.12-1.08.09-.93.28-2.27.54-3.92a119,119,0,0,1,2.78-12.77,117.16,117.16,0,0,1,4.2-12.37c.63-1.55,1.16-2.79,1.55-3.64l.46-1A2.07,2.07,0,0,1,330.55,314.55Z"
      style="fill:#263238"></path>
    <path
      d="M317.09,367.1a24.84,24.84,0,0,1-12.55-20.86c-.29-6.08,1.58-12.06,3.7-17.77a2.26,2.26,0,0,1,.86-1.29,2.18,2.18,0,0,1,2.08.32c5.54,3.16,8.9,9.18,10.69,15.3a30.92,30.92,0,0,1,1.26,12.59,20.91,20.91,0,0,1-6,11.71"
      style="fill:#455a64"></path>
    <path
      d="M317.09,367.1a1.82,1.82,0,0,1,0-.37c0-.27,0-.62,0-1.05,0-.91,0-2.24-.11-3.87a106.94,106.94,0,0,0-1.42-12.67c-.85-4.91-1.88-9.31-2.63-12.49-.38-1.56-.68-2.83-.91-3.77-.09-.42-.17-.76-.23-1a1.59,1.59,0,0,1-.06-.36,2,2,0,0,1,.12.35l.3,1c.25.88.6,2.16,1,3.74.81,3.17,1.88,7.57,2.73,12.49a92.4,92.4,0,0,1,1.32,12.72c0,1.64,0,3,0,3.88,0,.43,0,.78,0,1.06A2,2,0,0,1,317.09,367.1Z"
      style="fill:#263238"></path>
    <g style="opacity:0.30000000000000004">
      <path
        d="M317.09,367.1a24.84,24.84,0,0,1-12.55-20.86c-.29-6.08,1.58-12.06,3.7-17.77a2.26,2.26,0,0,1,.86-1.29,2.18,2.18,0,0,1,2.08.32c5.54,3.16,8.9,9.18,10.69,15.3a30.92,30.92,0,0,1,1.26,12.59,20.91,20.91,0,0,1-6,11.71">
      </path>
    </g>
    <path
      d="M325.7,413.44c7.51,1.65,13.69,6.94,20.94,9.52,4.79,1.7,10.22,2.31,14,5.66-.91-2.32-3.09-3.87-5.21-5.19a93.94,93.94,0,0,0-19-9.06c-3.41-1.17-7.11-2.16-10.58-1.19"
      style="fill:#455a64"></path>
    <path d="M314.84,420.13c-9.41-.16-19.31-8.16-28.67-8.64,9.8-3.16,23.82-.58,28.67,8.64" style="fill:#455a64"></path>
    <path
      d="M318.52,397.56a30.6,30.6,0,0,1,15-1,91.3,91.3,0,0,1,14.68,4c-.48-3.26-3.12-5.72-5.6-7.89a39,39,0,0,0-5.9-4.53,13.19,13.19,0,0,0-7.07-2,11.16,11.16,0,0,0-7.8,3.94,12.94,12.94,0,0,0-3.34,7.51"
      style="fill:#455a64"></path>
    <path
      d="M299.21,387.18c-5.92-5.06-14.89-4.56-22.67-4.39A184.53,184.53,0,0,1,311.7,404.7C312,399.2,306.69,393.56,299.21,387.18Z"
      style="fill:#455a64"></path>
    <g style="opacity:0.30000000000000004">
      <path
        d="M299.21,387.18c-5.92-5.06-14.89-4.56-22.67-4.39A184.53,184.53,0,0,1,311.7,404.7C312,399.2,306.69,393.56,299.21,387.18Z">
      </path>
    </g>
    <path
      d="M321.18,380.2a65.26,65.26,0,0,1,9.1-5.29c3.12-1.42,6-3.68,9-5.31,3.9-2.11,7.28-5.05,10.87-7.67s7.51-5,11.9-5.68a23.52,23.52,0,0,0-10.83.63,69.46,69.46,0,0,0-10.2,4c-4.62,2.08-9.32,4.21-13.09,7.59s-7.19,6.71-6.79,11.76"
      style="fill:#455a64"></path>
    <path
      d="M346.47,420.13a1.38,1.38,0,0,1-.3-.13l-.82-.43c-.71-.37-1.73-.93-3-1.58-.63-.33-1.33-.68-2.09-1s-1.58-.74-2.45-1.12a36.29,36.29,0,0,0-5.79-2,12.51,12.51,0,0,0-6-.15,16,16,0,0,0-2.56.77,12.78,12.78,0,0,0-2.06,1.05,13.26,13.26,0,0,0-2.6,2.15c-.54.58-.81.94-.83.92a1.2,1.2,0,0,1,.17-.28c.12-.17.31-.42.57-.73a11.91,11.91,0,0,1,2.56-2.25,12.38,12.38,0,0,1,2.09-1.12,16.74,16.74,0,0,1,2.59-.81,12.5,12.5,0,0,1,6.18.13,34.37,34.37,0,0,1,5.84,2.06c.87.38,1.69.76,2.44,1.15s1.46.73,2.08,1.08c1.27.68,2.28,1.27,3,1.68l.79.48A1.31,1.31,0,0,1,346.47,420.13Z"
      style="fill:#263238"></path>
    <path
      d="M307.82,415.47s.22,0,.59.17a12.72,12.72,0,0,1,1.54.66,18.79,18.79,0,0,1,4.49,3.19,18.4,18.4,0,0,1,3.36,4.36,12.92,12.92,0,0,1,.73,1.51,2.23,2.23,0,0,1,.2.58c-.06,0-.41-.77-1.13-2a20.83,20.83,0,0,0-7.76-7.46C308.61,415.84,307.8,415.52,307.82,415.47Z"
      style="fill:#263238"></path>
    <path
      d="M287,386.7a1.87,1.87,0,0,1,.4.12l1.13.4,1.78.66c.7.26,1.45.64,2.3,1a54.29,54.29,0,0,1,12.25,7.81,61,61,0,0,1,5.71,5.62,62.42,62.42,0,0,1,4.05,5.14c1.07,1.52,1.89,2.78,2.45,3.66l.64,1a2,2,0,0,1,.21.36,1.5,1.5,0,0,1-.26-.32c-.17-.22-.41-.55-.7-1-.59-.85-1.44-2.1-2.53-3.6s-2.47-3.23-4.09-5.06a63.21,63.21,0,0,0-5.7-5.58,57.68,57.68,0,0,0-12.13-7.84c-.84-.39-1.59-.78-2.27-1.06l-1.75-.7-1.11-.46A1.51,1.51,0,0,1,287,386.7Z"
      style="fill:#263238"></path>
    <path
      d="M332.63,392.27a2.78,2.78,0,0,1-.75-.09L331,392c-.34-.07-.73-.07-1.16-.11a11.81,11.81,0,0,0-6.46,1.27,11.62,11.62,0,0,0-2.95,2.19,13.62,13.62,0,0,0-1.89,2.33,20.53,20.53,0,0,0-1.29,2.47,2.5,2.5,0,0,1,.19-.73,10.07,10.07,0,0,1,.9-1.86,12.91,12.91,0,0,1,1.87-2.43,11.5,11.5,0,0,1,9.65-3.48c.43.06.83.08,1.17.16l.86.22A3.25,3.25,0,0,1,332.63,392.27Z"
      style="fill:#263238"></path>
    <path
      d="M342.08,363a1.84,1.84,0,0,1-.35.22l-1.05.57c-.92.49-2.23,1.21-3.82,2.15s-3.46,2.13-5.45,3.55a45.25,45.25,0,0,0-6.09,5.1,15.64,15.64,0,0,0-2.49,3.22c-.61,1.18-1.2,2.32-1.74,3.42a63.07,63.07,0,0,0-2.62,5.95,38.84,38.84,0,0,0-1.27,4.19c-.24,1-.32,1.58-.36,1.57a1.91,1.91,0,0,1,0-.42c0-.27.09-.67.2-1.18a30.43,30.43,0,0,1,1.17-4.24,58.24,58.24,0,0,1,2.56-6c.54-1.11,1.12-2.26,1.73-3.44a15.69,15.69,0,0,1,2.54-3.31,44.25,44.25,0,0,1,6.15-5.11c2-1.42,3.9-2.57,5.51-3.5s2.95-1.61,3.88-2.07l1.08-.51A1.61,1.61,0,0,1,342.08,363Z"
      style="fill:#263238"></path>
    <path
      d="M315.71,391.43a3.36,3.36,0,0,1-.19-.8c-.11-.58-.25-1.3-.41-2.17a62.66,62.66,0,0,0-1.78-7.06,60.33,60.33,0,0,0-2.69-6.76c-.36-.81-.67-1.48-.91-2a2.74,2.74,0,0,1-.3-.75,3.88,3.88,0,0,1,.41.69c.25.46.6,1.14,1,2a50.06,50.06,0,0,1,2.79,6.77,49,49,0,0,1,1.69,7.12c.15.92.26,1.67.31,2.2A4.06,4.06,0,0,1,315.71,391.43Z"
      style="fill:#263238"></path>
    <path
      d="M315,370A25.67,25.67,0,0,0,312,359.87a33.53,33.53,0,0,0-22.72-16.94l21,31.35,2.72,5.6A16.15,16.15,0,0,0,315,370Z"
      style="fill:#455a64"></path>
    <rect x="296.29" y="431.82" width="48.91" height="8.67" style="fill:#FF1155"></rect>
    <polygon points="299.94 438.76 304.11 465.67 336.58 465.67 341.55 438.76 299.94 438.76" style="fill:#FF1155">
    </polygon>
    <path d="M345.17,440.5c0,.09-11,.17-24.64.17s-24.64-.08-24.64-.17,11-.18,24.64-.18S345.17,440.4,345.17,440.5Z"
      style="fill:#263238"></path>
  </g>
  <g>
    <rect x="130.65" y="41.35" width="230.42" height="98" rx="49" style="fill:#e0e0e0"></rect>
    <path
      d="M312.07,139.35s.5,0,1.47-.1l1.82-.11a18.84,18.84,0,0,0,2.5-.22l3.16-.49.89-.14.91-.24,1.94-.5c.67-.19,1.39-.34,2.09-.57l2.19-.81c.74-.29,1.54-.54,2.31-.88l2.38-1.15a45.39,45.39,0,0,0,5-2.83,24.45,24.45,0,0,0,2.51-1.78l1.28-1,.65-.48.61-.55c.81-.75,1.64-1.5,2.49-2.27s1.57-1.7,2.39-2.57c.39-.44.81-.88,1.2-1.34l1.1-1.48c.37-.49.75-1,1.12-1.5l.57-.76.49-.82a46.68,46.68,0,0,0,6.4-15,49.48,49.48,0,0,0,.84-18.27,48.62,48.62,0,0,0-6.87-18.88,47.93,47.93,0,0,0-15.32-15.44l-2.44-1.48c-.82-.49-1.72-.85-2.58-1.29s-1.71-.89-2.63-1.2l-2.75-1c-.47-.16-.92-.36-1.39-.49l-1.43-.37-2.88-.73c-1-.18-2-.31-3-.47a24.9,24.9,0,0,0-3-.36c-4-.29-8.15-.17-12.32-.2H291.1l-111.44,0a54.87,54.87,0,0,0-14.45,2.17,54.05,54.05,0,0,0-13,6.27,53.19,53.19,0,0,0-10.45,9.63,52.5,52.5,0,0,0-7.16,12A52.7,52.7,0,0,0,131.21,85c-.13,1.13-.14,2.27-.21,3.4l-.09,1.69c0,.57,0,1.13.06,1.69.06,1.13.11,2.25.17,3.37s.33,2.21.49,3.32l.25,1.65.4,1.61.84,3.22c.38,1,.76,2.06,1.13,3.09.2.52.35,1,.59,1.54l.71,1.47a48.25,48.25,0,0,0,7,10.86l2.14,2.36.54.58.58.54,1.17,1.06a48,48,0,0,0,4.88,3.93,12,12,0,0,0,1.29.86l1.33.8,1.32.81.66.4.69.33a45.93,45.93,0,0,0,5.58,2.46c.95.33,1.88.73,2.84,1l2.9.74,1.44.37,1.47.22,2.92.45c1,.13,2,.12,2.91.19s1.94.12,2.91.13h5.76l42.37,0,61.36.09,16.68.05,4.34,0,1.48,0s-.5,0-1.48,0l-4.34,0-16.68,0-61.36.08-42.37,0h-5.76c-1,0-2-.09-2.93-.13s-2-.05-2.94-.19l-3-.44-1.48-.23-1.45-.37-2.93-.75c-1-.27-1.91-.67-2.87-1a45.35,45.35,0,0,1-5.64-2.48l-.7-.34-.66-.4-1.33-.81-1.34-.81a10.26,10.26,0,0,1-1.31-.87,47.48,47.48,0,0,1-4.93-4l-1.18-1.07-.59-.54-.54-.59-2.17-2.38a48.46,48.46,0,0,1-7-11l-.72-1.49c-.24-.5-.39-1-.6-1.55l-1.14-3.13c-.28-1.08-.56-2.16-.85-3.24l-.41-1.63-.26-1.67c-.16-1.11-.36-2.23-.49-3.35s-.11-2.27-.17-3.4c0-.57-.08-1.14-.06-1.71l.09-1.71c.07-1.14.07-2.29.21-3.43a52.94,52.94,0,0,1,3.44-13.45,52.67,52.67,0,0,1,7.23-12.13,49.32,49.32,0,0,1,23.68-16.07,55.12,55.12,0,0,1,14.6-2.2l111.44,0h12.68c4.17,0,8.28-.08,12.36.22a22,22,0,0,1,3,.36c1,.16,2,.29,3,.47l2.91.75,1.44.37c.48.13.93.33,1.4.49l2.77,1c.93.32,1.78.82,2.66,1.22s1.77.8,2.6,1.3l2.46,1.5A48.13,48.13,0,0,1,353.81,64.4a48.9,48.9,0,0,1,6.9,19,49.93,49.93,0,0,1-.88,18.4A47.37,47.37,0,0,1,353.35,117l-.5.82-.57.77-1.13,1.5L350,121.53c-.4.47-.82.91-1.22,1.35-.82.87-1.56,1.79-2.41,2.57l-2.51,2.27-.62.55-.65.49-1.28,1a27.09,27.09,0,0,1-2.53,1.78,45,45,0,0,1-5,2.82l-2.39,1.14c-.78.35-1.58.59-2.33.88l-2.19.8c-.72.23-1.43.37-2.11.56l-1.95.49-.91.23-.9.14-3.17.47a18.51,18.51,0,0,1-2.51.19l-1.82.08Z"
      style="fill:#263238"></path>
    <g style="opacity:0.30000000000000004">
      <circle cx="185.43" cy="91.1" r="46.43"></circle>
    </g>
    <circle cx="181.09" cy="90.35" r="46.43" style="fill:#455a64"></circle>
    <path
      d="M227.52,90.35s0-.26-.07-.75l-.13-2.21c0-.48-.06-1-.1-1.62s-.19-1.24-.29-1.94l-.36-2.26A25.44,25.44,0,0,0,226,79a44.35,44.35,0,0,0-5.14-12.33,46.32,46.32,0,0,0-11.76-13.12l-2-1.49c-.7-.46-1.44-.88-2.17-1.33s-1.46-.94-2.26-1.31l-2.4-1.15L199,47.73l-1.28-.46-2.6-1c-.89-.29-1.81-.48-2.72-.73a24.13,24.13,0,0,0-2.8-.63,42.94,42.94,0,0,0-5.84-.68c-1,0-2-.13-3-.12l-3,.16c-.52,0-1,0-1.55.1l-1.54.24c-1,.17-2.07.29-3.1.5A49.64,49.64,0,0,0,165.36,47l-1.53.56c-.26.1-.52.18-.77.29l-.74.36-3,1.44c-1,.53-1.91,1.14-2.87,1.71-.47.31-1,.56-1.43.91l-1.36,1a51.08,51.08,0,0,0-5.24,4.46l-2.34,2.58-.59.65-.54.7-1.05,1.42-1.06,1.42L141.92,66,141,67.53l-.47.76c-.14.27-.26.54-.39.81-.52,1.08-1,2.17-1.57,3.26s-.83,2.27-1.25,3.42a49.22,49.22,0,0,0-2.39,14.56,49.61,49.61,0,0,0,2.38,14.57q.63,1.73,1.26,3.42l1.56,3.26.4.81.46.77.93,1.53.93,1.51,1.06,1.43,1.06,1.41.53.7.59.65,2.35,2.59a52.26,52.26,0,0,0,5.24,4.45l1.36,1c.45.34.95.6,1.43.9,1,.58,1.9,1.19,2.87,1.72l3,1.44.74.36.76.29,1.54.56a47.92,47.92,0,0,0,6.16,1.8c1,.22,2.08.34,3.1.51l1.55.24c.51.06,1,.06,1.54.1l3.06.15c1,0,2-.08,3-.11a42.94,42.94,0,0,0,5.84-.68,23.67,23.67,0,0,0,2.8-.63c.91-.25,1.84-.44,2.72-.73l2.6-.95L199,133l1.22-.58,2.4-1.15c.8-.36,1.51-.88,2.26-1.3s1.47-.88,2.17-1.34l2-1.49A46,46,0,0,0,220.83,114,44.18,44.18,0,0,0,226,101.66c.2-.9.51-1.72.6-2.53l.36-2.26c.1-.7.23-1.35.29-1.94s.07-1.14.1-1.63l.13-2.2c0-.5.07-.75.07-.75s0,.25,0,.75,0,1.25-.09,2.21c0,.49,0,1-.07,1.63s-.17,1.24-.27,2-.21,1.46-.33,2.27a25.61,25.61,0,0,1-.59,2.55,43.75,43.75,0,0,1-5.08,12.42,46.13,46.13,0,0,1-11.79,13.27l-2,1.5c-.7.47-1.45.9-2.18,1.36s-1.47,1-2.27,1.32l-2.42,1.17-1.23.59-1.29.47-2.62,1c-.89.3-1.83.49-2.75.75a24,24,0,0,1-2.82.64,43.82,43.82,0,0,1-5.9.7c-1,0-2,.14-3,.13l-3.08-.16c-.52,0-1.05,0-1.56-.1l-1.56-.23c-1-.17-2.1-.29-3.14-.51a49,49,0,0,1-6.23-1.81l-1.55-.57c-.25-.09-.52-.18-.77-.29l-.75-.36-3-1.45c-1-.53-1.93-1.15-2.91-1.73-.48-.31-1-.57-1.44-.91l-1.38-1a53.35,53.35,0,0,1-5.3-4.49l-2.37-2.62-.6-.65-.54-.71-1.07-1.43-1.07-1.44-.94-1.53-.94-1.55-.47-.78-.4-.81-1.59-3.3c-.42-1.14-.84-2.3-1.27-3.45a50.1,50.1,0,0,1-2.41-14.74,49.77,49.77,0,0,1,2.42-14.73c.42-1.15.84-2.31,1.26-3.45l1.59-3.3c.13-.27.26-.55.4-.81l.47-.78.94-1.54.94-1.54,1.08-1.44,1.07-1.42.53-.71.6-.66,2.38-2.61a51.07,51.07,0,0,1,5.3-4.5l1.37-1c.46-.35,1-.61,1.44-.91,1-.58,1.93-1.2,2.91-1.73l3-1.46.75-.36.77-.29,1.55-.56a50.71,50.71,0,0,1,6.23-1.82c1-.21,2.1-.33,3.14-.5l1.56-.24c.51-.06,1-.06,1.55-.09l3.09-.16c1,0,2,.09,3,.13a42.26,42.26,0,0,1,5.9.69,24.05,24.05,0,0,1,2.82.65c.92.25,1.85.44,2.74.74l2.63,1,1.29.47,1.23.59,2.41,1.17c.81.37,1.52.89,2.27,1.32s1.49.88,2.19,1.35l2,1.51a46.28,46.28,0,0,1,11.79,13.27A43.93,43.93,0,0,1,226.16,79a25.61,25.61,0,0,1,.59,2.55c.12.81.23,1.56.33,2.27s.22,1.35.27,2,.05,1.14.07,1.63c0,1,.07,1.69.09,2.21S227.52,90.35,227.52,90.35Z"
      style="fill:#263238"></path>
    <g style="opacity:0.30000000000000004">
      <polygon
        points="197.87 102.14 187.2 91.55 197.78 80.88 191.66 74.8 181.07 85.47 170.4 74.88 164.31 81.01 174.98 91.6 164.39 102.27 170.53 108.35 181.11 97.68 191.78 108.27 197.87 102.14">
      </polygon>
    </g>
  </g>
  <g>
    <rect x="130.67" y="158.22" width="230.42" height="98" rx="49" style="fill:#e0e0e0"></rect>
    <path
      d="M312.09,256.22l1.47-.1,1.82-.1a20.69,20.69,0,0,0,2.5-.22l3.16-.5.89-.14.91-.23,1.94-.51c.68-.19,1.39-.33,2.1-.57l2.18-.8c.74-.29,1.54-.54,2.32-.89l2.37-1.15a44.66,44.66,0,0,0,5-2.82,25.61,25.61,0,0,0,2.5-1.79l1.28-1,.65-.49.61-.55,2.49-2.27c.84-.78,1.57-1.7,2.39-2.56.39-.45.81-.89,1.2-1.35s.73-1,1.1-1.47l1.12-1.5.57-.77.49-.82a46.63,46.63,0,0,0,6.4-15,49.54,49.54,0,0,0,.84-18.28,48.71,48.71,0,0,0-22.19-34.31l-2.44-1.48c-.82-.5-1.72-.86-2.57-1.29s-1.72-.89-2.64-1.21l-2.75-1c-.47-.16-.92-.36-1.39-.48l-1.43-.37-2.88-.74c-1-.18-2-.31-3-.47a23,23,0,0,0-3-.35c-4-.3-8.15-.18-12.32-.2H291.12l-111.44,0a54.88,54.88,0,0,0-14.45,2.18,53.86,53.86,0,0,0-13,6.27,53.11,53.11,0,0,0-10.44,9.62,52,52,0,0,0-7.17,12,53.55,53.55,0,0,0-3.41,13.31c-.13,1.12-.14,2.26-.21,3.39l-.09,1.7c0,.56,0,1.12.06,1.69.06,1.12.11,2.24.17,3.36s.33,2.22.49,3.32l.25,1.65.41,1.62c.27,1.07.55,2.14.83,3.21s.76,2.07,1.13,3.1c.2.51.35,1,.59,1.53l.71,1.48a48.41,48.41,0,0,0,7,10.85l2.14,2.36.54.59.58.53,1.17,1.07a47.85,47.85,0,0,0,4.88,3.92,10.71,10.71,0,0,0,1.29.86l1.33.81,1.32.8.66.4.69.33a45.93,45.93,0,0,0,5.58,2.46c.95.33,1.88.73,2.84,1l2.9.75,1.44.36,1.47.23,2.92.45c1,.13,1.95.12,2.91.19s1.94.12,2.91.12h5.76l42.37,0,61.36.08,16.68.05,4.34,0c1,0,1.48,0,1.48,0l-1.48,0-4.34,0-16.68.05-61.36.09-42.37,0H180.1c-1,0-1.95-.08-2.93-.12s-2-.06-2.94-.19l-2.95-.45-1.48-.22-1.45-.37-2.93-.75c-1-.27-1.91-.68-2.87-1a46.81,46.81,0,0,1-5.64-2.47l-.7-.34-.66-.4-1.33-.81-1.34-.81a11.77,11.77,0,0,1-1.3-.87,47.85,47.85,0,0,1-4.94-4l-1.18-1.08-.59-.53-.54-.59c-.72-.8-1.44-1.59-2.17-2.38a48.68,48.68,0,0,1-7-11l-.72-1.49c-.24-.5-.39-1-.59-1.55-.39-1-.77-2.09-1.15-3.13s-.56-2.16-.85-3.25l-.41-1.63-.25-1.67c-.17-1.11-.37-2.22-.5-3.35s-.11-2.26-.17-3.4c0-.57-.08-1.14-.06-1.71l.09-1.71c.07-1.14.07-2.29.21-3.43A50.87,50.87,0,0,1,132,195a51.61,51.61,0,0,1,2.17-6.65,52.36,52.36,0,0,1,7.24-12.13A53.38,53.38,0,0,1,152,166.5a54.66,54.66,0,0,1,13.12-6.34,55.53,55.53,0,0,1,14.6-2.2l111.44,0H303.8c4.17,0,8.28-.09,12.36.21a25.64,25.64,0,0,1,3,.36c1,.16,2,.29,3,.48l2.91.75,1.44.37c.48.13.93.33,1.4.49l2.77,1c.93.32,1.78.82,2.67,1.22s1.76.81,2.59,1.3l2.46,1.5a48.32,48.32,0,0,1,15.43,15.59,48.9,48.9,0,0,1,6.9,19,49.92,49.92,0,0,1-.88,18.4,47,47,0,0,1-6.48,15.12l-.5.82-.57.77-1.13,1.51-1.11,1.48c-.4.46-.82.9-1.22,1.35-.82.87-1.56,1.79-2.41,2.57l-2.51,2.27-.62.55-.65.49-1.28,1a27.22,27.22,0,0,1-2.53,1.79,46.48,46.48,0,0,1-5,2.81l-2.39,1.15c-.78.34-1.58.59-2.33.87l-2.19.8c-.72.23-1.43.38-2.1.56l-2,.5-.91.23-.9.13-3.16.47a20.61,20.61,0,0,1-2.52.2l-1.82.07Z"
      style="fill:#263238"></path>
    <path
      d="M278.27,210.68c-.34.26-8.54,5.07-8.54,5.07l-5.89,5,2.7-8s-.55-2.05-2.08.29-6.92,11.33-6.92,11.33L252.79,231l6.26,9.06s4.62-2.66,6.79-3.55,6.89-1.65,8.26-1.31,8-.16,8.26-.94-.73-1.49-2.52-1.35-7.89-.17-8.11-1.37,11.14-2.83,12-3.53,1-2-2-1.91-9.05,1.43-10,.29,1.73-1.84,2.07-2.1,6.68-2.59,8-3.94c.83-.86-.07-2.6-1.86-2.09s-8.64,4-9.95,3.75,1.81-3,2.3-3.32c3.31-2.23,6.8-3.9,6.85-6.14A2.29,2.29,0,0,0,278.27,210.68Z"
      style="fill:#ffbf9d"></path>
    <polygon points="259.05 240.09 242.29 247.74 240.88 233.97 252.79 231.03 259.05 240.09" style="fill:#ffbf9d">
    </polygon>
    <path
      d="M241.16,251c-6.17,3.15-10.73,1.2-13.17-2.25-2.69-3.8-11.73-55.65-11.73-55.65l1.44-5.47s7.17,2.29,9,6.14,13.56,33.34,13.56,33.34l9.83-1.37a112.92,112.92,0,0,0,8.43,14.68Z"
      style="fill:#FF1155"></path>
    <g style="opacity:0.30000000000000004">
      <circle cx="304.6" cy="207.98" r="46.43"></circle>
    </g>
    <circle cx="310.68" cy="207.22" r="46.43" style="fill:#FF1155"></circle>
    <path
      d="M357.11,207.22s0-.25-.07-.75l-.14-2.2c0-.49-.06-1-.09-1.63s-.19-1.23-.29-1.94l-.36-2.26c-.1-.81-.4-1.63-.6-2.53a44.48,44.48,0,0,0-5.14-12.32,46.18,46.18,0,0,0-11.76-13.12l-2-1.49c-.7-.46-1.44-.89-2.18-1.34s-1.45-.94-2.25-1.3l-2.4-1.15-1.22-.58-1.28-.47-2.6-.95c-.89-.29-1.81-.48-2.73-.73a23.51,23.51,0,0,0-2.79-.63,44.58,44.58,0,0,0-5.84-.68c-1,0-2-.13-3-.11l-3.05.16c-.52,0-1,0-1.55.1l-1.54.23c-1,.17-2.07.29-3.1.51a49.09,49.09,0,0,0-6.16,1.8l-1.54.57-.76.28-.74.36-3,1.44c-1,.53-1.91,1.15-2.87,1.72-.48.3-1,.56-1.43.9l-1.36,1a52.26,52.26,0,0,0-5.24,4.45l-2.35,2.58-.59.65-.53.71-1.05,1.41-1.06,1.42-.93,1.52-.93,1.53-.47.77c-.14.26-.26.54-.39.8-.52,1.09-1.05,2.17-1.57,3.26s-.84,2.28-1.25,3.42a45.7,45.7,0,0,0,0,29.14l1.26,3.42,1.56,3.25.4.81.46.77.93,1.53.93,1.52,1.06,1.42,1.06,1.42.53.7.59.65,2.35,2.58a51.08,51.08,0,0,0,5.24,4.46l1.36,1c.45.35.95.6,1.43.91,1,.57,1.9,1.19,2.87,1.71l3,1.44.74.36c.25.11.51.19.76.29l1.54.56a49.14,49.14,0,0,0,6.16,1.81c1,.21,2.08.33,3.1.5l1.54.24c.52.07,1,.06,1.55.1l3.06.16c1,0,2-.08,3-.12a41.41,41.41,0,0,0,5.84-.68A22.23,22.23,0,0,0,322,252c.91-.25,1.84-.44,2.72-.73l2.6-.95,1.28-.46,1.22-.58,2.4-1.15c.8-.37,1.51-.88,2.26-1.31s1.47-.87,2.17-1.33l2-1.49a46.21,46.21,0,0,0,11.76-13.13,44.48,44.48,0,0,0,5.14-12.32c.2-.89.5-1.72.6-2.53l.36-2.26c.1-.7.23-1.34.29-1.94s.07-1.14.09-1.62L357,208c0-.49.07-.75.07-.75s0,.26,0,.75,0,1.25-.08,2.21c0,.49-.05,1-.07,1.63s-.17,1.25-.27,1.95-.21,1.46-.33,2.27a25.61,25.61,0,0,1-.59,2.55A43.93,43.93,0,0,1,350.67,231a46.28,46.28,0,0,1-11.79,13.27l-2,1.51c-.7.47-1.45.89-2.18,1.35s-1.47,1-2.27,1.32L330,249.62l-1.23.59-1.29.47-2.62,1c-.89.3-1.83.49-2.75.74a22.19,22.19,0,0,1-2.82.65,43.82,43.82,0,0,1-5.9.7c-1,0-2,.13-3,.12l-3.09-.15c-.51,0-1,0-1.55-.1l-1.56-.24c-1-.17-2.1-.29-3.14-.5a49,49,0,0,1-6.23-1.82l-1.55-.56-.77-.29-.75-.36-3-1.45c-1-.54-1.93-1.16-2.91-1.74a16.6,16.6,0,0,1-1.44-.91l-1.38-1a53.45,53.45,0,0,1-5.3-4.5l-2.37-2.61-.6-.66-.54-.71-1.07-1.43L272,233.38l-.94-1.54-.94-1.55-.47-.77-.4-.82-1.59-3.29c-.42-1.15-.84-2.3-1.27-3.46a46.22,46.22,0,0,1,0-29.46c.43-1.16.85-2.31,1.27-3.46l1.59-3.29c.13-.28.26-.55.4-.82l.47-.77.94-1.55.94-1.54,1.08-1.43,1.07-1.43.53-.71.6-.66,2.38-2.61a51.93,51.93,0,0,1,5.29-4.49l1.38-1c.46-.34,1-.6,1.44-.91,1-.58,1.93-1.2,2.91-1.73l3-1.45.75-.36c.25-.11.52-.19.77-.29l1.55-.57a49,49,0,0,1,6.23-1.81c1-.22,2.1-.34,3.14-.51l1.55-.23c.52-.07,1.05-.07,1.56-.1l3.09-.15c1,0,2,.08,3,.12a43.82,43.82,0,0,1,5.9.7,24,24,0,0,1,2.82.64c.92.26,1.85.45,2.74.75l2.63,1,1.29.47,1.23.59,2.41,1.17c.81.37,1.52.89,2.27,1.32s1.48.89,2.19,1.35l2,1.51a46.28,46.28,0,0,1,11.79,13.27,44,44,0,0,1,5.08,12.42,25.61,25.61,0,0,1,.59,2.55c.12.81.23,1.57.33,2.27s.22,1.35.27,1.95.05,1.14.07,1.63c0,1,.06,1.7.08,2.21S357.11,207.22,357.11,207.22Z"
      style="fill:#263238"></path>
    <path
      d="M200.39,124c-2.45-1.56-3-5.16-1.72-7.74a9.48,9.48,0,0,1,7-4.62,13.36,13.36,0,0,1,11.51,3.82c1.58,1.63,2.87,3.75,5,4.5,1.89.65,4,.06,6,.32a9,9,0,0,1,6.29,4.53,19.34,19.34,0,0,1,2.23,7.65c.29,2.44.48,5.11,2.17,6.89s4.26,2.11,6.31,3.34a8.64,8.64,0,0,1,2.57,11.79c-.82,1.19-2,2.27-2.08,3.71s.76,2.47,1.16,3.72a5.84,5.84,0,0,1-5,7.24c-1.7.09-3.52-.57-5.05.19s-2.08,2.58-3,4a7.31,7.31,0,0,1-8.89,2.3C223.58,175,222.4,174,221,174s-2.48,1.28-3.85,1.55c-1.79.34-3.49-1-4.55-2.45s-1.8-3.22-3.16-4.43c-1.79-1.59-4.29-2-6.54-2.76a18.43,18.43,0,0,1-10.42-25.84"
      style="fill:#263238"></path>
    <path
      d="M226.31,156a5.07,5.07,0,0,1,2-1.3h-.15a3.25,3.25,0,0,1,.43-.08,1.94,1.94,0,0,1,1.55.2h0a3.64,3.64,0,0,1,2,1.75,4.36,4.36,0,0,1-.51,4.48,3.33,3.33,0,0,1-6.11-1.14A4.15,4.15,0,0,1,226.31,156Z"
      style="fill:#455a64"></path>
    <path
      d="M194,182.08l-2.61-47.81a4.06,4.06,0,0,1,3.52-4.21L216.26,124c6.87-.92,11.7,7.44,12.33,14.34.7,7.68,1.26,17.07.51,22.83-1.5,11.59-11,13.34-11,13.34s-.07,11.8,0,16l2.64,13Z"
      style="fill:#ffbf9d"></path>
    <path
      d="M225.61,148.42a1.49,1.49,0,0,1-1.38,1.54,1.42,1.42,0,0,1-1.56-1.29,1.49,1.49,0,0,1,1.38-1.54A1.42,1.42,0,0,1,225.61,148.42Z"
      style="fill:#263238"></path>
    <path
      d="M226.69,143.29c-.18.2-1.32-.6-2.92-.55s-2.73.88-2.91.69.09-.44.59-.82a4,4,0,0,1,2.32-.79,3.91,3.91,0,0,1,2.33.68C226.6,142.86,226.78,143.2,226.69,143.29Z"
      style="fill:#263238"></path>
    <path
      d="M211.89,148.42A1.49,1.49,0,0,1,210.5,150a1.42,1.42,0,0,1-1.56-1.29,1.49,1.49,0,0,1,1.38-1.54A1.42,1.42,0,0,1,211.89,148.42Z"
      style="fill:#263238"></path>
    <path
      d="M211.05,144c-.18.2-1.32-.59-2.91-.55s-2.74.88-2.92.69.09-.43.59-.82a4.15,4.15,0,0,1,2.33-.79,3.9,3.9,0,0,1,2.32.68C211,143.6,211.14,144,211.05,144Z"
      style="fill:#263238"></path>
    <path
      d="M217.16,155.67a10.62,10.62,0,0,1,2.58-.54c.4,0,.78-.14.84-.42a2,2,0,0,0-.3-1.2L219,150.45c-1.8-4.36-3.11-7.95-2.93-8s1.77,3.41,3.57,7.77c.43,1.07.84,2.1,1.24,3.08a2.39,2.39,0,0,1,.25,1.59,1,1,0,0,1-.65.61,2.78,2.78,0,0,1-.69.12A10.25,10.25,0,0,1,217.16,155.67Z"
      style="fill:#263238"></path>
    <path d="M218.1,174.51a27.6,27.6,0,0,1-14.86-3.72s3.33,8.58,14.85,7.18Z" style="fill:#ff9a6c"></path>
    <path
      d="M217,159.46a3.94,3.94,0,0,0-3.28-1.61A2.54,2.54,0,0,0,211.7,159a2.48,2.48,0,0,0,.11,2.58,2.45,2.45,0,0,0,2.61.85,5.8,5.8,0,0,0,2.3-1.51,1.81,1.81,0,0,0,.49-.61.81.81,0,0,0-.09-.81"
      style="fill:#ff9a6c"></path>
    <path
      d="M212.51,156.91c.26,0,.31,1.7,1.83,2.89s3.34.94,3.36,1.18-.4.35-1.17.39a4.3,4.3,0,0,1-2.81-.89,3.74,3.74,0,0,1-1.42-2.43C212.21,157.33,212.39,156.9,212.51,156.91Z"
      style="fill:#263238"></path>
    <path
      d="M211.57,137.46c-.15.44-1.74.28-3.6.56s-3.36.83-3.62.45c-.11-.19.14-.6.74-1a6,6,0,0,1,2.66-1,5.94,5.94,0,0,1,2.83.25C211.28,136.92,211.63,137.26,211.57,137.46Z"
      style="fill:#263238"></path>
    <path
      d="M226,137.83c-.27.37-1.37,0-2.69,0s-2.43.31-2.7-.06c-.12-.18,0-.55.53-.91a3.75,3.75,0,0,1,2.17-.65,3.68,3.68,0,0,1,2.17.67C225.93,137.28,226.09,137.65,226,137.83Z"
      style="fill:#263238"></path>
    <path
      d="M236.36,135.92a7.82,7.82,0,0,0-3-4.36c-.83-.55-1.79-.88-2.57-1.5-1.66-1.34-2.05-3.68-3.08-5.56a8.74,8.74,0,0,0-6.63-4.41c-2.29-.23-4.64.46-6.87-.1-1.65-.42-3.09-1.49-4.75-1.81-3.25-.61-6.27,1.72-8.63,4,0,2.32,1.85,3.88,3.63,5.37a8.1,8.1,0,0,0,6.53,1.73c1.77-.33,3.72-1.23,5.26-.28s1.68,3.43,3.11,4.67c2.05,1.78,5.31.11,7.91.88,2,.6,3.26,2.52,4.59,4.13s3.33,3.15,5.34,2.56A23.54,23.54,0,0,0,236.36,135.92Z"
      style="fill:#263238"></path>
    <path
      d="M212,126.09c-1.46-.42-4.44-1.36-5.22-2.62A8.87,8.87,0,0,0,199,119a7.36,7.36,0,0,0-6.62,5.81,10.57,10.57,0,0,0-9.08,5.84,10.84,10.84,0,0,0-.57,1.36,8,8,0,0,0-.54,6.74c.5,1.32,1.36,2.78.69,4s-2.43,1.3-3.79,1.76a5.32,5.32,0,0,0-3.36,6,6.37,6.37,0,0,1,.42,2.63,5.78,5.78,0,0,1-1.57,2.27,6.65,6.65,0,0,0,3.9,10.81,8.4,8.4,0,0,1,3,.7c1,.63,1.48,1.87,2.21,2.83A5.75,5.75,0,0,0,190,171.7a5.17,5.17,0,0,0,1.24-.63,4.14,4.14,0,0,0,3.65,1.61l-.43-24.32a2,2,0,0,0,1.48,1.16c3.9.88,4.47-7.16,3.6-9.34a22.46,22.46,0,0,0,3.91-4.12,16.31,16.31,0,0,0,1.8-7.89C206.62,128.25,212.61,126.27,212,126.09Z"
      style="fill:#263238"></path>
    <path
      d="M195.5,150.34c-.13-2.47-3.15-3-5.29-1.76-1.18.68-2.08,2-2,4.67.29,7,7.25,5.27,7.26,5.06S195.64,153.24,195.5,150.34Z"
      style="fill:#ffbf9d"></path>
    <path
      d="M193.25,155.75s-.12.09-.32.19a1.18,1.18,0,0,1-.91.06,3,3,0,0,1-1.51-2.65,4.18,4.18,0,0,1,.27-1.76,1.4,1.4,0,0,1,.88-1,.62.62,0,0,1,.73.3c.1.2.07.34.1.35s.15-.13.08-.41a.75.75,0,0,0-.29-.43.93.93,0,0,0-.68-.15,1.71,1.71,0,0,0-1.23,1.14,4.06,4.06,0,0,0-.35,2c.11,1.4.88,2.69,1.91,2.94a1.27,1.27,0,0,0,1.1-.23C193.24,155.92,193.27,155.76,193.25,155.75Z"
      style="fill:#ff9a6c"></path>
    <path
      d="M202.34,124.2a4.22,4.22,0,0,0-1.4,1.17,6.5,6.5,0,0,0-.52,4.84l0,.18-.17,0a6.77,6.77,0,0,0-4.51,4,5.56,5.56,0,0,0-.36,1.71,10.23,10.23,0,0,0,.22,1.85,15.17,15.17,0,0,1,.27,2,3.32,3.32,0,0,1-.56,2.06,8.43,8.43,0,0,1-3.47,2.61,11.81,11.81,0,0,0-3.25,2.13,8.73,8.73,0,0,0-2.61,5.86,9.12,9.12,0,0,0,.92,4.33c.46.95.85,1.41.81,1.44a1.66,1.66,0,0,1-.29-.32,6.9,6.9,0,0,1-.69-1,8.85,8.85,0,0,1-1.1-4.43,9,9,0,0,1,2.64-6.17,11.84,11.84,0,0,1,3.35-2.24,8.16,8.16,0,0,0,3.28-2.45c.77-1.06.42-2.44.22-3.7a10.47,10.47,0,0,1-.21-1.94,5.72,5.72,0,0,1,.4-1.87,7.15,7.15,0,0,1,4.85-4.16l-.13.22a6.49,6.49,0,0,1,.7-5,3,3,0,0,1,1.1-.89A1.62,1.62,0,0,1,202.34,124.2Z"
      style="fill:#455a64"></path>
    <path
      d="M190.64,158.37a5,5,0,0,1,2-1.31h-.15a3.21,3.21,0,0,1,.43-.07,2,2,0,0,1,1.55.19h0a3.72,3.72,0,0,1,2,1.75,4.37,4.37,0,0,1-.51,4.49,3.33,3.33,0,0,1-6.11-1.14A4.12,4.12,0,0,1,190.64,158.37Z"
      style="fill:#455a64"></path>
    <path d="M205.41,443.39,227.67,445a60.38,60.38,0,0,0-2.78,9.81c-6.24,2.13-14.13,1.57-20.81-.92Z"
      style="fill:#ffbf9d"></path>
    <path d="M225.33,451.56l0,1.33s22.58,8.75,22.87,13l-44.63.31.5-14.85C210.75,454.38,217.7,454.68,225.33,451.56Z"
      style="fill:#FF1155"></path>
    <path
      d="M208.65,456.07a1.82,1.82,0,0,0-1.25,2.09,1.75,1.75,0,0,0,2.06,1.25,1.91,1.91,0,0,0,1.31-2.21,1.81,1.81,0,0,0-2.29-1.07"
      style="fill:#fff"></path>
    <path d="M203.59,466.21l.12-3.57,42.73,1s2,.85,1.78,2.25Z" style="fill:#263238"></path>
    <path d="M225.5,453c0,.22-1.09.32-2.16,1s-1.63,1.63-1.83,1.54.11-1.34,1.42-2.18S225.55,452.81,225.5,453Z"
      style="fill:#263238"></path>
    <path d="M230.2,454.91c.05.21-.89.59-1.63,1.52s-.94,1.9-1.15,1.89-.37-1.24.57-2.37S230.19,454.7,230.2,454.91Z"
      style="fill:#263238"></path>
    <path d="M232.9,460.5c-.2,0-.51-1,0-2.24s1.57-1.68,1.66-1.5-.53.83-1,1.82S233.11,460.47,232.9,460.5Z"
      style="fill:#263238"></path>
    <path d="M129.1,429.48c-1.39,5.81-6.83,23.35-6.83,23.35l19.82,2c.48-2.92,8.25-15,9.5-18.73Z" style="fill:#ffbf9d">
    </path>
    <path d="M143.47,452l-.23,1.3s20.49,12.92,20,17.15l-43.86-8.22,4.13-13.41C126.81,452.09,135.39,453.65,143.47,452Z"
      style="fill:#FF1155"></path>
    <path
      d="M126.24,453.28a1.83,1.83,0,0,0-1.63,1.81,1.76,1.76,0,0,0,1.79,1.63,1.92,1.92,0,0,0,1.7-1.93,1.8,1.8,0,0,0-2-1.48"
      style="fill:#fff"></path>
    <path d="M119.34,462.27l.8-3.49,41.75,9.16s1.79,1.22,1.31,2.55Z" style="fill:#263238"></path>
    <path d="M143.37,453.5c-.05.21-1.14.11-2.32.6s-1.91,1.28-2.1,1.16.37-1.3,1.82-1.87S143.45,453.31,143.37,453.5Z"
      style="fill:#263238"></path>
    <path d="M147.61,456.26c0,.22-1,.41-1.88,1.18s-1.29,1.69-1.5,1.64-.12-1.29,1-2.22S147.65,456.06,147.61,456.26Z"
      style="fill:#263238"></path>
    <path d="M149.19,462.26c-.2,0-.3-1.12.47-2.19s1.86-1.35,1.92-1.15-.68.7-1.3,1.59S149.41,462.28,149.19,462.26Z"
      style="fill:#263238"></path>
    <path
      d="M194.77,196.93c.47.86,17.25,38.65,17.25,38.65l31.7-11.22L252,239s-35.88,23.59-45.37,23-11.12-2.41-14.62-9.85c-4.3-9.13-17.34-42.69-17.34-42.69s-4.11-18.54,8.38-19.8C190.89,188.87,194.77,196.93,194.77,196.93Z"
      style="fill:#FF1155"></path>
    <path
      d="M221.4,275.05s32.68,86.05,31,97.07-21.59,76.74-21.59,76.74l-28.68-1.94,15.34-76.38-25.84-53,4.46-53.74,27,2.78Z"
      style="fill:#263238"></path>
    <path
      d="M173.87,259.5l-2.27,6c-4.32,5.73-11.41,16.55-13.6,23.14-3.09,9.31-1.36,38.68-1.36,38.68l-3,43.24s-8.44,16.82-13,26.27c-3.9,8.17-16.36,44.7-16.36,44.7l24.78,7.35s34.55-59.63,37.64-67.35,9.79-69.76,9.79-69.76L207.69,265Z"
      style="fill:#263238"></path>
    <path
      d="M165.88,276.49c0-.11,1.52.31,4,.49a26.45,26.45,0,0,0,4.32-.06,25.63,25.63,0,0,0,10-3.16,24.75,24.75,0,0,0,3.57-2.42c1.92-1.55,2.9-2.75,3-2.68a3.84,3.84,0,0,1-.64.88,9.34,9.34,0,0,1-.85.95,14.2,14.2,0,0,1-1.23,1.16,22.65,22.65,0,0,1-3.57,2.57,26.1,26.1,0,0,1-4.94,2.19,27.21,27.21,0,0,1-5.3,1,23.38,23.38,0,0,1-4.4-.06,16,16,0,0,1-1.67-.26,8.18,8.18,0,0,1-1.24-.29A4,4,0,0,1,165.88,276.49Z"
      style="fill:#455a64"></path>
    <path
      d="M217.92,372.69a18.73,18.73,0,0,1,5.79-3.46,19,19,0,0,1,6.53-1.74c0,.17-2.91.83-6.3,2.27S218,372.84,217.92,372.69Z"
      style="fill:#455a64"></path>
    <path
      d="M154.16,370.36a8.51,8.51,0,0,1,3.72,1.2,8.33,8.33,0,0,1,3.13,2.33,33.56,33.56,0,0,1-3.39-1.82A33.39,33.39,0,0,1,154.16,370.36Z"
      style="fill:#455a64"></path>
    <path
      d="M216.56,268.2a4.09,4.09,0,0,1-.18.73l-.63,2-2.38,7.46-3.6,11c-.36,1-.67,2.1-1.09,3.19a17.11,17.11,0,0,1-1.64,3.14,15.72,15.72,0,0,1-2.35,2.81l-2.63,2.65-4.56,4.56.08-.15c-1.05,8.46-2,15.91-2.64,21.3-.34,2.63-.62,4.75-.82,6.28-.11.7-.19,1.26-.25,1.69a2.39,2.39,0,0,1-.12.58,4.32,4.32,0,0,1,0-.59c0-.44.09-1,.15-1.7.17-1.53.4-3.66.68-6.3.62-5.4,1.48-12.85,2.46-21.32v-.09l.06-.06,4.54-4.56,2.64-2.65a15.57,15.57,0,0,0,2.3-2.73,17.43,17.43,0,0,0,1.6-3.05c.41-1,.73-2.13,1.09-3.15l3.71-11,2.54-7.4.72-2A4.74,4.74,0,0,1,216.56,268.2Z"
      style="fill:#455a64"></path>
    <g style="opacity:0.30000000000000004">
      <path
        d="M278.3,230.25a1.78,1.78,0,0,0-1.28-.61l-7.63-1.3a4.15,4.15,0,0,1,3-2.31,23.61,23.61,0,0,0,3.85-1,3.11,3.11,0,0,0,2-3.1,22.54,22.54,0,0,1-10.87-.89l8.2-3.09a5.51,5.51,0,0,0,1.68-.88,1.8,1.8,0,0,0,.66-1.7c-.28-1.17-1.86-1.4-3-1.15-1.5.31-2.9,1-4.37,1.37a6.12,6.12,0,0,1-4.46-.22,21.38,21.38,0,0,0,4.86-2.65,7.13,7.13,0,0,0,2.8-4.63c-5.13,1.73-9.34,5.42-13.16,9.26s-7.46,7.94-12,10.85l2.87,9.82c5-2.45,10.2-4.95,15.77-5.25,3.19-.17,6.45.39,9.52-.46a3,3,0,0,0,1.34-.68A1.18,1.18,0,0,0,278.3,230.25Z">
      </path>
    </g>
    <path
      d="M274.16,204.65c-.33.26-8.54,5.07-8.54,5.07l-5.89,5,2.7-8s-.55-2-2.08.29-6.92,11.33-6.92,11.33L248.68,225l6.26,9.06s4.63-2.66,6.79-3.55,6.89-1.65,8.26-1.31,8-.17,8.27-.95-.74-1.49-2.53-1.34-7.89-.18-8.11-1.37,11.14-2.83,12-3.53,1.05-2-2-1.91-9,1.43-10,.29,1.74-1.84,2.07-2.1,6.68-2.59,8-3.94c.83-.86-.07-2.61-1.86-2.09s-8.64,3.94-9.95,3.75,1.81-3,2.3-3.32c3.31-2.24,6.8-3.91,6.85-6.14A2.27,2.27,0,0,0,274.16,204.65Z"
      style="fill:#ffbf9d"></path>
    <polygon points="254.94 234.06 238.18 241.71 236.77 227.94 248.68 225 254.94 234.06" style="fill:#ffbf9d"></polygon>
    <path
      d="M193.38,175.78l19.67,9.65,6.08,8.35s8.56,39.35,7.49,45.6S218.76,267,218,266.84l-44.17-7.34,0-.1A12.68,12.68,0,0,1,175,251l4-7.74-7.46-35.72s-1.44-10.41,3.32-15.34c4.94-5.14,16-11.72,16-11.72Z"
      style="fill:#FF1155"></path>
    <path
      d="M217.24,192.94a11.92,11.92,0,0,1-1.27-1.48c-.84-1.05-1.93-2.44-3.23-4.08l.37-.07c-.36,1.37-.76,2.87-1.19,4.49l-.07.26-.26-.1c-1.7-.66-3.54-1.43-5.42-2.31a89.07,89.07,0,0,1-10.94-6.09c-1.35-.88-2.4-1.63-3.12-2.16a6.91,6.91,0,0,1-1.08-.88,6.78,6.78,0,0,1,1.19.71c.76.48,1.84,1.19,3.2,2a111.7,111.7,0,0,0,11,5.92c1.87.88,3.7,1.66,5.38,2.34l-.33.16c.46-1.61.88-3.11,1.27-4.47l.12-.42.25.35,3.08,4.19A10.06,10.06,0,0,1,217.24,192.94Z"
      style="fill:#263238"></path>
    <path
      d="M218.34,193.93l.06,5.72L214,266.58h9s12.28-28.86,11.93-38c-.26-6.63-5.38-18.91-7.85-26.56a81.64,81.64,0,0,0-3.61-8.67c-1.91-1.71-2.29-2-2.29-2.42l.81-3.68-4-3.67,0,6.89Z"
      style="fill:#FF1155"></path>
    <path
      d="M220.55,264.65a5.46,5.46,0,0,1,.27-.71c.23-.5.52-1.16.88-2s.84-1.91,1.34-3.14l.81-2c.26-.71.53-1.45.81-2.24a62.65,62.65,0,0,0,3.87-25.6,78.93,78.93,0,0,0-2.45-14.13,113.23,113.23,0,0,0-3.74-11.13c-.63-1.55-1.19-2.95-1.7-4.19l-1.4-3.11-.87-2a5.78,5.78,0,0,1-.27-.7,3.14,3.14,0,0,1,.38.65c.24.5.56,1.14,1,1.93s.92,1.9,1.5,3.08,1.12,2.63,1.78,4.16a105,105,0,0,1,3.87,11.15A77,77,0,0,1,229.1,229a61.17,61.17,0,0,1-4,25.78l-.86,2.24-.86,2c-.53,1.22-1,2.27-1.43,3.1l-1,1.93A3.48,3.48,0,0,1,220.55,264.65Z"
      style="fill:#263238"></path>
    <path
      d="M225.71,198.25a4.67,4.67,0,0,1,.66,1c.4.67.92,1.68,1.54,2.95a70.5,70.5,0,0,1,3.88,10.25,59.85,59.85,0,0,1,2.2,10.76,32.83,32.83,0,0,1,.16,3.32,4.78,4.78,0,0,1-.11,1.22c-.09,0-.08-1.73-.45-4.5a73.15,73.15,0,0,0-2.35-10.63,91.16,91.16,0,0,0-3.7-10.26C226.42,199.83,225.63,198.29,225.71,198.25Z"
      style="fill:#263238"></path>
    <path
      d="M194.77,196.93c.47.86,17.25,38.65,17.25,38.65l31.7-11.22L252,239s-35.88,23.59-45.37,23-11.12-2.41-14.62-9.85c-3.2-6.79-12.16-25.59-16.53-34.76A27,27,0,0,1,173,202.54c.7-5.81,3.08-12.21,10.1-12.89C190.9,188.91,194.77,196.93,194.77,196.93Z"
      style="fill:#FF1155"></path>
    <path
      d="M192.53,193.78a20.28,20.28,0,0,0-2.61-1.79,15.45,15.45,0,0,0-7.36-1.44,13.27,13.27,0,0,0-6.91,2.82,16.54,16.54,0,0,0-2.23,2.24,2.4,2.4,0,0,1,.4-.77,9.28,9.28,0,0,1,1.59-1.75,12.69,12.69,0,0,1,7.11-3.06,14.68,14.68,0,0,1,7.58,1.64,8.42,8.42,0,0,1,1.88,1.44C192.38,193.5,192.56,193.75,192.53,193.78Z"
      style="fill:#263238"></path>
    <path
      d="M204.4,246.38a6.46,6.46,0,0,1,.62-1.92,23.8,23.8,0,0,1,2.34-4.25,23.48,23.48,0,0,1,3.15-3.69,6.56,6.56,0,0,1,1.57-1.26c.11.12-2.18,2.16-4.29,5.25S204.55,246.44,204.4,246.38Z"
      style="fill:#263238"></path>
    <path
      d="M175.52,217.38s.09.15.24.46.39.78.68,1.36l2.57,5.29L188.36,244q1.48,3.09,3.09,6.46a48.11,48.11,0,0,0,3.63,6.8,9.14,9.14,0,0,0,2.91,2.69,12.57,12.57,0,0,0,3.92,1.3,39.6,39.6,0,0,0,4.29.51,11.9,11.9,0,0,0,4.32-.55,57.16,57.16,0,0,0,8.56-3.38c2.85-1.34,5.71-2.83,8.59-4.4,5.75-3.14,11.59-6.61,17.49-10.28,2.28-1.42,4.53-2.85,6.73-4.29l-.08.35q-4.27-7.56-8.31-14.69l.3.12-31.71,11.18-.19.06-.08-.18-12.46-28.14c-1.47-3.36-2.63-6-3.42-7.82l-.89-2c-.19-.47-.28-.72-.28-.72l.34.68c.22.48.53,1.16.94,2,.82,1.81,2,4.43,3.53,7.76,3,6.75,7.37,16.39,12.63,28.09l-.26-.11,31.68-11.26.2-.07.11.19,8.32,14.67.12.21-.2.14q-3.31,2.16-6.74,4.29c-5.91,3.68-11.76,7.15-17.53,10.29-2.89,1.57-5.75,3.06-8.62,4.4a57.9,57.9,0,0,1-8.64,3.39,12.28,12.28,0,0,1-4.49.56,41.15,41.15,0,0,1-4.34-.53,13,13,0,0,1-4-1.36,9.59,9.59,0,0,1-3-2.83,47.66,47.66,0,0,1-3.64-6.88L188,244.12l-9.2-19.55c-1.07-2.29-1.91-4.08-2.48-5.32l-.63-1.39C175.58,217.54,175.52,217.38,175.52,217.38Z"
      style="fill:#263238"></path>
    <g style="opacity:0.30000000000000004">
      <polygon points="311.7 221.34 294.94 209.36 299.13 203.52 310.36 211.55 325.22 193.1 330.82 197.61 311.7 221.34">
      </polygon>
    </g>
  </g>
</svg>