<svg xmlns="http://www.w3.org/2000/svg" viewBox="0 0 64 64" stroke-width="3" stroke="currentColor" fill="none">
  <path d="M40,55.7A25,25,0,1,1,57,32.15a37.24,37.24,0,0,1-.73,6" />
  <path d="M38,51A47,47,0,0,1,32,56.7" />
  <path d="M32,7A34,34,0,0,1,43.6,30a34.07,34.07,0,0,1,0,5" />
  <path d="M32,7A34,34,0,0,0,20.3,32.5c0,16.2,7.3,21,11.66,24.2" />
  <line x1="10.37" y1="20" x2="53.75" y2="20" />
  <line x1="32" y1="7" x2="32" y2="56.7" />
  <line x1="11" y1="45.5" x2="37" y2="45.5" />
  <line x1="7" y1="32.5" x2="57" y2="32" />
  <path
    d="M53.5,57,58,52.5l-8-8,4.55-2.9a.38.4,0,0,0-.12-.7L39,37.4a.39.4,0,0,0-.46.46L42,53.4a.39.4,0,0,0,.7.1L45.5,49Z" />
</svg>