<svg xmlns="http://www.w3.org/2000/svg" viewBox="0 0 48 48"><path fill="#90C9C4" stroke="#90C9C4" stroke-miterlimit="10" d="M8.305 30.719v-1.153c2.734 0 4.129-1.199 4.129-3.55V8.305c0-.961-.625-1.442-1.875-1.442-1.68 0-3.07.528-4.125 1.633-1.059 1.106-1.875 2.785-2.356 4.945l-1.2-.289 1.06-8.16c.574.098 1.152.145 1.68.192.527.046 1.007.097 1.534.097h14.785c.528 0 1.102-.05 1.63-.097a20.028 20.028 0 001.73-.192v8.016l-1.059.144c-.285-4.082-2.351-6.144-6.093-6.144-1.297 0-1.922.433-1.922 1.297v17.71c0 2.352 1.394 3.551 4.129 3.551v1.153zm0 0" stroke-width=".48"/><path fill="#4FA39A" stroke="#4FA39A" stroke-miterlimit="10" d="M27.984 42.719v-1.153c2.735 0 4.13-1.199 4.13-3.55V20.305c0-.961-.626-1.442-1.876-1.442-1.68 0-3.07.528-4.125 1.633-1.058 1.106-1.875 2.785-2.351 4.945l-1.203-.289 1.058-8.16c.574.098 1.153.145 1.68.192.527.046 1.008.097 1.535.097h14.785c.528 0 1.102-.05 1.63-.097a20.028 20.028 0 001.73-.192v8.016l-1.055.144c-.29-4.082-2.356-6.144-6.098-6.144-1.297 0-1.922.433-1.922 1.297v17.71c0 2.352 1.395 3.551 4.13 3.551v1.153zm0 0" stroke-width=".48"/></svg>