<svg xmlns="http://www.w3.org/2000/svg" viewBox="0 0 48 48"><path fill="#F8CEBF" d="M42 37.441l-.29-1.539h-.144c-1.246 1.54-3.406 2.547-6.046 2.547-4.079 0-6.43-3.023-6.43-6.097 0-5.086 4.27-7.825 12-7.727v-.29c0-1.296-.531-3.55-4.082-3.55-2.016 0-4.078.621-5.422 1.488l-1.012-3.312c1.488-.914 4.274-1.777 7.442-1.777 6.48 0 8.496 4.082 8.496 8.496v7.343c0 1.872-.145 3.793.097 4.563h-4.562zm-.863-9.601c-3.075-.098-6.961.672-6.961 3.793 0 2.015 1.297 2.926 2.93 2.926 2.015 0 3.503-1.293 3.933-2.782.145-.386.098-.77.098-1.152zm0 0"/><path fill="#F1906D" d="M46.559 32.879v-7.39c0-1.778-.286-3.696-1.246-5.09a11.927 11.927 0 01-4.176 7.585v2.543c0 .29.093.77-.098 1.153-.48 1.488-1.918 2.785-3.934 2.785-1.632 0-2.93-.914-2.93-2.93v-.289c-.48.098-.862.098-1.39.098-1.25 0-2.402-.145-3.504-.528-.097.383-.097.864-.097 1.247 0 3.074 2.304 6.195 6.336 6.195 2.64 0 4.703-1.012 6.046-2.547h.196l.285 1.535h4.656c-.289-.621-.144-2.543-.144-4.367zm0 0"/><path fill="#F8CEBF" d="M8.977 29.664l-2.403 7.727H1.297l8.976-27.84h6.575l9.12 27.84h-5.472l-2.543-7.727zm8.015-3.84l-2.258-7.054c-.527-1.68-1.007-3.028-1.39-5.329h-.098c-.383 2.301-.863 3.696-1.293 5.329l-2.16 7.054zm0 0"/><path fill="#F1906D" d="M20.398 20.543c-.765 1.922-1.918 3.695-3.406 5.09v.094h-.097c-1.918 2.304-4.32 3.074-7.102 3.89h8.062l2.543 7.727h5.473zm0 0"/></svg>