<?xml version="1.0" encoding="UTF-8" standalone="no"?>
<svg
   version="1.0"
   width="500.00003pt"
   height="499.99997pt"
   viewBox="0 0 500.00003 499.99997"
   preserveAspectRatio="xMidYMid meet"
   id="svg14"
   sodipodi:docname="bird.svg"
   inkscape:version="1.1 (1:1.1+202106031931+af4d65493e)"
   xmlns:inkscape="http://www.inkscape.org/namespaces/inkscape"
   xmlns:sodipodi="http://sodipodi.sourceforge.net/DTD/sodipodi-0.dtd"
   xmlns="http://www.w3.org/2000/svg"
   xmlns:svg="http://www.w3.org/2000/svg">
  <defs
     id="defs18" />
  <sodipodi:namedview
     id="namedview16"
     pagecolor="#ffffff"
     bordercolor="#666666"
     borderopacity="1.0"
     inkscape:pageshadow="2"
     inkscape:pageopacity="0.0"
     inkscape:pagecheckerboard="0"
     inkscape:document-units="pt"
     showgrid="false"
     inkscape:zoom="0.6230315"
     inkscape:cx="280.88467"
     inkscape:cy="349.09952"
     inkscape:window-width="1551"
     inkscape:window-height="752"
     inkscape:window-x="369"
     inkscape:window-y="72"
     inkscape:window-maximized="0"
     inkscape:current-layer="g12" />
  <metadata
     id="metadata2">
Created by potrace 1.16, written by Peter Selinger 2001-2019
</metadata>
  <g
     transform="matrix(0.09573002,0,0,-0.1012273,-1.4394865,506.88668)"
     fill="#000000"
     stroke="none"
     id="g12">
    <path
       d="M 1944.3943,4820.883 C 1807.2576,4687.1215 1753,4637 1585,4385 c -167.7667,-294.8976 -245.3255,-480.062 -365,-897 -43,-184 -57.9968,-235.5855 -95,-240 -37.5354,-1.1239 -111,47 -159,232 -36,142 -50,273 -50,497 32.07971,312.9358 -77.05817,116.102 -169,-47 -82,-149 -150,-374 -188,-625 -27,-177 -23,-402 11,-603 25,-148 41.16556,-169.6972 -5.83444,-181.6972 C 525.16556,2510.3028 390,2564 307,2638 232,2704 145,2800 79,2888 -32.200998,3075.9404 32.781133,2660.3151 45,2594 123,2213 382,1796 719,1510 992,1279 1198,1148 1624,935 1980,757 1989,750 1969,677 1954,623 1858,500 1728,372 1611,256 1503,172 1370,94 c -98.3511,-119.531631 680.3284,207.19423 828,299 156,101 408,298 1657,1293 610,486 807,641 1274,997 62,48 111,87 109,87 -3,0 -251,-121 -552,-270 -300,-148 -555,-270 -566,-270 -10,0 -61,15 -112,32 -88,31 -101,33 -233,33 -162,0 -210,-12 -318,-76 -98,-58 -167,-132 -216,-229 -23,-45 -41,-88 -41,-94 0,-22 -49,-59 -78,-59 -16,0 -44,11 -63,25 -19,14 -88,56 -154,93 -671,381 -969,854 -1020,1625 -25,367 29.0463,771.0697 253.0463,1217.0697 202.7489,369.257 -48.1723,169.6069 -193.652,23.8133 z"
       id="path4"
       sodipodi:nodetypes="ccccccccccccccsccccccscscsccssscccc" />
    <path
       d="m 2490,4545 c -196.0856,-19.71 -320.4642,-50.0076 -359,-187 -105,-380 -131,-625 -96,-920 72,-617 341,-1017 906,-1346 77,-45 143,-82 147,-82 4,0 19,24 34,53 41,76 110,160 176,212 212,168 488,209 759,114 l 58,-20 338,168 c 362.6339,141.7029 359.1923,210.5981 242,553 -212,613 -730,1128 -1351,1343 -284,99 -632,145 -854,112 z"
       id="path6"
       sodipodi:nodetypes="ccccscccccccc" />
    <path
       d="M 4645,2140 C 4457,1992 4378,1930 3625,1329 2585,500 2364,330 2184,224 c -15,-9 -1,-14 76,-32 185,-43 295,-54 455,-49 392,15 779,139 1110,357 475,314 810,792 939,1341 30,126 70.4269,297.5711 66.4269,355.5711 C 4845.8422,2299.2445 4757.9084,2240.1262 4645,2140 Z"
       id="path8"
       sodipodi:nodetypes="ccccccccc" />
    <path
       d="M 1059.7906,829.94027 C 1162.7906,743.94027 1461,485 1540,445 l 47,-24 80,82 c 107,111 158,176 147,187 -5,5 -99,51 -210,103 -326,153 -614,325 -838,502 -356.05339,247.9842 178.68913,-352.99831 293.7906,-465.05973 z"
       id="path10"
       sodipodi:nodetypes="ccccsccc" />
  </g>
</svg>
