<svg xmlns="http://www.w3.org/2000/svg" viewBox="0 0 48 48">
  <path fill="currentColor"
    d="M 40.660569,8.681818 A 39.697889,39.829544 0 0 0 30.757806,5.625 a 27.20523,27.295454 0 0 0 -1.268521,2.587121 36.877697,37 0 0 0 -10.990067,0 A 27.322266,27.412878 0 0 0 17.230697,5.625 39.977265,40.10985 0 0 0 7.3203832,8.689394 c -6.2670946,9.30303 -7.96600566,18.375 -7.1165501,27.318182 v 0 A 39.916861,40.04924 0 0 0 12.34916,42.125 29.334532,29.431818 0 0 0 14.950381,37.916667 25.831,25.916666 0 0 1 10.854118,35.954545 c 0.343558,-0.25 0.679564,-0.507575 1.004245,-0.757576 a 28.530381,28.624999 0 0 0 24.283103,0 c 0.328456,0.26894 0.664463,0.526516 1.004245,0.757576 a 25.929159,26.015151 0 0 1 -4.103814,1.965909 29.070257,29.166666 0 0 0 2.601222,4.204546 39.735642,39.867425 0 0 0 12.152879,-6.113637 v 0 C 48.792691,25.640151 46.093308,16.651515 40.660569,8.681818 Z M 16.026358,30.507576 c -2.367149,0 -4.322784,-2.155303 -4.322784,-4.806818 0,-2.651516 1.887679,-4.825759 4.315234,-4.825759 2.427555,0 4.368089,2.174243 4.32656,4.825759 -0.04153,2.651515 -1.906556,4.806818 -4.31901,4.806818 z m 15.947113,0 c -2.370925,0 -4.31901,-2.155303 -4.31901,-4.806818 0,-2.651516 1.887679,-4.825759 4.31901,-4.825759 2.43133,0 4.356763,2.174243 4.315234,4.825759 -0.04153,2.651515 -1.90278,4.806818 -4.315234,4.806818 z" />
</svg>