<svg xmlns="http://www.w3.org/2000/svg" viewBox="0 0 48 48"><path fill="#FFF" d="M33 0H6.082A6.067 6.067 0 000 6.082v35.836A6.067 6.067 0 006.082 48h35.836A6.067 6.067 0 0048 41.918V15zm0 0"/><path fill="#DEDDDA" d="M7.633 39.43h32.71c.602 0 1.09.383 1.09.86 0 .472-.488.855-1.09.855H7.634c-.602 0-1.09-.383-1.09-.856 0-.477.488-.86 1.09-.86zm0 0M7.633 36h32.71c.602 0 1.09.387 1.09.86 0 .472-.488.855-1.09.855H7.634c-.602 0-1.09-.383-1.09-.856 0-.472.488-.859 1.09-.859zm0 0M7.633 32.574h32.71c.602 0 1.09.383 1.09.856 0 .472-.488.86-1.09.86H7.634c-.602 0-1.09-.388-1.09-.86 0-.473.488-.856 1.09-.856zm0 0M7.633 29.145h32.71c.602 0 1.09.382 1.09.855 0 .477-.488.86-1.09.86H7.634c-.602 0-1.09-.383-1.09-.86 0-.473.488-.855 1.09-.855zm0 0M7.633 25.715h32.71c.602 0 1.09.383 1.09.86 0 .472-.488.855-1.09.855H7.634c-.602 0-1.09-.383-1.09-.856 0-.476.488-.86 1.09-.86zm0 0M7.633 22.285h32.71c.602 0 1.09.387 1.09.86 0 .472-.488.855-1.09.855H7.634c-.602 0-1.09-.383-1.09-.855 0-.473.488-.86 1.09-.86zm0 0M7.633 18.86h32.71c.602 0 1.09.382 1.09.855s-.488.86-1.09.86H7.634c-.602 0-1.09-.387-1.09-.86s.488-.856 1.09-.856zm0 0M7.633 15.43h19.625c.601 0 1.09.254 1.09.566v.578c0 .317-.489.57-1.09.57H7.633c-.602 0-1.09-.253-1.09-.57v-.578c0-.312.488-.566 1.09-.566zm0 0M7.633 12h19.625c.601 0 1.09.254 1.09.566v.582c0 .313-.489.567-1.09.567H7.633c-.602 0-1.09-.254-1.09-.567v-.582c0-.312.488-.566 1.09-.566zm0 0M7.633 8.57h19.625c.601 0 1.09.258 1.09.57v.579c0 .312-.489.566-1.09.566H7.633c-.602 0-1.09-.254-1.09-.566V9.14c0-.313.488-.57 1.09-.57zm0 0M48.004 15L33 0v9c0 3.313 2.605 6 5.844 6zm0 0"/></svg>