<svg xmlns="http://www.w3.org/2000/svg" viewBox="0 0 48 48"><defs><linearGradient id="prefix__a" gradientUnits="userSpaceOnUse" x1="-841.55" y1="204" x2="-493.71" y2="-70" gradientTransform="matrix(.1112 0 0 .10714 98.186 17.143)"><stop offset="0" stop-color="#E01B24"/><stop offset=".394" stop-color="#E66100"/><stop offset="1" stop-color="#DF97E0"/></linearGradient></defs><path fill="#F6F5F4" d="M3.215 5.145h41.57A3.214 3.214 0 0148 8.355v31.29a3.214 3.214 0 01-3.215 3.21H3.215A3.214 3.214 0 010 39.645V8.355a3.214 3.214 0 013.215-3.21zm0 0"/><path fill="url(#prefix__a)" d="M5.047 8.57h37.906c.895 0 1.617.727 1.617 1.621V37.81c0 .894-.722 1.62-1.617 1.62H5.047a1.619 1.619 0 01-1.617-1.62V10.19c0-.894.722-1.62 1.617-1.62zm0 0"/><path fill="#FFF" d="M20.57 18.855v9.43h.946a.946.946 0 00.468-.125l6.598-3.77a.943.943 0 000-1.636l-6.598-3.774a.974.974 0 00-.453-.125zm0 0"/></svg>