<svg xmlns="http://www.w3.org/2000/svg" viewBox="0 0 48 48"><defs><clipPath id="prefix__a"><path d="M26.23.926L47.074 21.77a3.15 3.15 0 010 4.46L26.23 47.074a3.15 3.15 0 01-4.46 0L.926 26.23a3.15 3.15 0 010-4.46L21.77.926a3.15 3.15 0 014.46 0zm0 0"/></clipPath><clipPath id="prefix__b"><path d="M17.672 11.21H48V48H17.672zm0 0"/></clipPath><clipPath id="prefix__c"><path d="M26.23.926L47.074 21.77a3.15 3.15 0 010 4.46L26.23 47.074a3.15 3.15 0 01-4.46 0L.926 26.23a3.15 3.15 0 010-4.46L21.77.926a3.15 3.15 0 014.46 0zm0 0"/></clipPath><clipPath id="prefix__d"><path d="M0 0h22.93v35.883H0zm0 0"/></clipPath><clipPath id="prefix__e"><path d="M26.23.926L47.074 21.77a3.15 3.15 0 010 4.46L26.23 47.074a3.15 3.15 0 01-4.46 0L.926 26.23a3.15 3.15 0 010-4.46L21.77.926a3.15 3.15 0 014.46 0zm0 0"/></clipPath></defs><g clip-path="url(#prefix__a)"><path fill="#3584E4" d="M24.602-.703l24.101 24.101a.851.851 0 010 1.204L24.602 48.703a.851.851 0 01-1.204 0L-.703 24.602a.844.844 0 010-1.204L23.398-.703a.844.844 0 011.204 0zm0 0"/></g><g clip-path="url(#prefix__b)"><g clip-path="url(#prefix__c)"><path fill="#98C1F1" d="M39.078 11.566l-.976 2.942c-.047-.004-.094-.004-.141-.008-.79.008-1.578.066-2.36.184l-1.359-2.813c-.988.191-1.953.453-2.902.79l.226 3.093a17.13 17.13 0 00-2.242 1.117l-2.336-2.082a20.435 20.435 0 00-2.375 1.844l1.39 2.765c-.589.594-1.14 1.227-1.64 1.899l-2.965-1.031a20.446 20.446 0 00-1.48 2.613l2.34 2.02c-.32.773-.582 1.57-.785 2.382l-3.13.18c-.198.984-.323 1.98-.374 2.98l2.941.977c0 .043-.004.094-.004.14.004.79.067 1.579.18 2.36l-2.809 1.36c.188.984.453 1.952.785 2.898l3.098-.223c.317.77.692 1.524 1.117 2.242l-2.082 2.336a20.456 20.456 0 001.84 2.371l2.77-1.386c.59.59 1.222 1.14 1.894 1.636l-1.031 2.965a19.793 19.793 0 002.613 1.48l2.024-2.34c.773.325 1.566.587 2.379.79l.183 3.129c.98.195 1.977.32 2.98.37l.973-2.94c.047.003.094.007.14.007.79-.008 1.58-.066 2.36-.183l1.364 2.812c.98-.191 1.953-.453 2.898-.785l-.227-3.098a17.13 17.13 0 002.243-1.117l2.34 2.082a20.729 20.729 0 002.37-1.844l-1.39-2.765a16.83 16.83 0 001.64-1.895l2.965 1.028a20.198 20.198 0 001.48-2.61l-2.339-2.023c.32-.774.582-1.567.785-2.38l3.13-.183c.198-.984.323-1.976.374-2.98l-2.941-.973c0-.047.004-.094.004-.14a16.995 16.995 0 00-.18-2.36l2.809-1.363a19.612 19.612 0 00-.786-2.898l-3.097.226a16.654 16.654 0 00-1.117-2.242l2.082-2.34a19.634 19.634 0 00-1.84-2.371l-2.77 1.39a16.83 16.83 0 00-1.894-1.64l1.03-2.965a19.793 19.793 0 00-2.612-1.48l-2.02 2.34c-.773-.32-1.57-.583-2.383-.786l-.183-3.133c-.98-.199-1.977-.32-2.977-.37zm-1.117 7.477c6.914 0 12.516 5.602 12.516 12.516 0 6.91-5.602 12.515-12.516 12.515S25.445 38.47 25.445 31.56c0-6.914 5.602-12.516 12.516-12.516zm0 0"/></g></g><g clip-path="url(#prefix__d)"><g clip-path="url(#prefix__e)"><path fill="#1A5FB4" d="M3.86-4.273l-.977 2.941c-.047-.004-.094-.004-.14-.008-.79.008-1.579.067-2.36.184l-1.36-2.809c-.984.188-1.957.45-2.898.785l.223 3.098c-.774.312-1.52.687-2.239 1.113L-8.23-1.05A20.435 20.435 0 00-10.604.793l1.39 2.77c-.594.59-1.14 1.222-1.64 1.89l-2.961-1.027a20.011 20.011 0 00-1.485 2.613l2.344 2.02c-.32.773-.586 1.57-.79 2.382l-3.128.18c-.2.984-.324 1.98-.371 2.98l2.941.977c-.004.043-.004.094-.008.14.004.79.067 1.579.184 2.36l-2.812 1.36c.187.984.453 1.953.785 2.898l3.097-.227a16.89 16.89 0 001.118 2.243l-2.082 2.34a20.018 20.018 0 001.843 2.374l2.766-1.39c.59.59 1.226 1.14 1.894 1.637l-1.03 2.964a20.046 20.046 0 002.613 1.48l2.023-2.335c.773.316 1.566.582 2.379.785l.183 3.129c.98.2 1.977.324 2.98.371l.974-2.941c.046.004.093.007.14.007.79-.007 1.578-.066 2.36-.183l1.363 2.812a20.623 20.623 0 002.898-.785l-.226-3.097a17.13 17.13 0 002.242-1.118l2.34 2.082a20.068 20.068 0 002.37-1.843l-1.39-2.766a17.182 17.182 0 001.64-1.895l2.966 1.028a19.749 19.749 0 001.48-2.61l-2.34-2.023c.32-.773.582-1.57.79-2.383l3.124-.18c.2-.984.325-1.976.375-2.98l-2.941-.973c.004-.046.004-.097.008-.14-.008-.79-.07-1.578-.184-2.36l2.809-1.363a19.612 19.612 0 00-.785-2.898l-3.098.226a17.106 17.106 0 00-1.113-2.242l2.078-2.34a20.036 20.036 0 00-1.84-2.37l-2.77 1.39a16.442 16.442 0 00-1.894-1.64l1.031-2.966a19.793 19.793 0 00-2.613-1.48L9.402.016c-.773-.32-1.57-.586-2.382-.79l-.18-3.124c-.985-.2-1.98-.325-2.98-.375zm0 0"/></g></g><path fill="#1A5FB4" fill-opacity=".502" d="M.352 22.723c-.5 1.23-.25 2.683.75 3.683L21.59 46.898a3.407 3.407 0 004.82 0l20.488-20.492c1-1 1.25-2.453.75-3.683-.164.41-.418.797-.75 1.132L26.41 44.34a3.4 3.4 0 01-4.82 0L1.102 23.855a3.432 3.432 0 01-.75-1.132zm0 0"/></svg>