<svg aria-label="Visual Studio Code" xmlns="http://www.w3.org/2000/svg" viewBox="0 0 48 48">
  <link id="prefix__dark-mode-general-link" rel="stylesheet" type="text/css" />
  <style id="dark-mode-custom-style" type="text/css" />
  <style id="dark-mode-native-style" type="text/css" />
  <style id="dark-mode-native-sheet" type="text/css" />
  <filter id="prefix__a" x="-.026" y="-.035" width="1.053" height="1.07">
    <feFlood flood-opacity="0" result="b" />
    <feColorMatrix in="SourceAlpha" values="0 0 0 0 0 0 0 0 0 0 0 0 0 0 0 0 0 0 127 0" />
    <feGaussianBlur stdDeviation="4" />
    <feColorMatrix values="0 0 0 0 0 0 0 0 0 0 0 0 0 0 0 0 0 0 .25 0" />
    <feBlend in2="b" result="c" />
    <feBlend in="SourceGraphic" in2="c" />
  </filter>
  <path
    d="M45.168 5.883l-9.4-4.629a2.883 2.878 0 00-3.258.626L1.805 29.905a1.88 1.877 0 000 2.752l2.507 2.252a1.88 1.877 0 002.506.125L43.79 7.01c1.253-.876 3.008-.125 3.008 1.501v-.125c0-1.126-.627-2.126-1.63-2.502"
    fill="#27b" stroke-width=".125" />
  <path transform="matrix(.12533 0 0 .12511 0 1)"
    d="M360.4 324.03l-75 36a23 23 0 01-26-5l-245-223a15 15 0 010-22l20-19a15 15 0 0120-1l295 224c10 8 24 1 24-12v1c0 9-5 17-13 21"
    fill="#08c" filter="url(#prefix__a)" />
  <path
    d="M35.769 46.043a2.883 2.878 0 01-3.259-.626c1.128 1.126 2.883.376 2.883-1.126V3.131c0-1.502-1.754-2.378-2.882-1.252a2.883 2.878 0 013.383-.5l9.4 4.504c.877.375 1.504 1.376 1.504 2.502v30.527a3.049 3.049 0 01-1.504 2.627"
    fill="#19f" stroke-width=".125" />
</svg>