<svg xmlns="http://www.w3.org/2000/svg" viewBox="0 0 48 48"><defs><linearGradient id="prefix__a" gradientUnits="userSpaceOnUse" x1="2689.3" y1="-1106.8" x2="2918.1" y2="-1106.8" gradientTransform="matrix(.20977 0 0 .20621 -564.15 273.506)"><stop offset="0" stop-color="#62A0EA"/><stop offset=".058" stop-color="#AFD4FF"/><stop offset=".122" stop-color="#62A0EA"/><stop offset=".873" stop-color="#62A0EA"/><stop offset=".956" stop-color="#C0D5EA"/><stop offset="1" stop-color="#62A0EA"/></linearGradient></defs><path fill="#438DE6" d="M4.605 0C2.055 0 0 2.02 0 4.527v38.946C0 45.984 2.055 48 4.605 48h38.79C45.949 48 48 45.984 48 43.473V10.84c0-3-2.473-5.43-5.523-5.43H21.23a3.007 3.007 0 01-2.675-1.62l-.692-1.356A4.506 4.506 0 0013.848 0zm0 0"/><path fill="url(#prefix__a)" d="M24.914 10.863c-1.27 0-2.414.5-3.246 1.309-1.047 1.023-2.484 2.316-3.984 2.316H4.605c-2.55 0-4.605 2.02-4.605 4.524v24.46C0 45.985 2.055 48 4.605 48h38.79C45.949 48 48 45.984 48 43.473V15.39c0-2.508-2.05-4.528-4.605-4.528zm0 0"/><path fill="#A4CAEE" d="M24.914 9.055c-1.27 0-2.414.496-3.246 1.308-1.047 1.02-2.484 2.313-3.984 2.313H4.605c-2.55 0-4.605 2.02-4.605 4.527v25.34c0 2.508 2.055 4.527 4.605 4.527h38.79c2.554 0 4.605-2.02 4.605-4.527V13.582c0-2.508-2.05-4.527-4.605-4.527zm0 0"/></svg>