<svg xmlns="http://www.w3.org/2000/svg" viewBox="0 0 48 48"><defs><radialGradient id="prefix__a" gradientUnits="userSpaceOnUse" cx="413.64" cy="226.77" fx="413.64" fy="226.77" r="192" gradientTransform="matrix(.12392 .17416 .13112 -.06143 -58.549 -31.503)"><stop offset="0" stop-color="#50DB81"/><stop offset="1" stop-color="#8FF0A4" stop-opacity=".004"/></radialGradient><radialGradient id="prefix__b" gradientUnits="userSpaceOnUse" cx="521.89" cy="228.37" fx="521.89" fy="228.37" r="192" gradientTransform="matrix(0 -.12104 -.15217 0 48.626 107.16)"><stop offset="0" stop-color="#4A86CF"/><stop offset="1" stop-color="#87BAE1" stop-opacity="0"/></radialGradient></defs><path fill="#FFF" d="M32.996 0H6.082A6.067 6.067 0 000 6.082v35.84a6.07 6.07 0 006.082 6.082h35.832a6.07 6.07 0 006.082-6.082V15zm0 0"/><path fill="#DEDDDA" d="M47.996 15l-15-15v9c0 3.313 2.606 6 5.844 6zm0 0M34.125 41.055h6.75c.621 0 1.125.379 1.125.847 0 .47-.504.852-1.125.852h-6.75c-.625 0-1.125-.383-1.125-.852 0-.468.504-.847 1.125-.847zm0 0M34.125 37.66h6.75c.621 0 1.125.38 1.125.848 0 .469-.504.847-1.125.847h-6.75c-.625 0-1.125-.378-1.125-.847s.504-.848 1.125-.848zm0 0M34.125 34.266h6.75c.621 0 1.125.379 1.125.847 0 .469-.504.848-1.125.848h-6.75c-.625 0-1.125-.379-1.125-.848 0-.468.504-.847 1.125-.847zm0 0M34.125 30.871h6.75c.621 0 1.125.379 1.125.848 0 .468-.504.847-1.125.847h-6.75c-.625 0-1.125-.379-1.125-.847 0-.469.504-.848 1.125-.848zm0 0M34.125 27.477h6.75c.621 0 1.125.378 1.125.847s-.504.848-1.125.848h-6.75c-.625 0-1.125-.379-1.125-.848s.504-.847 1.125-.847zm0 0M34.125 24.078h6.75c.621 0 1.125.383 1.125.852 0 .468-.504.847-1.125.847h-6.75c-.625 0-1.125-.379-1.125-.847 0-.47.504-.852 1.125-.852zm0 0M34.125 20.684h6.75c.621 0 1.125.382 1.125.851s-.504.848-1.125.848h-6.75c-.625 0-1.125-.38-1.125-.848 0-.469.504-.851 1.125-.851zm0 0M7.125 17.29h33.75c.621 0 1.125.378 1.125.85 0 .47-.504.848-1.125.848H7.125c-.621 0-1.125-.379-1.125-.847 0-.473.504-.852 1.125-.852zm0 0M7.125 13.895h20.25c.621 0 1.125.253 1.125.562v.574c0 .309-.504.563-1.125.563H7.125C6.504 15.594 6 15.34 6 15.03v-.574c0-.309.504-.562 1.125-.562zm0 0M7.125 10.5h20.25c.621 0 1.125.254 1.125.563v.574c0 .308-.504.562-1.125.562H7.125C6.504 12.2 6 11.945 6 11.637v-.575c0-.308.504-.562 1.125-.562zm0 0"/><path fill="url(#prefix__a)" d="M8.52 43.125h18.21c1.188 0 2.145-.777 2.145-1.738V23.113c0-.96-.957-1.738-2.145-1.738H8.52c-1.188 0-2.145.777-2.145 1.738v18.274c0 .96.957 1.738 2.145 1.738zm0 0"/><path fill="url(#prefix__b)" d="M8.52 43.125h18.21c1.188 0 2.145-.777 2.145-1.738V23.113c0-.96-.957-1.738-2.145-1.738H8.52c-1.188 0-2.145.777-2.145 1.738v18.274c0 .96.957 1.738 2.145 1.738zm0 0"/></svg>