<svg xmlns="http://www.w3.org/2000/svg" viewBox="0 0 48 48"><defs><radialGradient id="prefix__a" gradientUnits="userSpaceOnUse" cx="312.66" cy="2706.6" fx="312.66" fy="2706.6" r="14.806" gradientTransform="matrix(.51139 .00826 -.007 .44153 -130.911 -1164.32)"><stop offset="0" stop-color="#8FF0A4"/><stop offset="1" stop-color="#8FF0A4" stop-opacity="0"/></radialGradient><radialGradient id="prefix__b" gradientUnits="userSpaceOnUse" cx="312.66" cy="2706.6" fx="312.66" fy="2706.6" r="14.806" gradientTransform="matrix(.51139 .00826 -.007 .44153 -104.487 -1164.32)"><stop offset="0" stop-color="#8FF0A4"/><stop offset="1" stop-color="#8FF0A4" stop-opacity="0"/></radialGradient></defs><path fill="#33D17A" d="M15.516 5.414v22.078c-1.602-1-3.45-1.531-5.336-1.535C4.559 25.957 0 30.555 0 36.227 0 41.902 4.559 46.5 10.18 46.5c5.433-.008 9.902-4.313 10.16-9.781h.023V11.28h22.774v16.215a10.081 10.081 0 00-5.336-1.539c-5.621 0-10.18 4.598-10.18 10.27 0 5.675 4.559 10.273 10.18 10.273 5.43-.008 9.902-4.313 10.156-9.781H48V5.414C48 3.457 45.988 1.5 44.172 1.5H19.395c-1.942 0-3.88 1.957-3.88 3.914zm0 0"/><path fill="#26A269" d="M20.363 11.285v.977c0-.598.489-.977 1-.977h20.813c.511 0 .96.485.96.977v-.977c0-.473-.956-.98-.956-.98H21.332c-.504 0-.969.48-.969.98zM.012 35.738c-.008.164-.012.325-.012.492C0 41.902 4.559 46.5 10.184 46.5c5.43-.008 9.898-4.309 10.156-9.781h.023v-.98h-.023c-.258 5.472-4.73 9.777-10.156 9.784-5.461 0-9.918-4.34-10.172-9.785zm27.62 0c-.007.164-.01.325-.01.492 0 5.672 4.558 10.27 10.179 10.27 5.43-.008 9.902-4.309 10.156-9.781H48v-.98h-.043c-.254 5.472-4.727 9.777-10.156 9.784-5.457 0-9.914-4.34-10.168-9.785zm0 0"/><path fill="url(#prefix__a)" d="M17.863 34.004c0 4-3.215 7.242-7.183 7.242-3.961 0-7.176-3.242-7.176-7.242s3.215-7.242 7.176-7.242c3.968 0 7.183 3.242 7.183 7.242zm0 0"/><path fill="url(#prefix__b)" d="M44.285 34.004c0 4-3.215 7.242-7.18 7.242-3.964 0-7.18-3.242-7.18-7.242s3.216-7.242 7.18-7.242c3.965 0 7.18 3.242 7.18 7.242zm0 0"/></svg>