<svg xmlns="http://www.w3.org/2000/svg" viewBox="0 0 48 48"><path fill="#E8E8E8" d="M44.543 39.55H24.719c-.766 0-1.39-.62-1.39-1.39V9.887c0-.766.624-1.39 1.39-1.39h19.824c.77 0 1.395.624 1.395 1.39V38.16c0 .77-.626 1.39-1.395 1.39zm0 0"/><path fill="#B2B2B2" d="M38.879 16.945h-14.16c-.766 0-1.39-.625-1.39-1.394 0-.766.624-1.39 1.39-1.39h14.16c.77 0 1.394.624 1.394 1.39 0 .722-.625 1.394-1.394 1.394zm0 5.664h-14.16c-.766 0-1.39-.625-1.39-1.394 0-.766.624-1.39 1.39-1.39h14.16c.77 0 1.394.624 1.394 1.39 0 .77-.625 1.394-1.394 1.394zm0 5.614h-14.16a1.391 1.391 0 010-2.782h14.16a1.392 1.392 0 110 2.781zm0 5.664h-14.16a1.391 1.391 0 010-2.782h14.16a1.392 1.392 0 110 2.781zm0 0"/><path fill="#0D47A1" d="M28.465 46.656L2.063 41.617V6.336l26.402-5.04zm0 0"/><path fill="#FFF" d="M20.977 32.64h-3.36l-2.21-11.09a8.852 8.852 0 01-.192-1.917h-.047a15.084 15.084 0 01-.238 1.918l-2.305 11.09H9.121L5.617 15.359H8.93l1.87 11.52c.095.48.145 1.152.192 1.969h.047c0-.625.145-1.297.29-2.016l2.398-11.473h3.218l2.207 11.618c.094.43.145 1.054.192 1.87h.047c.05-.624.097-1.245.195-1.917l1.871-11.524h3.023zm0 0"/></svg>