<svg xmlns="http://www.w3.org/2000/svg" viewBox="0 0 48 48"><path fill="#FF8A65" d="M45.406 6.336h-20.16v35.281h20.16c.723 0 1.25-.578 1.25-1.25V7.633c0-.723-.527-1.297-1.25-1.297zm0 0"/><path fill="#FBE9E7" d="M24 30.29h17.664v2.495H24zm0 5.038h17.664v2.543H24zm7.586-22.656c-4.18 0-7.586 3.406-7.586 7.586 0 4.176 3.406 7.582 7.586 7.582 4.176 0 7.582-3.406 7.582-7.582h-7.582zm0 0"/><path fill="#FBE9E7" d="M34.078 10.129v7.582h7.586c0-4.176-3.406-7.582-7.586-7.582zm0 0"/><path fill="#E64A19" d="M27.793 46.703l-26.45-5.039V6.336l26.45-5.04zm0 0"/><path fill="#FFF" d="M14.977 15.36H9.023v17.28h3.696v-5.953h1.922c2.062 0 3.695-.527 4.894-1.632 1.2-1.055 1.824-2.496 1.824-4.223 0-3.648-2.16-5.473-6.382-5.473zm-.672 8.35h-1.586v-5.374h1.586c2.015 0 3.023.863 3.023 2.64 0 1.872-1.008 2.735-3.023 2.735zm0 0"/></svg>