<svg xmlns="http://www.w3.org/2000/svg" viewBox="0 0 48 48"><path fill="#4CAF50" d="M45.406 6.336h-20.16v35.281h20.16c.723 0 1.25-.578 1.25-1.25V7.633c0-.723-.527-1.297-1.25-1.297zm0 0"/><path fill="#FFF" d="M34.078 12.672h8.832v3.793h-8.832zm0 12.574h8.832v3.793h-8.832zm0 6.29h8.832v3.792h-8.832zm0-12.575h8.832v3.793h-8.832zm-8.832-6.29h6.29v3.794h-6.29zm0 12.575h6.29v3.793h-6.29zm0 6.29h6.29v3.792h-6.29zm0-12.575h6.29v3.793h-6.29zm0 0"/><path fill="#2E7D32" d="M27.793 46.703l-26.45-5.039V6.336l26.45-5.04zm0 0"/><path fill="#FFF" d="M17.809 32.64l-2.977-5.617c-.098-.191-.238-.574-.336-1.152h-.098c-.046.29-.191.672-.382 1.2l-2.977 5.57H6.383L11.903 24l-5.04-8.64h4.754l2.496 5.183c.192.434.383.914.528 1.441h.046c.098-.336.29-.816.528-1.488l2.687-5.137h4.32l-5.132 8.543 5.324 8.739zm0 0"/></svg>