<svg xmlns="http://www.w3.org/2000/svg" viewBox="0 0 48 48">
  <link id="prefix__dark-mode-general-link" rel="stylesheet" type="text/css" />
  <style id="dark-mode-custom-style" type="text/css" />
  <style id="dark-mode-native-style" type="text/css" />
  <style id="dark-mode-native-sheet" type="text/css" />
  <defs>
    <style>
      .prefix__cls-1 {
        opacity: .2;
        isolation: isolate
      }

      .prefix__cls-11 {
        fill: #f4cc25
      }

      .prefix__cls-12 {
        fill: #912f10
      }

      .prefix__cls-13 {
        fill: #d95a17
      }

      .prefix__cls-15 {
        fill: #ff9c78
      }
    </style>
  </defs>
  <g stroke-width="2">
    <rect class="prefix__cls-1" y="30" width="48" height="16" rx="1.55" />
    <rect y="30" width="48" height="14" rx="1.45" fill="#0e5320" />
    <rect y="30" width="48" height="6" rx=".948" fill="#1fa544" />
    <rect y="32" width="48" height="10" rx="1.224" fill="#1b953c" />
    <rect y="22" width="48" height="8" rx="1.096" fill="#2a2c6b" />
    <rect y="16" width="48" height="8" rx="1.096" fill="#595ebf" />
    <rect y="18" width="48" height="10" rx="1.224" fill="#4e52b3" />
    <rect y="8" width="48" height="8" rx="1.096" fill="#7f162a" />
    <rect y="2" width="48" height="8" rx="1.096" fill="#e45f89" />
    <rect y="4" width="48" height="10" rx="1.224" fill="#cd2a50" />
    <path class="prefix__cls-11" d="M4 4h2v8H4zM4 18h2v8H4zM4 32h2v8H4z" />
    <path class="prefix__cls-1" d="M16 2h18v42H16z" />
    <path class="prefix__cls-12" d="M18 2h14v42H18z" />
    <path class="prefix__cls-13" d="M18 2h14v40H18z" />
    <path fill="#c44b16" d="M18 28h14v4H18z" />
    <path class="prefix__cls-15" d="M25 6a7 7 0 017 7v7H18v-7a7 7 0 017-7z" />
    <path class="prefix__cls-13" d="M25 8a7 7 0 017 7v7H18v-7a7 7 0 017-7z" />
    <path d="M24.968 22h.064a.968.968 0 01.968.968V30h-2v-7.032a.968.968 0 01.968-.968z" fill="#ededed" />
    <path fill="#ff8f6c" d="M18 2h14v2H18z" />
    <circle class="prefix__cls-12" cx="25" cy="15" r="1" />
    <circle class="prefix__cls-12" cx="25" cy="19" r="1" />
    <path class="prefix__cls-15" d="M18 13h14v4H18z" />
    <path class="prefix__cls-13" d="M18 14h14v3H18z" />
    <path class="prefix__cls-12" d="M18 16h14v1H18z" />
    <path
      d="M32 18.472v6.766A2.762 2.762 0 0129.238 28h-8.476A2.762 2.762 0 0118 25.238v-6.766a3.778 3.778 0 00-2 3.328v4.4a3.8 3.8 0 003.8 3.8h10.4a3.8 3.8 0 003.8-3.8v-4.4a3.778 3.778 0 00-2-3.328z"
      fill="#fff" />
  </g>
</svg>