<svg xmlns="http://www.w3.org/2000/svg" viewBox="0 0 48 48">
  <g fill-rule="evenodd">
    <path d="M.981 6.389h22.99v26.63H.982z" fill="#fefefe" stroke-width=".961" />
    <path d="M0 5.36h25.038v28.515H0z" fill="#fefefe" />
    <path
      d="M38.192 10.335v3.826h-.006c-.001.312-.032.502-.155.661l-.003.004a1.045 1.045 0 01-.09.095 1.93 1.93 0 01-.358.243c-.467.263-1.133.487-1.89.675l-.018.004-.022.006c-.297.072-.606.138-.919.2l.037-.007-.027.005c.467-.076.952-.151 1.429-.227l.026-.004.056-.008.02-.003.037-.006.056-.009h.008l.048-.008.054-.009h.002c.614-.099 1.205-.2 1.715-.306V19.175h-.006c0 .212-.016.368-.064.496a.815.815 0 01-.06.095c-.161.222-.457.413-.895.596-.65.27-1.526.494-2.436.671l.591-.094c-.19.043-.384.083-.58.122 1.175-.192 2.462-.377 3.45-.585v3.556l-.006-.001c-.001.323-.035.515-.168.678l-.004.005-.047.05-.008.009h-.002a1.84 1.84 0 01-.377.262c-.541.304-1.352.557-2.259.761l-.004.001-.037.009-.014.003-.028.007-.024.006-.018.003c-.153.033-.308.065-.465.096l.01-.001.045-.008.056-.008.056-.009.044-.007.012-.001.055-.009.035-.006.022-.004.055-.008.024-.004.033-.005c1.05-.167 2.148-.33 3.014-.512v4.139h-5.058c.057-.227.197-.356.532-.545.655-.369 1.74-.66 2.876-.883-1.178.191-2.46.38-3.443.592v-3.711c.01-.47.095-.618.567-.884.655-.368 1.74-.66 2.876-.882-1.178.191-2.46.38-3.443.592v-3.81c.01-.47.095-.617.567-.883.655-.369 1.74-.661 2.876-.883-1.178.192-2.46.381-3.443.592v-3.955c.01-.471.095-.618.567-.884.655-.369 1.74-.66 2.876-.883-1.178.192-2.46.38-3.443.592V9.761h4.876c-.173.178-.44.338-.808.491-.65.271-1.526.494-2.436.672 1.179-.192 2.471-.376 3.461-.583zm0 22.088v3.21H33.1v-3.21z"
      fill="#606062" />
    <g fill="#bdbfc1">
      <path
        d="M36.436 18.19c1.686-.271 3.19-.545 3.357-.89v-2.412c-.158.154-.533.294-1.039.425-1.016.268-2.596.497-4.022.729l.067-.014c-1.699.277-3.192.558-3.288.91v2.396l.01-.01.022-.023c.496-.46 2.913-.793 4.999-1.132l-.106.021M36.436 13.068c1.686-.271 3.19-.545 3.357-.89V9.766c-.158.153-.533.293-1.039.424-1.016.269-2.596.497-4.022.73l.067-.014c-1.699.277-3.192.557-3.288.91v2.395l.01-.01a.661.661 0 01.022-.022c.496-.46 2.913-.793 4.999-1.132l-.106.02M31.53 9.759c.156.46 1.044.485 1.567.56.001-.254.013-.424.071-.56zM36.436 23.178c1.686-.271 3.19-.545 3.357-.89v-2.412c-.158.154-.533.294-1.039.424-1.016.269-2.596.498-4.022.73l.067-.013c-1.699.276-3.192.557-3.288.909v2.395l.01-.01a.661.661 0 01.022-.022c.496-.46 2.913-.793 4.999-1.132l-.106.02M36.436 28.068c1.686-.271 3.19-.545 3.357-.89v-2.412c-.158.153-.533.293-1.039.424-1.016.268-2.596.497-4.022.73l.067-.014c-1.699.277-3.192.557-3.288.91v2.395l.01-.01a.79.79 0 01.022-.023c.496-.46 2.913-.792 4.999-1.131l-.106.02" />
    </g>
    <path d="M27.354 43.472h2.308v2.719h-2.308zm14.282 0h2.416v2.719h-2.416z" fill="#606062" />
    <path d="M39.813 36.989v4.082h-8.286v-4.077l8.286-.006z" fill="#bdbfc1" />
    <g fill="#848688">
      <path
        d="M41.227 41.474H30.07v6.532h11.157zM26.94 41.707h-3.535v6.13h3.536zM48 41.707h-3.536v6.13H48zM29.823 36.597l11.886-.009v-6.834l-11.86-.018c-.355.342-1.588 1.617-2.78 2.85l-1.613 1.664-.005.005c-.059.056-.105.105-.144.145-.103.107-.158.164-.27.203-.109.037-.226.035-.475.031l-.185-.002h-.003L6.43 34.629v.001c-.172 0-.285.013-.35.04a.075.075 0 00-.042.035l-.028 1.172c.026.285.226.464.422.638.05.045.1.09.155.143l2.794 2.619.015.015c.007.008.034-.01.227-.012h.001l.277-.003h16.482c.143-.002.26-.004.346-.007.072-.002.115-.003.124-.006.26-.041.427-.219.608-.41a15.25 15.25 0 00.648-.693c.563-.627 1.356-1.506 1.678-1.562l.036-.004zM41.71 2.712l-11.887-.008-.036-.004c-.322-.056-1.114-.935-1.678-1.56-.211-.235-.39-.432-.483-.524-.061-.06-.114-.115-.165-.17-.18-.191-.348-.37-.608-.41-.01-.003-.051-.004-.124-.007a32.944 32.944 0 00-.346-.007H9.901c-.042 0-.172 0-.277-.002C9.43.018 9.403 0 9.395.008l-.015.015-2.794 2.619c-.054.052-.104.097-.155.142-.195.175-.396.353-.422.638l.028 1.172c.008.015.02.027.041.035.066.028.179.04.351.04v.001l17.945-.002h.003l.185-.004c.25-.004.366-.006.475.03v.001c.112.04.167.096.27.203.039.04.086.09.144.146l.005.005c.464.476 1.034 1.066 1.613 1.664 1.192 1.233 2.425 2.507 2.78 2.85l11.86-.019V2.71z" />
    </g>
    <path d="M2.686 8.803h19.628v8.954H2.686zm5.654 3.173h8.407v2.608H8.34z" fill="#f6c32e" />
    <path d="M1.813 7.774h21.371v11.02H1.813zM0 5.366h25.037V33.88H0zm1.813 15.743h21.371v11.02H1.813z"
      fill="#d4a63a" />
    <path d="M2.686 22.136h19.628v8.954H2.686zM8.34 25.31h8.407v2.608H8.34z" fill="#f6c32e" />
  </g>
</svg>