<svg xmlns="http://www.w3.org/2000/svg" viewBox="0 0 75 75">
  <path fill="currentColor"
    d="m 21.756,52.576 c 10.56,0 18.384,-7.344 18.384,-17.376 0,-10.032 -7.824,-17.376 -18.384,-17.376 -10.608,0 -18.384,7.392 -18.384,17.376 0,9.984 7.776,17.376 18.384,17.376 z m 0,-6.624 c -6,0 -10.512,-4.368 -10.512,-10.752 0,-6.384 4.512,-10.752 10.512,-10.752 6,0 10.512,4.368 10.512,10.752 0,6.384 -4.512,10.752 -10.512,10.752 z" />
  <path fill="currentColor"
    d="m 73.787993,52 -11.712,-14.88 10.752,-10.944 h -8.928 l -10.944,10.368 v -20.16 h -7.488 V 52 h 7.488 v -6.576 l 3.6,-3.552 8.16,10.128 z" />
  <path style="fill:none;stroke:#f15;stroke-width:8;stroke-linecap:round" d="M 36,57 A 20,16 0 0 1 7,57" />
</svg>