<svg xmlns="http://www.w3.org/2000/svg" viewBox="0 0 245 72">
  <path fill="currentColor"
    d="M 18.656,52.576 C 29.216,52.576 37.04,45.232 37.04,35.2 37.04,25.168 29.216,17.824 18.656,17.824 8.048,17.824 0.27199998,25.216 0.27199998,35.2 0.27199998,45.184 8.048,52.576 18.656,52.576 Z m 0,-6.624 c -6,0 -10.512,-4.368 -10.512,-10.752 0,-6.384 4.512,-10.752 10.512,-10.752 6,0 10.512,4.368 10.512,10.752 0,6.384 -4.512,10.752 -10.512,10.752 z" />
  <path fill="currentColor"
    d="m 70.687993,52 -11.712,-14.88 10.752,-10.944 h -8.928 l -10.944,10.368 v -20.16 h -7.488 V 52 h 7.488 v -6.576 l 3.6,-3.552 8.16,10.128 z" />
  <path fill="currentColor"
    d="m 83.983975,25.792 c -4.128,0 -8.304,1.104 -11.136,3.12 l 2.688,5.232 c 1.872,-1.488 4.704,-2.4 7.44,-2.4 4.032,0 5.952,1.872 5.952,5.088 h -5.952 c -7.872,0 -11.088,3.168 -11.088,7.728 0,4.464 3.6,7.824 9.648,7.824 3.792,0 6.48,-1.248 7.872,-3.6 V 52 h 7.008 V 37.264 c 0,-7.824 -4.56,-11.472 -12.432,-11.472 z m -0.576,21.552 c -2.64,0 -4.224,-1.248 -4.224,-3.12 0,-1.728 1.104,-3.024 4.608,-3.024 h 5.136 v 2.64 c -0.864,2.352 -3.024,3.504 -5.52,3.504 z" />
  <path fill="currentColor"
    d="m 136.256,25.792 c -3.888,0 -7.248,1.584 -9.312,4.224 -1.824,-2.832 -4.896,-4.224 -8.496,-4.224 -3.312,0 -6.192,1.152 -8.112,3.36 v -2.976 h -7.152 V 52 h 7.488 V 39.04 c 0,-4.608 2.352,-6.768 5.664,-6.768 3.12,0 4.896,1.92 4.896,6.096 V 52 h 7.488 V 39.04 c 0,-4.608 2.352,-6.768 5.712,-6.768 3.024,0 4.896,1.92 4.896,6.096 V 52 h 7.488 V 37.216 c 0,-7.872 -4.416,-11.424 -10.56,-11.424 z" />
  <path fill="currentColor"
    d="m 168.79999,25.792 c -3.456,0 -6.24,1.104 -8.112,3.36 v -2.976 h -7.152 v 35.136 h 7.488 V 49.264 c 1.92,2.112 4.56,3.12 7.776,3.12 7.248,0 12.864,-5.184 12.864,-13.296 0,-8.112 -5.616,-13.296 -12.864,-13.296 z m -1.296,20.448 c -3.744,0 -6.576,-2.688 -6.576,-7.152 0,-4.464 2.832,-7.152 6.576,-7.152 3.744,0 6.576,2.688 6.576,7.152 0,4.464 -2.832,7.152 -6.576,7.152 z" />
  <path fill="currentColor"
    d="m 205.18402,38.944 c 0,4.752 -2.496,6.96 -5.952,6.96 -3.312,0 -5.232,-1.92 -5.232,-6.24 V 26.176 h -7.488 v 14.592 c 0,7.968 4.56,11.616 11.04,11.616 3.168,0 6.048,-1.2 8.016,-3.456 V 52 h 7.104 V 26.176 h -7.488 z" />
  <path fill="currentColor"
    d="m 228.32003,52.384 c 7.728,0 12.192,-3.408 12.192,-8.208 0,-10.176 -15.6,-5.904 -15.6,-10.32 0,-1.344 1.44,-2.4 4.8,-2.4 2.352,0 4.896,0.48 7.44,1.92 l 2.496,-5.328 c -2.448,-1.44 -6.384,-2.256 -9.936,-2.256 -7.536,0 -11.952,3.456 -11.952,8.352 0,10.32 15.6,6 15.6,10.224 0,1.44 -1.296,2.352 -4.752,2.352 -3.168,0 -6.672,-1.008 -8.976,-2.496 l -2.496,5.376 c 2.4,1.584 6.816,2.784 11.184,2.784 z" />
  <path style="fill:none;stroke:#f15;stroke-width:8;stroke-linecap:round" d="M 34,57 A 20,16 0 0 1 4,57" />
</svg>