<svg xmlns="http://www.w3.org/2000/svg" viewBox="0 0 220 72">
  <path aria-label="Okampus" fill="currentColor"
    d="m 18.974397,52.359702 q -3.8312,0 -7.08772,-1.29303 -3.2086296,-1.29303 -5.6031295,-3.63964 -2.34661,-2.3945 -3.68753,-5.65102 -1.29303,-3.30441 -1.29303,-7.27928 0,-5.2679 2.25083,-9.19488 2.25083,-3.974869 6.2256999,-6.177809 4.0227596,-2.20294 9.1469896,-2.20294 5.22001,0 9.19488,2.20294 3.97487,2.20294 6.2257,6.177809 2.29872,3.97487 2.29872,9.24277 0,3.92698 -1.34092,7.23139 -1.29303,3.25652 -3.68753,5.65102 -2.34661,2.34661 -5.60313,3.63964 -3.20863,1.29303 -7.03983,1.29303 z m -0.04789,-5.84258 q 3.01707,0 5.31579,-1.53248 2.29872,-1.53248 3.59175,-4.21432 1.34092,-2.72973 1.34092,-6.32148 0,-3.54386 -1.29303,-6.17781 -1.29303,-2.63395 -3.59175,-4.070649 -2.29872,-1.4367 -5.36368,-1.4367 -3.01707,0 -5.31579,1.4367 -2.29872,1.436699 -3.59175,4.070649 -1.2451396,2.58606 -1.2451396,6.17781 0,3.63964 1.2930296,6.36937 1.29303,2.68184 3.59175,4.21432 2.29872,1.48459 5.2679,1.48459 z m 22.029417,5.36368 V 17.400003 h 7.1835 v 34.480799 z m 15.660029,0 -10.152679,-12.69085 9.913229,-11.73305 h 8.28497 l -11.63727,12.83452 0.33523,-2.25083 11.78094,13.84021 z m 25.525439,0 q -0.28734,-1.05358 -0.43101,-2.25083 -0.09578,-1.19725 -0.09578,-2.77762 h -0.19156 v -11.54149 q 0,-1.48459 -1.00569,-2.29872 -0.9578,-0.86202 -2.8734,-0.86202 -1.81982,0 -2.92129,0.62257 -1.05358,0.62257 -1.38881,1.81982 h -6.84827 q 0.4789,-3.30441 3.40019,-5.45946 2.92129,-2.15505 7.99763,-2.15505 5.2679,0 8.04552,2.34661 2.77762,2.34661 2.77762,6.75249 v 10.77525 q 0,1.19725 0.14367,2.44239 0.19156,1.19725 0.57468,2.58606 z m -8.52442,0.4789 q -3.63964,0 -5.79469,-1.81982 -2.15505,-1.86771 -2.15505,-4.93267 0,-3.40019 2.53817,-5.45946 2.58606,-2.10716 7.1835,-2.72973 l 7.13561,-1.00569 v 4.16643 l -5.93836,0.90991 q -1.9156,0.28734 -2.82551,1.05358 -0.90991,0.76624 -0.90991,2.10716 0,1.19725 0.86202,1.81982 0.86202,0.62257 2.29872,0.62257 2.25083,0 3.8312,-1.19725 1.58037,-1.24514 1.58037,-2.8734 l 0.67046,3.8312 q -1.05358,2.72973 -3.20863,4.11854 -2.15505,1.38881 -5.2679,1.38881 z m 20.496876,-0.4789 v -24.4239 h 7.039832 v 5.7468 h 0.14367 v 18.6771 z m 16.426272,0 v -15.51636 q 0,-1.86771 -1.00569,-2.72973 -0.9578,-0.90991 -2.72973,-0.90991 -1.53248,0 -2.82551,0.71835 -1.24514,0.67046 -1.96349,1.96349 -0.71835,1.24514 -0.71835,2.96918 l -0.62257,-5.50735 q 1.19725,-2.68184 3.44808,-4.26221 2.29872,-1.62826 5.50735,-1.62826 3.8312,0 5.93836,2.15505 2.15505,2.15505 2.15505,5.41157 v 17.33618 z m 16.42627,0 v -15.51636 q 0,-1.86771 -1.00569,-2.72973 -0.9578,-0.90991 -2.72973,-0.90991 -1.53248,0 -2.82551,0.71835 -1.24514,0.67046 -1.96349,1.96349 -0.71835,1.24514 -0.71835,2.96918 l -1.10147,-5.50735 q 1.19725,-2.68184 3.54386,-4.26221 2.3945,-1.62826 5.7468,-1.62826 3.97487,0 6.08203,2.25083 2.15505,2.20294 2.15505,5.79469 v 16.85728 z m 27.53679,0.4789 q -3.49597,0 -5.60313,-1.62826 -2.10716,-1.62826 -2.49028,-4.45377 l 0.38312,-0.04789 v 15.46847 h -7.1835 v -34.24135 h 7.03983 v 5.41157 l -0.43101,-0.09578 q 0.52679,-2.68184 2.8734,-4.21432 2.34661,-1.58037 5.79469,-1.58037 3.30441,0 5.69891,1.58037 2.44239,1.53248 3.73542,4.35799 1.34092,2.82551 1.34092,6.65671 0,3.87909 -1.38881,6.75249 -1.38881,2.8734 -3.87909,4.45377 -2.49028,1.58037 -5.89047,1.58037 z m -2.01138,-5.7468 q 2.53817,0 4.11854,-1.81982 1.58037,-1.81982 1.58037,-5.17212 0,-3.3523 -1.62826,-5.12423 -1.58037,-1.77193 -4.16643,-1.77193 -2.49028,0 -4.11854,1.81982 -1.58037,1.77193 -1.58037,5.12423 0,3.3523 1.58037,5.17212 1.62826,1.77193 4.21432,1.77193 z m 25.09438,5.7468 q -2.58606,0 -4.45377,-1.10147 -1.81982,-1.14936 -2.77762,-3.01707 -0.9578,-1.9156 -0.9578,-4.26221 v -16.52205 h 7.1835 v 15.13324 q 0,2.01138 1.00569,3.01707 1.00569,1.00569 2.82551,1.00569 1.62826,0 2.8734,-0.76624 1.24514,-0.76624 1.96349,-2.10716 0.76624,-1.38881 0.76624,-3.16074 l 0.62257,5.89047 q -1.19725,2.63395 -3.49597,4.26221 -2.29872,1.62826 -5.55524,1.62826 z m 8.57231,-0.4789 v -5.7468 h -0.14367 v -18.6771 h 7.1835 v 24.4239 z m 22.31673,0.4789 q -5.36368,0 -8.52442,-2.15505 -3.16074,-2.15505 -3.44808,-5.93836 h 6.41726 q 0.23945,1.62826 1.62826,2.49028 1.4367,0.81413 3.92698,0.81413 2.25083,0 3.25652,-0.62257 1.05358,-0.67046 1.05358,-1.86771 0,-0.90991 -0.62257,-1.38881 -0.57468,-0.52679 -2.15505,-0.86202 l -3.92698,-0.81413 q -4.35799,-0.90991 -6.41726,-2.72973 -2.05927,-1.86771 -2.05927,-4.789 0,-3.54386 2.72973,-5.50735 2.72973,-2.01138 7.61451,-2.01138 4.83689,0 7.71029,1.96349 2.8734,1.9156 3.16074,5.36368 h -6.41726 q -0.19156,-1.24514 -1.34092,-1.86771 -1.14936,-0.67046 -3.25652,-0.67046 -1.9156,0 -2.8734,0.57468 -0.90991,0.52679 -0.90991,1.53248 0,0.86202 0.76624,1.38881 0.76624,0.4789 2.53817,0.86202 l 4.40588,0.90991 q 3.68753,0.76624 5.55524,2.8734 1.9156,2.05927 1.9156,4.88478 0,3.59175 -2.82551,5.60313 -2.77762,1.96349 -7.90185,1.96349 z" />
  <path style="fill:none;stroke:#f15;stroke-width:8;stroke-linecap:round" d="M 34,57 A 20,16 0 0 1 4,57" id="path1" />
</svg>