<?xml version="1.0" encoding="UTF-8" standalone="no"?>
<svg xmlns="http://www.w3.org/2000/svg" viewBox="0 0 72 72">
  <path aria-label="Ok" fill="currentColor"
    d="m 22.482439,52.359702 q -3.8312,0 -7.08772,-1.29303 -3.20863,-1.29303 -5.6031302,-3.63964 -2.34661,-2.3945 -3.68753,-5.65102 -1.29303,-3.30441 -1.29303,-7.27928 0,-5.2679 2.25083,-9.19488 2.25083,-3.974869 6.2257002,-6.177809 4.02276,-2.20294 9.14699,-2.20294 5.22001,0 9.194879,2.20294 3.97487,2.20294 6.2257,6.177809 2.29872,3.97487 2.29872,9.24277 0,3.92698 -1.34092,7.23139 -1.29303,3.25652 -3.68753,5.65102 -2.34661,2.34661 -5.603129,3.63964 -3.20863,1.29303 -7.03983,1.29303 z m -0.04789,-5.84258 q 3.01707,0 5.31579,-1.53248 2.29872,-1.53248 3.591749,-4.21432 1.34092,-2.72973 1.34092,-6.32148 0,-3.54386 -1.29303,-6.17781 -1.293029,-2.63395 -3.591749,-4.070649 -2.29872,-1.4367 -5.36368,-1.4367 -3.01707,0 -5.31579,1.4367 -2.29872,1.436699 -3.59175,4.070649 -1.24514,2.58606 -1.24514,6.17781 0,3.63964 1.29303,6.36937 1.29303,2.68184 3.59175,4.21432 2.29872,1.48459 5.2679,1.48459 z m 22.029416,5.36368 V 17.400003 h 7.1835 v 34.480799 z m 15.66003,0 -10.15268,-12.69085 9.91323,-11.73305 h 8.28497 l -11.63727,12.83452 0.33523,-2.25083 11.78094,13.84021 z" />
  <path style="fill:none;stroke:#f15;stroke-width:8;stroke-linecap:round" d="m 37.5,57 a 20,16 0 0 1 -30,0" />
</svg>