<svg xmlns="http://www.w3.org/2000/svg" viewBox="0 0 48 48"><path fill="#004482" d="M25.445 42.39l13.766-7.94c.398-.227.762-.626 1.012-1.075L24 24.008 7.777 33.375c.262.45.621.848 1.012 1.074l13.777 7.942c.79.457 2.086.457 2.88 0zm0 0"/><path fill="#659AD2" d="M40.223 14.633c-.262-.45-.621-.848-1.012-1.07L25.445 5.609c-.793-.457-2.09-.457-2.89 0L8.8 13.563c-.793.457-1.446 1.578-1.446 2.496v15.894c0 .457.168.965.422 1.422L24 24.008zm0 0"/><path fill="none" stroke-width="5.560919999999999" stroke="#FFF" d="M32.438 23.953a8.386 8.386 0 01-8.391 8.387 8.385 8.385 0 01-8.387-8.387 8.386 8.386 0 018.387-8.39 8.387 8.387 0 018.39 8.39zm0 0"/><path fill="#00599C" d="M40.223 33.375c.265-.45.422-.965.422-1.422V16.066c0-.457-.168-.972-.422-1.433L24 24.008zm0 0"/><path stroke-width="1.2682799999999999" stroke="#FFF" d="M33.27 22.098v3.804m-1.903-1.855h3.805m2.683-1.95v3.805m-1.902-1.855h3.805"/></svg>