<?xml version="1.0" encoding="UTF-8"?>
<svg version="1.1" viewBox="0 0 48 48" xmlns="http://www.w3.org/2000/svg">
 <path d="m7.2 0h33.6c3.978 0 7.2 3.223 7.2 7.2v33.6c0 3.977-3.223 7.2-7.2 7.2h-33.6a7.199 7.199 0 0 1-7.2-7.2v-33.6c0-3.978 3.223-7.2 7.2-7.2z" fill="#fff"/>
 <path d="M8.719 22.086c-.07 0-.09-.035-.055-.086l.367-.477c.035-.05.125-.085.196-.085h6.257c.067 0 .086.05.051.105l-.297.457c-.035.05-.125.105-.175.105zm0 0M6.07 23.707c-.07 0-.086-.035-.054-.09l.37-.472c.036-.055.122-.09.192-.09h7.992c.07 0 .106.054.09.105l-.14.422c-.02.07-.09.105-.16.105zm0 0M10.313 25.324c-.07 0-.09-.05-.055-.105l.246-.438c.035-.054.105-.11.176-.11h3.504c.07 0 .105.056.105.126l-.035.422c0 .07-.07.125-.121.125zm0 0M28.504 21.77c-1.102.28-1.856.492-2.942.777-.265.07-.28.086-.507-.18-.266-.297-.457-.492-.825-.668-1.105-.543-2.175-.387-3.175.266-1.192.773-1.805 1.918-1.785 3.344.015 1.406.98 2.566 2.367 2.761 1.191.157 2.187-.265 2.976-1.164.16-.191.301-.402.473-.648h-3.383c-.367 0-.453-.23-.332-.528.23-.546.649-1.46.895-1.918a.476.476 0 01.437-.28h6.383c-.035.472-.035.948-.106 1.425a7.554 7.554 0 01-1.437 3.445c-1.262 1.672-2.91 2.711-4.996 2.993-1.719.23-3.313-.106-4.715-1.16-1.297-.989-2.035-2.29-2.227-3.907-.226-1.918.332-3.64 1.489-5.156 1.246-1.637 2.894-2.672 4.91-3.043 1.648-.3 3.223-.106 4.644.863.93.613 1.594 1.461 2.032 2.48.105.157.035.247-.176.298zm0 0" fill="#00ACD7"/>
 <path d="M34.309 31.5c-1.598-.035-3.051-.492-4.278-1.547-1.035-.898-1.683-2.043-1.894-3.398-.317-1.989.23-3.746 1.422-5.313 1.277-1.687 2.82-2.566 4.906-2.937 1.789-.317 3.472-.14 4.996.898 1.383.95 2.242 2.235 2.473 3.922.296 2.375-.387 4.313-2.016 5.965-1.16 1.18-2.578 1.918-4.207 2.25-.473.09-.95.105-1.402.16zm4.171-7.11c-.02-.226-.02-.402-.054-.578-.317-1.742-1.91-2.726-3.574-2.34-1.63.368-2.684 1.407-3.067 3.06-.316 1.374.348 2.765 1.61 3.327.964.422 1.93.368 2.859-.105 1.383-.723 2.137-1.848 2.226-3.363zm0 0" fill="#00ACD7"/>
</svg>
