<svg xmlns="http://www.w3.org/2000/svg" viewBox="0 0 48 48"><path fill="#FFF" d="M7.2 0h33.6C44.778 0 48 3.223 48 7.2v33.6c0 3.977-3.223 7.2-7.2 7.2H7.2A7.199 7.199 0 010 40.8V7.2C0 3.222 3.223 0 7.2 0zm0 0"/><path fill="#F8981D" d="M25.688 22.031c1.687 1.969-.47 3.75-.47 3.75s4.407-2.25 2.345-5.062c-2.063-2.813-3.282-3.938 4.5-8.438 0-.094-12.282 3-6.376 9.75M27.563 4.97s3.75 3.75-3.562 9.375c-5.813 4.594-1.313 7.219 0 10.219-3.375-3.094-5.906-5.72-4.219-8.25 2.532-3.75 9.282-5.532 7.782-11.344"/><path fill="#5382A1" d="M19.313 32.531s-1.407.75.937 1.032c2.344.28 4.313.28 7.406-.282.63.367 1.29.68 1.969.938-6.938 3-15.844-.094-10.313-1.688m-.843-3.937s-1.5 1.125.843 1.406c2.344.281 5.438.375 9.563-.469.43.414.938.735 1.5.938-8.531 2.437-18 .187-11.906-1.875m16.406 6.843s1.031.844-1.125 1.5c-4.031 1.22-16.781 1.594-20.344.094-1.312-.562 1.406-1.593 3.094-1.593-1.594-.938-9.188 1.968-3.938 2.812 14.344 2.25 26.063-1.125 22.313-2.813M19.969 24.563s-6.469 1.5-2.344 2.062c1.781.281 5.344.188 8.625-.094 3.281-.281 5.344-.75 5.344-.75-.551.239-1.086.52-1.594.844-6.563 1.688-19.313.938-15.656-.844C18 24 19.969 24.563 19.969 24.563m11.625 6.468c6.843-3.468 3.656-7.5.656-6.187 3.375-2.813 9.469 3.375-.844 6.375v-.188M20.625 40.5c6.469.375 16.313-.188 16.5-3.281 0 0-.469 1.125-5.344 2.062-4.875.938-12.281.938-16.312.282.094 0 .937.656 5.156.937"/></svg>