<svg xmlns="http://www.w3.org/2000/svg" viewBox="0 0 48 48">
  <path
    d="m7.1973 0h33.605a7.2 7.2 0 0 1 7.1973 7.1973v33.605a7.2 7.2 0 0 1-7.1973 7.1973h-33.605a7.2 7.2 0 0 1-7.1973-7.1973v-33.605a7.2 7.2 0 0 1 7.1973-7.1973z"
    fill="#f7df1e" stroke-width="1.3333" />
  <path
    d="m30.375 34.688c0.93733 1.5933 2.2507 2.7187 4.4067 2.7187 1.8747 0 3.0933-0.93733 3.0933-2.2507 0-1.5-1.2187-2.0627-3.28-3l-1.1253-0.468c-3.2813-1.4067-5.4387-3.0933-5.4387-6.7507 0-3.3747 2.532-6 6.5627-6 2.9067 0 4.9693 1.032 6.376 3.656l-3.4693 2.2507c-0.75067-1.4067-1.5933-1.9693-2.9067-1.9693-1.312 0-2.156 0.844-2.156 1.9693 0 1.312 0.844 1.8747 2.8133 2.7187l1.124 0.468c3.844 1.688 6 3.2813 6 7.1253 0 4.032-3.1867 6.2813-7.5 6.2813-4.2187 0-6.9373-1.968-8.2493-4.5933zm-15.937 0.37333c0.75067 1.22 1.3133 2.3453 2.9067 2.3453 1.5 0 2.4373-0.56267 2.4373-2.8133v-15.563h4.5v15.376c0 4.6867-2.72 6.7493-6.7507 6.7493-3.656 0-5.7187-1.8747-6.7493-4.1253z"
    stroke-width="1.3333" />
</svg>