<svg xmlns="http://www.w3.org/2000/svg" viewBox="0 0 48 48"><path fill="#777BB3" d="M7.2 0h33.6C44.778 0 48 3.223 48 7.2v33.6c0 3.977-3.223 7.2-7.2 7.2H7.2A7.199 7.199 0 010 40.8V7.2C0 3.222 3.223 0 7.2 0zm0 0"/><path stroke-width=".375" stroke="#FFF" d="M14.531 18.938H9.094a.283.283 0 00-.281.187L6.28 32.344c0 .281.282.281.282.281h2.812c.281 0 .281-.188.281-.188l.656-3.28h2.532c3.937 0 5.906-2.626 6.375-4.97.468-2.343.093-5.25-4.688-5.25zM15.75 24c-.375 1.781-1.594 2.531-3.281 2.531H10.78l1.031-4.968H13.5c2.531 0 2.438.937 2.25 2.437zm0 0M25.781 29.156c-.375 0-.281-.375-.281-.375l1.125-5.718c0-.75.563-1.5-1.688-1.407H23.25l-1.406 7.313s0 .281-.375.281H18.75c-.281 0-.281-.281-.281-.281l2.625-13.219s0-.188.375-.188h2.812c.282 0 .188.282.188.282l-.657 3.187h2.438c3.375 0 4.219 1.594 3.938 3.469l-1.22 6.469s0 .281-.468.281zm0 0M36.938 18.938H31.5a.283.283 0 00-.281.187l-2.532 13.219c0 .281.282.281.282.281h2.812c.282 0 .282-.188.282-.188l.656-3.28h2.531c3.938 0 5.906-2.626 6.375-4.97.469-2.343.094-5.25-4.688-5.25zM38.156 24c-.375 1.781-1.593 2.531-3.281 2.531h-1.688l1.032-4.968h1.687c2.532 0 2.438.937 2.25 2.437zm0 0"/></svg>