<svg xmlns="http://www.w3.org/2000/svg" viewBox="0 0 48 48"><path fill="#5A9FD4" d="M23.813 6c-1.5 0-2.907.094-4.125.375-3.657.656-4.313 1.969-4.313 4.406v3.281H24v1.126H12.187c-2.53 0-4.687 1.5-5.437 4.312-.75 3.281-.75 5.344 0 8.719.656 2.625 2.156 4.406 4.594 4.406h3v-3.938c0-2.812 2.437-5.343 5.344-5.343h8.53a4.301 4.301 0 004.313-4.313v-8.25c0-2.25-1.968-4.031-4.312-4.406-1.407-.281-3-.375-4.407-.375zm-4.688 2.625c.938 0 1.594.75 1.594 1.688a1.58 1.58 0 01-1.594 1.593c-.844 0-1.594-.75-1.594-1.594 0-.937.75-1.687 1.594-1.687zm0 0"/><path fill="#FFD43B" d="M24.188 41.813c1.5 0 2.906-.094 4.125-.376 3.656-.656 4.312-1.968 4.312-4.406V33.75H24v-1.125h11.813c2.53 0 4.687-1.5 5.437-4.313.75-3.28.75-5.343 0-8.718-.656-2.625-2.156-4.407-4.594-4.407h-3v3.938c0 2.813-2.437 5.344-5.343 5.344H19.78a4.301 4.301 0 00-4.312 4.312v8.25c0 2.25 1.969 4.032 4.312 4.407 1.407.28 3 .374 4.407.374zm4.687-2.626c-.938 0-1.594-.75-1.594-1.687a1.58 1.58 0 011.594-1.594c.844 0 1.594.75 1.594 1.594 0 .938-.75 1.688-1.594 1.688zm0 0"/></svg>