<svg xmlns="http://www.w3.org/2000/svg" viewBox="0 0 48 48"><path fill="#FFF" d="M7.2 0h33.6C44.778 0 48 3.223 48 7.2v33.6c0 3.977-3.223 7.2-7.2 7.2H7.2A7.199 7.199 0 010 40.8V7.2C0 3.222 3.223 0 7.2 0zm0 0"/><path fill="#A00403" d="M38.223 37.246l1.957-24.16-7.555 14.758L14.25 38.906c7.586-.535 16.05-1.117 23.973-1.66zm0 0"/><path fill="#B11205" d="M39.695 16.781L30 9.188l-2.531 8.718c10.293.871 8.605-.898 12.226-1.125zM18 26.438l12.75 4.03-3.281-12.562zm-8.344 1.78c4.125 13.032 5.156 15.845 8.344-1.78l-8.438 1.968zM25.875 6.376l9.094.094L30 9.187c-1.031-.656-3.375-2.25-4.125-2.812zM7.969 23.063l-.375 9.28 2.156-4.03zM27.937 7.969c2.438 2.437-.093 8.343-4.968 13.125-4.875 4.781-11.063 7.781-13.5 5.343-2.344-2.43.066-8.437 4.96-13.218 4.891-4.781 11.173-7.688 13.516-5.25zm0 0"/><path fill="#9F0D02" d="M18 26.438l12.469 4.03c-4.5 4.22-12.89 8.11-16.219 8.438zm0 0"/><path fill="#891102" d="M27.469 17.906l3.093 12.469c3.75-3.938 7.125-8.25 8.813-13.5zm10.754 19.34L36.28 22.97l-5.718 7.406zm0 0"/><path fill="#AA1401" d="M39.469 16.969c1.218-3.844 1.5-9.469-4.5-10.5L30 9.187zm0 0"/><path fill="#9E1209" d="M7.594 32.344c.187 6.375 4.687 6.468 6.656 6.562L9.656 28.313zm0 0"/><path fill="#900E04" d="M18 26.438l5.063 9.656c3-1.594 5.343-3.563 7.406-5.719zm0 0"/><path fill="#8B1104" d="M9.656 28.313l-.75 8.53c1.313 1.876 3.188 1.97 5.156 1.876-1.406-3.469-4.218-10.5-4.406-10.407zm0 0"/></svg>