<svg xmlns="http://www.w3.org/2000/svg" viewBox="0 0 48 48"><path fill="#C69" d="M7.2 0h33.6C44.778 0 48 3.223 48 7.2v33.6c0 3.977-3.223 7.2-7.2 7.2H7.2A7.199 7.199 0 010 40.8V7.2C0 3.222 3.223 0 7.2 0zm0 0"/><path fill="#FFF" d="M24.188 8.25c-9 3.094-14.813 9.375-14.25 13.125.562 3.75 6.187 6.75 8.718 8.719-3.281 1.687-7.406 4.218-7.312 7.5.187 4.5 5.062 3.093 7.125 1.781 2.062-1.313 4.125-4.969 2.812-8.813 2.907-.75 5.438.188 6.188.75 2.906 2.063 1.406 4.407.375 4.782-1.032.375-.375.562.281.375.656-.188 2.063-1.125 2.063-2.719 0-4.031-4.313-5.906-9.657-4.5-3.093-3.281-7.312-4.781-7.125-8.344.094-1.312.563-4.687 8.906-8.906 8.344-4.219 14.25-2.531 13.5 1.313-1.124 5.812-11.25 9.75-14.812 6.374-.188-.375-.844-.656-.469.375 1.875 4.688 17.063 2.532 17.719-7.406.188-5.25-7.406-6.656-14.063-4.406zm-8.063 30c-2.344.75-2.25-.75-2.156-1.313.281-1.593 1.594-3.562 5.531-5.53 1.125 3.562-1.406 6.28-3.375 6.843zm0 0"/></svg>