<svg xmlns="http://www.w3.org/2000/svg" viewBox="0 0 48 48"><path fill="#3178C6" d="M7.2 0h33.6C44.778 0 48 3.223 48 7.2v33.6c0 3.977-3.223 7.2-7.2 7.2H7.2A7.199 7.199 0 010 40.8V7.2C0 3.222 3.223 0 7.2 0zm0 0"/><path fill="#FFF" d="M21.844 26.625h6v-3.844H11.062v3.844h6v17.156h4.782zm7.875 16.219c1.691.863 3.965 1.172 6 1.172 1.754 0 4.023-.227 5.812-1.352.758-.496 1.407-1.125 1.782-1.969.374-.843.664-1.78.664-3-.008-3.855-2.747-5.136-5.446-6.375-1.226-.554-3.984-1.457-3.984-3.195 0-1.402 1.574-2.113 3.582-2.117 1.562 0 3.664.508 4.969 1.465v-4.407c-1.762-.675-3.606-.8-5.25-.804-4.618 0-8.22 1.902-8.25 6.261.047 3.29 1.996 4.727 4.875 6.094 1.566.707 4.457 1.617 4.48 3.582-.07 1.832-2.305 2.114-3.601 2.125-2.02 0-4.157-.765-5.633-1.98zm0 0"/></svg>