<svg xmlns="http://www.w3.org/2000/svg" viewBox="0 0 48 48"><path fill="#FFF" d="M7.2 0h33.6C44.778 0 48 3.223 48 7.2v33.6c0 3.977-3.223 7.2-7.2 7.2H7.2A7.199 7.199 0 010 40.8V7.2C0 3.222 3.223 0 7.2 0zm0 0"/><path d="M6 24h36v12.75A5.251 5.251 0 0136.75 42h-25.5A5.251 5.251 0 016 36.75"/><path fill="#FFB13B" stroke-width="2.390625" stroke="#000" d="M27.188 16.313v-2.625a4.034 4.034 0 00-.461-5.438 4.027 4.027 0 00-5.454 0 4.034 4.034 0 00-.46 5.438v2.624l-1.876-1.875a4.03 4.03 0 10-4.5 4.5l1.875 1.875h-2.625a4.034 4.034 0 00-5.437.461 4.027 4.027 0 000 5.454 4.034 4.034 0 005.437.46h2.625l-1.875 1.875a4.03 4.03 0 104.5 4.5l1.875-1.874v2.625a4.034 4.034 0 00.461 5.437 4.027 4.027 0 005.454 0 4.034 4.034 0 00.46-5.438v-2.624l1.875 1.875a4.03 4.03 0 104.5-4.5l-1.874-1.875h2.625a4.034 4.034 0 005.437-.461 4.027 4.027 0 000-5.454 4.034 4.034 0 00-5.438-.46h-2.624l1.875-1.876a4.03 4.03 0 10-4.5-4.5zm0 0"/><path fill-opacity=".851" d="M8.156 24H39.75v15.656H8.156"/><path fill="none" stroke-width="2.71875" stroke="#FFF" d="M11.344 36.281a3.28 3.28 0 002.281 3.125 3.285 3.285 0 003.676-1.222 3.289 3.289 0 00-.051-3.872c-1.781-2.156-3.469-.468-5.25-2.625a3.289 3.289 0 01-.05-3.87 3.285 3.285 0 013.675-1.223 3.28 3.28 0 012.281 3.125m2.719-5.157L24 40.687l3.375-16.125m9.187 5.157a3.28 3.28 0 10-6.562 0v6.562a3.28 3.28 0 106.563 0V33H33.28"/><path fill="#271B09" d="M9.281 24.188h19.5v.843h-19.5"/></svg>