<svg fill="currentColor" xmlns="http://www.w3.org/2000/svg" viewBox="0 96 960 960"><path d="M780 976H596q-12.75 0-21.375-8.675-8.625-8.676-8.625-21.5 0-12.825 8.625-21.325T596 916h184V486H180v190q0 12.75-8.675 21.375-8.676 8.625-21.5 8.625-12.825 0-21.325-8.625T120 676V296q0-24 18-42t42-18h65v-28q0-13.6 9.2-22.8 9.2-9.2 22.8-9.2 14.025 0 23.513 9.2Q310 194.4 310 208v28h340v-28q0-13.6 9.2-22.8 9.2-9.2 22.8-9.2 14.025 0 23.513 9.2Q715 194.4 715 208v28h65q24 0 42 18t18 42v620q0 24-18 42t-42 18Zm-389-90H80q-12.75 0-21.375-8.675Q50 868.649 50 855.825 50 843 58.625 834.5T80 826h311l-92-93q-8-9-8.5-21.1-.5-12.1 8.5-20.9 9-9 21-9t21 9l144 144q9 9 9 21t-9 21l-144 144q-9 9-21 9t-21-9q-9-9-9-21t9-21l92-93ZM180 426h600V296H180v130Zm0 0V296v130Z"/></svg>