<svg fill="currentColor" xmlns="http://www.w3.org/2000/svg" viewBox="0 96 960 960"><path d="M180 976q-24 0-42-18t-18-42V296q0-24 18-42t42-18h65v-28q0-13.6 9.2-22.8 9.2-9.2 22.8-9.2 14.025 0 23.513 9.2Q310 194.4 310 208v28h340v-28q0-13.6 9.2-22.8 9.2-9.2 22.8-9.2 14.025 0 23.513 9.2Q715 194.4 715 208v28h65q24 0 42 18t18 42v271q0 12.75-8.675 21.375-8.676 8.625-21.5 8.625-12.825 0-21.325-8.625T780 567v-81H180v430h289q12.75 0 21.375 8.675 8.625 8.676 8.625 21.5 0 12.825-8.625 21.325T469 976H180Zm709-219-71-71 29-29q8.311-8 21.156-8Q881 649 889 657l29 29q8 8.311 8 21.156Q926 720 918 728l-29 29Zm-271 259h-44q-6 0-10.5-4.5T559 1001v-44q0-5.565 2-10.783Q563 941 568 936l207-207 71 71-207 207q-5 5-10.217 7-5.218 2-10.783 2Z"/></svg>